<?xml version="1.0" encoding="utf-8"?>
<!-- Generator: Adobe Illustrator 17.0.0, SVG Export Plug-In . SVG Version: 6.00 Build 0)  -->
<!DOCTYPE svg PUBLIC "-//W3C//DTD SVG 1.1//EN" "http://www.w3.org/Graphics/SVG/1.1/DTD/svg11.dtd">
<svg version="1.1" id="Слой_1" xmlns="http://www.w3.org/2000/svg" xmlns:xlink="http://www.w3.org/1999/xlink" x="0px" y="0px"
	 width="40.224px" height="42.985px" viewBox="0 0 40.224 42.985" enable-background="new 0 0 40.224 42.985" xml:space="preserve" fill="#ffffff">
<g >
	<g>
		<path d="M1.947,28.543C0.874,28.543,0,29.417,0,30.491s0.874,1.947,1.947,1.947s1.947-0.874,1.947-1.947
			S3.021,28.543,1.947,28.543z M1.947,31.438C1.425,31.438,1,31.013,1,30.491s0.425-0.947,0.947-0.947s0.947,0.425,0.947,0.947
			S2.47,31.438,1.947,31.438z"/>
		<path d="M25.885,5.728c1.58,0,2.864-1.285,2.864-2.864C28.75,1.285,27.465,0,25.885,0s-2.864,1.285-2.864,2.864
			C23.021,4.443,24.306,5.728,25.885,5.728z M25.885,1c1.028,0,1.864,0.836,1.864,1.864s-0.836,1.864-1.864,1.864
			s-1.864-0.836-1.864-1.864S24.857,1,25.885,1z"/>
		<path d="M39.835,8.686l-2.125-1.163c-0.087-0.047-0.233-0.194-0.281-0.281l-1.162-2.125c-0.266-0.486-0.952-0.485-1.217,0
			l-1.163,2.125c-0.047,0.087-0.194,0.233-0.281,0.281l-2.126,1.163c-0.243,0.133-0.388,0.36-0.388,0.608
			c0,0.248,0.145,0.475,0.388,0.608l2.125,1.163c0.087,0.047,0.233,0.194,0.281,0.281l1.163,2.126
			c0.133,0.243,0.36,0.388,0.608,0.388c0.248,0,0.475-0.145,0.608-0.388l1.163-2.125c0.047-0.087,0.194-0.233,0.281-0.281
			l2.125-1.162c0.243-0.133,0.389-0.36,0.389-0.608C40.224,9.045,40.078,8.818,39.835,8.686z M37.23,10.187
			c-0.254,0.139-0.54,0.425-0.679,0.679L35.658,12.5l-0.894-1.633c-0.139-0.254-0.425-0.54-0.679-0.679l-1.633-0.894L34.085,8.4
			c0.254-0.139,0.54-0.425,0.679-0.679l0.894-1.633l0.894,1.633c0.139,0.254,0.425,0.54,0.679,0.679l1.633,0.894L37.23,10.187z"/>
		<path d="M10.143,39.375l-1.339-0.733c-0.029-0.017-0.088-0.077-0.106-0.105l-0.733-1.341c-0.233-0.427-0.858-0.427-1.091,0
			l-0.733,1.339c-0.018,0.03-0.078,0.09-0.104,0.106l-1.341,0.733c-0.214,0.117-0.341,0.321-0.341,0.546s0.127,0.429,0.341,0.545
			l1.339,0.732c0.029,0.018,0.089,0.078,0.106,0.105l0.733,1.341c0.117,0.213,0.321,0.341,0.546,0.341
			c0.225,0,0.429-0.127,0.545-0.341l0.733-1.34c0.018-0.029,0.077-0.088,0.104-0.105l1.34-0.732
			c0.214-0.116,0.342-0.321,0.342-0.546S10.356,39.49,10.143,39.375z M8.322,40.322c-0.191,0.105-0.398,0.312-0.501,0.502
			l-0.402,0.734l-0.402-0.735c-0.104-0.19-0.31-0.396-0.501-0.501L5.781,39.92l0.735-0.402c0.19-0.104,0.396-0.311,0.5-0.501
			l0.402-0.734l0.401,0.733c0.104,0.191,0.311,0.398,0.502,0.503l0.734,0.402L8.322,40.322z"/>
		<path d="M36.366,21.062l-1.937-0.755l-1.12-2.704c-0.462-1.117-1.771-1.992-2.98-1.992h-3.076v-1.633v-0.642
			c0-1.28-1.042-2.322-2.322-2.322H9.851c-1.28,0-2.322,1.042-2.322,2.322v16.781c0,1.28,1.042,2.322,2.322,2.322h1.157
			c0.247,1.775,1.758,3.15,3.6,3.15s3.353-1.376,3.6-3.15h10.7c0.247,1.775,1.758,3.15,3.6,3.15c1.843,0,3.356-1.378,3.6-3.155
			c1.258-0.026,2.274-1.053,2.274-2.317v-6.105C38.382,22.798,37.496,21.502,36.366,21.062z M30.329,16.611
			c0.807,0,1.749,0.629,2.057,1.375l0.919,2.22h-6.051v-3.594H30.329z M9.851,12.014h15.08c0.729,0,1.322,0.593,1.322,1.322v0.642
			v2.633v10.195c0,0.276,0.224,0.5,0.5,0.5s0.5-0.224,0.5-0.5v-5.601h6.727l2.023,0.789c0.748,0.292,1.379,1.215,1.379,2.017v0.322
			h-1.724c-0.276,0-0.5,0.224-0.5,0.5s0.224,0.5,0.5,0.5h1.724v3.77h-2.605c-0.625-0.502-1.408-0.814-2.27-0.814
			s-1.645,0.313-2.27,0.814h-13.36c-0.625-0.502-1.408-0.814-2.27-0.814c-0.87,0-1.659,0.318-2.286,0.828
			c-0.023-0.003-0.044-0.014-0.068-0.014H8.529v-3.77h1.725c0.276,0,0.5-0.224,0.5-0.5s-0.224-0.5-0.5-0.5H8.529V13.335
			C8.529,12.606,9.122,12.014,9.851,12.014z M28.907,31.438h-10.7c-0.067-0.483-0.226-0.932-0.463-1.336h11.626
			C29.133,30.506,28.974,30.955,28.907,31.438z M8.529,30.116v-0.014h2.942c-0.237,0.404-0.396,0.853-0.463,1.336H9.851
			C9.122,31.438,8.529,30.845,8.529,30.116z M14.607,34.588c-1.461,0-2.65-1.189-2.65-2.65s1.189-2.65,2.65-2.65
			s2.65,1.189,2.65,2.65S16.069,34.588,14.607,34.588z M32.507,34.588c-1.461,0-2.65-1.189-2.65-2.65s1.189-2.65,2.65-2.65
			s2.65,1.189,2.65,2.65S33.969,34.588,32.507,34.588z M36.106,31.429c-0.068-0.479-0.227-0.926-0.462-1.327h1.738v0.014
			C37.382,30.829,36.813,31.403,36.106,31.429z"/>
		<path d="M11.92,15.464h10.704c0.276,0,0.5-0.224,0.5-0.5s-0.224-0.5-0.5-0.5H11.92c-0.276,0-0.5,0.224-0.5,0.5
			S11.644,15.464,11.92,15.464z"/>
		<path d="M19.141,18.935c-0.763,0-1.435,0.369-1.869,0.931c-0.434-0.562-1.106-0.931-1.869-0.931c-1.306,0-2.369,1.063-2.369,2.369
			c0,2.239,3.52,5.301,4.238,5.301s4.238-3.062,4.238-5.301C21.51,19.998,20.447,18.935,19.141,18.935z M17.272,25.562
			c-0.734-0.441-3.238-2.699-3.238-4.258c0-0.755,0.614-1.369,1.369-1.369s1.369,0.614,1.369,1.369c0,0.276,0.224,0.5,0.5,0.5
			s0.5-0.224,0.5-0.5c0-0.755,0.614-1.369,1.369-1.369s1.369,0.614,1.369,1.369C20.51,22.863,18.006,25.12,17.272,25.562z"/>
	</g>
</g>
</svg>
