<?xml version="1.0" encoding="utf-8"?>
<!-- Generator: Adobe Illustrator 17.0.0, SVG Export Plug-In . SVG Version: 6.00 Build 0)  -->
<!DOCTYPE svg PUBLIC "-//W3C//DTD SVG 1.1//EN" "http://www.w3.org/Graphics/SVG/1.1/DTD/svg11.dtd">
<svg version="1.1" id="Слой_1" xmlns="http://www.w3.org/2000/svg" xmlns:xlink="http://www.w3.org/1999/xlink" x="0px" y="0px"
	 width="12.964px" height="18.567px" viewBox="0 0 12.964 18.567" enable-background="new 0 0 12.964 18.567" xml:space="preserve">
<g>
	<g>
		<path d="M6.482,14.733c-1.52,0-5.951-5.645-5.951-8.782C0.531,2.67,3.201,0,6.482,0s5.951,2.67,5.951,5.951
			C12.433,9.089,8.002,14.733,6.482,14.733z M6.482,1c-2.73,0-4.951,2.221-4.951,4.951c0,2.731,4.014,7.567,4.951,7.78
			c0.937-0.212,4.951-5.048,4.951-7.78C11.433,3.221,9.212,1,6.482,1z"/>
	</g>
	<g>
		<path d="M6.482,9.344c-1.871,0-3.393-1.521-3.393-3.393s1.522-3.393,3.393-3.393S9.875,4.08,9.875,5.951S8.353,9.344,6.482,9.344z
			 M6.482,3.559c-1.319,0-2.393,1.073-2.393,2.393s1.073,2.393,2.393,2.393s2.393-1.073,2.393-2.393S7.801,3.559,6.482,3.559z"/>
	</g>
	<g>
		<path d="M12.464,18.567H0.5c-0.276,0-0.5-0.224-0.5-0.5s0.224-0.5,0.5-0.5h11.964c0.276,0,0.5,0.224,0.5,0.5
			S12.74,18.567,12.464,18.567z"/>
	</g>
</g>
</svg>
