<?xml version="1.0" encoding="utf-8"?>
<!-- Generator: Adobe Illustrator 17.0.0, SVG Export Plug-In . SVG Version: 6.00 Build 0)  -->
<!DOCTYPE svg PUBLIC "-//W3C//DTD SVG 1.1//EN" "http://www.w3.org/Graphics/SVG/1.1/DTD/svg11.dtd">
<svg version="1.1" id="Слой_1" xmlns="http://www.w3.org/2000/svg" xmlns:xlink="http://www.w3.org/1999/xlink" x="0px" y="0px"
	 width="10.159px" height="10.159px" viewBox="0 0 10.159 10.159" enable-background="new 0 0 10.159 10.159" xml:space="preserve">
<path fill="#F7F5F5" d="M6.14,5.08L9.939,1.28c0.293-0.293,0.293-0.768,0-1.061s-0.768-0.293-1.061,0L5.08,4.019L1.28,0.22
	c-0.293-0.293-0.768-0.293-1.061,0s-0.293,0.768,0,1.061L4.019,5.08L0.22,8.879c-0.293,0.293-0.293,0.768,0,1.061
	c0.146,0.146,0.338,0.22,0.53,0.22s0.384-0.073,0.53-0.22L5.08,6.14l3.799,3.799c0.146,0.146,0.338,0.22,0.53,0.22
	s0.384-0.073,0.53-0.22c0.293-0.293,0.293-0.768,0-1.061L6.14,5.08z"/>
</svg>
