<?xml version="1.0" encoding="utf-8"?>
<!-- Generator: Adobe Illustrator 17.0.0, SVG Export Plug-In . SVG Version: 6.00 Build 0)  -->
<!DOCTYPE svg PUBLIC "-//W3C//DTD SVG 1.1//EN" "http://www.w3.org/Graphics/SVG/1.1/DTD/svg11.dtd">
<svg version="1.1" id="Слой_1" xmlns="http://www.w3.org/2000/svg" xmlns:xlink="http://www.w3.org/1999/xlink" x="0px" y="0px"
	 width="441.426px" height="901.327px" viewBox="0 0 441.426 901.327" enable-background="new 0 0 441.426 901.327"
	 xml:space="preserve">
<g>
	<path fill-rule="evenodd" clip-rule="evenodd" fill="#F7F5F5" d="M0.363,855.17c9.085,67.427,33.384,43.916,46.92,34.096
		c25.361-18.392,31.987-80.983-36.11-56.77C2.047,835.74-1.16,843.851,0.363,855.17z"/>
	<path fill-rule="evenodd" clip-rule="evenodd" fill="#F7F5F5" d="M88.332,550.394c-104.392,101.269,85.814,139.863,55.108-4.296
		C137.893,520.054,95.631,543.313,88.332,550.394z"/>
	<path fill-rule="evenodd" clip-rule="evenodd" fill="#F7F5F5" d="M340.001,414.407c-51.27,9.944-72.11,135.588,12.606,86.491
		C390.586,478.888,423.164,398.278,340.001,414.407z"/>
	<path fill-rule="evenodd" clip-rule="evenodd" fill="#F7F5F5" d="M283.415,717.128c-46.074,85.372,9.33,95.277,50.142,79.966
		c30.052-11.279,33.596-41.503,9.29-81.018C324.107,685.605,288.066,708.508,283.415,717.128z"/>
	<path fill-rule="evenodd" clip-rule="evenodd" fill="#F7F5F5" d="M382.514,3.862c-47.972,56.861,37.878,93.349,56.747,47.571
		C453.339,17.272,394.613-10.476,382.514,3.862z"/>
</g>
</svg>
