<?xml version="1.0" encoding="utf-8"?>
<!-- Generator: Adobe Illustrator 17.0.0, SVG Export Plug-In . SVG Version: 6.00 Build 0)  -->
<!DOCTYPE svg PUBLIC "-//W3C//DTD SVG 1.1//EN" "http://www.w3.org/Graphics/SVG/1.1/DTD/svg11.dtd">
<svg version="1.1" id="Слой_1" xmlns="http://www.w3.org/2000/svg" xmlns:xlink="http://www.w3.org/1999/xlink" x="0px" y="0px"
	 width="19.23px" height="16.2px" viewBox="0 0 19.23 16.2" enable-background="new 0 0 19.23 16.2" xml:space="preserve">
<path fill="#D4D4D4" d="M17.995,0.063L0.408,6.917c-0.57,0.222-0.535,1.039,0.051,1.213l4.469,1.32l1.668,5.292
	c0.174,0.553,0.875,0.72,1.28,0.306l2.311-2.359l4.534,3.328c0.555,0.407,1.345,0.105,1.486-0.569L19.21,1.091
	C19.357,0.388,18.665-0.198,17.995,0.063z M15.791,3.249l-8.169,7.224c-0.081,0.072-0.133,0.172-0.145,0.28l-0.315,2.796
	c-0.01,0.091-0.138,0.103-0.165,0.016l-1.294-4.17C5.643,9.204,5.72,8.997,5.89,8.892l9.647-5.983
	C15.759,2.771,15.986,3.076,15.791,3.249z"/>
</svg>
