<?xml version="1.0" encoding="utf-8"?>
<!-- Generator: Adobe Illustrator 17.0.0, SVG Export Plug-In . SVG Version: 6.00 Build 0)  -->
<!DOCTYPE svg PUBLIC "-//W3C//DTD SVG 1.1//EN" "http://www.w3.org/Graphics/SVG/1.1/DTD/svg11.dtd">
<svg version="1.1" id="Слой_1" xmlns="http://www.w3.org/2000/svg" xmlns:xlink="http://www.w3.org/1999/xlink" x="0px" y="0px"
	 width="20.35px" height="21.034px" viewBox="0 0 20.35 21.034" enable-background="new 0 0 20.35 21.034" xml:space="preserve">
<g>
	<g>
		<path fill="#D4D4D4" d="M19.895,5.057l-0.006-0.024c-0.491-1.985-2.704-4.114-4.737-4.557L15.129,0.47
			c-3.288-0.627-6.621-0.627-9.908,0L5.197,0.475C3.166,0.918,0.952,3.048,0.461,5.033L0.455,5.057
			c-0.607,2.772-0.607,5.583,0,8.354l0.005,0.024c0.471,1.9,2.519,3.932,4.476,4.491v2.215c0,0.802,0.977,1.196,1.533,0.617
			l2.245-2.333c0.487,0.027,0.974,0.042,1.461,0.042c1.655,0,3.311-0.156,4.954-0.47l0.023-0.005
			c2.033-0.443,4.246-2.573,4.737-4.557l0.006-0.024C20.502,10.639,20.502,7.829,19.895,5.057z M18.119,13.009
			c-0.328,1.295-2.008,2.905-3.344,3.202c-1.748,0.332-3.51,0.474-5.27,0.426c-0.035-0.001-0.069,0.013-0.093,0.038
			c-0.25,0.256-1.639,1.682-1.639,1.682L6.03,20.146c-0.127,0.133-0.351,0.042-0.351-0.141v-3.67c0-0.061-0.043-0.112-0.103-0.124
			l-0.001,0c-1.335-0.297-3.015-1.907-3.344-3.202c-0.546-2.505-0.546-5.045,0-7.55c0.328-1.295,2.008-2.905,3.344-3.202
			c3.053-0.581,6.148-0.581,9.201,0c1.336,0.297,3.016,1.907,3.344,3.202C18.665,7.964,18.665,10.504,18.119,13.009z"/>
		<path fill="#D4D4D4" d="M13.08,14.703c-0.205-0.062-0.401-0.104-0.583-0.18c-1.883-0.781-3.615-1.789-4.988-3.333
			c-0.78-0.878-1.391-1.87-1.908-2.92C5.357,7.773,5.15,7.256,4.94,6.742C4.748,6.273,5.031,5.789,5.328,5.436
			c0.279-0.331,0.638-0.585,1.027-0.772C6.659,4.519,6.959,4.603,7.18,4.86C7.66,5.417,8.1,6.001,8.457,6.646
			c0.219,0.397,0.159,0.882-0.238,1.152C8.122,7.863,8.034,7.94,7.944,8.015C7.865,8.079,7.791,8.145,7.737,8.233
			c-0.099,0.161-0.104,0.351-0.04,0.526c0.49,1.347,1.316,2.394,2.671,2.958c0.217,0.09,0.435,0.195,0.685,0.166
			c0.418-0.049,0.554-0.508,0.847-0.748c0.287-0.234,0.653-0.237,0.962-0.042c0.309,0.195,0.608,0.405,0.906,0.617
			c0.292,0.208,0.583,0.412,0.852,0.649c0.259,0.228,0.348,0.527,0.202,0.837c-0.267,0.567-0.656,1.039-1.216,1.34
			C13.447,14.621,13.258,14.648,13.08,14.703C12.874,14.641,13.258,14.648,13.08,14.703z"/>
		<path fill="#D4D4D4" d="M10.18,4.016c2.462,0.069,4.485,1.703,4.918,4.138c0.074,0.415,0.1,0.839,0.133,1.26
			c0.014,0.177-0.086,0.345-0.278,0.348c-0.197,0.002-0.286-0.163-0.299-0.34c-0.025-0.35-0.043-0.702-0.091-1.05
			c-0.255-1.834-1.718-3.352-3.544-3.678c-0.275-0.049-0.556-0.062-0.834-0.091C10.01,4.585,9.78,4.574,9.741,4.355
			c-0.033-0.183,0.122-0.329,0.297-0.339C10.085,4.014,10.132,4.016,10.18,4.016C12.643,4.085,10.132,4.016,10.18,4.016z"/>
		<path fill="#D4D4D4" d="M13.922,8.867c-0.004,0.031-0.006,0.103-0.024,0.171c-0.065,0.247-0.44,0.278-0.526,0.029
			c-0.026-0.074-0.029-0.158-0.03-0.238c-0.001-0.522-0.114-1.043-0.377-1.496c-0.27-0.466-0.683-0.858-1.168-1.096
			c-0.293-0.143-0.61-0.233-0.931-0.286c-0.14-0.023-0.282-0.037-0.423-0.057c-0.171-0.024-0.262-0.133-0.254-0.301
			c0.008-0.158,0.123-0.271,0.295-0.262c0.565,0.032,1.111,0.154,1.613,0.42c1.022,0.541,1.605,1.395,1.776,2.535
			c0.008,0.052,0.02,0.103,0.024,0.155C13.906,8.57,13.913,8.699,13.922,8.867C13.918,8.898,13.913,8.699,13.922,8.867z"/>
		<path fill="#D4D4D4" d="M12.391,8.808c-0.206,0.004-0.316-0.11-0.338-0.299c-0.015-0.132-0.026-0.265-0.058-0.393
			c-0.062-0.252-0.196-0.486-0.408-0.641c-0.1-0.073-0.214-0.126-0.333-0.161c-0.151-0.044-0.308-0.032-0.459-0.069
			c-0.164-0.04-0.254-0.173-0.229-0.326c0.023-0.14,0.159-0.249,0.312-0.238c0.955,0.069,1.637,0.562,1.734,1.686
			c0.007,0.079,0.015,0.163-0.003,0.239C12.581,8.736,12.485,8.802,12.391,8.808C12.185,8.812,12.485,8.802,12.391,8.808z"/>
	</g>
</g>
</svg>
