<?xml version="1.0" encoding="utf-8"?>
<!-- Generator: Adobe Illustrator 17.0.0, SVG Export Plug-In . SVG Version: 6.00 Build 0)  -->
<!DOCTYPE svg PUBLIC "-//W3C//DTD SVG 1.1//EN" "http://www.w3.org/Graphics/SVG/1.1/DTD/svg11.dtd">
<svg version="1.1" id="Слой_1" xmlns="http://www.w3.org/2000/svg" xmlns:xlink="http://www.w3.org/1999/xlink" x="0px" y="0px"
	 width="161.33px" height="138.414px" viewBox="0 0 161.33 138.414" enable-background="new 0 0 161.33 138.414"
	 xml:space="preserve">
<g>
	<g>
		<path fill="#B3C383" d="M81.179,76.744c1.614-0.806,2.687-2.259,3.916-3.528c1.296-1.337,2.786-2.25,4.389-3.182
			c3.406-1.981,7.192-3.699,10.157-6.254c0.554-0.478,1.553,0.083,1.12,0.811c-1.412,2.375-3.003,4.71-4.889,6.733
			c-1.832,1.964-3.499,4.64-5.642,6.207c-0.834,0.61-1.856-0.329-1.696-1.215c0.44-2.441,2.853-4.391,4.617-5.969
			c2.268-2.027,4.845-3.722,6.38-6.415c0.373,0.27,0.747,0.54,1.12,0.811c-2.536,3.404-5.45,5.746-9.171,7.768
			c-1.813,0.985-3.753,1.789-5.498,2.891c-1.494,0.943-2.653,1.856-4.412,2.217C81.077,77.72,80.651,77.008,81.179,76.744
			L81.179,76.744z"/>
	</g>
	<g>
		<path fill="#B3C383" d="M92.971,73.144c0.588,0.392,0.883,1.042,0.812,1.742c-0.029,0.287-0.485,0.191-0.443-0.101
			c0.077-0.528-0.165-1.028-0.589-1.338C92.58,73.323,92.793,73.025,92.971,73.144L92.971,73.144z"/>
	</g>
	<g>
		<path fill="#AAAA95" d="M84.571,121.138c1.298-2.355,2.776-4.637,4.013-7.022c1.4-2.701,2.11-5.872,3.098-8.75
			c0.9-2.623,1.918-5.179,2.488-7.901c0.563-2.687,0.689-5.46,1.192-8.161c0.499-2.682,1.092-5.349,1.831-7.974
			c0.243-0.862,0.467-1.913,0.793-2.656c0.725-1.651-0.175,0.413,0.627-1.122c0.405-0.47,0.669-1.015,0.796-1.634
			c1.303-2.101,0.918-5.325-2.115-5.658c-1.67-0.184-3.386-0.365-4.903,0.564c-0.509,0.312-0.964,0.696-1.382,1.118
			c-1.264,0.519-2.544,1.096-3.809,1.734c-2.972,0.788-5.541,1.88-8.08,3.774c-6.007,4.481-9.858,10.942-11.61,18.203
			c-1.658,6.869-1.262,14.053,0.855,20.785c2.12,6.743,3.207,13.747,4.705,20.658c0.152,0.702,0.543,1.122,1.024,1.317
			c1.056-2.899,2.787-5.353,4.791-7.634c0.504-0.931,1.068-1.834,1.634-2.716C81.975,125.796,83.271,123.498,84.571,121.138z
			 M99.093,76.361c0.107-0.132,0.207-0.27,0.299-0.414c-0.07,0.186-0.141,0.372-0.21,0.558
			C99.152,76.457,99.123,76.409,99.093,76.361z"/>
	</g>
	<g>
		<path fill="#9B8A8A" d="M102.632,73.151c-0.515,4.694-0.519,9.139,0.224,13.803c-0.618,4.176-1.554,8.358-2.636,12.314
			c-1.725,6.301-4.43,12.262-8.381,17.488c-0.985,1.303-2.069,2.504-3.179,3.681c-0.108,0.081-0.214,0.175-0.313,0.299
			c-0.058,0.073-0.118,0.145-0.177,0.218c-1.087,1.14-2.189,2.268-3.244,3.451c-2.627,2.948-5.843,5.524-8.133,8.737
			c-0.056,0.08-0.169,0.02-0.133-0.071c1.333-3.409,2.43-6.758,4.374-9.89c1.895-3.053,3.631-6.177,5.273-9.375
			c2.954-5.753,4.126-11.766,5.116-18.103c0.981-6.282,1.176-13.005,3.667-18.924c1.137-2.701,2.492-5.388,3.797-8.016
			c0.571-1.149,1.256-2.501,2.128-3.667c0.871-1.167,1.928-2.148,3.238-2.557c0.161,1.717-0.71,3.344-0.944,5.212
			C103.014,69.53,102.83,71.343,102.632,73.151z"/>
	</g>
	<g>
		<path fill="#8D8C54" d="M112.37,25.178c-1.064,0.349-1.934,1.013-3.014,1.352c-1.091,0.342-2.185,0.597-3.304,0.831
			c-2.172,0.455-4.288,0.999-6.386,1.723c-4.729,1.633-9.916,3.236-14.904,3.778c-2.466,0.268-4.864,0.278-7.321,0.759
			c-2.434,0.476-4.842,1.112-7.278,1.561c-5.009,0.923-10.032,1.709-15.055,2.544c-0.344,0.057-0.42-0.496-0.099-0.593
			c5.008-1.51,9.698-3.758,14.517-5.764c2.399-0.999,4.858-1.894,7.28-2.838c2.537-0.988,4.926-2.527,7.545-3.252
			c4.902-1.357,10.057-1.975,15.135-2.123c2.322-0.068,4.647-0.449,6.973-0.334c1.077,0.054,2.114,0.229,3.141,0.557
			c1.126,0.36,1.781,1.054,2.784,1.66C112.44,25.073,112.434,25.157,112.37,25.178L112.37,25.178z"/>
	</g>
	<g>
		<path fill="#B1B385" d="M45.764,17.088c2.17-2.501,3.987-5.108,6.45-7.38c2.073-1.912,3.969-4.1,6.251-5.755
			c5.332-3.868,11.885-4.736,18.25-3.306c3.498,0.785,6.793,2.226,10.109,3.554c3.47,1.39,6.83,3.074,9.698,5.511
			c2.493,2.119,4.967,4.248,7.799,5.91c2.336,1.371,6.047,3.41,6.999,6.054c0.245,0.68-0.238,1.309-0.834,1.557
			c-2.25,0.938-5.945-0.221-8.203-0.88c-2.8-0.818-5.678-1.422-8.576-1.848c-1.69-0.248-3.351-0.259-5.019-0.688
			c-1.9-0.489-3.751-1.256-5.582-1.971c-2.852-1.114-5.624-2.546-8.342-3.952c-4.261-2.202-7.92-2.387-12.871-2.05
			c-2.632,0.179-5.016,0.416-7.469,1.454c-2.843,1.204-5.876,2.43-8.614,3.847C45.774,17.166,45.735,17.121,45.764,17.088
			L45.764,17.088z"/>
	</g>
	<g>
		<path fill="#D1C694" d="M92.424,55.685c-1.549,0.98-2.629,2.332-4.128,3.358c-1.517,1.039-3.113,1.998-4.734,2.862
			c-3.179,1.695-6.471,3.136-9.927,4.15c-7.513,2.205-15.637,1.746-23.381,1.105c-6.096-0.504-12.006-1.747-18.062-2.21
			c-4.333-1.394-8.827-2.198-13.267-3.206c-4.873-1.107-9.788-1.917-14.672-2.941c-0.045-0.01-0.093-0.019-0.139-0.029
			c0.322-0.227,0.69-0.433,1.166-0.615c1.948-0.747,4.04-1.328,6.101-1.654c3.787-0.599,7.624-0.723,11.451-0.899
			c7.421-0.341,14.559,0.114,21.897,1.25c7.146,1.106,14.309,0.894,21.509,1.204c3.457,0.149,6.8,0.306,10.167-0.622
			c3.153-0.868,6.1-2.393,9.068-3.736c1.937-0.877,3.864-1.232,5.755-2.318c1.653-0.949,3.279-1.947,4.843-3.036
			c3.377-2.353,6.377-5.22,9.331-8.068c0.45-0.434,1.368-0.061,1.158,0.62C104.475,47.684,98.177,52.042,92.424,55.685z"/>
	</g>
	<g>
		<path fill="#E0E39D" d="M87.247,27.979c-3.585,1.996-7.513,2.907-11.334,4.366c-3.993,1.526-8.125,2.716-12.186,4.051
			c-7.416,2.439-15.143,4.779-22.006,8.554c-6.384,3.511-13.083,6.247-19.663,9.347c-1.876,0.884-3.802,1.642-5.708,2.458
			c-1.822,0.78-3.424,1.127-5.357,1.482c-1.353,0.249-2.754,0.683-4.167,1.085c-0.858-0.169-1.716-0.341-2.573-0.521
			c-0.803-0.169-1.737-0.365-2.684-0.462c1.324-2.149,3.448-3.959,5.058-5.779c1.349-1.525,2.514-3.024,4.207-4.182
			c1.547-1.058,3.159-2.102,4.792-3.023c6.839-3.856,14.315-7.002,22.042-8.464c8.087-1.531,16.166-3.231,24.182-5.112
			c4.164-0.977,8.324-2.145,12.529-2.921c4.177-0.77,8.189-2.112,12.443-2.282C87.56,26.548,87.92,27.604,87.247,27.979z"/>
	</g>
	<g>
		<path fill="#E0E39D" d="M46.998,40.368c-1.846,1.456-4.898,1.735-7.375,2.065c-6.329,3.296-14.499,2.601-19.929,6.713
			c-1.624,1.23-3.176,2.786-4.934,3.926c-1.882,1.22-4.066,1.86-6.085,2.804c-1.321,0.617-2.648,1.934-4.04,3.005
			c-0.127-0.026-0.254-0.051-0.38-0.078c-1.229-0.258-2.763-0.581-4.179-0.513l0.001-0.002c0.136-0.126,0.265-0.259,0.4-0.387
			c2.653-1.457,4.68-3.635,6.417-6.213c1.091-1.619,2.163-3.234,3.246-4.839c3.305-3.878,6.675-7.699,9.961-11.595
			c6.057-2.188,13.237-2.281,19.017-0.054c2.314-0.003,5.022-0.345,7.09,0.365C48.484,36.348,48.859,38.899,46.998,40.368z"/>
	</g>
	<g>
		<path fill="#F1F7D7" d="M16.413,56.379c3.165-1.026,5.912-2.116,9.283-2.226c3.153-0.102,6.265,0.257,9.389,0.66
			c6.987,0.9,13.847,1.808,20.916,1.612c3.363-0.093,6.772-0.175,10.105-0.663c1.799-0.263,3.66-0.51,5.329-1.249
			c1.594-0.705,3.197-1.411,4.864-1.936c3.215-1.012,6.493-1.666,9.519-3.227c3.05-1.573,6.129-2.858,9.333-4.082
			c2.117-0.809,4.026-1.553,5.817-2.975c1.697-1.348,3.199-2.86,4.559-4.547c1.432-1.776,2.681-3.713,3.699-5.756
			c0.949-1.902,1.449-3.945,2.265-5.896c0.515-1.23,2.629-0.729,2.563,0.593c-0.363,7.246-6.553,13.551-11.624,18.086
			c-2.796,2.5-4.917,5.671-7.78,8.142c-2.845,2.457-6.101,4.668-9.754,5.706c-3.485,0.991-7.355,1.704-10.98,1.461
			c-3.79-0.254-7.49-0.11-11.297-0.018c-7.419,0.179-14.59-1.096-21.939-1.807c-3.905-0.378-7.821-0.566-11.739-0.729
			c-2.067-0.086-4.195-0.123-6.252-0.328c-2.113-0.211-4.125-0.749-6.264-0.746C16.382,56.453,16.371,56.392,16.413,56.379
			L16.413,56.379z"/>
	</g>
	<g>
		<path fill="#8D8C54" d="M106.555,58.899c-1.835,1.857-1.893,3.919-2.577,5.729c-0.684,1.039-1.401,2.053-2.095,3.053
			c-2.277,3.28-4.581,6.513-6.978,9.704c-2.677,3.565-5.509,7.105-7.067,11.334c-1.396,3.79-2.157,7.76-3.3,11.622
			c-0.082,0.279-0.502,0.188-0.443-0.1c0.871-4.243,2.278-8.316,3.582-12.434c1.192-3.764,2.313-7.504,4.333-10.922
			c2.181-3.691,4.628-7.185,7.071-10.705c0.851-1.225,1.701-2.487,2.608-3.707c0.907-1.219,1.871-2.395,2.947-3.448
			c0.718-0.702,1.483-1.352,2.313-1.927c0.523,0.409,0.523,0.409,0.301,0.846C107.01,58.26,106.777,58.578,106.555,58.899z"/>
	</g>
	<g>
		<path fill="#C2D2AD" d="M61.026,52.373c1.031,0.067,1.823-0.419,2.801-0.554c1.031-0.144,2.157-0.024,3.206-0.096
			c2.111-0.144,4.146-0.39,6.147-1.125c1.966-0.722,3.532-2.009,5.154-3.286c1.22-0.96,2.739-2.595,4.385-2.532
			c0.422,0.016,0.75,0.295,0.785,0.729c0.143,1.813-1.785,3.692-3.02,4.843c-1.711,1.594-3.686,2.944-5.849,3.839
			c-2.103,0.87-4.373,1.038-6.627,0.814c-1.139-0.114-2.245-0.403-3.343-0.72c-1.404-0.405-2.275-1.426-3.643-1.866
			C60.999,52.411,60.998,52.371,61.026,52.373L61.026,52.373z"/>
	</g>
	<path fill="#B5BC8E" d="M110.301,24.329c-1.614,1.051-2.665,1.049-4.579,0.899c-0.99-0.077-1.984-0.178-2.976-0.227
		c-9.006,0.56-17.373,4.453-26.835,5.045c-1.264,0.151-2.527,0.31-3.792,0.49c-1.349,0.291-2.698,0.591-4.047,0.893
		c-1.35,0.302-2.701,0.608-4.057,0.919c-6.632,1.477-13.503,3.554-20.533,3.975c-7.844-0.015-14.874,0.406-22.719,1.017
		c-1.052,0.109-2.073,0.317-3.052,0.685c0.88-1.044,1.753-2.116,2.631-3.2c0.877-1.084,1.758-2.179,2.654-3.272
		c4.058-5.603,9.767-10.396,15.743-14.42c1.25-0.755,2.552-1.453,3.914-2.084c0.991-0.598,1.973-1.209,2.937-1.848
		c2.318-1.012,4.716-1.826,7.192-2.361c2.472-0.534,4.913-0.888,7.342-1.054c1.214-0.082,2.426-0.118,3.638-0.105
		c4.603,0.714,9.571,0.235,14.263,2.225c9.572,4.604,19.609,7.365,30.021,9.684c0.889,0.332,1.7,0.813,2.384,1.545
		C110.765,23.496,110.729,24.05,110.301,24.329z"/>
	<g>
		<path fill="#8D8C54" d="M158.189,11.78c-5.091,3.63-10.865,4.631-16.744,5.099c-1.47,0.117-2.946,0.2-4.42,0.284
			c-1.474,0.083-2.945,0.165-4.405,0.28c-1.46,0.114-2.909,0.261-4.337,0.473c-1.428,0.212-2.836,0.488-4.214,0.862
			c-1.249,0.378-2.397,0.81-3.508,1.351c-1.111,0.541-2.187,1.192-3.29,2.006c-0.137,0.051-0.275,0.099-0.412,0.152
			c-2.16,0.832-4.357,1.613-6.462,2.575c-2.018,0.923-4.013,2.135-6.206,2.552c-0.096,0.018-0.178-0.068-0.133-0.162
			c1.668-3.52,6.374-6.091,9.779-7.643c1.082-0.493,2.185-0.944,3.312-1.344c1.357-0.116,2.71-0.249,4.058-0.4
			s2.693-0.319,4.034-0.504c11.101-1.952,21.69-4.131,32.465-7.501C158.7,9.858,159.026,11.106,158.189,11.78z"/>
	</g>
	<g>
		<path fill="#8D8C54" d="M161.259,10.73c-2.862,2.479-5.915,4.602-9.046,6.545c-1.044,0.648-2.096,1.275-3.153,1.889
			c-13.009,6.556-25.239,15.707-33.859,27.602c-0.759,0.944-1.492,1.911-2.195,2.904c-0.704,0.993-1.379,2.012-2.021,3.059
			c-0.838,1.139-1.649,2.296-2.431,3.472c-0.83,1.185-1.645,2.383-2.443,3.605c-0.798,1.222-1.58,2.469-2.347,3.744
			c-0.791,1.11-1.532,2.191-2.801,2.77c-0.369,0.168-0.948,0.012-0.922-0.494c0.073-1.399,0.789-2.768,1.689-4.057
			c0.901-1.288,1.986-2.496,2.799-3.573c0.618-0.83,1.239-1.639,1.864-2.433c0.625-0.794,1.254-1.572,1.887-2.345
			c0.82-0.957,1.638-1.904,2.456-2.842c0.866-1.141,1.754-2.265,2.661-3.373c0.907-1.108,1.833-2.202,2.776-3.286
			c7.083-10.921,17.222-19.099,28.525-25.101c1.303-0.821,2.605-1.633,3.919-2.419c3.943-2.359,8.002-4.483,12.532-5.942
			C161.303,10.408,161.407,10.643,161.259,10.73z"/>
	</g>
	<g>
		<path fill="#8D8C54" d="M114.153,22.665c-1.377,0.364-2.704,1.517-3.893,2.32c-1.214,0.82-2.446,1.616-3.815,2.169
			c-2.148,0.869-4.791,1.175-6.902,0.108c-0.32-0.161-0.299-0.601-0.023-0.788c1.195-0.808,2.532-1.337,3.742-2.117
			c1.243-0.801,2.339-1.797,3.523-2.675c2.335-1.734,4.417-2.189,7.267-1.862C115.541,19.992,115.505,22.308,114.153,22.665
			L114.153,22.665z"/>
	</g>
	<g>
		<path fill="#F1F7D7" d="M120.914,20.09c-1.063,0.403-2.476,1.13-3.681,2.074c-1.204,0.946-2.217,2.078-2.488,3.278
			c-1,0.905-1.871,1.941-2.369,3.202c-0.886,2.241-1.295,4.686-2.021,6.984c-0.123,0.389-0.74,0.384-0.748-0.07
			c-0.045-2.592,0.332-5.138,0.651-7.705c0.296-2.386,0.85-4.623,3.095-5.832c1.058-0.57,2.245-0.977,3.458-1.303
			c1.447-0.865,3.291-0.4,4.853-0.896C121.413,19.909,121.162,19.996,120.914,20.09z"/>
	</g>
	<g>
		<path fill="#8D8C54" d="M124.662,18.926c-2.061,0.636-4.342,0.985-5.918,2.202c-1.495,0.442-2.912,1.051-4.258,1.888
			c-2.479,1.542-6.217,5.148-9.303,3.261c-0.938-0.574-1.011-1.604-0.391-2.438c1.047-1.411,2.753-1.326,4.327-1.805
			c1.813-0.552,3.375-1.648,5.151-2.294c1.638-0.595,3.378-0.933,5.07-1.416c2.289-0.855,4.133-0.39,6.134,0.202
			C125.204,18.659,124.934,18.793,124.662,18.926z"/>
	</g>
	<g>
		<path fill="#C2D2AD" d="M72.657,111.318c-0.113-1.844-0.165-3.677-0.182-5.524c-0.018-1.981-0.559-3.926-0.424-5.899
			c0.249-3.65,1.444-6.784,4.781-8.558c1.264-0.673,2.374,0.561,1.903,1.795c-1.082,2.836-2.16,5.675-3.336,8.481
			c-1.337,3.187-1.613,6.213-1.704,9.666C73.677,111.944,72.698,111.99,72.657,111.318L72.657,111.318z"/>
		<g>
			<path fill="#F1F7D7" d="M18.772,56.061c1.449-2.158,4.395-2.897,6.828-3.248c3.294-0.474,6.736-0.488,10.047-0.203
				c3.682,0.316,7.285,1.107,10.919,1.735c3.742,0.647,7.429,0.75,11.218,0.602c7.179-0.281,14.417-0.859,21.554-1.697
				c6.86-0.806,12.817-2.633,18.061-7.31c5.525-4.927,13.16-11.388,12.706-19.499c-0.138-2.463,3.932-3.274,4.369-0.729
				c1.336,7.771-2.187,14.468-7.194,20.159c-5.006,5.69-10.793,10.667-18.181,12.868c-7.103,2.116-14.826,2.287-22.182,2.495
				c-8.028,0.227-16.18-1.173-24.033-2.712c-4.262-0.836-8.513-1.549-12.868-1.59c-3.497-0.033-8.053,1.054-11.227-0.821
				C18.771,56.103,18.76,56.079,18.772,56.061L18.772,56.061z"/>
		</g>
	</g>
	<g>
		<path fill="#8D8C54" d="M92.696,30.527c3.938-2.659,8.395-4.2,12.689-6.214c2.034-0.954,3.963-2.1,5.946-3.142
			c1.187-0.624,2.737-0.656,3.153,0.879c0.174,0.645,0.051,1.4-0.448,1.881c-2.92,2.818-6.315,4.1-10.105,5.375
			c-3.666,1.234-7.303,2.38-11.167,1.636C92.561,30.903,92.539,30.634,92.696,30.527L92.696,30.527z"/>
	</g>
	<path fill="#C2D2AD" d="M113.315,29.586c-0.079,0.195-0.174,0.386-0.293,0.572c0.032,0.406,0.04,0.813,0.019,1.216
		c-0.577,2.379-2.342,4.49-3.754,6.419c-1.107,1.513-2.653,2.919-3.367,4.67c-0.02,0.048-0.028,0.096-0.043,0.144
		c-5.105,5.343-12.665,7.486-19.9,8.554c-1.375,0.244-2.746,0.472-4.099,0.709c-1.353,0.238-2.688,0.485-3.988,0.767
		c-1.122,0.217-2.234,0.446-3.344,0.679c-1.109,0.233-2.217,0.469-3.323,0.712c-5.802,1.275-11.575,2.679-17.364,4.01
		c-1.158,0.266-2.316,0.529-3.476,0.787c-1.422,0.552-2.845,0.939-4.268,1.198c-10.77,1.252-20.56-2.946-31.309-2.423
		c6.391-7.045,15.165-10.719,23.404-14.684c1.122-0.567,2.237-1.128,3.345-1.69c0.939-0.252,1.883-0.49,2.819-0.739
		c6.736-1.794,13.593-3.222,20.401-4.713c1.904-0.417,3.814-0.814,5.725-1.212c0.956-0.198,1.911-0.396,2.867-0.596
		c1.341-0.324,2.675-0.636,4.002-0.941c1.328-0.304,2.65-0.6,3.972-0.89c10.848-2.392,22.591-3.704,32.99-8.523
		C113.507,25.379,113.549,27.365,113.315,29.586z"/>
	<g>
		<path fill="#8D8C54" d="M0.093,58.151c1.845-1.474,3.613-2.956,5.192-4.719C6.747,51.8,7.731,49.74,9.314,48.23
			c0.058-0.056,0.171,0.013,0.121,0.088c-0.669,1.028-1.062,2.161-1.616,3.249C7.268,52.65,6.45,53.501,5.645,54.4
			c-1.594,1.78-3.25,3.028-5.514,3.836C0.077,58.255,0.055,58.182,0.093,58.151L0.093,58.151z"/>
	</g>
	<g>
		<path fill="#8D8C54" d="M0.283,58.192c-0.038,0.037-0.087-0.147,0.067-0.245c0.086-0.055,0.169-0.033,0.265-0.041
			c0.473-0.037,1.009,0.115,1.482,0.155c0.84,0.071,1.668,0.238,2.448,0.565c0.048,0.02,0.027,0.099-0.023,0.098
			c-0.846-0.004-1.691-0.053-2.54-0.053c-0.348,0-0.701,0.007-1.046-0.044c-0.281-0.041-0.589-0.253-0.853-0.27
			c-0.087-0.006-0.12-0.129-0.026-0.159c0.064-0.02,0.129-0.04,0.193-0.06C0.28,58.129,0.306,58.17,0.283,58.192L0.283,58.192z"/>
	</g>
</g>
</svg>
