<?xml version="1.0" encoding="utf-8"?>
<!-- Generator: Adobe Illustrator 17.0.0, SVG Export Plug-In . SVG Version: 6.00 Build 0)  -->
<!DOCTYPE svg PUBLIC "-//W3C//DTD SVG 1.1//EN" "http://www.w3.org/Graphics/SVG/1.1/DTD/svg11.dtd">
<svg version="1.1" id="Слой_1" xmlns="http://www.w3.org/2000/svg" xmlns:xlink="http://www.w3.org/1999/xlink" x="0px" y="0px"
	 width="74.832px" height="115.899px" viewBox="0 0 74.832 115.899" enable-background="new 0 0 74.832 115.899"
	 xml:space="preserve">
<g>
	<path fill-rule="evenodd" clip-rule="evenodd" fill="#FCF8CA" d="M65.603,107.806c0.07-0.325,0.148-0.648,0.237-0.97
		c0.739-2.182-0.348-2.851-2.313-2.791c-0.34-0.03-0.678,0.005-1.009,0.087l-0.025,0.015l0.006,0.008
		c0.132,0.165,0.307,0.304,0.411,0.484C63.613,105.863,64.582,106.86,65.603,107.806L65.603,107.806z M54.405,93.359
		c0.245,0.074,0.498,0.128,0.762,0.152c0.307-0.05,0.789-0.091,1.22-0.194c-0.101-0.115-0.196-0.236-0.275-0.364
		c-0.558-0.896-1.058-1.832-1.66-2.696c-1.075-1.542-2.24-3.021-3.303-4.57c-0.62-0.904-1.453-2.429-1.479-3.679
		c-0.913-0.321-1.738-0.863-2.682-1.112c-0.253-0.049-0.703-0.002-0.695,0.058c0.068,0.588,0.013,0.917-0.117,1.088
		c1.566,1.366,2.342,3.135,3.799,4.619c0.481,0.49,0.768,1.167,1.16,1.747c0.668,0.988,1.366,1.957,2.022,2.952
		C53.588,92.015,54.014,92.677,54.405,93.359L54.405,93.359z M58.06,90.454c-0.062-0.418-0.215-0.833-0.488-1.25
		c-0.424-0.647-0.696-1.419-0.905-2.171c-0.124-0.446-0.351-0.777-0.615-1.115c-0.514-0.657-0.956-1.668-1.341-2.727
		c0.114,0.044,0.227,0.09,0.34,0.14c0.502,0.186,1.002,0.38,1.487,0.614c2.445,1.02,4.62,2.651,7.15,3.489
		c-0.145,0.27-0.308,0.536-0.489,0.8c-0.467,0.679-1.087,1.194-1.657,1.755c-0.336,0.331-0.901,0.685-1.403,1.096
		c-0.005-1.106-0.673-1.719-1.077-2.553c-0.602-0.564-1.405-0.672-2.14-0.933c0.646,0.349,1.483,0.327,1.956,1.01
		c0.147,0.215,0.175,0.461,0.085,0.737C58.742,89.786,58.435,90.192,58.06,90.454z"/>
	<path fill-rule="evenodd" clip-rule="evenodd" fill="#FCF8CA" d="M27.16,80.552c-0.136-0.191-0.296-0.368-0.49-0.523
		c-0.28-0.301-1.238,0.551-1.068-0.623c-0.351-0.939-0.729-1.853-0.803-2.846c-0.122-0.441-0.336-0.835-0.674-1.132
		c0.595-1.236,2.089-1.814,2.405-3.257c0.174-0.71,0.186-1.394-0.336-1.984c-1.461-0.558-2.402,1.083-3.778,0.887
		c-0.507-0.047-1.01-0.06-1.514,0.011c-1.03,0.376-2.03-0.096-3.045-0.121c-1.725,0.238-3.157,1.577-5.01,1.327
		c-0.348,0.017-0.693,0.072-1.034,0.141c-0.357,0.103-0.715,0.198-1.075,0.28c0.605,0.462,1.225,0.903,1.862,1.312
		c1.599,1.025,3.261,1.953,4.906,2.906c0.822,0.476,1.649,0.949,2.504,1.362c0.844,0.408,1.743,0.7,2.628,0.998
		c1.209,0.406,2.462,0.683,3.692,1.028L27.16,80.552z"/>
	<path fill-rule="evenodd" clip-rule="evenodd" fill="#C6A674" d="M68.043,61.614c-0.689,0.215-1.331,0.569-1.975,0.894
		c-0.769-0.343-0.534-1.13-0.759-1.704c-0.205-0.543-0.548-0.953-1.1-1.168c-0.883,0.109-1.228,0.775-1.541,1.479
		c-0.433,1.281-0.477,2.579-0.159,3.891c0.618,1.464,1.481,2.819-0.553,4.1c-1.012,0.638-0.883,2.002-0.17,3.085
		c1.497,1.526,2.822,0.796,4.147,0.03c0.178-0.569,0.38-1.13,0.602-1.681c0.665-1.653,0.97-3.38,1.187-5.129
		c0.078-0.633-0.041-1.298,0.089-1.915C67.944,62.867,68.016,62.24,68.043,61.614z"/>
	<path fill-rule="evenodd" clip-rule="evenodd" fill="#FDF4C1" d="M46.525,82.366c0.166-0.195,0.314-0.457,0.444-0.786
		c0.922-0.03,1.834-0.212,2.758-0.21c0.178-1.299-0.092-2.614-0.072-3.929c0.008-0.522-0.011-1.047-0.051-1.572
		c-0.463,0.2-0.933,0.387-1.404,0.569c0.02,0.542,0.033,1.075,0.054,1.456c0.023,0.414-0.175,2.992-0.887,2.844
		c-0.582-0.12-1.163-0.261-1.725-0.45c-0.434-0.146-0.832-0.393-1.26-0.561c-0.556-0.218-1.097-0.441-1.479-0.86
		c-0.366,0.334-0.569,0.754-0.649,1.242c0.235-0.067,0.451-0.04,0.976,0.201c0.434,0.199,0.857,0.424,1.287,0.634
		C45.335,81.342,45.978,81.829,46.525,82.366L46.525,82.366z M54.1,81.376c0.037-0.034,0.073-0.07,0.109-0.107
		c1.187-2.027,1.427-4.231,1.21-6.521c-0.345-0.441-0.788-0.684-1.358-0.672c-0.335,0.082-0.647,0.22-0.954,0.37
		c-0.013,0.211-0.017,0.421-0.004,0.633c0.075,1.189,0.134,2.379,0.245,3.564c0.044,0.479,0.165,0.96,0.322,1.416
		C53.804,80.448,53.947,80.898,54.1,81.376z"/>
	<path fill-rule="evenodd" clip-rule="evenodd" fill="#FCDDAE" d="M65.572,73.527l-0.029,0.022
		c-1.323,1.048-1.274,2.187-0.665,3.345c0.223-1.288,0.489-2.507,0.691-3.354L65.572,73.527z"/>
	<path fill-rule="evenodd" clip-rule="evenodd" fill="#C7A570" d="M59.061,93.088c-0.763,0.591-1.317,1.418-1.475,2.61
		c0.827,1.964,1.697,2.193,2.503,1.928c-0.141-0.303-0.268-0.611-0.383-0.923C59.108,95.076,58.972,94.624,59.061,93.088z"/>
	<path fill-rule="evenodd" clip-rule="evenodd" fill="#FDF7C2" d="M66.269,71.231c-1.502-0.21-2.48,2.347-4.211,0.925
		c-0.595-0.068-0.964,0.206-1.148,0.759c0.569,0.937,0.51,1.847-0.12,2.735c0.125,0.807,0.734,1.139,1.386,1.434
		c0.857,0.232,1.71,0.565,2.587,0.503c0.241-1.534,0.568-3.049,0.806-4.048C65.755,72.76,65.992,71.987,66.269,71.231z"/>
	<path fill-rule="evenodd" clip-rule="evenodd" fill="#E0C08D" d="M58.336,95.92c0.203-0.47,0.461-0.874,0.76-1.232
		c-0.084-0.544-0.074-1.112-0.005-2.049c0.058-0.794,0.833-1.41,1.546-1.936c-0.965-0.043-1.792,0.268-2.576,0.691
		c-0.086,0.65-0.332,1.309-0.626,1.985c-0.222,0.512-0.467,0.529-0.857,0.14c-0.173-0.173-0.339-0.361-0.467-0.567l-0.183-0.298
		l-0.725,0.406c-0.342-0.065-0.622,0.012-0.839,0.228c0.095,0.164,0.188,0.329,0.279,0.496c0.3,0.549,0.764,0.92,1.236,1.257
		c1.127,0.804,1.947,1.824,2.58,3.009C58.513,97.41,58.34,96.603,58.336,95.92z"/>
	<path fill-rule="evenodd" clip-rule="evenodd" fill="#BF934B" d="M63.012,104.814c0.053,0.044,0.113,0.082,0.179,0.114
		c0.865,0.15,1.417-0.434,2.037-0.86c-0.031-0.038-0.061-0.076-0.093-0.113c-0.636-0.738-1.196-1.565-1.929-2.19
		c-0.498-0.425-0.96-0.894-1.38-1.396c-0.863-0.241-1.741-0.444-2.59-0.72c0.266,0.52,0.559,1.027,0.891,1.501
		c0.73,1.043,1.573,2.008,2.37,3.005c0.132,0.165,0.307,0.304,0.411,0.484L63.012,104.814z"/>
	<path fill-rule="evenodd" clip-rule="evenodd" fill="#C9A66F" d="M64.623,84.079c-2.153-1.905-4.249-2.265-6.674-1.209
		c1.181,2.534,3.609,3.318,5.829,4.395C64.293,86.25,64.564,85.187,64.623,84.079z"/>
	<path fill-rule="evenodd" clip-rule="evenodd" fill="#D1AE7B" d="M54.56,93.633l0.642-0.572c-0.558-0.571-1.162-0.997-1.798-1.322
		C53.808,92.359,54.201,92.987,54.56,93.633z"/>
	<path fill-rule="evenodd" clip-rule="evenodd" fill="#BD9755" d="M37.24,81.816c-0.584-0.602-1.517-0.988-1.692-1.846
		c-0.25-0.506-0.558-0.971-0.958-1.374c-0.636-0.526-1.341-0.797-2.177-0.591c-0.959,0.535-1.524,1.327-1.592,2.445
		c0.078,0.438,0.19,0.85,0.332,1.237c1.222,0.334,2.454,0.584,3.742,0.443C35.968,82.012,36.698,81.913,37.24,81.816z"/>
	<path fill-rule="evenodd" clip-rule="evenodd" fill="#C9A472" d="M65.013,103.81l-1.821,1.118c0.283,0.885,2.76-0.502,1.766,1.705
		c0.233,0.263,0.319,0.614,0.417,0.958c0.13,0.123,0.262,0.245,0.394,0.366c0.181,0.166,0.389,0.354,0.617,0.555
		c0.989-0.933,1.418,0.932,2.101,1.616c0.617-0.106,0.977-0.994,1.268-1.696l-0.173-0.173c-0.461-0.463-0.934-0.915-1.407-1.366
		c-0.923-0.879-1.851-1.752-2.774-2.631c-0.097-0.093-0.176-0.206-0.264-0.308L65.013,103.81z"/>
	<path fill-rule="evenodd" clip-rule="evenodd" fill="#FDF2C2" d="M57.775,92.529c0.621-0.096,1.165-0.386,1.678-0.758
		c0.368-0.485,0.952-0.894,1.45-1.262c1.522-1.784-1.253-1.08-1.394-1.901c-0.345-0.228-0.498-0.119-0.491,0.277
		c-0.403,0.226-0.795,0.524-1.194,0.773C58.256,90.605,58.118,91.553,57.775,92.529z"/>
	<path fill-rule="evenodd" clip-rule="evenodd" fill="#F4D5A6" d="M64.179,86.33c-1.897-1.466-4.556-1.85-6.34-3.475
		c-0.519-0.963-1.366-0.727-2.186-0.61c-0.311,0.143-0.565,0.355-0.765,0.631c-0.064,0.15-0.107,0.299-0.129,0.447
		c0.127,0.343,0.26,0.679,0.399,0.999l0.751-0.007c2.694,0.802,5.096,2.212,7.542,3.532C63.755,87.352,63.995,86.847,64.179,86.33z"
		/>
	<path fill-rule="evenodd" clip-rule="evenodd" fill="#F7DDAD" d="M34.921,80.428c-0.219,0.996,0.238,1.365,0.839,1.602
		c3.4-0.415,2.401-0.625,5.75-1.649l0.12-0.038c-1.273-0.253-2.563-0.412-3.816-0.756c-0.854,0.048-1.642,0.366-2.448,0.621
		C35.217,80.279,35.07,80.353,34.921,80.428z"/>
	<path fill-rule="evenodd" clip-rule="evenodd" fill="#EACC9D" d="M66.045,108.209c-0.239-0.612,0.098-1.631-1.087-1.575
		l-0.13,0.428c0.305,0.306,0.621,0.604,0.941,0.897L66.045,108.209z"/>
	<path fill-rule="evenodd" clip-rule="evenodd" fill="#D1B17D" d="M54.978,83.891l0.094-1.094c-0.153-0.582-0.453-0.827-0.814-0.93
		C54.477,82.536,54.715,83.237,54.978,83.891L54.978,83.891z M49.782,80.713c-0.631,0.576-1.346,1.134-0.293,2.083l0.308,0.086
		c-0.119-0.469-0.167-0.928-0.098-1.339C49.747,81.267,49.771,80.99,49.782,80.713z"/>
	<path fill-rule="evenodd" clip-rule="evenodd" fill="#B1873B" d="M63.639,87.525c-2.274-1.701-4.699-3.087-7.729-3.21
		c2.384,1.403,4.663,3.022,7.282,3.931l0.008-0.011C63.361,88.001,63.507,87.764,63.639,87.525z"/>
	<path fill-rule="evenodd" clip-rule="evenodd" fill="#D1BA90" d="M59.018,88.884l0.232-0.162l0.259-0.115
		c-0.819-0.947-1.835-1.501-2.943-1.864c0.038,0.091,0.072,0.188,0.101,0.29c0.119,0.428,0.258,0.862,0.434,1.276
		C57.748,88.483,58.408,88.627,59.018,88.884z"/>
	<path fill-rule="evenodd" clip-rule="evenodd" fill="#C48A3B" d="M67.228,68.318c-0.192-0.033-0.397-0.009-0.616,0.077
		c-0.709,0.694-0.248,1.41-0.067,2.121C66.833,69.796,67.053,69.062,67.228,68.318z"/>
	<path fill-rule="evenodd" clip-rule="evenodd" fill="#C29B56" d="M49.489,82.796l0.179-0.806c-0.002-0.154,0.008-0.303,0.032-0.447
		c0.062-0.365,0.085-0.731,0.087-1.099c-1.182-0.308-1.954,0.546-2.818,1.136C47.809,81.986,48.649,82.392,49.489,82.796z"/>
	<path fill-rule="evenodd" clip-rule="evenodd" fill="#BC8628" d="M66.612,68.395l0.567,0.127c0.124-0.503,0.226-1.011,0.314-1.522
		C67.092,67.275,66.795,67.734,66.612,68.395z"/>
	<path fill-rule="evenodd" clip-rule="evenodd" fill="#DFC194" d="M48.767,85.213c0.581,0.294,1.187,0.675,1.847,0.818
		c0.748,0.162,0.431-0.533,0.226-0.67c-0.625-0.42-1.303-0.812-2.017-1.026c-0.237-0.071-0.454,0.076-0.449,0.334
		C48.504,84.851,48.634,85.033,48.767,85.213z"/>
	<path fill-rule="evenodd" clip-rule="evenodd" fill="#FCF8CA" d="M31.08,80.039c0.56-0.571,1.118-1.142,1.678-1.714
		c0.851-0.113,1.646-0.498,2.516-0.485c0.326,0.033,0.655,0.056,0.981,0.098c0.639,0.118,1.277,0.257,1.922,0.351
		c1.104,0.088,2.252-0.008,3.187,0.791c0.511,0.218,0.995,0.178,1.451-0.142c0.035-0.031,0.066-0.054,0.091-0.07
		c-0.184-0.201-0.332-0.448-0.427-0.761c-0.084-0.276-0.298-0.519-0.478-0.757c-0.882-1.164-1.608-2.446-2.63-3.506
		c-1.393-1.444-2.172-2.195-3.206-3.096c-2.247,0.25-4.505,0.431-6.705,1.002c-1.711,0.618-3.08,1.846-4.703,2.621
		c-0.536,0.256-1.165,0.435-1.031,1.243c0.234,0.383,0.469,0.764,0.703,1.144c0.479,0.869,0.508,2.129,1.908,2.2
		c0.668,0.005,1.336-0.112,2.006-0.031C29.373,79.006,30.043,79.982,31.08,80.039L31.08,80.039z M48.154,75.498
		c0.462,0.014,0.941,0.081,1.436,0.196c-0.081-0.962-0.227-1.923-0.393-2.87c-0.219-1.248-0.598-2.481-1.03-3.676
		c-0.108-0.298-0.203-0.597-0.288-0.899c-0.259-0.269-0.556-0.491-0.912-0.639c-0.229-0.02-0.416,0.02-0.572,0.104
		c0.076,0.32,0.153,0.64,0.225,0.962c0.07,0.307,0.169,0.607,0.254,0.911c0.24,0.861,0.507,1.715,0.712,2.583
		c0.194,0.818,0.328,1.651,0.477,2.479C48.103,74.872,48.132,75.169,48.154,75.498L48.154,75.498z M53.136,75.608l0.166-0.045
		c0.71-0.157-0.855-1.273,0.49-1.161c0.347,0.101,0.694,0.201,1.042,0.302c2.1-0.516,4.795,0.927,6.203-1.877
		c0.341-0.224,0.682-0.448,1.022-0.671c-0.437-0.88-0.526-2.295,0.198-2.444c4.028-0.826,1.213-3.183,1.248-4.881
		c-0.631-0.296-1.263-0.61-1.934-0.095c-0.994,1.364-2.446,2.272-3.552,3.527c-0.553,0.639-0.945,1.382-1.374,2.096
		c-1.143,0.132-2.267,0.181-3.36,0.09c-0.141,0.834-0.212,1.631-0.13,2.276c0.102,0.806-0.099,1.572-0.05,2.355L53.136,75.608z"/>
	<path fill-rule="evenodd" clip-rule="evenodd" fill="#FDF8C7" d="M31.08,80.039c-0.724-0.944-0.966-2.58-2.79-1.949
		c-0.526,0.934-1.3,0.159-1.944,0.284c-1.101,0.01-0.542-1.951-1.917-1.616c-1.264,1.536,0.373,2.163,0.975,3.115
		c0.291,0.38,0.731,0.169,1.091,0.275l0.074,0.238c1.491,0.42,2.978,0.857,4.47,1.271c0.414,0.115,0.828,0.221,1.245,0.307
		C31.826,81.365,31.413,80.733,31.08,80.039z"/>
	<path fill-rule="evenodd" clip-rule="evenodd" fill="#D3B17F" d="M12.682,72.867c2.406,1.649,3.671-1.121,5.569-1.439
		c0.433-1.06,1.479-0.052,2.07-0.612c0.877-0.502,1.547-1.111,1.229-2.254c-1.477-1.71-3.351-2.388-5.576-2.148
		c-1.592,0.13-2.236-1.607-3.635-1.858c-0.609,0.207-0.79,0.682-0.798,1.267C12.065,68.146,13.836,70.269,12.682,72.867z"/>
	<path fill-rule="evenodd" clip-rule="evenodd" fill="#C29A5D" d="M24.934,74.644c2.15,0.207,3.521-1.328,5.143-2.298
		c0.153-0.504,0.621-0.731,0.955-1.077c0.576-0.901,2.002-1.426,1.303-2.899c-0.761-0.434-1.594-0.21-2.395-0.275
		c-0.969-0.051-1.818-0.565-2.759-0.727c-0.518,0.018-0.953,0.221-1.316,0.585c-0.197,0.276-0.305,0.584-0.331,0.921
		c0.008,0.509,0.15,0.979,0.434,1.404c0.057,0.569,0.115,1.14,0.173,1.71C25.889,72.941,25.164,73.68,24.934,74.644z"/>
	<path fill-rule="evenodd" clip-rule="evenodd" fill="#E1C190" d="M12.682,72.867c2.79-2.613,0.686-4.819-0.591-7.093
		c-1.309,0.137-1.334,1.405-1.931,2.171c-2.337,2.138-0.856,3.564,0.92,4.937c0.316,0.151,0.648,0.248,0.995,0.288
		C12.275,73.062,12.477,72.962,12.682,72.867z"/>
	<path fill-rule="evenodd" clip-rule="evenodd" fill="#FDF7C8" d="M12.076,73.168c-0.175-0.235-0.35-0.471-0.526-0.706
		c-1.345-0.622-2.274-2.004-3.813-2.273c0.545,0.491,1.096,0.975,1.657,1.446c0.704,0.589,1.429,1.16,2.178,1.693
		C11.739,73.267,11.908,73.212,12.076,73.168z"/>
	<path fill-rule="evenodd" clip-rule="evenodd" fill="#DEC594" d="M21.273,68.675c-0.175,1.038-1.111,1.328-1.813,1.846
		c0.256,0.845,0.902,0.912,1.629,0.816c0.392,0.088,0.785,0.176,1.178,0.263c0.696,0.124,1.183-0.165,1.513-0.768
		c0.163-1.321-0.05-2.495-1.272-3.276C21.829,67.634,21.357,67.941,21.273,68.675z"/>
	<path fill-rule="evenodd" clip-rule="evenodd" fill="#B86D11" d="M24.934,74.644c0.835-0.69,1.44-1.483,1.206-2.656
		c-1.184,1.066-2.108,2.394-3.597,3.16c-0.508,0.262-0.251,0.836,0.473,0.706c0.242-0.043,0.473-0.158,0.708-0.242
		C24.128,75.29,24.532,74.966,24.934,74.644z"/>
	<path fill-rule="evenodd" clip-rule="evenodd" fill="#BC8037" d="M23.535,70.659c-0.423,0.314-0.846,0.629-1.268,0.942
		c2.394,2.803,2.084-1.952,3.701-1.323c0.086-0.386,0.173-0.773,0.261-1.159C24.957,68.979,24.02,69.423,23.535,70.659z"/>
	<path fill-rule="evenodd" clip-rule="evenodd" fill="#C29850" d="M21.088,71.338c-0.542-0.272-1.085-0.544-1.628-0.817
		c-0.571,0.079-2.172-1.217-1.209,0.906C19.221,72.151,20.207,73.425,21.088,71.338z"/>
	<path fill-rule="evenodd" clip-rule="evenodd" fill="#FCF8CA" d="M26.494,80.147c-0.363-0.092-0.727-0.184-1.091-0.275
		c-0.107,0.035-0.239,0.067-0.378,0.099c0.383,0.099,0.767,0.199,1.149,0.304C26.279,80.214,26.385,80.168,26.494,80.147z"/>
	<path fill-rule="evenodd" clip-rule="evenodd" fill="#DFBD8A" d="M63.261,61.245c0.307-0.507,0.612-1.013,0.918-1.519
		c1.274,0.012,2.349-0.597,3.466-1.091c0.082-0.046,0.164-0.094,0.245-0.142c-0.077-0.654-0.171-1.308-0.263-1.961
		c-0.118-0.842-0.36-1.67-0.517-2.506c-0.26-0.161-0.538-0.293-0.822-0.4c-0.625-0.136-1.18-0.372-1.392-1.068
		c-0.351-0.822-0.958-1.319-1.836-1.476c-0.18-0.012-0.357-0.003-0.533,0.024c-0.06,0.456-0.08,0.92-0.023,1.394
		c0.072,0.604,0.036,1.268-0.145,1.845c-0.148,0.472-0.356,0.913-0.603,1.333c0.451,0.209,0.925,0.409,0.833,0.8
		c-0.158,0.674-1.318,0.428-1.796,1.042c-1.138,1.715,0.387,2.648,1.114,3.821C62.381,61.652,62.857,61.938,63.261,61.245z"/>
	<path fill-rule="evenodd" clip-rule="evenodd" fill="#F0CB91" d="M66.849,58.097c-0.896,0.535-2.168,0.451-2.67,1.63
		c0.228,0.406,0.456,0.812,0.683,1.219c0.272,1.086-0.37,2.448,0.973,3.211c0.807-0.435,1.35-1.33,2.152-1.773
		c0.128-1.21,0.065-2.413-0.066-3.614C67.565,58.544,67.213,58.309,66.849,58.097z"/>
	<path fill-rule="evenodd" clip-rule="evenodd" fill="#F1CF9F" d="M63.261,61.245c-0.385-0.066-0.769-0.132-1.154-0.199
		c-0.398-0.036-0.746,0.085-1.052,0.341c-0.531,0.607-0.912,1.269-0.761,2.122c0.279,0.784,0.686,1.424,1.643,1.435
		c0.522-0.038,1.045-0.075,1.568-0.114C62.824,63.678,63.444,62.434,63.261,61.245z"/>
	<path fill-rule="evenodd" clip-rule="evenodd" fill="#FCEAB9" d="M65.835,64.156c-0.323-1.07-0.648-2.138-0.973-3.209
		C64.609,62.191,63.639,63.653,65.835,64.156z"/>
	<path fill-rule="evenodd" clip-rule="evenodd" fill="#FDF6C2" d="M61.037,72.827c-1.905,1.165-4.579-0.209-6.204,1.878
		l-0.916,6.101l0.055,0.17c0.431,0.695,1.014,1.214,1.793,1.508c0.692,0.124,1.384,0.249,2.074,0.372
		c2.613-0.478,4.61,0.913,6.703,2.011c0.137-0.914,0.118-1.861-0.036-2.839c-0.036-0.232-0.057-0.494-0.065-0.778
		c-2.039-1.268-5.107-0.816-6.162-3.694c0.434-1.256,2.079-0.79,2.637-1.855c0.612-0.69,2.277-0.087,2.158-1.538
		C62.99,73.125,61.605,73.468,61.037,72.827z"/>
	<path fill-rule="evenodd" clip-rule="evenodd" fill="#E8CEA1" d="M49.551,75.267c-0.411-0.1-0.821-0.202-1.146-0.467
		c-0.125-0.101-0.246-0.196-0.365-0.284l0.024,0.132c0.12,0.665,0.14,1.975,0.174,2.87c0.476-0.207,0.947-0.422,1.417-0.645
		C49.643,76.338,49.606,75.802,49.551,75.267L49.551,75.267z M42.639,78.493c-0.069,0.083-0.134,0.166-0.197,0.25
		c-0.092,0.233-0.071,0.409,0.06,0.526c0.136,0.121,0.229,0.165,0.282,0.132c0.196-0.049,0.391-0.1,0.585-0.152
		C43.073,79.061,42.818,78.825,42.639,78.493z"/>
	<path fill-rule="evenodd" clip-rule="evenodd" fill="#FDF5C3" d="M42.784,79.401c-0.128-0.211-0.243-0.431-0.343-0.659
		c-0.327-0.01-0.655-0.023-0.982-0.035c-0.897-0.861-1.889-0.277-2.85-0.193c-0.568,0.292-0.965,0.717-1.059,1.375
		c0.651,0.483,1.307,0.932,1.989,1.179c0.447-0.181,1.041-0.403,1.972-0.687c0.587-0.18,0.736-0.357,1.105-0.292L42.784,79.401z"/>
	<path fill-rule="evenodd" clip-rule="evenodd" fill="#C98F39" d="M55.766,82.484c-0.271-0.928-0.761-1.603-1.828-1.614
		c0.167,0.52,0.349,1.093,0.545,1.671l0.59,0.257C55.328,82.745,55.558,82.64,55.766,82.484z"/>
	<path fill-rule="evenodd" clip-rule="evenodd" fill="#FDF6C2" d="M53.791,74.402c-0.072-0.507-0.3-0.968-0.609-1.176
		c0,0.626-0.118,1.235-0.079,1.854l0.001,0.014c0.131,0.13,0.213,0.28,0.199,0.469C53.465,75.176,53.628,74.789,53.791,74.402z"/>
	<path fill-rule="evenodd" clip-rule="evenodd" fill="#FCF8CA" d="M62.671,51.398c0.66,0.479,1.32,0.957,1.98,1.436
		c0.331,0.651,1.329,0.332,1.588,1.09c0.122,0.122,0.188,0.269,0.199,0.443c0.265,0.099,0.53,0.188,0.796,0.266
		c-0.102-0.457-0.194-0.916-0.24-1.38c-0.092-0.911-0.346-1.747-0.655-2.588c-0.158-0.43-0.39-0.871-0.398-1.311
		c-0.016-0.894-0.562-1.44-1.117-1.988c-0.424-0.419-0.658-0.421-0.967,0.052c-0.171,0.263-0.351,0.531-0.51,0.808
		c0.631,0.211,1.235,0.504,1.111,0.785c-0.367,0.843-0.924,0.341-1.498,0.051c-0.024,0.076-0.046,0.153-0.064,0.23
		c-0.154,0.673-0.329,1.35-0.398,2.044C62.555,51.358,62.612,51.378,62.671,51.398L62.671,51.398z M49.609,24.056l-0.036-0.008
		c-0.737-0.322-3.061,0.381-1.166-1.636c0.078-0.083,0.16-0.164,0.244-0.242l-0.134-0.316c-0.626-1.497-0.61-3.137-0.532-4.749
		c0.026-0.529,0.079-1.06,0.169-1.581l0.012-0.068c-0.736,0.053-1.461,0.206-2.17,0.519c0.654-0.882,1.573-1.462,2.439-2.105
		c0.204-1.408,0.06-1.912-0.752-4.267c-0.348-1.011-0.766-1.998-1.189-2.983c-0.027,0.047-0.056,0.094-0.085,0.14
		c-0.374,0.362-0.76,0.71-1.111,1.093c-0.758,1.04-1.484,2.229-2.756,2.584c-2.913,0.812-3.51,3.047-3.767,5.579
		c-0.116,0.522-0.191,1.05-0.258,1.578c-0.516,1.909-0.459,4.31-3.509,4.005c-0.52-0.043-1.006-0.02-1.43,0.126
		c-0.065,0.363-0.164,0.721-0.278,1.072c-0.271,0.844-0.322,1.709-0.243,2.578c0.073,0.8,0.241,1.591,0.311,2.391
		c0.086,0.983,0.13,1.97,0.201,2.955c0.725,0.42,1.478,0.678,2.39,0.061c1.406-3.156,3.572-2.916,6.025-1.344
		c0.635,0.754,0.928,1.657,1.129,2.586c0.01,1.065-0.898,0.966-1.539,1.204c-0.315,0.088-0.603,0.226-0.875,0.402
		c-0.662,0.891-1.637,0.718-2.56,0.742c-0.531,0.141-0.965,0.429-1.32,0.842c-0.393,0.922-1.454,1.936,0.33,2.582
		c0.351,0.022,0.702,0.01,1.041-0.019c0.459,0.024,0.891,0.084,0.952,0.677c-0.261,0.841-0.829,1.453-1.378,2.075
		c-0.362,0.366-0.704,0.751-1.039,1.143c-0.077,0.092-0.156,0.177-0.239,0.255c0.398,0.463,0.832,1.009,1.209,1.891
		c0.619,1.445,1.106,2.94,1.767,4.374c0.336,0.728,0.727,1.361,1.178,1.914c0.366-0.471,0.706-0.97,1.068-1.445
		c0.508-0.783,1.007-1.57,1.4-2.419c0.346-1.1,0.735-2.205-0.245-3.201c-0.368-0.072-0.734-0.056-1.092,0.057
		c-1.36,0.472-1.738,2.172-3.235,2.638c0.308-1.25,1.499-1.834,1.833-2.944c0.813-1.741,1.748-3.39,3.411-4.489
		c0.994-0.557-0.429-2.523,1.488-2.541c-0.519,1.072-0.284,2.432-1.279,3.32c-0.571,0.931-1.18,1.859-0.485,2.995
		c0.262,0.262,0.576,0.412,0.947,0.444c3.29,0.075,3.584,2.191,3.235,4.745c0.229,0.464,0.605,0.763,1.077,0.935
		c0.581,0.24,0.821,0.658,0.626,1.291l-0.036,0.093c0.313-0.397,0.591-0.818,0.779-1.31c0.218-0.571,0.382-1.172,0.772-1.683
		c0.241-0.315,0.398-0.722,0.496-1.112c0.256-1.023,0.488-2.055,0.677-3.093c0.208-1.144,0.371-2.295,0.524-3.448
		c0.064-0.474-0.01-0.972,0.086-1.436c0.549-2.647,0.133-8.586-2.305-12.443C50.088,24.75,49.835,24.411,49.609,24.056
		L49.609,24.056z M0.022,59.674c0.671-0.416,1.361-0.808,1.924-1.356c-0.268-0.018-0.538-0.033-0.804-0.05
		C0.434,58.221,0.106,58.943,0.022,59.674L0.022,59.674z M14.769,61.4c-0.176,1.11-0.219,2.231-0.131,3.362
		c0.135,0.913,0.169,1.873,1.027,2.489c2.117-0.503,3.671,1.209,5.607,1.424c0.42-0.287,0.839-0.574,1.257-0.86
		c0.693,0.378,1.389,0.476,2.092,0.03c0.767-1.063,1.688-1.974,2.707-2.791l-1.316-0.705c-1.047-0.561-4.768-1.88-6.009-2.106
		C18.266,61.927,16.514,61.685,14.769,61.4L14.769,61.4z M46.889,56.542c-0.049,0.531-0.119,1.058-0.257,1.579
		c-0.399,2.055-0.311,4.179-0.928,6.203c0.142,1.09,0.393,2.146,0.646,3.202c0.113,0.069,0.241,0.134,0.385,0.194
		c0.293,0.458,0.586,0.915,0.878,1.373c0.221,0.135,0.436,0.236,0.645,0.309l-0.091-0.255c-0.533-1.472-0.76-2.997-1.004-4.524
		c-0.146-0.91-0.362-1.83-0.336-2.739c0.025-0.834,0.015-1.666,0.036-2.497C46.887,58.438,46.91,57.489,46.889,56.542L46.889,56.542
		z M54.201,66.493c0.533-0.311,1.104-0.563,1.718-0.749c0.703-0.351,1.304-0.818,1.686-1.522c0.276-0.795,0.251-1.558,0.106-2.31
		c-0.141,0.033-0.325,0.03-0.58,0.011c-0.524-0.038-0.948,0.142-1.13,0.618C55.629,63.515,54.574,65.346,54.201,66.493z"/>
	<path fill-rule="evenodd" clip-rule="evenodd" fill="#BC873A" d="M64.842,77.104l-2.396-0.552
		c-0.927,0.279-2.551-0.609-2.415,1.448c0.162,0.355,0.392,0.659,0.694,0.908c1.241,0.522,2.476,1.095,3.724,1.567
		C64.491,79.453,64.648,78.258,64.842,77.104z"/>
	<path fill-rule="evenodd" clip-rule="evenodd" fill="#FCE9B9" d="M64.529,79.375c-1.233-0.392-2.468-0.767-3.732-0.964
		c0.079,2.39,2.259,2.383,3.667,3.257C64.411,81.03,64.444,80.232,64.529,79.375z"/>
	<path fill-rule="evenodd" clip-rule="evenodd" fill="#FCF8CA" d="M59.559,96.3c-0.414-0.045-0.822-0.154-1.223-0.381
		c-0.265,0.34-0.337,0.791-0.41,1.241c0.329,0.488,0.614,1.011,0.866,1.566c0.357,0.783,0.753,1.562,1.232,2.274
		c0.992,0.412,2.044,0.585,3.11,0.704c-1.551-1.345-2.733-3.11-3.428-5.001L59.559,96.3z"/>
	<path fill-rule="evenodd" clip-rule="evenodd" fill="#C09453" d="M60.397,77.873c0.173-1.232,1.539-0.615,2.049-1.322
		c-0.511-0.283-1.021-0.567-1.53-0.851c-1.369,0.013-3.15-1.072-3.614,1.353C57.953,78.767,59.028,78.872,60.397,77.873z"/>
	<path fill-rule="evenodd" clip-rule="evenodd" fill="#FCF8CA" d="M69.676,108.356c-0.005,1.048-0.618,2.284,0.709,2.74
		c0.721,0.248,1.537,0.35,2.34,0.27c-0.234-0.186-0.437-0.356-0.573-0.493C71.327,110.033,70.505,109.191,69.676,108.356z"/>
	<path fill-rule="evenodd" clip-rule="evenodd" fill="#D9BD90" d="M35.885,77.107c-1.697-1.274-2.194,0.529-3.127,1.217
		c0.499,0.255,0.997,0.51,1.496,0.764C35.427,78.947,35.829,78.169,35.885,77.107z"/>
	<path fill-rule="evenodd" clip-rule="evenodd" fill="#FCDDB2" d="M35.885,77.107c-0.545,0.661-1.089,1.321-1.632,1.981
		c0.224,0.447,0.447,0.893,0.669,1.34l0.122,0.013c1.656-0.769,1.871-1.886,0.801-3.315L35.885,77.107z"/>
	<path fill-rule="evenodd" clip-rule="evenodd" fill="#FCF8CA" d="M71.602,110.313c-0.184,0.052-0.364,0.126-0.537,0.235
		c-0.772,0.483-1.048-0.404-0.55-1.343c-0.311-0.315-0.621-0.63-0.934-0.944l-0.289-0.288l-0.71,1.347
		c-0.263,0.135-0.476,0.325-0.648,0.56c0.903,0.798,1.861,1.655,2.622,2.401c1.495,1.465,1.93,2.467,3.377,3.395
		c0.441,0.284,1.018,0.496,0.839-0.659c-0.1-0.647,0.349-1.181-0.301-2.121c-0.403-0.583-1.824-1.517-2.32-2.022L71.602,110.313z"/>
	<path fill-rule="evenodd" clip-rule="evenodd" fill="#FCEDB9" d="M68.487,110.129c0.032-0.27,0.063-0.541,0.095-0.811
		c-0.651-0.555-0.766-2.671-2.239-0.842c0.568,0.505,1.266,1.113,1.975,1.742L68.487,110.129z"/>
	<path fill-rule="evenodd" clip-rule="evenodd" fill="#D9BD90" d="M35.845,77.127c0.066,1.186-0.021,2.334-0.801,3.315
		c1.055,0.81,1.853,0.463,2.505-0.552c0.416-0.364,0.831-0.726,1.246-1.089c0.076-0.629-0.23-0.995-0.807-1.174
		C37.274,77.46,36.56,77.294,35.845,77.127z"/>
	<path fill-rule="evenodd" clip-rule="evenodd" fill="#E4C18D" d="M68.444,110.33c0.013-0.067,0.027-0.134,0.042-0.2
		c-0.156-0.085-0.309-0.14-0.459-0.169L68.444,110.33z"/>
	<path fill-rule="evenodd" clip-rule="evenodd" fill="#B68536" d="M46.735,67.722c-0.674-1.164-0.094-2.399-0.203-3.596
		c-0.269,0.128-0.541,0.22-0.816,0.286c0.185,1.355,0.532,2.66,0.839,3.979L46.735,67.722L46.735,67.722z M33.944,68.89
		c-0.858,0.574-1.744,1.11-2.637,1.636c-0.399,0.08-0.696,0.302-0.907,0.645c-0.107,0.392-0.214,0.783-0.323,1.175l6.847-0.922
		c-0.711-0.651-1.44-1.266-2.539-2.186C34.241,69.117,34.094,69.002,33.944,68.89z"/>
	<path fill-rule="evenodd" clip-rule="evenodd" fill="#C29A60" d="M56.8,61.931c0.251,0.646,0.472,1.299,0.582,1.977
		c-0.205,1.745-1.103,3.653,1.135,4.822c0.718-1.642,3.858-1.099,3.419-3.785c-0.454-0.665-0.908-1.331-1.362-1.996
		c-0.135-1.26-0.832-2.186-1.57-3.086c-0.312,0.437-0.58,0.89-0.771,1.405c-0.236,0.639-0.389,0.708-1.102,0.655
		C57.015,61.915,56.904,61.917,56.8,61.931z"/>
	<path fill-rule="evenodd" clip-rule="evenodd" fill="#CCA676" d="M48.138,69.063c-0.17,0.021-0.345,0.031-0.524,0.03
		c-0.03,0.823,0.05,1.63,1.093,1.702l0.006,0.001c-0.164-0.556-0.349-1.106-0.545-1.648L48.138,69.063L48.138,69.063z M53.16,71.35
		c1.082,0.199,2.156,0.447,3.227,0.749c1.212,0.342,1.222-0.495,0.664-1.342c-0.1-0.148-0.2-0.296-0.3-0.446
		c-1.229-0.528-1.572-2.47-2.735-3.103C53.713,68.441,53.293,70.01,53.16,71.35z"/>
	<path fill-rule="evenodd" clip-rule="evenodd" fill="#C29E69" d="M58.517,68.73c-0.378-1.608-0.757-3.214-1.135-4.822
		c-0.65,0.414-1.299,0.828-1.948,1.241c-0.413,2.076-0.659,4.109,1.448,5.525c0,0,0.166,0.08,0.167,0.081
		C57.54,70.081,58.029,69.405,58.517,68.73z"/>
	<path fill-rule="evenodd" clip-rule="evenodd" fill="#C5A377" d="M37.988,77.626c0.27,0.392,0.539,0.784,0.808,1.174
		c0.891,0.094,1.792,0.422,2.662-0.095C41.129,75.692,39.011,78.418,37.988,77.626z"/>
	<path fill-rule="evenodd" clip-rule="evenodd" fill="#DEC18F" d="M26.345,78.373c0.779,0.464,1.375,1.426,2.509,0.914
		c-0.19-0.398-0.378-0.798-0.566-1.197C27.566,77.667,26.953,78.001,26.345,78.373z"/>
	<path fill-rule="evenodd" clip-rule="evenodd" fill="#C1934C" d="M6.723,69.267c0.676-0.152,1.344-0.339,2.008-0.554
		c0.663-0.328,1.199-0.78,1.447-1.506c-0.312-1.583-1.729-0.93-2.639-1.313c-0.909-0.177-1.817-0.328-2.677,0.192
		c-0.202,0.182-0.405,0.363-0.586,0.555c0.445,0.608,0.858,1.171,1.229,1.509C5.911,68.522,6.317,68.895,6.723,69.267z"/>
	<path fill-rule="evenodd" clip-rule="evenodd" fill="#CFB98C" d="M8.238,68.333c-0.797,0.054-1.648-0.056-2.404,0.119
		c0.665,0.608,1.326,1.22,1.996,1.821c0.371-0.318,0.654-0.707,0.833-1.182C8.667,68.758,8.524,68.505,8.238,68.333z"/>
	<path fill-rule="evenodd" clip-rule="evenodd" fill="#FCF8CA" d="M4.823,67.377c0.179-0.228,0.264-0.519,0.137-0.95
		c-0.406-0.453-0.857-0.698-1.363-0.688C4.033,66.293,4.443,66.886,4.823,67.377z"/>
	<path fill-rule="evenodd" clip-rule="evenodd" fill="#F1D09D" d="M8.238,68.333c0.069,0.145,0.147,0.287,0.231,0.424
		c0.85,0.419,1.636,0.297,2.365-0.284c0.419-0.9,0.838-1.799,1.257-2.7c0.053-0.368,0.105-0.735,0.159-1.104
		c0.489-0.326,0.681-0.802,0.695-1.368c-0.083-0.798-0.367-1.558-0.502-2.347c-0.34-0.08-0.678-0.167-1.012-0.263
		c-1.183-0.339-2.495-0.793-3.749-1.164c-0.398-0.118-0.801-0.215-1.206-0.306c-0.183,2.149,0.069,4.119,0.859,5.287
		c0.249,0.24,0.528,0.45,0.813,0.644c0.636,0.601,2.032,0.461,1.837,1.884C9.403,67.468,8.821,67.899,8.238,68.333z"/>
	<path fill-rule="evenodd" clip-rule="evenodd" fill="#C69C54" d="M12.499,63.538c-0.083,0.378-0.165,0.754-0.248,1.131
		c1.174,0.814,0.936,3.495,3.415,2.581c-0.131-0.819-0.261-1.639-0.391-2.458C14.679,63.644,14.05,62.571,12.499,63.538z"/>
	<path fill-rule="evenodd" clip-rule="evenodd" fill="#B8842E" d="M29.712,68.833c1.018,0.626,1.694-0.228,2.488-0.573
		c0.158-0.067,0.316-0.135,0.475-0.2c-0.712-0.42-1.446-0.802-2.157-1.224c-0.199-0.118-0.398-0.234-0.6-0.35
		C29.593,67.095,29.474,67.843,29.712,68.833z"/>
	<path fill-rule="evenodd" clip-rule="evenodd" fill="#C4A16B" d="M29.712,68.833c0.259-0.705,0.619-1.314,1.05-1.854l-0.245-0.143
		c-1.013-0.599-2.057-1.172-3.1-1.734c-0.279,0.214-0.564,0.417-0.87,0.585c-1.984,1.095-0.272,1.538,0.652,1.997
		C27.794,68.598,28.621,69.005,29.712,68.833z"/>
	<path fill-rule="evenodd" clip-rule="evenodd" fill="#F5D6A6" d="M32.431,67.918c-0.08,0.106-0.157,0.218-0.229,0.338L32.2,68.26
		c-0.6,0.971-1.2,1.942-1.8,2.912c0.243-0.1,0.498-0.153,0.761-0.158c1.111-0.54,2.2-1.118,3.253-1.751l-0.029-0.024
		C33.775,68.727,33.111,68.31,32.431,67.918z"/>
	<path fill-rule="evenodd" clip-rule="evenodd" fill="#E0BC89" d="M27.199,67.684c0.98-0.698-2.294-1.055-0.203-1.602
		c0.483-0.126,0.903-0.301,1.279-0.515c-0.475-0.259-0.952-0.516-1.427-0.771c-1.811-0.119-2.317,1.146-2.523,2.731
		c-0.389,0.613-0.465,1.345,0.175,1.674c0.611,0.314,1.222-0.078,1.464-0.805C26.376,68.159,26.788,67.921,27.199,67.684z"/>
	<path fill-rule="evenodd" clip-rule="evenodd" fill="#FCE0AF" d="M25.965,68.397c-1.11,0.771-1.541,0.266-1.639-0.869
		c-0.598,0.095-1.197,0.191-1.795,0.286c0.335,0.95,0.669,1.898,1.005,2.845c0.898-0.514,1.796-1.027,2.694-1.54
		C26.126,68.883,26.038,68.643,25.965,68.397z"/>
	<path fill-rule="evenodd" clip-rule="evenodd" fill="#BC9149" d="M10.834,68.473c-0.788,0.096-1.577,0.19-2.365,0.285
		c-0.426,0.354-0.8,0.737-0.926,1.257c0.587,0.532,1.18,1.057,1.785,1.566c0.672,0.436,1.366,0.828,2.221,0.882
		C10.878,71.211,8.805,70.209,10.834,68.473z"/>
	<path fill-rule="evenodd" clip-rule="evenodd" fill="#C29E69" d="M61.11,56.643c0.428-0.302,0.685-0.699,0.773-1.189
		C61.658,55.869,61.394,56.262,61.11,56.643z"/>
	<path fill-rule="evenodd" clip-rule="evenodd" fill="#C69758" d="M67.119,54.077c-0.229,0.073-0.455,0.167-0.68,0.288
		c0.182,0.622,0.559,0.962,1.008,1.2C67.338,55.069,67.214,54.575,67.119,54.077z"/>
	<path fill-rule="evenodd" clip-rule="evenodd" fill="#F9DFAD" d="M67.768,57.547l-0.919,0.55c0.098,1.535,0.554,2.281,1.205,2.601
		C68.033,59.645,67.91,58.596,67.768,57.547z"/>
	<path fill-rule="evenodd" clip-rule="evenodd" fill="#F5D5A4" d="M62.672,51.399l-0.151-0.252
		c-0.015,0.117-0.027,0.234-0.035,0.352L62.672,51.399z"/>
	<path fill-rule="evenodd" clip-rule="evenodd" fill="#FDF4C0" d="M60.183,57.874c0.328,0.054,0.666-0.039,0.999-0.068
		c0.847-0.759,2.588,0.847,2.923-0.956c0.254-1.365-1.076-1.502-1.917-2.032c-0.393,0.953-1.022,1.785-1.675,2.591
		C60.393,57.555,60.28,57.711,60.183,57.874z"/>
	<path fill-rule="evenodd" clip-rule="evenodd" fill="#DBBC89" d="M61.182,57.806l-0.852-0.157c-0.067,0.095-0.13,0.193-0.186,0.293
		c-0.297,0.526-0.52,1.107-0.885,1.579l-0.128,0.169c0.21,0.497,0.94,0.963,2.306,1.728c0.223-0.123,0.447-0.247,0.67-0.371
		C63.097,59.596,60.117,59.279,61.182,57.806z"/>
	<path fill-rule="evenodd" clip-rule="evenodd" fill="#C19556" d="M66.239,53.923c0.613-2.029-1.169-0.566-1.588-1.09
		c-0.362,0.434-1.162,0.869-0.648,1.458C64.787,55.19,65.494,54.119,66.239,53.923z"/>
	<path fill-rule="evenodd" clip-rule="evenodd" fill="#C29E69" d="M61.437,61.417c-0.23-0.964-1.631-1.513-1.797-2.501
		c-0.114,0.212-0.236,0.417-0.382,0.604c-0.312,0.404-0.593,0.811-0.815,1.26c0.633,0.786,1.344,1.509,2.13,2.169
		C60.862,62.439,61.15,61.928,61.437,61.417z"/>
	<path fill-rule="evenodd" clip-rule="evenodd" fill="#F4DCAB" d="M60.397,77.873c-1.032-0.273-2.063-0.546-3.094-0.819
		c-0.583,0.87-0.623,2.21,0.167,2.404c2.414,0.592,4.311,2.76,7.012,2.38c-0.018-0.154-0.03-0.319-0.037-0.494
		c-0.876-1.365-2.98-1.33-3.648-2.933C60.681,78.218,60.548,78.039,60.397,77.873z"/>
	<path fill-rule="evenodd" clip-rule="evenodd" fill="#C49B62" d="M48.392,14.148c-0.039,0.149-0.065,0.294-0.073,0.436
		C48.345,14.429,48.37,14.284,48.392,14.148L48.392,14.148z M48.3,21.248c-1.217,0.631-3.083,1.007-2.379,2.906
		c0.735,1.977,2.696,0.486,4.084,0.719c0.069,0,0.135-0.003,0.198-0.009c-0.76-0.888-1.246-1.96-1.686-3.011
		C48.434,21.654,48.362,21.452,48.3,21.248z"/>
	<path fill-rule="evenodd" clip-rule="evenodd" fill="#C5975A" d="M45.498,57.301c0.458-0.257,0.884-0.597,1.262-1.059
		c0.04-0.072,0.078-0.145,0.114-0.219c-0.022-0.56-0.063-1.118-0.13-1.675c-0.12-0.992,0.076-1.827,0.586-2.557
		c-0.878-0.109-1.717,0.623-2.525,1.005l-0.016,0.007c0.294,0.158,0.283,0.443,0.278,0.739c-0.013,0.852,0.096,1.682,0.374,2.493
		C45.453,56.074,45.476,56.63,45.498,57.301z"/>
	<path fill-rule="evenodd" clip-rule="evenodd" fill="#EECC9C" d="M37.122,42.755c0.137-0.23,0.251-0.46,0.331-0.679
		c0.278-1.321,0.229-2.434-1.604-1.917c-0.154,0.043-0.303,0.097-0.447,0.158C35.74,41.303,36.448,41.739,37.122,42.755
		L37.122,42.755z M35.268,39.79c-0.016-0.093-0.03-0.19-0.041-0.293c-0.052-0.497-0.131-0.995-0.229-1.488
		c0.179,0.151,0.344,0.353,0.491,0.625C35.506,39.094,35.42,39.471,35.268,39.79z"/>
	<polygon fill-rule="evenodd" clip-rule="evenodd" fill="#C29A5F" points="33.209,23.11 33.282,22.981 33.247,22.971 	"/>
	<path fill-rule="evenodd" clip-rule="evenodd" fill="#C49045" d="M3.059,65.097c0.673,0.18,1.34,0.109,2.003-0.076
		c2.84-1.869-0.643-2.571-0.71-3.91c-0.408-0.682-0.158-1.723-0.389-2.503c-0.901-0.251-1.876-0.278-2.821-0.34
		c-1.166-0.078-1.301,1.934-1.011,2.631c0.646,1.544,1.646,2.85,2.797,4.057L3.059,65.097z"/>
	<path fill-rule="evenodd" clip-rule="evenodd" fill="#C18F42" d="M44.859,52.848c0.568-0.854,1.185-2.384,1.217-3.001
		c-1.229-1.929-3.118-1.937-5.078-1.741l-0.951,1.177c1.081,1.723,2.592,2.793,4.617,3.468
		C44.744,52.777,44.808,52.81,44.859,52.848z"/>
	<path fill-rule="evenodd" clip-rule="evenodd" fill="#CFAC76" d="M3.878,61.415c-0.49,1.135,0.187,1.514,1.103,1.883
		c0.986,0.397,0.464,0.874-0.069,1.276c1.31,1.822,2.455,1.547,3.479-0.273c-1.349-1.176-1.922-2.327-1.021-4.256
		c0.083-0.178,0.156-0.36,0.219-0.545c-0.872-0.251-1.767-0.41-2.651-0.626c-0.374,0.7-0.745,1.4-1.006,2.153
		C3.889,61.149,3.894,61.286,3.878,61.415z"/>
	<path fill-rule="evenodd" clip-rule="evenodd" fill="#C0964D" d="M45.808,65.011c0.256-0.217,0.499-0.506,0.724-0.885
		c0.167-0.335,0.288-0.677,0.376-1.023c-0.057-0.407-0.093-0.814-0.081-1.218c0.025-0.834,0.015-1.666,0.036-2.497
		c0.015-0.618,0.03-1.236,0.033-1.853c-0.495-0.346-0.935,0.041-1.38,0.391c0.022,0.749,0.038,1.49,0.035,1.733
		c-0.012,1.557-0.052,3.102,0.152,4.666C45.734,64.555,45.769,64.783,45.808,65.011z"/>
	<path fill-rule="evenodd" clip-rule="evenodd" fill="#C4A066" d="M39.508,16.607c0.493-2.56,0.801-5.146,4.234-5.642
		c1.459-0.211,2.121-1.645,2.463-3.06c-1.195-2.291-3.058-1.044-4.715-0.897c-0.518,0.207-0.963,0.521-1.308,0.956
		c-0.343,0.793-0.428,1.852-1.72,1.715l-0.015,0.003c-0.114,0.16-0.236,0.317-0.37,0.468c-0.193,0.218-0.286,0.522-0.442,0.776
		c-0.161,0.264-0.297,0.563-0.492,0.793c0.099,0.321,0.246,0.656,0.39,0.99c0.22,0.676-0.198,1.17-0.5,1.699
		c-0.253,0.44-0.363,0.898-0.198,1.393c0.211,0.255,0.477,0.432,0.789,0.539C38.234,16.537,38.852,16.705,39.508,16.607z"/>
	<path fill-rule="evenodd" clip-rule="evenodd" fill="#FDF8C8" d="M34.182,34.702c0.201-0.392,0.287-0.829,0.239-1.319
		c-0.121-0.467-0.356-0.854-0.712-1.151C33.817,33.064,33.987,33.886,34.182,34.702z"/>
	<path fill-rule="evenodd" clip-rule="evenodd" fill="#FCF3B9" d="M40.999,48.108c1.537,0.811,3.134,1.408,4.907,1.387
		c0.239,0.492,0.654,0.785,1.137,1.001c0.36,0.178,0.734,0.3,1.116,0.391c0.263-0.251,0.523-0.507,0.76-0.781
		c0.367-0.424,0.723-0.853,0.991-1.35c-0.055-0.422-0.214-0.82-0.598-1.169c-0.419-0.096-0.837-0.192-1.256-0.287
		c-0.724-0.527-0.387-1.008-0.01-1.585c1.13-1.727,0.453-2.473-1.44-2.49c-1.271,1.111-2.614,2.116-4.127,2.879
		C41.985,46.77,41.492,47.438,40.999,48.108z"/>
	<path fill-rule="evenodd" clip-rule="evenodd" fill="#C0A86C" d="M48.855,31.834c-1.337-0.531,1.403-4.072-2.176-2.949
		c-1.247,0.393,0.048,1.351-0.427,1.916c0.767,1.652,1.604,3.274,2.281,4.96c0.766,1.906,1.236-0.761,2.11-0.075
		c0.598,0.469,1.672,0.027,1.59-0.957c-0.072-0.861-1.095-0.972-1.823-1.22C50.258,32.611,49.721,32.071,48.855,31.834z"/>
	<path fill-rule="evenodd" clip-rule="evenodd" fill="#D1AC76" d="M45.119,3.348c-0.003,0.167,0.006,0.34,0.029,0.521
		c0.527,1.359,0.145,3.173,1.853,3.951c-0.276-0.669-0.566-1.333-0.85-1.998C45.8,5.002,45.519,4.147,45.119,3.348z"/>
	<path fill-rule="evenodd" clip-rule="evenodd" fill="#EBDBB8" d="M21.354,62.6c0.022,1.002,0.208,1.804,1.084,1.847
		c0.807,0.039,1.329-0.324,1.685-0.897C23.227,63.212,22.202,62.859,21.354,62.6z"/>
	<path fill-rule="evenodd" clip-rule="evenodd" fill="#BF9350" d="M44.201,32.086c-0.511-0.97-1.023-1.94-1.535-2.91
		c-2.213-0.461-4.395-0.76-6.161,1.159c0.553,2.321,2.454,3.084,4.393,3.805l0.309-0.174l0.3-0.188
		C42.694,33.674,43.566,33.067,44.201,32.086z"/>
	<path fill-rule="evenodd" clip-rule="evenodd" fill="#DBC9A3" d="M62.767,49.856c0.036,0.007,0.073,0.012,0.11,0.017
		c0.968,0.113,1.38,1.939,2.607,0.921c0.241-0.2,0.439-0.521,0.572-0.868c-0.064-0.19-0.109-0.382-0.113-0.573
		c-0.013-0.731-0.381-1.23-0.817-1.687c-0.378-0.09-0.793-0.128-1.147-0.228l-0.111-0.032l-0.008,0.011
		c-0.384,0.588-0.808,1.209-0.96,1.874L62.767,49.856z"/>
	<path fill-rule="evenodd" clip-rule="evenodd" fill="#FDEEBE" d="M44.133,42.275c-0.763-0.96,0.168-1.842,0.128-2.77
		c0.108-0.732-0.188-1.211-0.895-1.433c-3.045-0.075-2.608,2.833-3.757,4.383c0.658,0.675,1.347,1.281,2.394,1.135
		c0.312-0.158,0.622-0.315,0.934-0.472C43.587,43.195,43.978,42.903,44.133,42.275z"/>
	<path fill-rule="evenodd" clip-rule="evenodd" fill="#E8C896" d="M36.605,30.251c2.021-0.358,4.041-0.716,6.062-1.074
		c-0.769-3.278-4.055-0.091-5.328-2.075c-1.142,0.922-2.094,1.914-1.314,3.547c0.149,0.009,0.297,0.018,0.446,0.027
		C36.516,30.535,36.56,30.392,36.605,30.251z"/>
	<path fill-rule="evenodd" clip-rule="evenodd" fill="#DEBD8C" d="M3.036,65.071c0.084-0.11,0.132-0.261,0.143-0.452
		c-0.199-0.005-0.401-0.024-0.601-0.04c0.115,0.126,0.232,0.252,0.35,0.376L3.036,65.071z"/>
	<path fill-rule="evenodd" clip-rule="evenodd" fill="#DAB785" d="M33.921,33.513l0.069,0.133c1.369,1.905,2.79,2.09,4.278,0.132
		c-0.114-1.518-1.115-2.39-2.292-3.133l0.048,0.005c-1.214,0.271-1.951-0.251-2.528-1.035c0.042,0.698,0.086,1.397,0.153,2.092
		C33.708,32.315,33.803,32.916,33.921,33.513z"/>
	<path fill-rule="evenodd" clip-rule="evenodd" fill="#C38933" d="M48.507,12.61c-0.555,0.343-1.111,0.687-1.665,1.032
		c-1.138,0.708-2.55,1.57-1.795,3.02c0.59,1.135,1.618-0.381,2.482-0.38c0.173,0,0.345,0.006,0.517,0.015
		c0.028-0.259,0.063-0.518,0.107-0.773C48.409,14.052,48.558,13.343,48.507,12.61z"/>
	<path fill-rule="evenodd" clip-rule="evenodd" fill="#D3AE7C" d="M48.801,50.239c-0.491-0.362-1.103-0.493-1.804-0.455
		c-0.891,0.995-2.18,1.581-2.878,2.771c0.177,0.069,0.359,0.134,0.545,0.196c0.42,0.14,0.407,0.459,0.402,0.791
		c-0.002,0.117-0.001,0.233,0.001,0.348c0.609-0.352,1.162-0.849,1.792-1.144c0.182-0.597,0.528-1.127,1.038-1.611
		C48.205,50.843,48.516,50.552,48.801,50.239z"/>
	<path fill-rule="evenodd" clip-rule="evenodd" fill="#D3B17F" d="M11.496,60.71c-0.289,1.137,0.698,1.877,1.003,2.829
		c0.925,0.418,1.849,0.837,2.775,1.254l0.289-3.266c-0.478-0.075-0.955-0.152-1.431-0.233C13.245,61.143,12.36,60.955,11.496,60.71z
		"/>
	<path fill-rule="evenodd" clip-rule="evenodd" fill="#D5AF78" d="M35.069,38.388c0.033,0.013,0.066,0.026,0.099,0.043
		c0.389,0.495,0.904,0.652,1.512,0.563c0.69-0.38,1.373-0.765,0.605-1.675c-1.191-0.551,0.444-1.254-0.098-1.841
		c-0.913-0.486-1.841-0.873-2.9-0.48l-0.022,0.045c0.137,0.554,0.283,1.106,0.429,1.659C34.839,37.257,34.968,37.821,35.069,38.388z
		"/>
	<path fill-rule="evenodd" clip-rule="evenodd" fill="#FCF8CA" d="M56.882,70.674c-1.296-1.629-0.206-3.883-1.448-5.525
		c-0.237-0.011-0.463-0.004-0.679,0.018c-0.288,0.611-0.536,1.191-0.637,1.622c-0.052,0.222-0.11,0.458-0.172,0.706
		c0.2,0.148,0.303,0.439,0.23,0.991C53.852,70.925,55.877,70.089,56.882,70.674z"/>
	<path fill-rule="evenodd" clip-rule="evenodd" fill="#CCAC79" d="M33.241,22.991l0.041-0.01c0.644-0.389,1.289-0.779,1.933-1.167
		c0.1-0.125,0.2-0.25,0.301-0.374c0.166-0.475,0.143-0.94-0.084-1.391c-0.415-0.488-0.683-1.095-1.199-1.513
		c-0.096-0.018-0.191-0.031-0.286-0.038c-0.371,1.533-0.159,1.91-0.351,3.12c-0.064,0.4-0.172,0.795-0.297,1.181
		C33.279,22.862,33.26,22.926,33.241,22.991z"/>
	<path fill-rule="evenodd" clip-rule="evenodd" fill="#C6A97C" d="M42.003,43.59c-0.676-0.636-1.387-1.197-2.394-1.135
		c-0.317,0.694-1.022,1.431-1.594,2.146c0.355,0.891,0.681,1.794,1.049,2.683C40.113,46.65,40.999,44.601,42.003,43.59z"/>
	<path fill-rule="evenodd" clip-rule="evenodd" fill="#E6D2A3" d="M43.366,38.072c0.299,0.478,0.597,0.955,0.895,1.433
		c2.62,0.094,0.57-3.023,2.39-3.478c-0.54-1.163-1.511-1.191-2.628-1.125C39.769,35.153,45.675,37.458,43.366,38.072z"/>
	<path fill-rule="evenodd" clip-rule="evenodd" fill="#D4A97A" d="M44.133,42.275c-0.399,0.281-0.798,0.562-1.198,0.842
		c-0.152,0.996-0.303,1.99-0.456,2.985c2.342,0.655,3.646-0.48,4.399-2.56c-0.462-1.423-1.699-1.095-2.739-1.212L44.133,42.275z"/>
	<path fill-rule="evenodd" clip-rule="evenodd" fill="#B8893A" d="M36.408,38.754c-0.413-0.107-0.826-0.215-1.239-0.323
		c-0.021,0.045-0.045,0.09-0.069,0.135c0.052,0.31,0.095,0.62,0.127,0.931c0.074,0.704,0.282,1.172,0.561,1.579
		c0.213-0.112,0.427-0.205,0.644-0.263c0.968-0.259,0.62,0.878,1.021,1.264c0.413-0.345,0.827-0.689,1.242-1.035
		C38.788,39.423,37.953,38.733,36.408,38.754z"/>
	<path fill-rule="evenodd" clip-rule="evenodd" fill="#C7A365" d="M35.215,21.814c-0.056,1.27,0.404,1.752,1.557,0.937
		c1.811-1.282,2.688-3.059,2.643-5.284c-0.394-0.169-0.795-0.189-1.204-0.067c-2.053,0.764-2.234,2.791-2.988,4.432L35.215,21.814z"
		/>
	<path fill-rule="evenodd" clip-rule="evenodd" fill="#FCDDA9" d="M44.14,42.33c0.912,0.404,1.826,0.808,2.739,1.212
		c1.081,0.394,1.937,0.741,0.521,1.936c-0.331,0.278-1.812,2.036,0.657,1.82c0.615-1.348,1.951-2.744,0.258-4.119
		C47.148,42.233,45.92,40.652,44.14,42.33z"/>
	<path fill-rule="evenodd" clip-rule="evenodd" fill="#FDF7C2" d="M35.976,30.644c0.666,1.109,1.332,2.22,1.998,3.33
		c-0.157,0.504,0.029,0.758,0.558,0.76c1.037,0.793,1.806,0.515,2.367-0.593c-0.709-2.094-3.208-2.211-4.293-3.889
		C36.375,30.348,36.166,30.48,35.976,30.644z"/>
	<path fill-rule="evenodd" clip-rule="evenodd" fill="#E1C194" d="M46.994,7.806c-0.5-0.294-0.566-0.739-0.518-1.223l-0.326-0.759
		c-0.209-0.49-0.393-0.992-0.593-1.487c-1.085,0.523-2.205,0.962-3.312,1.43c-0.743,0.315-1.818,0.799-0.722,1.933
		c1.553,0.233,3.16-0.796,4.68,0.204l0.821-0.024L46.994,7.806z"/>
	<path fill-rule="evenodd" clip-rule="evenodd" fill="#C78F42" d="M48.855,31.834c0.521,0.559,1.042,1.118,1.559,1.676
		c0.798-0.065,1.61-0.509,2.403-0.359c-0.045-0.528-0.11-1.072-0.198-1.624L48.855,31.834z"/>
	<path fill-rule="evenodd" clip-rule="evenodd" fill="#C8995A" d="M45.68,58.89c0.453-0.203,0.68-0.894,1.213-0.92
		c0.013-0.976,0.002-1.951-0.078-2.922c-0.067,0.175-0.099,0.375-0.086,0.605c-0.279,0.634-0.725,1.009-1.242,1.275
		c0.021,0.592,0.043,1.364,0.056,1.95C45.587,58.878,45.633,58.882,45.68,58.89z"/>
	<path fill-rule="evenodd" clip-rule="evenodd" fill="#E8C893" d="M36.408,38.754c0.729,0.797,2.032,1.019,2.288,2.287
		c0.465-0.761,0.93-1.523,1.395-2.284c0.022-1.346-0.753-1.847-1.979-1.87c-0.276,0.145-0.55,0.288-0.826,0.432
		C36.993,37.797,36.7,38.276,36.408,38.754z"/>
	<path fill-rule="evenodd" clip-rule="evenodd" fill="#F8DCAD" d="M38.532,34.733c-0.185-0.253-0.371-0.506-0.558-0.76
		c-1.408,0.861-2.697,0.28-3.984-0.328l-0.031,0.058c0.118,0.575,0.255,1.145,0.4,1.714c0.942,0.021,1.885,0.041,2.828,0.06
		C37.636,35.231,38.083,34.982,38.532,34.733z"/>
	<path fill-rule="evenodd" clip-rule="evenodd" fill="#C4B399" d="M46.458,10.698c-0.435,0.129-0.865,0.124-1.048,0.333
		c-0.669,0.77-1.255,1.611-1.874,2.425c0.341-0.048,0.729-0.007,1.015-0.158C45.535,12.78,45.983,11.828,46.458,10.698z"/>
	<path fill-rule="evenodd" clip-rule="evenodd" fill="#B8802E" d="M44.201,32.086c-1.349-0.154-1.79,1.139-2.694,1.693
		C42.384,33.18,44.987,35.329,44.201,32.086z"/>
	<path fill-rule="evenodd" clip-rule="evenodd" fill="#DBAD6F" d="M50.114,24.758l-0.109,0.116c0.121,0.061,0.242,0.121,0.363,0.176
		C50.28,24.955,50.195,24.858,50.114,24.758z"/>
	<path fill-rule="evenodd" clip-rule="evenodd" fill="#D9AE7D" d="M49.312,47.586l0.346,1.583c0.186-0.275,0.348-0.567,0.471-0.891
		c0.123-0.322,0.228-0.652,0.367-0.971C50.222,46.996,49.679,47.326,49.312,47.586z"/>
	<path fill-rule="evenodd" clip-rule="evenodd" fill="#C69D57" d="M38.111,36.886c0.916,0.351,1.532,1.021,1.979,1.869
		c0.011-0.538,1.14-0.876,0.303-1.559C39.707,36.636,39.01,35.964,38.111,36.886z"/>
	<path fill-rule="evenodd" clip-rule="evenodd" fill="#D3AE79" d="M38.319,17.962c0.364-0.165,0.73-0.33,1.096-0.494
		c0.031-0.288,0.061-0.574,0.091-0.86c-0.405-0.571-0.838-1.101-1.637-1.069c-0.116,0.476-0.538,0.843-0.497,1.377
		C37.498,17.435,37.796,17.801,38.319,17.962z"/>
	<path fill-rule="evenodd" clip-rule="evenodd" fill="#C89C60" d="M46.252,30.8c0.144-0.639,0.286-1.28,0.428-1.917
		c-0.151-0.463-0.543-1.21-0.857-0.925C44.689,28.989,45.845,29.878,46.252,30.8z"/>
	<path fill-rule="evenodd" clip-rule="evenodd" fill="#D09F70" d="M74.805,115.344c-0.236,0.122-0.459,0.27-0.662,0.452
		C74.484,115.967,74.825,115.99,74.805,115.344z"/>
	<path fill-rule="evenodd" clip-rule="evenodd" fill="#FCF8CA" d="M41.512,0.486c0.651,0.35,1.322,0.655,2.049,0.841
		c0.133,0.043,0.265,0.075,0.396,0.099c-0.263-0.418-0.554-0.815-0.96-1.131c-0.404-0.313-0.834-0.423-1.173-0.1
		C41.722,0.292,41.616,0.388,41.512,0.486z"/>
	<path fill-rule="evenodd" clip-rule="evenodd" fill="#C0964D" d="M34.225,69.107l-3.065,1.906c1.336-0.285,2.563-0.745,3.665-1.407
		l-0.44-0.368C34.332,69.193,34.278,69.15,34.225,69.107z"/>
	<path fill-rule="evenodd" clip-rule="evenodd" fill="#F5D0A4" d="M3.179,64.619l-0.308,0.276l0.057,0.06
		c0.357,0.374,0.699,0.813,1.026,1.252l1.005,0.22c0.872-0.467,1.602-0.032,2.338,0.367c1.432,0.16,1.587-0.738,1.511-1.826
		c-0.136-0.225-0.275-0.447-0.418-0.667c-1.107,0.763-2.232,1.304-3.48,0.273C4.334,64.589,3.757,64.604,3.179,64.619z"/>
	<path fill-rule="evenodd" clip-rule="evenodd" fill="#DEBD8D" d="M8.809,64.968c-0.505,0.609-1.009,1.218-1.512,1.826
		c0.897,0.08,1.793,0.16,2.689,0.241C11.145,65.463,10.573,64.876,8.809,64.968z"/>
	<path fill-rule="evenodd" clip-rule="evenodd" fill="#FCF8CA" d="M45.505,57.524c0.569-0.372,1.015-0.936,1.222-1.871
		c-0.405,0.285-0.828,0.52-1.264,0.719C45.477,56.65,45.491,57.072,45.505,57.524z"/>
	<path fill-rule="evenodd" clip-rule="evenodd" fill="#FCEAB6" d="M45.68,58.89c-0.047-0.019-0.093-0.035-0.139-0.05l0.003,0.173
		L45.68,58.89z"/>
	<path fill-rule="evenodd" clip-rule="evenodd" fill="#C29A5D" d="M32.203,68.256c0.099-0.105,0.203-0.201,0.312-0.29l-0.073-0.042
		L32.203,68.256z"/>
	<path fill-rule="evenodd" clip-rule="evenodd" fill="#FCF8CA" d="M33.982,18.355c0.096-0.019,0.192-0.045,0.288-0.081
		c1.258-0.56,1.32-1.631,1.198-2.782c-0.07-0.198-0.153-0.392-0.243-0.582c-0.112,0.277-0.23,0.549-0.368,0.812
		c-0.327,0.622-0.755,1.181-0.679,1.943c0.015,0.149-0.095,0.309-0.137,0.467L33.982,18.355L33.982,18.355z M38.751,9.203
		c0.133-0.059,0.265-0.129,0.393-0.213c0.266-0.238,0.476-0.521,0.641-0.839c-0.016-0.366-0.12-0.613-0.279-0.789
		C39.316,8.002,39.083,8.624,38.751,9.203z"/>
	<path fill-rule="evenodd" clip-rule="evenodd" fill="#B97C29" d="M3.878,61.415c1.122-0.544,1.78-1.349,2.217-2.278
		c-0.67-0.147-1.343-0.29-2.004-0.492c-0.601-0.184-1.239-0.261-1.881-0.309c0.633,0.13,1.624-0.034,0.828,1.294
		C2.472,60.574,3.124,61.041,3.878,61.415z"/>
	<path fill-rule="evenodd" clip-rule="evenodd" fill="#B37A22" d="M44.159,52.57c0.981-0.894,2.785-0.947,2.838-2.786
		c-0.364-0.097-0.726-0.193-1.09-0.29c-0.574,1.157-1.714,1.798-2.498,2.71l-0.027,0.032C43.631,52.355,43.89,52.467,44.159,52.57z"
		/>
	<path fill-rule="evenodd" clip-rule="evenodd" fill="#BB8434" d="M39.376,7.775l0.155,0.032c-0.048,0.495,0.176,0.77,0.67,0.825
		c0.44-0.31,0.881-0.621,1.321-0.932c0.016-1.511,1.046-1.59,2.141-1.446c1.365,0.18,1.775-0.596,2.046-1.534
		c-0.3-0.767-0.611-1.528-1.082-2.213c-0.352-0.512-0.63-1.079-1.009-1.573c-0.092,0.097-0.185,0.194-0.279,0.29
		c-0.696,1.095-1.883,1.447-2.962,1.965c-0.158,0.967-0.303,1.938-0.533,2.888C39.705,6.649,39.562,7.221,39.376,7.775z"/>
	<path fill-rule="evenodd" clip-rule="evenodd" fill="#C29B63" d="M34.896,15.646c0.82,0.034,1.262-0.597,1.759-1.13
		c0.757-0.613,1.673-1.074,2.011-2.09c-0.376-0.49-1.229-0.717-1.03-1.505l-0.003,0.005c-0.195,0.319-0.353,0.691-0.625,0.928
		c-0.528,0.459-0.89,1.028-1.188,1.631C35.473,14.185,35.25,14.95,34.896,15.646L34.896,15.646z M37.753,10.704
		c0.159-0.095,0.52-0.113,0.755-0.179c1.181-0.43,1.314-1.129,0.602-2.048c-0.255,0.596-0.583,1.162-1.035,1.674
		C37.937,10.307,37.85,10.508,37.753,10.704z"/>
	<path fill-rule="evenodd" clip-rule="evenodd" fill="#D3AE79" d="M35.916,13.947l-0.684,0.945
		c-0.114,0.283-0.234,0.562-0.375,0.831c-0.064,0.122-0.132,0.241-0.199,0.36c-0.024,0.654,0.048,1.342-0.523,1.801
		c-0.031,0.083-0.073,0.166-0.095,0.249c-0.052,0.192-0.095,0.367-0.132,0.528c0.155,0.077,0.27,0.091,0.347,0.044l-0.037-0.011
		c2.062,0.244,2.626-1.123,2.948-2.746c0.092-0.362,0.183-0.725,0.275-1.087C37.374,13.82,36.525,14.083,35.916,13.947z"/>
	<path fill-rule="evenodd" clip-rule="evenodd" fill="#BD8B4C" d="M37.166,15.948c-0.982,0.915-1.965,1.83-2.948,2.746
		c0.242,0.553-0.224,1.599,1.015,1.458c1.271-0.835,2.272-1.852,2.364-3.485c0.09-0.376,0.181-0.753,0.272-1.128
		C37.635,15.674,37.401,15.811,37.166,15.948z"/>
	<path fill-rule="evenodd" clip-rule="evenodd" fill="#FCF8CA" d="M35.916,13.947c0.509,0.305,1.018,0.61,1.526,0.914
		c0.635-0.697,2.254-0.899,1.225-2.434C37.75,12.933,36.833,13.44,35.916,13.947z"/>
	<path fill-rule="evenodd" clip-rule="evenodd" fill="#B37E30" d="M38.943,8.843l-0.434,1.682c1.014,0.477,1.834,0.022,2.376-0.733
		c0.383-0.535-0.414-0.784-0.684-1.159c-0.222-0.274-0.446-0.549-0.67-0.825c-0.099,0.146-0.205,0.286-0.319,0.421
		C39.131,8.437,39.042,8.642,38.943,8.843z"/>
	<path fill-rule="evenodd" clip-rule="evenodd" fill="#C3893C" d="M34.256,18.705c-0.084-0.133-0.172-0.265-0.263-0.394
		c-0.058,0.226-0.104,0.429-0.141,0.612C33.986,18.849,34.121,18.777,34.256,18.705z"/>
	<path fill-rule="evenodd" clip-rule="evenodd" fill="#F7C795" d="M37.597,16.666c-0.851,1.119-1.986,2.045-2.364,3.484
		c-0.003,0.561-0.006,1.121-0.009,1.682c1.032-1.29,2.064-2.58,3.096-3.87C38.078,17.529,37.837,17.097,37.597,16.666z"/>
	<path fill-rule="evenodd" clip-rule="evenodd" fill="#DFB986" d="M40.377,3.189l0.12-0.058c0.816-0.656,0.741-1.475,0.657-2.296
		c-0.272,0.286-0.507,0.602-0.624,0.997c-0.103,0.35-0.051,0.743-0.112,1.109L40.377,3.189z"/>
	<path fill-rule="evenodd" clip-rule="evenodd" fill="#C9A46B" d="M40.578,1.691c0.13,0.353,0.162,0.682-0.129,0.924l-0.008,0.129
		c1.593,0.345,2.535-0.469,3.194-1.789c-0.06-0.079-0.123-0.157-0.189-0.233l-1.326-0.7c-0.104,0.028-0.204,0.084-0.297,0.172
		C41.354,0.642,40.818,1.067,40.578,1.691z"/>
	<path fill-rule="evenodd" clip-rule="evenodd" fill="#EECEA5" d="M40.255,3.94c1.581-0.437,3.885,0.002,3.506-2.811
		c-0.059-0.085-0.12-0.168-0.184-0.249c-1.042,0.587-2.085,1.172-3.129,1.756c-0.005,0.103-0.014,0.205-0.03,0.306
		C40.362,3.274,40.309,3.607,40.255,3.94z"/>
</g>
</svg>
