<?xml version="1.0" encoding="utf-8"?>
<!-- Generator: Adobe Illustrator 17.0.0, SVG Export Plug-In . SVG Version: 6.00 Build 0)  -->
<!DOCTYPE svg PUBLIC "-//W3C//DTD SVG 1.1//EN" "http://www.w3.org/Graphics/SVG/1.1/DTD/svg11.dtd">
<svg version="1.1" id="Слой_1" xmlns="http://www.w3.org/2000/svg" xmlns:xlink="http://www.w3.org/1999/xlink" x="0px" y="0px"
	 width="16.001px" height="16.001px" viewBox="0 0 16.001 16.001" enable-background="new 0 0 16.001 16.001" xml:space="preserve">
<path fill="#FFFFFF" d="M9.061,8.001l6.72-6.72c0.293-0.293,0.293-0.768,0-1.061s-0.768-0.293-1.061,0L8,6.94L1.28,0.22
	c-0.293-0.293-0.768-0.293-1.061,0s-0.293,0.768,0,1.061l6.72,6.72l-6.72,6.72c-0.293,0.293-0.293,0.768,0,1.061
	c0.146,0.146,0.338,0.22,0.53,0.22s0.384-0.073,0.53-0.22L8,9.061l6.72,6.72c0.146,0.146,0.338,0.22,0.53,0.22
	s0.384-0.073,0.53-0.22c0.293-0.293,0.293-0.768,0-1.061L9.061,8.001z"/>
</svg>
