<?xml version="1.0" encoding="utf-8"?>
<!-- Generator: Adobe Illustrator 17.0.0, SVG Export Plug-In . SVG Version: 6.00 Build 0)  -->
<!DOCTYPE svg PUBLIC "-//W3C//DTD SVG 1.1//EN" "http://www.w3.org/Graphics/SVG/1.1/DTD/svg11.dtd">
<svg version="1.1" id="Слой_1" xmlns="http://www.w3.org/2000/svg" xmlns:xlink="http://www.w3.org/1999/xlink" x="0px" y="0px"
	 width="45.056px" height="38.661px" viewBox="0 0 45.056 38.661" enable-background="new 0 0 45.056 38.661" xml:space="preserve">
<g>
	<g>
		<path fill-rule="evenodd" clip-rule="evenodd" fill="#FCF8CA" d="M0.5,15.709c0.655,0.548,1.178,1.363,1.697,2.185
			c1.748,2.266,5.194,1.861,6.825,4.318c0.139,0.516,0.112,1.014,0.026,1.505C4.316,22.605,1.554,19.411,0.5,15.709z"/>
		<path fill-rule="evenodd" clip-rule="evenodd" fill="#FCF8CA" d="M12.721,24.114c0.128-0.1,0.265-0.194,0.41-0.283
			c0.596-0.287,1.23-0.305,1.868-0.295C14.226,23.863,13.456,24.062,12.721,24.114L12.721,24.114z M21.204,17.787
			c-0.189-0.245-0.504-0.477-0.985-0.69c-0.794-0.505-1.508-1.09-2.01-1.899c-0.27-0.509-0.359-1.05-0.266-1.618
			c1.718-2.248,3.318-1.339,4.921-0.512C22.637,14.741,22.04,16.345,21.204,17.787z"/>
		<path fill-rule="evenodd" clip-rule="evenodd" fill="#C8A06D" d="M2.014,18.416c-0.195-0.072-0.374-0.177-0.541-0.303
			c-0.95-1.756-1.428-3.742-1.469-5.74c2.96,0.611,3.433,2.591,2.702,5.284C2.595,18.02,2.369,18.277,2.014,18.416z"/>
		<path fill-rule="evenodd" clip-rule="evenodd" fill="#C5AD83" d="M2.014,18.416c0.121-0.202,0.256-0.396,0.402-0.582
			c2.942-1.388,4.224,1.478,6.256,2.433c0.277,0.285,0.494,0.611,0.668,0.967c0.131,0.411,0.016,0.738-0.344,0.976
			c-2.319,0.428-3.749-2.437-6.146-2.107c-0.365-0.42-0.697-0.86-0.99-1.323C1.903,18.646,1.955,18.522,2.014,18.416z"/>
		<path fill-rule="evenodd" clip-rule="evenodd" fill="#CCA679" d="M9.752,23.866c0.01-0.497,0.193-0.977,0.507-1.444
			c0.26-0.257,0.57-0.418,0.93-0.484c1.027,0.389,1.911,0.951,2.404,1.987l-0.047,0.074c-0.475,0.1-0.941,0.145-1.389,0.128
			C11.307,24.095,10.507,24.005,9.752,23.866z"/>
		<path fill-rule="evenodd" clip-rule="evenodd" fill="#F2D9AC" d="M10.6,22.736l-0.329,1.216c-0.734-0.109-1.427-0.263-2.078-0.461
			c0.225-0.444,0.505-0.865,0.802-1.28c0.071-0.172,0.172-0.321,0.302-0.452C9.986,21.746,10.454,22.026,10.6,22.736z"/>
		<path fill-rule="evenodd" clip-rule="evenodd" fill="#FCF8CA" d="M22.884,10.296c-0.508,0.08-1.065,0.215-1.622,0.35
			c-2.143,0.144-3.822,1.933-6.063,1.735c-1.274-0.322-2.3,0.485-3.441,0.775c-1.453,0.179-2.895,0.259-4.22-0.544
			c-1.853-1.109-0.571-2.803-0.797-4.217c-0.204-0.8-0.61-1.52-0.919-2.278C5.535,5.322,5.39,4.494,5.238,3.667
			C5.174,3.06,5.03,2.472,4.867,1.887c1.789-1.284,4.04-2.009,6.699-1.867c0.079,0.653,0.099,1.309,0.094,1.966
			c-0.032,4.208-0.032,4.208,3.886,2.071c0.821-0.408,1.71-0.579,2.604-0.732c0.271-0.042,0.541-0.086,0.812-0.129
			C21.394,5.427,22.579,7.879,22.884,10.296z"/>
		<path fill-rule="evenodd" clip-rule="evenodd" fill="#C19247" d="M21.009,9.749c0.556-0.19,1.1-0.472,1.667-0.575
			c0.395,1.636,0.364,3.272,0.021,4.832l-0.052-0.048c-1.344-1.229-2.839-1.482-4.407-0.351c-1.316-0.676-0.639-1.472,0.028-1.99
			C19.133,10.942,20.181,10.502,21.009,9.749z"/>
		<path fill-rule="evenodd" clip-rule="evenodd" fill="#C4903B" d="M18.468,14.56c0.79,0.697,1.581,1.395,2.372,2.094
			c-0.236,0.753-0.828,0.918-1.518,0.922c-0.731-0.239-1.401-0.721-2.244-0.561c-0.352,0.055-0.695,0.081-1.049,0.103
			c-1.331-0.126-2.97,0.984-3.911-0.394c-0.693-1.015,0.286-2.149,0.949-3.098C15.351,11.148,16.958,12.578,18.468,14.56z"/>
		<path fill-rule="evenodd" clip-rule="evenodd" fill="#FDF5BD" d="M18.468,14.56c-1.784-1.273-3.57-2.606-5.13,0.276
			c-0.729,0.13-1.005,1.122-1.876,0.983c-0.333-0.221-0.502-0.535-0.533-0.93c0.091-0.821,0.524-1.417,1.213-1.845
			c0.958-0.609,1.751-1.488,2.904-1.781c2.308,0.758,3.78-1.78,5.963-1.515c0.365,2.212-3.337,1.502-2.771,3.858
			C18.315,13.924,18.392,14.241,18.468,14.56z"/>
		<path fill-rule="evenodd" clip-rule="evenodd" fill="#BB8431" d="M19.306,17.386c0.512-0.244,1.022-0.489,1.534-0.732
			c0.316,0.084,0.592,0.17,0.832,0.258c-0.881,1.799-2.14,3.392-3.547,4.621c-1.069-0.776-1.414-2.039-2.043-3.114
			c-0.175-0.847-0.081-1.562,0.91-1.826c0.219-0.239,0.437-0.478,0.657-0.717C18.404,16.156,18.323,17.354,19.306,17.386z"/>
		<path fill-rule="evenodd" clip-rule="evenodd" fill="#D5AE7D" d="M14.851,23.597c-0.333-0.293-0.563-0.677-0.685-1.157
			c-0.07-0.912-0.553-1.898,0.445-2.632c1.723-0.47,2.406,0.972,3.424,1.802C17.019,22.482,15.929,23.164,14.851,23.597z"/>
		<path fill-rule="evenodd" clip-rule="evenodd" fill="#F2D0A1" d="M19.149,20.545c0.251-0.611,0.421-1.295,1.147-1.373
			C19.937,19.657,19.552,20.116,19.149,20.545z"/>
		<path fill-rule="evenodd" clip-rule="evenodd" fill="#FCE7BA" d="M14.625,22.385l0.599,1.052
			c-0.524,0.238-1.049,0.417-1.563,0.534l-0.068-0.047c-1.184-0.137-2.107-0.628-2.502-1.839c0.029-0.402,0.233-0.681,0.59-0.858
			C12.87,21.085,13.96,21.198,14.625,22.385z"/>
		<path fill-rule="evenodd" clip-rule="evenodd" fill="#FCF8CA" d="M3.417,3.147C3.28,3.365,3.129,3.577,2.959,3.781L2.77,3.886
			C2.974,3.63,3.191,3.383,3.417,3.147z"/>
		<path fill-rule="evenodd" clip-rule="evenodd" fill="#FCF8CA" d="M8.711,21.359c-2.127-1.123-3.661-3.306-6.294-3.525
			c-0.261-0.281-0.78-0.607-0.741-0.836c0.296-1.719,1.016-3.543-1.599-3.449c-0.185-1.715-0.036-3.469,0.417-5.123
			C0.62,8.448,0.753,8.477,0.893,8.515c0.44,0.315,0.718,0.757,0.975,1.214c0.999,1.866,3.177,1.749,4.68,2.768
			c0.283,0.222,0.493,0.499,0.642,0.828c0.099,0.348,0.135,0.702,0.114,1.064c0.077,0.837-1.312,2.29,0.947,2.204
			c0.283,0.221,0.487,0.494,0.624,0.819C8.711,18.722,9.783,20.087,8.711,21.359z"/>
		<path fill-rule="evenodd" clip-rule="evenodd" fill="#D3B07C" d="M0.801,9.017C0.648,8.956,0.508,8.91,0.38,8.877
			c0.506-2.127,1.512-4.111,2.971-5.662c0.883,0.114,1.753,0.328,2.643,0.383c0.043,0.785,0.086,1.569,0.127,2.354
			c-0.2,1.63-1.216,2.501-2.717,2.921C2.519,8.555,1.674,9.049,0.801,9.017z"/>
		<path fill-rule="evenodd" clip-rule="evenodd" fill="#D1AE7C" d="M8.711,21.359c-0.257-1.319-2.036-2.61-0.075-3.972
			c1.326-0.92,2.098,0.805,3.262,0.668c0.888,0.009,1.718,0.15,2.237,0.987c0.111,0.337,0.073,0.659-0.108,0.963
			c-0.465,1.083-1.656,1-2.468,1.53c-0.199,0.146-0.355,0.329-0.467,0.551c-0.164,0.216-0.327,0.432-0.491,0.649
			c-0.434-0.325-0.868-0.651-1.303-0.976C9.1,21.629,8.904,21.496,8.711,21.359z"/>
		<path fill-rule="evenodd" clip-rule="evenodd" fill="#C09655" d="M19.736,3.957c-0.427,0.148-0.864,0.21-1.343-0.065
			c-0.367-0.503-0.468-1.364-0.838-1.853C18.388,2.659,19.114,3.3,19.736,3.957L19.736,3.957z M17.094,1.705
			c-0.359-0.252-0.736-0.501-1.134-0.744c-1.901-0.693-3.653-0.985-5.247-0.959c-0.09,0.865-0.236,1.738-0.12,2.575
			c0.235,1.695-0.859,4.704,0.147,4.786c1.919,0.159,4.175-1.001,5.354-3.104c0.792-0.77-1.074-2.245,0.466-2.558
			C16.771,1.657,16.946,1.662,17.094,1.705z"/>
		<path fill-rule="evenodd" clip-rule="evenodd" fill="#D3B07C" d="M6.704,13.17c-2.111-0.565-4.572-0.501-5.561-3.086
			c0.645-0.998,1.737-1.049,2.739-1.29c1.166-0.497,2.082-2.087,3.648-0.835c0.867,0.722,0.951,1.625,0.084,2.25
			c-1.047,0.755-0.401,1.209,0.061,1.783C7.712,12.681,7.363,13.054,6.704,13.17z"/>
		<path fill-rule="evenodd" clip-rule="evenodd" fill="#FDF8C4" d="M16.095,4.258c0.094-1.444-2.133-1.847-1.706-3.057
			c0.097-0.278,0.31-0.455,0.588-0.565c0.324,0.098,0.651,0.203,0.984,0.324c1.026,0.628,1.919,1.285,2.697,1.964
			c-0.123,0.335-0.238,0.667-0.264,0.967C17.68,4.352,16.917,4.49,16.095,4.258z"/>
		<path fill-rule="evenodd" clip-rule="evenodd" fill="#C69759" d="M5.994,3.598C4.771,5.183,3.813,4.718,2.928,3.69
			c0.794-0.948,1.742-1.758,2.834-2.377C5.953,2.038,5.933,2.831,5.994,3.598z"/>
		<path fill-rule="evenodd" clip-rule="evenodd" fill="#C59B64" d="M6.704,13.17c0.323-0.393,0.647-0.786,0.971-1.179
			c1.398,0.218,2.797,0.435,4.196,0.652c0.024,0.227,0.049,0.455,0.073,0.682c-1.793,2.688-3.497,2.768-5.1-0.171L6.704,13.17z"/>
		<path fill-rule="evenodd" clip-rule="evenodd" fill="#C69651" d="M7.529,7.958C6.318,8.335,5.107,8.711,3.895,9.088
			C3.444,9.189,3.221,9.009,3.227,8.546c0.965-0.865,1.93-1.73,2.895-2.595C6.59,6.621,7.06,7.29,7.529,7.958z"/>
		<path fill-rule="evenodd" clip-rule="evenodd" fill="#CBBC95" d="M22.223,7.756c-0.197,0.125-0.43,0.156-0.707,0.01
			c-0.786-0.417-0.318-1.128-0.228-1.717c0.004-0.03,0.01-0.06,0.016-0.089C21.678,6.552,21.982,7.152,22.223,7.756z"/>
		<path fill-rule="evenodd" clip-rule="evenodd" fill="#D0A874" d="M15.046,11.264c-0.446,1.234-1.673,1.482-2.625,2.077
			c-0.357,0.139-0.548,0.017-0.576-0.365l0.025-0.332C12.748,11.764,13.609,10.85,15.046,11.264z"/>
		<path fill-rule="evenodd" clip-rule="evenodd" fill="#C19554" d="M13.974,19.256c-0.782-0.22-1.563-0.439-2.345-0.659
			c-1.427-1.029-1.339-2.025,0.065-2.993c0.548-0.256,1.096-0.512,1.644-0.768c0.285,0.472-2.33,1.685,0.345,1.492
			c1.146-0.083,2.254-0.489,3.31,0.265c-0.369,0.566-0.6,1.151-0.254,1.817C16.164,19.826,15.05,19.479,13.974,19.256z"/>
		<path fill-rule="evenodd" clip-rule="evenodd" fill="#EFD5A6" d="M19.306,17.386c-2.12,1.219-1.025-1.095-1.659-1.51
			C19.234,15.245,18.909,16.712,19.306,17.386z"/>
		<path fill-rule="evenodd" clip-rule="evenodd" fill="#EFCCA0" d="M11.694,15.604c-0.466,0.989-0.794,1.98-0.065,2.993
			c-1.96,1.976-1.354-2.394-2.994-1.209c-0.216-0.152-0.432-0.301-0.648-0.453c-0.181-0.774-1.56-1.348-0.398-2.349
			c1.183,0.394,2.348,0.883,3.643,0.717C11.38,15.413,11.534,15.513,11.694,15.604z"/>
		<path fill-rule="evenodd" clip-rule="evenodd" fill="#BA8939" d="M11.232,15.302c-1.478,1.626-2.466,0.077-3.594-0.555
			c-0.426,0.068-0.708-0.093-0.819-0.521c0.009-0.358,0.017-0.715,0.026-1.072c1.721,1.446,3.419,2.237,5.002-0.18
			c0.236,0.052,0.428,0.174,0.575,0.366C12.025,13.994,11.628,14.649,11.232,15.302z"/>
		<path fill-rule="evenodd" clip-rule="evenodd" fill="#FDF8C9" d="M13.974,19.256c0.922-0.282,1.843-0.564,2.764-0.846
			c1.448,0.499,1.073,1.96,1.563,2.964c-0.222,0.2-0.447,0.391-0.676,0.573c-1.045-0.717-1.967-1.693-3.422-1.549
			c-0.352,0.07-0.553-0.072-0.6-0.429C13.727,19.731,13.851,19.494,13.974,19.256z"/>
		<path fill-rule="evenodd" clip-rule="evenodd" fill="#C59550" d="M13.604,19.969c0.187,0.162,0.386,0.306,0.6,0.429
			c0.636,0.558,0.996,1.174,0.421,1.987c-1.022-0.283-2.045-0.566-3.067-0.85C11.448,19.979,13.111,20.738,13.604,19.969z"/>
		<path fill-rule="evenodd" clip-rule="evenodd" fill="#C59B64" d="M6.819,14.226c0.273,0.174,0.546,0.348,0.819,0.521
			c0.116,0.73,0.233,1.459,0.35,2.188c-1.139-0.598-2.141,1.593-2.448,0.736C5.223,16.788,6.332,15.396,6.819,14.226z"/>
		<path fill-rule="evenodd" clip-rule="evenodd" fill="#C7963C" d="M3.227,8.546c0.223,0.181,0.446,0.36,0.668,0.541
			c-0.917,0.332-1.834,0.664-2.752,0.997C1.029,9.728,0.916,9.372,0.801,9.017C1.563,8.621,2.002,6.558,3.227,8.546z"/>
	</g>
	<g>
		<path fill-rule="evenodd" clip-rule="evenodd" fill="#C69A62" d="M44.225,27.905c-0.113-0.053-0.22-0.127-0.316-0.236
			c-0.164-0.237-0.281-0.494-0.366-0.765C43.808,27.234,44.035,27.568,44.225,27.905z"/>
		<path fill-rule="evenodd" clip-rule="evenodd" fill="#FCF8CA" d="M45.003,31.868c-0.091,0.097-0.175,0.206-0.265,0.309
			c-0.12,0.09-0.254,0.138-0.405,0.127c-0.09-0.023-0.173-0.063-0.247-0.119c-0.171-0.224-0.393-0.315-0.674-0.246
			c-0.233,0.003-0.46-0.033-0.687-0.075c-0.428-0.073-0.789-0.31-1.176-0.482c-0.377-0.157-0.471-0.565-0.735-0.826
			c-0.053-0.087-0.08-0.18-0.087-0.281c0.163-0.584,0.558-0.97,1.071-1.256c0.485,0.001,0.811,0.131,0.577,0.706
			c0.931,0.123,1.868,0.275,2.39-0.578C45.053,30.059,45.115,30.979,45.003,31.868z"/>
		<path fill-rule="evenodd" clip-rule="evenodd" fill="#C9A671" d="M44.57,32.104c0.055-0.429,0.239-0.619,0.477-0.708
			c-0.019,0.341-0.064,0.677-0.133,1.009C44.79,32.331,44.675,32.234,44.57,32.104z"/>
		<path fill-rule="evenodd" clip-rule="evenodd" fill="#FCF8CA" d="M43.591,26.962c-0.102,0.363-0.353,0.655-0.612,0.943
			c-0.078,0.073-0.169,0.13-0.267,0.171c-0.305,0.06-0.406-0.155-0.291-0.345c0.151-0.249,0.062-0.284-0.146-0.323
			c-0.031-0.547-0.078-1.085-0.5-1.498c-0.234-0.383-0.62-0.544-1.012-0.696c-0.178-0.087-0.341-0.196-0.487-0.33
			c-0.073-0.066-0.138-0.14-0.198-0.217c-0.123-0.116-0.207-0.262-0.282-0.415c0.325,0.083,0.658,0.187,0.998,0.311
			C42.01,25.306,42.925,26.117,43.591,26.962z"/>
		<path fill-rule="evenodd" clip-rule="evenodd" fill="#FCF8CA" d="M42.532,28.086c0.059-0.068,0.117-0.137,0.175-0.206
			c0.379-0.27,0.699-0.771,1.264-0.327c0.032,0.037,0.065,0.068,0.101,0.094c0.241,0.388,0.434,0.781,0.582,1.176
			c-0.012,0.006-0.024,0.011-0.036,0.015c-0.295-0.092-0.589-0.066-0.884,0.005c-0.324,0.02-0.644,0.056-0.955,0.157
			c-0.317,0.008-0.709,0.3-0.884-0.232C41.981,28.422,42.144,28.149,42.532,28.086z"/>
		<path fill-rule="evenodd" clip-rule="evenodd" fill="#B5813A" d="M43.971,27.554c-0.482-0.125-0.862,0.142-1.264,0.327
			l0.746-1.088c0.175,0.21,0.333,0.423,0.478,0.637L43.971,27.554z"/>
		<path fill-rule="evenodd" clip-rule="evenodd" fill="#FDF3C0" d="M44.57,32.104c0.123,0.047,0.252,0.077,0.383,0.099
			c-0.097,0.553-0.26,1.091-0.475,1.606c-0.199-0.039-0.383-0.111-0.495-0.341c-0.236-0.322-0.371-0.658-0.149-1.044
			c0.099-0.14,0.232-0.23,0.397-0.273C44.344,32.135,44.457,32.12,44.57,32.104z"/>
		<path fill-rule="evenodd" clip-rule="evenodd" fill="#FCF8CA" d="M44.023,32.48c-0.244,0.334,0,0.599,0.123,0.882
			c0.127,0.214,0.2,0.435,0.239,0.661c-1.218,2.703-3.855,4.711-5.905,4.635c-0.998-0.037-1.885-0.205-2.671-0.473
			c0.014-0.054,0.039-0.111,0.076-0.171c0.104-0.023,0.206-0.012,0.311,0.003c0.167,0.024,0.262,0.204,0.441,0.194
			c-0.02-0.141-0.144-0.217-0.208-0.331c-0.139-0.25-0.223-0.511-0.214-0.793c-0.027-0.069,0.107-0.167-0.018-0.211
			c-0.024-0.009-0.103,0.146-0.157,0.23c-0.258,0.27,0.134,0.644-0.148,0.904c-0.199,0.106-0.454-0.282-0.67-0.051
			c-0.659-0.287-1.234-0.653-1.73-1.078c0.032-0.095,0.08-0.188,0.144-0.281c0.124-0.135,0.317-0.184,0.428-0.337
			c-0.012-0.148,0.32-0.258,0.067-0.394c-0.062-0.033-0.287,0.072-0.447,0.047c-0.147-0.028-0.288-0.073-0.422-0.141
			c-0.274-0.167-0.429-0.417-0.501-0.724c-0.015-0.315,0.036-0.605,0.312-0.809c0.18-0.091,0.375-0.098,0.57-0.099
			c0.311-0.004,0.632,0.106,0.926-0.09c0.12-0.073,0.245-0.13,0.388-0.135c0.346,0.347,0.531,0.844,1.004,1.073
			c0.288,0.238,0.114,0.686,0.419,0.916c0.313,0.071,0.632,0.046,0.947,0.075c0.688,0.001,0.906,0.241,0.414,0.828
			c-0.149,0.177-0.384,0.291-0.387,0.564c0.125,0.174,0.212,0.467,0.474,0.124c0.049-0.076,0.104-0.141,0.167-0.203
			c0.154-0.129,0.324-0.186,0.522-0.127c0.589,0.229,1.08,0.691,1.747,0.733c0.14,0.009-0.009,0.035,0.091-0.032
			c0.159-0.106-0.077-0.09-0.091-0.158c-0.224-0.166-0.262-0.445-0.413-0.652c-0.388-0.301-0.834,0.16-1.222-0.093
			c-0.28-0.567,0.162-0.879,0.466-1.207c0.253-0.272,0.482-0.492,0.134-0.836c-0.141-0.18-0.28-0.361-0.366-0.577
			c-0.036-0.13,0.004-0.246,0.055-0.354c-0.068-0.179-0.156-0.003-0.234-0.008c-0.362,0.114-0.715,0.141-1.052-0.073
			c-0.021-0.044-0.04-0.088-0.061-0.133c0.005-0.099,0.03-0.193,0.075-0.281c0.23-0.344,0.619-0.471,0.942-0.687
			c0.49-0.406,1.091-0.711,1.249-1.399c-0.206-0.051-0.282,0.138-0.416,0.216c-0.203,0.155-0.418,0.284-0.67,0.339
			c-0.95,0.035-1.136-0.865-1.661-1.352c-0.41-0.713-0.812-1.435-1.62-1.791c-0.089-0.057-0.171-0.122-0.245-0.197
			c-0.251-0.253-0.774-0.325-0.636-0.841c0.111-0.415,0.493-0.561,0.863-0.687c0.165-0.056,0.336-0.093,0.511-0.11
			c1.175-0.052,2.015,0.836,3.079,1.1c0.184,0.101,0.349,0.227,0.495,0.378c0.371,0.349,0.268,0.882,0.5,1.286
			c0.245,0.241,0.605,0.352,0.775,0.678c0.048,0.038,0.096,0.076,0.145,0.113c-0.199,0.464,0.253,0.526,0.459,0.741
			c0.194,0.292,0.311,0.671,0.761,0.672c0.282,0.014,0.547-0.144,0.833-0.084C43.376,32.031,43.792,32.102,44.023,32.48z"/>
		<path fill-rule="evenodd" clip-rule="evenodd" fill="#E1C18F" d="M40.814,30.43c-0.381-0.031-0.669-0.25-0.955-0.473
			c-0.014-0.362,0.124-0.864,0.432-1.04c0.376,0.228,0.474,0.146,0.602-0.077c0.175-0.263,0.361-0.517,0.543-0.774
			c0.163-0.221,0.323-0.443,0.547-0.609c0.096-0.064,0.201-0.095,0.315-0.096c0.123,0.251,0.426-0.517,0.448,0.068
			c0.008,0.204-0.28,0.388-0.214,0.658c-0.189,0.273-0.378,0.545-0.567,0.819c0.034,0.133-0.017,0.206-0.154,0.22
			C41.479,29.56,41.146,29.995,40.814,30.43z"/>
		<path fill-rule="evenodd" clip-rule="evenodd" fill="#C49D62" d="M44.829,29.356c-0.022,0.051-0.04,0.103-0.055,0.156
			c-0.149,0.543-0.351,0.799-0.987,0.513c-0.553-0.248-1.141,0.107-1.718,0.141c-0.132,0.008-0.355,0.189-0.383-0.083
			c-0.007-0.072,0.266-0.173,0.41-0.261c0.827-0.396,1.58-0.959,2.513-1.112C44.696,28.925,44.769,29.141,44.829,29.356z"/>
		<path fill-rule="evenodd" clip-rule="evenodd" fill="#E2C08E" d="M44.613,28.716c-0.78,0.502-1.531,1.068-2.516,1.107
			c0.398-0.435,0.089-0.58-0.286-0.698c0.052-0.073,0.103-0.147,0.154-0.22c0.311,0.116,0.557-0.15,0.849-0.146
			c0.316,0.131,0.593-0.028,0.88-0.119c0.275,0.037,0.589-0.474,0.841-0.111C44.562,28.592,44.588,28.654,44.613,28.716z"/>
		<path fill-rule="evenodd" clip-rule="evenodd" fill="#C98A3A" d="M44.023,32.48c-0.47,0.013-0.788-0.299-1.143-0.533
			c-0.191-0.045-0.169-0.141-0.063-0.258c0.211,0.03,0.422,0.061,0.633,0.092c0.232,0.029,0.495-0.022,0.63,0.25
			c0.049,0.041,0.1,0.081,0.151,0.12C44.162,32.261,44.092,32.371,44.023,32.48z"/>
		<path fill-rule="evenodd" clip-rule="evenodd" fill="#D1A378" d="M42.817,31.689c0.021,0.086,0.042,0.172,0.063,0.258
			c-0.189,0.228-0.421,0.339-0.722,0.261c-0.047-0.071-0.089-0.144-0.127-0.219c-0.129-0.224-0.356-0.374-0.457-0.618
			c-0.005-0.043-0.011-0.086-0.016-0.13C42.079,31.105,42.346,31.684,42.817,31.689z"/>
		<path fill-rule="evenodd" clip-rule="evenodd" fill="#C69A55" d="M41.441,31.401c-0.276-0.221-0.943-0.223-0.481-0.857
			c0.489-0.015,0.216,0.623,0.598,0.698l-0.005-0.008c0.005,0.044,0.01,0.087,0.015,0.131
			C41.525,31.377,41.483,31.389,41.441,31.401z"/>
		<path fill-rule="evenodd" clip-rule="evenodd" fill="#CEA978" d="M44.08,32.031c-0.235-0.022-0.46-0.067-0.631-0.25
			C43.781,31.559,44.117,31.325,44.08,32.031z"/>
		<path fill-rule="evenodd" clip-rule="evenodd" fill="#BD9553" d="M42.299,27.361c-0.055,0.029-0.103,0.067-0.142,0.115
			c-0.507,0.074-0.822,1.014-1.497,0.332c-0.032-0.343-0.459-0.418-0.916-0.083c-0.519,0.38-0.931,0.323-1.311-0.162
			c-0.062-0.079-0.054-0.193-0.023-0.294c0.129-0.148,0.321-0.148,0.487-0.207c0.3-0.096,0.303-0.353,0.321-0.601
			c0.033-0.261,0.15-0.501,0.169-0.765c0.048-0.313,0.186-0.599,0.263-0.905c0.035-0.088,0.089-0.162,0.157-0.227
			c0.128-0.077,0.261-0.094,0.399-0.03c0.043,0.056,0.086,0.112,0.129,0.169c0.176,0.48,0.672,0.659,0.965,1.025
			c0.211,0.1,0.42-0.045,0.63-0.006C42.326,26.205,42.835,26.665,42.299,27.361z"/>
		<path fill-rule="evenodd" clip-rule="evenodd" fill="#CFAF7D" d="M32.916,26.165c0.037,0.071,0.107,0.111,0.271,0.055
			c0.085-0.029,0.092,0.409,0.11,0.637c0.001,0.196-0.035,0.381-0.154,0.543c-0.063,0.073-0.139,0.129-0.226,0.171
			c-0.093,0.018-0.186,0.016-0.278-0.004c-0.227-0.079-0.45-0.019-0.674,0.027C32.228,27.079,32.545,26.598,32.916,26.165z"/>
		<path fill-rule="evenodd" clip-rule="evenodd" fill="#EBD1A3" d="M39.813,24.257c0.018,0.104,0.025,0.215,0.022,0.331
			c-0.032,0.036-0.06,0.076-0.084,0.119c-0.805-0.469-1.697-0.428-2.58-0.437c-0.093-0.078-0.135-0.165-0.151-0.257
			C37.871,23.927,38.804,23.996,39.813,24.257z"/>
		<path fill-rule="evenodd" clip-rule="evenodd" fill="#D5B17F" d="M34.342,24.927c-0.069,0.156-0.213,0.302-0.342,0.451
			c-0.135,0.107-0.281,0.165-0.446,0.139C33.799,25.3,34.062,25.103,34.342,24.927z"/>
		<path fill-rule="evenodd" clip-rule="evenodd" fill="#D09F70" d="M41.929,25.72c-0.184,0.254-0.344,0.561-0.742,0.324
			c0.155-0.423-0.656-0.54-0.323-1.02C41.304,25.125,41.758,25.207,41.929,25.72z"/>
		<path fill-rule="evenodd" clip-rule="evenodd" fill="#BC8B44" d="M39.835,24.588c-0.03-0.126-0.074-0.244-0.128-0.356
			c0.103,0.025,0.208,0.055,0.313,0.084c0.043,0.088,0.1,0.164,0.183,0.216C40.081,24.551,39.958,24.57,39.835,24.588z"/>
		<path fill-rule="evenodd" clip-rule="evenodd" fill="#BC8B44" d="M40.864,25.024c-0.141,0.419,0.935,0.452,0.322,1.02
			c-0.22-0.488-0.984-0.631-0.854-1.343C40.51,24.809,40.687,24.917,40.864,25.024z"/>
		<path fill-rule="evenodd" clip-rule="evenodd" fill="#C59F6A" d="M43.694,28.641c-0.265,0.251-0.524,0.539-0.88,0.119
			C43.095,28.628,43.384,28.559,43.694,28.641z"/>
		<path fill-rule="evenodd" clip-rule="evenodd" fill="#C18B3C" d="M31.11,30.669c0.022-0.05,0.032-0.133,0.026-0.265
			c0.012-0.111,0.027-0.223,0.044-0.334c0.036-0.079,0.087-0.154,0.143-0.222c0.29-0.215,0.637-0.256,0.978-0.319
			c0.156,0.002,0.293,0.035,0.33,0.217c-0.004,0.18-0.205,0.399-0.169,0.455c0.103,0.16,0.295,0.019,0.424-0.04
			c0.329-0.152,0.429-0.536,0.698-0.756c0.304-0.218,0.412-0.771,0.965-0.57c0.484,0.35,0.502,0.799,0.28,1.3
			c-0.31,0.408-0.497,0.918-0.971,1.192c-0.526-0.036-1.031,0.942-1.583,0.037c-0.037-0.06-0.164-0.033-0.163,0.02
			c0.001,0.096,0.144,0.036,0.188,0.116c0.083,0.151,0.198,0.284,0.256,0.451c-0.1,0.422-0.893,0.487-0.576,1.123
			c-0.308,0.169-0.526,0.106-0.715-0.03C31.097,32.267,31.047,31.463,31.11,30.669z"/>
		<path fill-rule="evenodd" clip-rule="evenodd" fill="#C29756" d="M32.894,35.038c0.167,0.225,0.335,0.451,0.503,0.676
			c0.272,0.191,0.441,0.432,0.381,0.785l-0.088,0.545c-0.519-0.412-0.957-0.886-1.317-1.405c-0.033-0.287-0.171-0.594,0.142-0.802
			C32.678,34.727,32.821,34.865,32.894,35.038z"/>
		<path fill-rule="evenodd" clip-rule="evenodd" fill="#E8C491" d="M35.878,38.008c0.055,0.084,0.107,0.169,0.157,0.255
			c-0.388-0.12-0.749-0.266-1.089-0.431c0.323-0.077,0.643-0.127,0.94,0.192L35.878,38.008z"/>
		<path fill-rule="evenodd" clip-rule="evenodd" fill="#FDF4C0" d="M31.182,32.61c0.245,0.177,0.388,0.595,0.754,0.489
			c0.04,0.028,0.081,0.057,0.122,0.084c0.173,0.201,0.26,0.424,0.176,0.691c-0.186,0.19-0.395,0.293-0.617,0.342
			C31.414,33.699,31.269,33.16,31.182,32.61z"/>
		<path fill-rule="evenodd" clip-rule="evenodd" fill="#C29D6C" d="M44.232,34.345c-0.03-0.327-0.093-0.654-0.086-0.982
			c0.137,0.057,0.26,0.21,0.394,0.295C44.448,33.891,44.344,34.121,44.232,34.345z"/>
		<path fill-rule="evenodd" clip-rule="evenodd" fill="#BD8C3D" d="M33.682,25.408l0.298-0.126c0.091-0.039,0.184-0.044,0.278-0.011
			c0.686,0.296,1.081,0.995,1.776,1.278c0.182,0.04,0.365,0.074,0.549,0.103c0.553,0.171,1.151-0.032,1.696,0.204
			c0.128,0.09,0.215,0.204,0.223,0.366c0.534,0.71,0.549,0.656,1.098,0.203c0.38-0.314,1.034,0.063,1.467-0.336
			c0.24,0.421-0.395,0.386-0.365,0.698c-0.009,0.464,0.509,1.024-0.245,1.354c-0.2,0.272-0.399,0.544-0.599,0.816
			c-0.378-0.354-0.014-0.9-0.326-1.271c-0.073-0.268-0.25-0.396-0.527-0.387c-1.091-0.152-1.903-1.082-3.045-1.095
			c-0.44-0.105-0.847,0.034-1.134,0.329c-0.686,0.702-0.662,0.161-0.664-0.35c0-0.212-0.033-0.406-0.145-0.585
			c-0.116-0.201-0.233-0.401-0.337-0.608c-0.072-0.151-0.138-0.304-0.126-0.474C33.596,25.479,33.639,25.443,33.682,25.408z"/>
		<path fill-rule="evenodd" clip-rule="evenodd" fill="#C08F48" d="M34.174,26.416c0.5,0.349,0.234,0.821,0.203,1.255
			c0.428-0.16,0.695-0.644,1.212-0.613c0.127,0.008,0.248,0.095,0.373,0.146c-0.157,0.056-0.313,0.115-0.472,0.168
			c-0.324,0.109-0.723,0.218-0.755,0.584c-0.03,0.346,0.466,0.159,0.624,0.382c0.078,0.109,0.141,0.229,0.211,0.343
			c1.304,0.853,1.495,1.225,1.112,2.164c-0.116,0.12-0.253,0.208-0.413,0.256c-0.826-0.022-1.614,0.274-2.435,0.308
			c-0.027-0.04-0.055-0.081-0.083-0.121c0.377-0.332,0.41-0.914,0.867-1.188c0.684-0.236,0.417-0.684,0.246-1.108
			c-0.147-0.261-0.404-0.353-0.668-0.437c-0.23-0.089-0.462-0.169-0.671-0.305c-0.299-0.226-0.501-0.512-0.553-0.891
			c0.095-0.133,0.177-0.269,0.107-0.442c0.052-0.401,0.397-0.293,0.637-0.368C33.886,26.567,34.124,26.822,34.174,26.416z"/>
		<path fill-rule="evenodd" clip-rule="evenodd" fill="#D8B685" d="M37.239,36.142c-0.347,0.005-0.694,0.01-1.041,0.015
			c-0.1-0.395,0.299-0.78,0.022-1.178c-0.158-0.436-0.786-0.554-0.756-1.116c0.085-0.204,0.277-0.219,0.454-0.26
			c0.338-0.125,0.574-0.439,0.94-0.513c0.298-0.051,0.507-0.413,0.866-0.251c0.184,0.263-0.06,0.521-0.01,0.782
			c-0.033,0.071-0.065,0.142-0.098,0.213c-0.16,0.013-0.282,0.076-0.318,0.241c0.002-0.006,0.059,0.047,0.059,0.047
			s-0.016-0.077-0.013-0.086c0.053-0.129,0.145-0.195,0.27-0.219c0.468-0.008,0.935-0.015,1.403-0.023
			c0.145-0.031,0.225,0.033,0.255,0.172c-0.124,0.088-0.249,0.177-0.373,0.265C38.494,34.997,38.078,35.753,37.239,36.142z"/>
		<path fill-rule="evenodd" clip-rule="evenodd" fill="#FCDAAA" d="M37.239,36.142c0.563-0.629,0.903-1.451,1.661-1.91
			c0.189,0.136,0.416,0.244,0.392,0.536c-0.246,0.987-0.727,1.869-1.225,2.743c-0.06,0.065-0.121,0.129-0.181,0.194
			c-0.336,0.219-0.546-0.188-0.842-0.17c-0.463-0.587,0.19-0.568,0.425-0.768c0.161-0.137,0.401-0.28,0.333-0.475
			C37.766,36.189,37.436,36.189,37.239,36.142z"/>
		<path fill-rule="evenodd" clip-rule="evenodd" fill="#E2BB87" d="M37.769,32.902c-0.381-0.057-0.453,0.49-0.837,0.426
			c-0.045-0.179-0.08-0.358-0.034-0.538c0.02-0.145,0.042-0.289-0.185-0.156c-0.321,0.189-0.631,0.41-1.035,0.375
			c-0.095-0.033-0.169-0.093-0.222-0.178c-0.012-0.098,0.001-0.193,0.033-0.285c0.308-0.392,0.444-0.942,0.999-1.109
			c0.173,0.02,0.28-0.038,0.26-0.239c-0.011-0.134-0.005-0.264,0.031-0.393c0.077-0.188,0.196-0.326,0.41-0.354
			c0.665,0.295,0.672,1.365,1.596,1.355c0.181,0.307,0.181,0.307-0.39,0.721c-0.088,0.031-0.176,0.03-0.262,0.001
			c-0.068-0.048-0.076-0.036-0.232,0.326C37.857,32.872,37.813,32.887,37.769,32.902z"/>
		<path fill-rule="evenodd" clip-rule="evenodd" fill="#FBD299" d="M38.724,36.954c0.453,0.074,0.859-0.794,1.346-0.068
			c0.033,0.255-0.181,0.594,0.245,0.714c0.206,0.078,0.638,0.007,0.55,0.262c-0.022,0.063-0.089,0.142-0.181,0.211
			c-0.092,0.049-0.185,0.096-0.278,0.139c-0.124,0.035-0.257,0.037-0.379-0.02c-0.531-0.252-1.131-0.403-1.522-0.897
			C38.458,37.105,38.537,36.995,38.724,36.954z"/>
		<path fill-rule="evenodd" clip-rule="evenodd" fill="#C7A06D" d="M41.813,36.61c-0.364-0.364-0.794-0.686-1.061-1.11
			c-0.112-0.178-0.687-0.37-0.27-0.682c0.345-0.259,0.732-0.154,0.837,0.368c0.115,0.612,0.805,0.625,1.096,1.055
			c0.136,0.081,0.242,0.161,0.319,0.24c-0.235,0.249-0.48,0.481-0.732,0.694C41.853,37.06,41.811,36.854,41.813,36.61z"/>
		<path fill-rule="evenodd" clip-rule="evenodd" fill="#FCF4B9" d="M38.724,36.954c-0.073,0.114-0.147,0.227-0.219,0.341
			c-0.194-0.025-0.327,0.073-0.438,0.216c0.426-0.906,0.426-2.003,1.225-2.743c0.519,0.285,1.117,0.514,0.117,1.03
			C39.02,35.998,38.673,36.405,38.724,36.954z"/>
		<path fill-rule="evenodd" clip-rule="evenodd" fill="#D5B27F" d="M38.308,32.508c-0.139-0.437,0.565-0.298,0.478-0.699
			c0.183-0.125,0.367-0.251,0.55-0.377c0.334-0.011,0.482-0.418,0.833-0.393c0.134,1.136-0.876,1.421-1.49,2.001
			C38.379,32.985,38.798,32.429,38.308,32.508z"/>
		<path fill-rule="evenodd" clip-rule="evenodd" fill="#F9DCAE" d="M35.886,38.023c0.092-0.354-0.895-0.709,0.001-1.062
			c0.183-0.054,0.383-0.187,0.493,0.105c0.114,0.285,0.19,0.595,0.353,0.848c0.132,0.205,0.481,0.39,0.415,0.607
			c-0.264-0.044-0.52-0.098-0.766-0.163c-0.029-0.02-0.057-0.037-0.085-0.05c-0.153-0.072-0.281-0.199-0.419-0.301L35.886,38.023z"
			/>
		<path fill-rule="evenodd" clip-rule="evenodd" fill="#BB9E6A" d="M41.439,32.266c0.233,0.195,0.804,0.209,0.531,0.562
			c-0.206,0.267-0.797,0.313-1.159,0.058c-0.302-0.213-0.365-0.724-0.169-0.94C41.091,31.45,41.105,32.355,41.439,32.266z"/>
		<path fill-rule="evenodd" clip-rule="evenodd" fill="#C9A771" d="M35.539,33.868c0.102,0.464,0.883,0.452,0.754,1.077
			c-0.045,0.251-0.232,0.233-0.416,0.221c-0.558-0.213-0.976-0.536-0.942-1.21c0-0.092,0.038-0.163,0.115-0.214
			C35.233,33.703,35.394,33.755,35.539,33.868z"/>
		<path fill-rule="evenodd" clip-rule="evenodd" fill="#E2C18F" d="M32.894,35.038c-0.168-0.047-0.412-0.231-0.373,0.155
			c0.026,0.258,0.12,0.51,0.184,0.765c-0.028,0.007-0.056,0.012-0.084,0.017c-0.265-0.335-0.493-0.693-0.688-1.066
			c0.077-0.329,0.21-0.646,0.342-0.964c0.23-0.155,0.446-0.032,0.665,0.034c0.085,0.038,0.157,0.093,0.215,0.165
			c0.004,0.045,0.008,0.091,0.013,0.137C33.076,34.534,32.985,34.786,32.894,35.038z"/>
		<path fill-rule="evenodd" clip-rule="evenodd" fill="#C09C70" d="M37.19,30.453c-0.11,0.175-0.219,0.351-0.329,0.526
			c-0.217,0.246-0.359,0.141-0.472-0.101c0.478-0.532,0.488-0.995-0.141-1.443c-0.269-0.191-0.454-0.5-0.678-0.755
			C36.476,28.937,36.915,29.62,37.19,30.453z"/>
		<path fill-rule="evenodd" clip-rule="evenodd" fill="#D4B076" d="M41.243,33.665c-0.22-0.096-0.187-0.19-0.017-0.253
			c0.092-0.034,0.204-0.022,0.307-0.021c0.463,0.007,0.956-0.296,1.375,0.129c0.078,0.079,0.081,0.177-0.053,0.212
			C42.303,33.878,41.763,33.75,41.243,33.665z"/>
		<path fill-rule="evenodd" clip-rule="evenodd" fill="#DDB481" d="M35.044,33.792c-0.032,0.057-0.069,0.112-0.109,0.164
			c-0.103,0.104-0.205,0.209-0.308,0.314c-0.338-0.132-0.671-0.152-0.991,0.052c-0.169,0.132-0.318,0.032-0.468-0.041
			c0,0,0.013-0.045,0.013-0.045c-0.055-0.375,0.293-0.529,0.435-0.797c0.208-0.202,0.437-0.344,0.745-0.26
			C34.609,33.359,34.969,33.417,35.044,33.792z"/>
		<path fill-rule="evenodd" clip-rule="evenodd" fill="#C29C69" d="M38.308,32.508c0.655-0.193,0.254,0.351,0.371,0.532
			c-0.321,0.194-0.643,0.388-0.964,0.582c-0.328-0.266-0.104-0.49,0.054-0.719l0.002,0.002c0.263-0.018,0.268-0.385,0.535-0.397
			L38.308,32.508z"/>
		<path fill-rule="evenodd" clip-rule="evenodd" fill="#FCE0A7" d="M35.877,35.166c0.139-0.074,0.277-0.148,0.416-0.221
			c0.806,0.47,0.021,0.814-0.095,1.211c-0.292,0.09-0.398-0.027-0.293-0.3C35.999,35.614,36.01,35.392,35.877,35.166z"/>
		<path fill-rule="evenodd" clip-rule="evenodd" fill="#B28442" d="M43.259,33.262c-0.347-0.206-0.626-0.421-0.419-0.83
			c0.085-0.168,0.264-0.088,0.294,0.047c0.09,0.404,0.724,0.519,0.565,0.986C43.651,33.608,43.392,33.316,43.259,33.262z"/>
		<path fill-rule="evenodd" clip-rule="evenodd" fill="#C89554" d="M33.728,35.723c1.397-0.501,0.471,0.528,0.578,0.877
			C33.867,36.47,33.613,36.218,33.728,35.723z"/>
		<path fill-rule="evenodd" clip-rule="evenodd" fill="#C39047" d="M33.636,34.322c0.31-0.406,0.617-0.864,0.991-0.052
			C34.323,34.785,33.961,34.208,33.636,34.322z"/>
		<path fill-rule="evenodd" clip-rule="evenodd" fill="#B5823C" d="M42.414,36.241c-0.516-0.194-1-0.432-1.257-0.963
			c-0.006-0.012,0.035-0.057,0.062-0.072c0.028-0.016,0.066-0.014,0.1-0.02C41.649,35.574,42.282,35.648,42.414,36.241z"/>
		<path fill-rule="evenodd" clip-rule="evenodd" fill="#FCDBA7" d="M41.813,36.61c0.1,0.157,0.177,0.332,0.298,0.47
			c-0.129,0.113-0.26,0.22-0.393,0.322C41.497,37.137,41.736,36.876,41.813,36.61z"/>
		<path fill-rule="evenodd" clip-rule="evenodd" fill="#FBD399" d="M33.728,35.723c0.125,0.337,0.285,0.651,0.578,0.877
			c-0.212,0.158-0.367,0.017-0.528-0.101c-0.281-0.188-0.398-0.454-0.381-0.785C33.507,35.717,33.617,35.72,33.728,35.723z"/>
		<path fill-rule="evenodd" clip-rule="evenodd" fill="#D8B98B" d="M43.227,35.912c-0.105-0.188,0.008-0.232,0.181-0.235
			C43.349,35.757,43.288,35.835,43.227,35.912z"/>
		<path fill-rule="evenodd" clip-rule="evenodd" fill="#D4B77D" d="M42.284,31.996c-0.042,0.071-0.084,0.142-0.126,0.213
			c-0.501-0.036-0.949-0.12-0.718-0.807l-0.006-0.006C41.721,31.591,42.065,31.705,42.284,31.996z"/>
		<path fill-rule="evenodd" clip-rule="evenodd" fill="#C08723" d="M37.044,37.535c0.327-0.172,0.562,0.112,0.842,0.17
			C37.46,38.364,37.328,37.574,37.044,37.535z"/>
		<path fill-rule="evenodd" clip-rule="evenodd" fill="#F4D1A0" d="M40.169,31.039c-0.204,0.287-0.44,0.505-0.833,0.393
			C39.554,31.174,39.678,30.716,40.169,31.039z"/>
		<path fill-rule="evenodd" clip-rule="evenodd" fill="#BB8749" d="M38.665,38.659c0.001-0.036,0.018-0.064,0.058-0.078
			c0.101-0.036,0.17-0.006,0.225,0.059C38.853,38.65,38.758,38.657,38.665,38.659z"/>
		<path fill-rule="evenodd" clip-rule="evenodd" fill="#D4BB91" d="M36.38,37.066c-0.164-0.035-0.329-0.07-0.493-0.105
			c0.135-0.231,0.31-0.512,0.59-0.374C36.701,36.699,36.451,36.908,36.38,37.066z"/>
		<path fill-rule="evenodd" clip-rule="evenodd" fill="#AE8547" d="M39.272,33.967c-0.085-0.057-0.17-0.115-0.255-0.172
			c-0.031-0.082-0.061-0.163-0.092-0.244c0.091-0.012,0.222-0.066,0.264-0.026C39.312,33.639,39.393,33.792,39.272,33.967z"/>
		<path fill-rule="evenodd" clip-rule="evenodd" fill="#C5A269" d="M39.007,28.299c0.155-0.145,0.319-0.218,0.503-0.051
			c0.148,0.135,0.088,0.288,0.024,0.438C39.358,28.557,39.182,28.428,39.007,28.299z"/>
		<path fill-rule="evenodd" clip-rule="evenodd" fill="#DBB07F" d="M40.314,37.601c-0.737-0.013-0.482-0.367-0.245-0.714
			C40.151,37.125,40.232,37.363,40.314,37.601z"/>
		<path fill-rule="evenodd" clip-rule="evenodd" fill="#CCA877" d="M40.458,29.142c0.507-0.375-0.262-0.98,0.245-1.354
			c0.428,0.195,0.727-0.04,0.978-0.33c0.194-0.224,0.325-0.18,0.476,0.018c-0.17,0.248-0.34,0.497-0.51,0.746
			c-0.314,0.18-0.497,0.456-0.589,0.799C40.902,29.28,40.761,29.617,40.458,29.142z"/>
		<path fill-rule="evenodd" clip-rule="evenodd" fill="#BD9553" d="M41.058,29.021c-0.035-0.437,0.18-0.69,0.589-0.799
			C41.45,28.488,41.254,28.755,41.058,29.021z"/>
		<path fill-rule="evenodd" clip-rule="evenodd" fill="#F2D3A1" d="M42.284,31.996c-0.323-0.143-0.748-0.142-0.85-0.6
			c0.054-0.044,0.093-0.097,0.118-0.162C41.826,31.459,42.216,31.573,42.284,31.996z"/>
		<path fill-rule="evenodd" clip-rule="evenodd" fill="#BC8B44" d="M37.115,24.184c0.357-0.068,0.719-0.159,1.069-0.19
			c0.276,0.017,0.558,0.05,0.848,0.099c0.26,0.104,0.503,0.294,0.72,0.615c0.214,0.364-0.141,0.65-0.135,0.985
			c-0.071,0.217-0.253,0.328-0.427,0.446c-1.152,0.33-1.989-0.499-2.97-0.802c-0.218-0.119-0.492-0.19-0.474-0.523
			c0.216-0.459,0.664-0.536,1.085-0.66C36.927,24.141,37.022,24.151,37.115,24.184z"/>
		<path fill-rule="evenodd" clip-rule="evenodd" fill="#B7A47B" d="M38.502,27.223c-0.112-0.078-0.224-0.156-0.335-0.234
			c0.111-0.422,0.431-0.378,0.75-0.336c0.228,0.193,0.336,0.398,0.059,0.637C38.802,27.377,38.65,27.317,38.502,27.223z"/>
		<path fill-rule="evenodd" clip-rule="evenodd" fill="#CDBE9C" d="M38.975,27.29c0.044-0.204,0.03-0.398-0.099-0.573
			c0.027-0.177,0.153-0.238,0.309-0.265c0.048,0.013,0.096,0.025,0.145,0.037C39.64,26.946,39.444,27.178,38.975,27.29z"/>
		<path fill-rule="evenodd" clip-rule="evenodd" fill="#C0A883" d="M40.688,26.051c0.145,0.076,0.197,0.16,0.109,0.245
			c-0.119,0.116-0.267,0.216-0.442,0.134c-0.11-0.051-0.279-0.15-0.094-0.276C40.385,26.07,40.57,26.077,40.688,26.051z"/>
		<path fill-rule="evenodd" clip-rule="evenodd" fill="#CDBE9C" d="M39.204,25.952c0.138-0.087,0.275-0.173,0.413-0.26
			c0.15,0.354-0.217,0.522-0.287,0.797l-0.071-0.002C38.97,26.337,39.165,26.136,39.204,25.952z"/>
		<path fill-rule="evenodd" clip-rule="evenodd" fill="#C49149" d="M32.166,27.225c0.153-0.037,0.318-0.002,0.506,0.191
			c-0.005,0.286-0.508,0.378-0.29,0.751C32.357,28.417,32.07,28.46,32,28.671c-0.104,0.407,0.411,0.635,0.299,1.039
			c-0.306,0.184-0.631,0.218-0.972,0.121c-0.035-0.014-0.068-0.032-0.098-0.052C31.399,28.876,31.714,28.006,32.166,27.225z"/>
		<path fill-rule="evenodd" clip-rule="evenodd" fill="#C69D69" d="M31.816,28.587c-0.013-0.391,0.335-0.29,0.534-0.391
			c-0.014-0.358,0.187-0.557,0.499-0.672c0.038-0.057,0.079-0.113,0.123-0.166c0.243,0.263,0.487,0.526,0.73,0.789
			c0.174,0.281,0.253,0.565,0.037,0.862c-0.073,0.07-0.159,0.114-0.258,0.136C32.854,29.179,32.337,28.878,31.816,28.587z"/>
		<path fill-rule="evenodd" clip-rule="evenodd" fill="#DCB180" d="M33.749,26.672c-0.164,0.244-0.464,0.115-0.67,0.244
			c0.077-0.283-0.079-0.485-0.211-0.695c0.133-0.158,0.273-0.31,0.42-0.455c0.068,0.049,0.133,0.106,0.197,0.167
			C33.665,26.145,33.805,26.373,33.749,26.672z"/>
		<path fill-rule="evenodd" clip-rule="evenodd" fill="#BB842D" d="M32.849,27.524c-0.166,0.224-0.333,0.448-0.499,0.672
			c-0.861-0.66,0.197-0.526,0.322-0.779C32.733,27.449,32.792,27.484,32.849,27.524z"/>
		<path fill-rule="evenodd" clip-rule="evenodd" fill="#F0D3A2" d="M36.965,24.27c-0.378,0.162-0.756,0.324-1.134,0.487
			c-0.236,0.295-0.434,0.636-0.854,0.709c-0.286,0.027-0.562-0.031-0.832-0.119c-0.054-0.025-0.108-0.047-0.164-0.065
			c0.018-0.05,0.038-0.101,0.059-0.151c0.765-0.55,1.668-0.933,2.699-1.083C36.816,24.099,36.892,24.171,36.965,24.27z"/>
		<path fill-rule="evenodd" clip-rule="evenodd" fill="#FDF6C2" d="M36.965,24.27c-0.39-0.162-0.769-0.109-1.143-0.02
			c0.43-0.13,0.887-0.215,1.37-0.252c-0.018,0.061-0.047,0.123-0.077,0.185C37.071,24.223,37.021,24.251,36.965,24.27z"/>
		<path fill-rule="evenodd" clip-rule="evenodd" fill="#FDF5BD" d="M33.36,26.099l-0.223-0.18c0.143-0.151,0.293-0.296,0.45-0.433
			c0.1,0.112,0.232,0.206,0.199,0.389C33.689,26.037,33.535,26.089,33.36,26.099z"/>
		<path fill-rule="evenodd" clip-rule="evenodd" fill="#FCF8CA" d="M34.373,33.28c-0.274-0.001-0.491,0.132-0.699,0.29
			c-0.226,0.36-0.567,0.206-0.876,0.2c-0.403-0.086-0.688-0.321-0.862-0.693l0,0.022c-0.439-0.755-0.439-0.755,0.605-1.111
			c0.264-0.316,0.609-0.472,1.011-0.516c0.522,0.144,1.083-0.304,1.59,0.099c0.293,0.3,0.566,0.611,0.45,1.081
			c-0.036,0.056-0.064,0.115-0.083,0.178c-0.025,0.212-0.194,0.294-0.349,0.391C34.906,33.338,34.648,33.432,34.373,33.28z"/>
		<path fill-rule="evenodd" clip-rule="evenodd" fill="#EDC08D" d="M31.816,28.587c0.634-0.073,1.172,0.189,1.701,0.487
			c-0.062,0.582-0.445,0.671-0.93,0.604c-0.096,0.011-0.192,0.021-0.288,0.033C32.174,29.32,31.348,29.232,31.816,28.587z"/>
		<path fill-rule="evenodd" clip-rule="evenodd" fill="#C69D69" d="M32.587,29.678c0.315-0.194,0.704-0.274,0.93-0.604l0.045-0.004
			c0.226,0.066,0.247,0.222,0.182,0.416c-0.161,0.263-0.357,0.511-0.475,0.793c-0.246,0.586-0.82,0.251-0.945,0.143
			C31.998,30.143,32.485,29.936,32.587,29.678z"/>
		<path fill-rule="evenodd" clip-rule="evenodd" fill="#C08F48" d="M33.527,31.654c-0.329,0.111-0.658,0.222-0.986,0.334
			c-0.119-0.125-0.253-0.239-0.354-0.378c-0.124-0.17-0.433,0.311-0.388-0.072c0.032-0.269,0.58-0.655,0.639-0.5
			c0.34,0.891,0.961-0.175,1.313,0.249l0.003,0.014C33.743,31.461,33.611,31.542,33.527,31.654z"/>
		<path fill-rule="evenodd" clip-rule="evenodd" fill="#F7D8A8" d="M31.249,29.675l0.079,0.157c0.001,0.209,0.038,0.425-0.005,0.624
			c-0.052,0.243,0.193,0.633-0.133,0.697c-0.035,0.007-0.07,0.005-0.104-0.005C31.097,30.652,31.153,30.159,31.249,29.675z"/>
		<path fill-rule="evenodd" clip-rule="evenodd" fill="#BB9B6A" d="M34.994,28.83c0.543,0.916,0.47,1.163-0.377,1.269
			c0.239-0.437,0.183-0.828-0.183-1.17c-0.024-0.09-0.002-0.164,0.075-0.22C34.692,28.663,34.82,28.843,34.994,28.83z"/>
		<path fill-rule="evenodd" clip-rule="evenodd" fill="#BD8C3D" d="M34.513,28.782c-0.027,0.049-0.053,0.097-0.079,0.147
			c-0.457-0.097-0.228,0.659-0.691,0.556c-0.061-0.139-0.122-0.277-0.182-0.416c0.209-0.283,0.066-0.62,0.14-0.923
			c0.207,0.064,0.415,0.128,0.623,0.192C34.314,28.518,34.587,28.576,34.513,28.782z"/>
		<path fill-rule="evenodd" clip-rule="evenodd" fill="#B88232" d="M32.566,35.904l0.138,0.054c-0.017,0.021-0.034,0.041-0.052,0.06
			C32.623,35.98,32.596,35.941,32.566,35.904z"/>
		<path fill-rule="evenodd" clip-rule="evenodd" fill="#C29756" d="M31.535,34.004c0.215-0.038,0.424-0.099,0.619-0.219
			c0.109-0.001,0.183,0.049,0.224,0.149c0.011,0.458-0.102,0.882-0.27,1.292C31.878,34.836,31.687,34.427,31.535,34.004z"/>
		<path fill-rule="evenodd" clip-rule="evenodd" fill="#C28C54" d="M32.379,33.934c-0.075-0.05-0.149-0.099-0.224-0.149
			c-0.008-0.255-0.347-0.409-0.219-0.707c0.273,0.264,0.593,0.428,0.976,0.455c0.051,0.19,0.145,0.375,0.064,0.58
			C32.72,34.242,32.563,34.042,32.379,33.934z"/>
		<path fill-rule="evenodd" clip-rule="evenodd" fill="#F7DDAA" d="M39.204,25.952c0.019,0.178,0.037,0.357,0.055,0.535
			c-0.128,0.077-0.255,0.153-0.383,0.23c-0.237,0.091-0.473,0.181-0.709,0.272c-0.567-0.009-1.142,0.07-1.683-0.177
			c-0.779-0.469-0.572-1.088-0.26-1.722C37.246,25.278,38.048,26.228,39.204,25.952z"/>
		<path fill-rule="evenodd" clip-rule="evenodd" fill="#C9B998" d="M36.224,25.09c0.207,0.556-0.294,1.218,0.26,1.722
			c-0.155-0.03-0.309-0.061-0.464-0.092c-0.569-0.293-0.712-0.932-1.108-1.364c0.307-0.199,0.613-0.399,0.92-0.598
			C35.833,25.02,36.102,24.969,36.224,25.09z"/>
		<path fill-rule="evenodd" clip-rule="evenodd" fill="#BC9451" d="M34.911,25.355c0.551,0.307,0.791,0.867,1.108,1.364
			c-0.34,0.03-0.676,0.044-0.73-0.414c-0.011-0.094,0.062-0.207-0.086-0.241c-0.286-0.066-0.209,0.503-0.522,0.327
			c-0.296-0.167,0.344-0.543-0.038-0.613c-0.319-0.059-0.367-0.253-0.5-0.431C34.401,25.241,34.657,25.261,34.911,25.355z"/>
		<path fill-rule="evenodd" clip-rule="evenodd" fill="#FDF5C0" d="M33.36,26.099c0.107-0.14,0.232-0.249,0.426-0.224
			c0.129,0.18,0.259,0.36,0.388,0.54c-0.002,0.318-0.095,0.485-0.425,0.256C33.619,26.481,33.489,26.29,33.36,26.099z"/>
		<path fill-rule="evenodd" clip-rule="evenodd" fill="#F5CE98" d="M35.592,32.652c-0.192-0.322-0.383-0.643-0.575-0.965
			c0.202-0.482,0.685-0.555,1.085-0.748c0.096-0.02,0.191-0.04,0.286-0.06c0.158,0.033,0.315,0.067,0.472,0.101
			c0.013,0.089,0.026,0.177,0.04,0.266c0.011,0.185-0.068,0.295-0.259,0.31C36.026,31.667,36.118,32.455,35.592,32.652z"/>
		<path fill-rule="evenodd" clip-rule="evenodd" fill="#CEAA7A" d="M36.102,30.939c-0.241,0.425-0.64,0.619-1.085,0.748
			c-0.491-0.266-0.996,0.101-1.489-0.033c-0.143-0.257,0.126-0.252,0.226-0.353C34.521,31.08,35.275,30.771,36.102,30.939z"/>
		<path fill-rule="evenodd" clip-rule="evenodd" fill="#E6DAAF" d="M34.513,28.782c-0.063-0.148-0.126-0.296-0.188-0.444
			c0.281,0.085,0.531,0.212,0.669,0.491C34.822,28.936,34.669,28.842,34.513,28.782z"/>
		<path fill-rule="evenodd" clip-rule="evenodd" fill="#C3954A" d="M34.373,33.28c0.238-0.078,0.477-0.157,0.715-0.235
			c0.318,0.179,0.68,0.277,0.96,0.527c0.073,0.139,0.101,0.271-0.062,0.371c-0.138-0.094-0.278-0.176-0.448-0.074
			c-0.183,0.09-0.342,0.026-0.496-0.076C34.879,33.544,34.366,33.753,34.373,33.28z"/>
		<path fill-rule="evenodd" clip-rule="evenodd" fill="#FCDEAC" d="M35.987,33.942c-0.013-0.099-0.025-0.196-0.038-0.295
			c-0.076-0.186-0.142-0.371,0.026-0.546c0.325-0.168,0.603-0.549,1.037-0.234c0.085,0.173,0.025,0.321-0.079,0.461
			C36.431,33.246,36.404,33.894,35.987,33.942z"/>
		<path fill-rule="evenodd" clip-rule="evenodd" fill="#FDF8C9" d="M37.615,33.817c-0.113,0.142-0.158,0.296-0.079,0.47
			c-0.212,0.31-0.345,0.19-0.451-0.082c0.071-0.277,0.032-0.71,0.532-0.372L37.615,33.817z"/>
		<path fill-rule="evenodd" clip-rule="evenodd" fill="#C4944B" d="M37.085,34.206c0.135,0.11,0.269,0.229,0.451,0.082
			c0.157,0.29-0.052,0.382-0.256,0.372C36.978,34.644,37.056,34.4,37.085,34.206z"/>
		<path fill-rule="evenodd" clip-rule="evenodd" fill="#C49A60" d="M37.012,32.868c-0.323,0.124-0.646,0.248-0.968,0.373
			c-0.209-0.013-0.341-0.119-0.39-0.324c0.335-0.171,0.668-0.346,1.005-0.513c0.208-0.103,0.339-0.586,0.632-0.233
			C37.509,32.434,37.116,32.633,37.012,32.868z"/>
		<path fill-rule="evenodd" clip-rule="evenodd" fill="#C7A269" d="M35.653,32.916c0.13,0.108,0.26,0.216,0.39,0.324
			c-0.031,0.136-0.063,0.272-0.094,0.407c-0.286-0.202-0.952,0.139-0.86-0.602c0.141-0.072,0.281-0.143,0.421-0.214
			C35.559,32.856,35.607,32.884,35.653,32.916z"/>
		<path fill-rule="evenodd" clip-rule="evenodd" fill="#D5B27F" d="M38.306,32.507c-0.136,0.19-0.249,0.411-0.535,0.397
			c0.029-0.062,0.097-0.136,0.081-0.184c-0.075-0.245-0.295-0.555,0.067-0.677C38.21,31.945,38.046,32.45,38.306,32.507z"/>
		<path fill-rule="evenodd" clip-rule="evenodd" fill="#C5A06D" d="M36.641,31.556c0.087-0.103,0.173-0.207,0.259-0.31
			c0.148,0.133,0.315,0.281,0.073,0.455C36.832,31.802,36.667,31.8,36.641,31.556z"/>
		<path fill-rule="evenodd" clip-rule="evenodd" fill="#E5C08D" d="M32.976,34.112c-0.252-0.168-0.218-0.367-0.064-0.58
			c0.254,0.012,0.508,0.025,0.762,0.037c0.13,0.441-0.392,0.398-0.494,0.667C33.112,34.195,33.044,34.153,32.976,34.112z"/>
		<path fill-rule="evenodd" clip-rule="evenodd" fill="#E8BF88" d="M38.601,26.518c-0.131,0.013-0.273,0.061-0.396,0.029
			c-0.15-0.038-0.09-0.174,0.004-0.204c0.121-0.039,0.262-0.016,0.395-0.019C38.604,26.378,38.603,26.432,38.601,26.518z"/>
	</g>
</g>
</svg>
