<?xml version="1.0" encoding="utf-8"?>
<!-- Generator: Adobe Illustrator 17.0.0, SVG Export Plug-In . SVG Version: 6.00 Build 0)  -->
<!DOCTYPE svg PUBLIC "-//W3C//DTD SVG 1.1//EN" "http://www.w3.org/Graphics/SVG/1.1/DTD/svg11.dtd">
<svg version="1.1" id="Слой_1" xmlns="http://www.w3.org/2000/svg" xmlns:xlink="http://www.w3.org/1999/xlink" x="0px" y="0px"
	 width="22.901px" height="23.802px" viewBox="0 0 22.901 23.802" enable-background="new 0 0 22.901 23.802" xml:space="preserve">
<g>
	<path fill-rule="evenodd" clip-rule="evenodd" fill="#FCF8CA" d="M1.699,18.047c0.765,0.382,1.461,1.053,2.157,1.732
		c2.225,1.8,5.484,0.608,7.64,2.621c0.255,0.47,0.344,0.961,0.374,1.458C7.008,23.871,3.582,21.403,1.699,18.047z"/>
	<path fill-rule="evenodd" clip-rule="evenodd" fill="#FCF8CA" d="M15.535,23.393c0.101-0.127,0.212-0.25,0.334-0.37
		c0.513-0.417,1.126-0.582,1.748-0.72C16.94,22.8,16.237,23.173,15.535,23.393L15.535,23.393z M22.322,15.274
		c-0.241-0.195-0.6-0.347-1.118-0.443c-0.89-0.307-1.72-0.711-2.396-1.382c-0.381-0.433-0.592-0.938-0.634-1.513
		c1.151-2.585,2.917-2.071,4.669-1.637C23.011,11.979,22.801,13.677,22.322,15.274z"/>
	<path fill-rule="evenodd" clip-rule="evenodd" fill="#C8A06D" d="M3.799,20.329c-0.207-0.025-0.404-0.085-0.596-0.169
		c-1.331-1.489-2.256-3.31-2.758-5.244c3.021-0.091,3.94,1.726,3.852,4.515C4.272,19.809,4.112,20.112,3.799,20.329z"/>
	<path fill-rule="evenodd" clip-rule="evenodd" fill="#C5AD83" d="M3.799,20.329c0.071-0.225,0.158-0.445,0.257-0.66
		c2.54-2.032,4.451,0.46,6.649,0.918c0.335,0.213,0.622,0.48,0.873,0.786c0.223,0.369,0.186,0.714-0.109,1.029
		c-2.157,0.953-4.211-1.503-6.467-0.627C4.55,21.452,4.125,21.1,3.733,20.717C3.745,20.578,3.766,20.446,3.799,20.329z"/>
	<path fill-rule="evenodd" clip-rule="evenodd" fill="#CCA679" d="M12.589,23.84c-0.105-0.486-0.039-0.995,0.159-1.522
		c0.193-0.31,0.458-0.538,0.793-0.686c1.089,0.14,2.08,0.483,2.799,1.376l-0.029,0.082c-0.439,0.207-0.882,0.358-1.322,0.446
		C14.155,23.702,13.356,23.8,12.589,23.84z"/>
	<path fill-rule="evenodd" clip-rule="evenodd" fill="#F2D9AC" d="M13.152,22.543l-0.039,1.259
		c-0.739,0.064-1.449,0.075-2.128,0.033c0.116-0.484,0.291-0.958,0.484-1.431c0.03-0.184,0.093-0.353,0.19-0.51
		C12.325,21.722,12.845,21.887,13.152,22.543z"/>
	<path fill-rule="evenodd" clip-rule="evenodd" fill="#FCF8CA" d="M22.222,7.597c-0.476,0.195-0.987,0.456-1.497,0.716
		c-2.051,0.637-3.27,2.766-5.497,3.091c-1.314-0.018-2.125,1.004-3.168,1.551c-1.372,0.51-2.756,0.922-4.231,0.448
		c-2.06-0.65-1.204-2.594-1.751-3.918C5.694,8.755,5.133,8.148,4.657,7.482C4.192,6.775,3.86,6.004,3.52,5.235
		C3.318,4.658,3.041,4.12,2.748,3.588c1.443-1.663,3.465-2.89,6.084-3.367C9.06,0.838,9.231,1.472,9.379,2.112
		c0.943,4.101,0.943,4.101,4.26,1.115c0.705-0.587,1.529-0.959,2.363-1.315c0.254-0.104,0.507-0.209,0.761-0.313
		C19.645,3.206,21.366,5.317,22.222,7.597z"/>
	<path fill-rule="evenodd" clip-rule="evenodd" fill="#C19247" d="M20.271,7.499c0.496-0.314,0.961-0.714,1.488-0.945
		c0.763,1.5,1.112,3.099,1.139,4.695l-0.062-0.035c-1.592-0.884-3.105-0.784-4.368,0.679c-1.437-0.353-0.963-1.284-0.434-1.942
		C18.722,9.095,19.64,8.424,20.271,7.499z"/>
	<path fill-rule="evenodd" clip-rule="evenodd" fill="#C4903B" d="M18.913,12.768c0.93,0.495,1.861,0.991,2.792,1.488
		c-0.055,0.787-0.593,1.085-1.263,1.249c-0.766-0.063-1.53-0.376-2.313-0.026c-0.329,0.135-0.658,0.24-0.996,0.344
		c-1.324,0.186-2.661,1.645-3.896,0.522c-0.909-0.827-0.219-2.156,0.206-3.233C15.09,10.17,16.985,11.19,18.913,12.768z"/>
	<path fill-rule="evenodd" clip-rule="evenodd" fill="#FDF5BD" d="M18.913,12.768c-2.03-0.826-4.076-1.709-4.927,1.456
		c-0.679,0.295-0.718,1.324-1.598,1.391c-0.375-0.138-0.612-0.404-0.734-0.781c-0.101-0.82,0.182-1.499,0.753-2.075
		c0.791-0.814,1.359-1.853,2.413-2.405c2.421,0.203,3.265-2.607,5.45-2.854c0.868,2.067-2.898,2.234-1.803,4.395
		C18.617,12.185,18.765,12.476,18.913,12.768z"/>
	<path fill-rule="evenodd" clip-rule="evenodd" fill="#BB8431" d="M20.383,15.323c0.441-0.356,0.882-0.712,1.323-1.067
		c0.327,0.009,0.615,0.028,0.869,0.058c-0.441,1.954-1.296,3.795-2.381,5.317c-1.219-0.508-1.847-1.656-2.708-2.556
		c-0.366-0.783-0.441-1.5,0.462-1.987c0.157-0.283,0.314-0.566,0.473-0.85C19.22,14.336,19.42,15.52,20.383,15.323z"/>
	<path fill-rule="evenodd" clip-rule="evenodd" fill="#D5AE7D" d="M17.487,22.397c-0.392-0.208-0.704-0.529-0.935-0.967
		c-0.279-0.872-0.978-1.718-0.176-2.663c1.567-0.856,2.566,0.388,3.748,0.961C19.338,20.811,18.435,21.726,17.487,22.397z"/>
	<path fill-rule="evenodd" clip-rule="evenodd" fill="#F2D0A1" d="M20.961,18.432c0.103-0.652,0.11-1.357,0.798-1.601
		C21.522,17.386,21.254,17.922,20.961,18.432z"/>
	<path fill-rule="evenodd" clip-rule="evenodd" fill="#FCE7BA" d="M16.986,21.271l0.826,0.885c-0.455,0.353-0.924,0.649-1.397,0.882
		l-0.077-0.03c-1.183,0.141-2.195-0.123-2.86-1.209c-0.065-0.398,0.069-0.717,0.376-0.971
		C14.978,20.412,16.064,20.269,16.986,21.271z"/>
	<path fill-rule="evenodd" clip-rule="evenodd" fill="#FCF8CA" d="M1.628,5.15C1.546,5.394,1.447,5.635,1.33,5.873L1.17,6.019
		C1.31,5.722,1.463,5.432,1.628,5.15z"/>
	<path fill-rule="evenodd" clip-rule="evenodd" fill="#FCF8CA" d="M10.995,21.642c-2.329-0.6-4.327-2.369-6.939-1.972
		c-0.319-0.213-0.899-0.41-0.914-0.642c-0.11-1.741,0.168-3.682-2.354-2.985c-0.577-1.625-0.838-3.366-0.78-5.081
		c0.127-0.007,0.263-0.009,0.408-0.006c0.501,0.204,0.874,0.571,1.23,0.955c1.404,1.584,3.495,0.966,5.194,1.609
		c0.327,0.15,0.595,0.371,0.816,0.657c0.177,0.316,0.294,0.652,0.357,1.008c0.268,0.796-0.746,2.531,1.431,1.924
		c0.327,0.15,0.588,0.368,0.797,0.653C10.385,19.076,11.744,20.156,10.995,21.642z"/>
	<path fill-rule="evenodd" clip-rule="evenodd" fill="#D3B07C" d="M0.442,11.466c-0.163-0.024-0.309-0.036-0.442-0.039
		C0,9.241,0.52,7.078,1.58,5.231c0.885-0.093,1.781-0.087,2.66-0.239c0.223,0.754,0.447,1.507,0.669,2.26
		c0.183,1.632-0.604,2.715-1.967,3.47C2.007,10.619,1.299,11.295,0.442,11.466z"/>
	<path fill-rule="evenodd" clip-rule="evenodd" fill="#D1AE7C" d="M10.995,21.642c-0.556-1.224-2.585-2.068-0.993-3.847
		c1.077-1.202,2.227,0.297,3.328-0.106c0.866-0.197,1.706-0.252,2.405,0.442c0.186,0.302,0.224,0.624,0.118,0.962
		c-0.202,1.161-1.38,1.356-2.047,2.06c-0.16,0.188-0.269,0.402-0.326,0.644c-0.109,0.248-0.218,0.496-0.327,0.745
		c-0.498-0.216-0.995-0.432-1.493-0.648C11.436,21.814,11.215,21.73,10.995,21.642z"/>
	<path fill-rule="evenodd" clip-rule="evenodd" fill="#C09655" d="M17.692,2.16C17.311,2.402,16.9,2.564,16.37,2.408
		c-0.474-0.404-0.771-1.218-1.244-1.609C16.08,1.209,16.934,1.664,17.692,2.16L17.692,2.16z M14.6,0.581
		c-0.408-0.162-0.832-0.317-1.275-0.462c-2.009-0.234-3.781-0.113-5.326,0.282c0.113,0.863,0.173,1.745,0.48,2.532
		c0.621,1.594,0.254,4.775,1.251,4.622c1.904-0.289,3.83-1.94,4.49-4.26c0.592-0.932-1.565-1.935-0.139-2.597
		C14.274,0.609,14.446,0.573,14.6,0.581z"/>
	<path fill-rule="evenodd" clip-rule="evenodd" fill="#D3B07C" d="M7.147,14.139c-2.184-0.06-4.563,0.572-6.125-1.714
		c0.396-1.121,1.447-1.422,2.365-1.889C4.407,9.782,4.93,8.023,6.743,8.879c1.01,0.502,1.301,1.36,0.603,2.169
		c-0.844,0.977-0.11,1.269,0.472,1.721C8.014,13.431,7.762,13.874,7.147,14.139z"/>
	<path fill-rule="evenodd" clip-rule="evenodd" fill="#FDF8C4" d="M14.219,3.296c-0.243-1.427-2.502-1.303-2.367-2.579
		c0.031-0.293,0.197-0.514,0.441-0.685c0.338,0.02,0.68,0.047,1.032,0.088c1.144,0.373,2.164,0.806,3.078,1.287
		C16.361,1.76,16.326,2.11,16.37,2.408C15.783,3.02,15.073,3.33,14.219,3.296z"/>
	<path fill-rule="evenodd" clip-rule="evenodd" fill="#C69759" d="M4.24,4.992C3.417,6.817,2.378,6.587,1.279,5.791
		c0.553-1.106,1.288-2.114,2.207-2.969C3.839,3.484,4.003,4.26,4.24,4.992z"/>
	<path fill-rule="evenodd" clip-rule="evenodd" fill="#C59B64" d="M7.147,14.139c0.223-0.457,0.448-0.914,0.671-1.372
		c1.41-0.112,2.822-0.224,4.233-0.337c0.076,0.215,0.153,0.432,0.229,0.647c-1.122,3.03-2.761,3.502-5.001,1.014L7.147,14.139z"/>
	<path fill-rule="evenodd" clip-rule="evenodd" fill="#C69651" d="M6.743,8.879c-1.091,0.647-2.183,1.293-3.274,1.94
		c-0.415,0.203-0.674,0.08-0.775-0.372c0.738-1.065,1.477-2.13,2.215-3.195C5.52,7.795,6.131,8.337,6.743,8.879z"/>
	<path fill-rule="evenodd" clip-rule="evenodd" fill="#CBBC95" d="M20.991,5.279c-0.163,0.167-0.382,0.252-0.685,0.173
		c-0.862-0.224-0.57-1.023-0.62-1.617c-0.003-0.031-0.004-0.061-0.005-0.091C20.181,4.235,20.616,4.748,20.991,5.279z"/>
	<path fill-rule="evenodd" clip-rule="evenodd" fill="#D0A874" d="M14.821,10.353c-0.149,1.304-1.284,1.829-2.073,2.628
		c-0.315,0.218-0.529,0.143-0.644-0.222l-0.052-0.329C12.701,11.373,13.327,10.284,14.821,10.353z"/>
	<path fill-rule="evenodd" clip-rule="evenodd" fill="#C19554" d="M15.629,18.377c-0.811-0.033-1.622-0.065-2.434-0.099
		c-1.627-0.67-1.771-1.66-0.63-2.927c0.474-0.376,0.947-0.752,1.421-1.128c0.386,0.393-1.877,2.179,0.681,1.372
		c1.095-0.346,2.079-0.997,3.282-0.509c-0.228,0.636-0.318,1.259,0.174,1.827C17.891,18.424,16.726,18.345,15.629,18.377z"/>
	<path fill-rule="evenodd" clip-rule="evenodd" fill="#EFD5A6" d="M20.383,15.323c-1.78,1.677-1.251-0.828-1.964-1.085
		C19.817,13.257,19.841,14.76,20.383,15.323z"/>
	<path fill-rule="evenodd" clip-rule="evenodd" fill="#EFCCA0" d="M12.565,15.352c-0.224,1.07-0.314,2.11,0.63,2.927
		c-1.449,2.376-1.872-2.015-3.193-0.483c-0.246-0.098-0.49-0.193-0.735-0.29c-0.355-0.711-1.829-0.95-0.931-2.193
		c1.242,0.109,2.488,0.315,3.71-0.146C12.215,15.238,12.388,15.301,12.565,15.352z"/>
	<path fill-rule="evenodd" clip-rule="evenodd" fill="#BA8939" d="M12.045,15.165c-1.061,1.924-2.381,0.646-3.625,0.292
		c-0.399,0.165-0.71,0.074-0.917-0.317c-0.074-0.351-0.149-0.7-0.223-1.049c2.009,1.008,3.844,1.384,4.824-1.333
		c0.242-0.004,0.456,0.07,0.644,0.223C12.514,13.709,12.28,14.438,12.045,15.165z"/>
	<path fill-rule="evenodd" clip-rule="evenodd" fill="#FDF8C9" d="M15.629,18.377c0.831-0.488,1.663-0.975,2.493-1.463
		c1.524,0.151,1.497,1.659,2.207,2.521c-0.169,0.246-0.345,0.484-0.525,0.714c-1.183-0.455-2.306-1.191-3.687-0.715
		c-0.327,0.15-0.554,0.058-0.683-0.279C15.499,18.896,15.564,18.637,15.629,18.377z"/>
	<path fill-rule="evenodd" clip-rule="evenodd" fill="#C59550" d="M15.434,19.156c0.219,0.114,0.447,0.208,0.683,0.279
		c0.748,0.396,1.24,0.912,0.87,1.836c-1.06-0.039-2.12-0.078-3.181-0.116C13.338,19.665,15.132,20.019,15.434,19.156z"/>
	<path fill-rule="evenodd" clip-rule="evenodd" fill="#C59B64" d="M7.503,15.14c0.306,0.106,0.611,0.212,0.917,0.317
		c0.281,0.683,0.564,1.366,0.847,2.048c-1.246-0.318-1.714,2.046-2.211,1.283C6.544,18.003,7.301,16.391,7.503,15.14z"/>
	<path fill-rule="evenodd" clip-rule="evenodd" fill="#C7963C" d="M2.694,10.447c0.259,0.124,0.517,0.247,0.775,0.372
		c-0.816,0.535-1.631,1.071-2.447,1.607c-0.193-0.32-0.386-0.64-0.579-0.959C1.093,10.905,1.041,8.796,2.694,10.447z"/>
</g>
</svg>
