<?xml version="1.0" encoding="utf-8"?>
<!-- Generator: Adobe Illustrator 17.0.0, SVG Export Plug-In . SVG Version: 6.00 Build 0)  -->
<!DOCTYPE svg PUBLIC "-//W3C//DTD SVG 1.1//EN" "http://www.w3.org/Graphics/SVG/1.1/DTD/svg11.dtd">
<svg version="1.1" id="Слой_1" xmlns="http://www.w3.org/2000/svg" xmlns:xlink="http://www.w3.org/1999/xlink" x="0px" y="0px"
	 width="42.084px" height="55.383px" viewBox="0 0 42.084 55.383" enable-background="new 0 0 42.084 55.383" xml:space="preserve">
<g>
	<g>
		<path fill-rule="evenodd" clip-rule="evenodd" fill="#FCF8CA" d="M0.602,32.38c0.553,0.256,1.04,0.86,1.657,0.802
			c0.274,0.1,0.492,0.26,0.579,0.554c-0.098,0.477-0.32,0.897-0.55,1.314C1.571,34.212,0.996,33.295,0.602,32.38z"/>
		<path fill-rule="evenodd" clip-rule="evenodd" fill="#FCF8CA" d="M13.964,21.217c0.131,0.427,0.176,0.881,0.089,1.378
			c-0.224,0.613-0.657,1.097-1.005,1.635c-0.969,1.229-2.135,2.275-3.21,3.408c-0.493,0.463-1.007,0.876-1.754,0.717
			c-0.525-0.281-0.785-0.768-0.998-1.291c-0.115-0.299-0.181-0.609-0.199-0.927c-0.047-1.39,1.219-2.888,0.507-3.996
			c-0.52-0.808-1.497-1.217-2.48-1.631C7.777,18.784,11.27,19.314,13.964,21.217L13.964,21.217z M3.497,21.609
			c0.015,0.133,0.029,0.267,0.046,0.4c0.106,1.262,0.023,2.539,0.289,3.789c0.038,0.287,0.05,0.575,0.05,0.864
			c0.055,0.706-0.375,1.232-0.664,1.81c-0.124,0.563-0.738,0.892-0.71,1.523c0.186,0.282,0.431,0.531,0.456,0.892
			c-0.083,0.529-0.365,0.907-0.84,1.147c-1.126,0.219-1.37-0.629-1.687-1.388c-0.156-0.466,0.059-1.077-0.404-1.421
			c0.008-0.067,0.017-0.134,0.029-0.2C0.674,25.543,1.925,23.137,3.497,21.609z"/>
		<path fill-rule="evenodd" clip-rule="evenodd" fill="#C4944B" d="M8.338,38.531c0.219-0.521,0.369-1.1,1.03-1.238
			c0.198,0.084,0.369,0.203,0.519,0.357c0.2,0.28,0.359,0.571,0.488,0.872C9.68,38.617,8.999,38.616,8.338,38.531z"/>
		<path fill-rule="evenodd" clip-rule="evenodd" fill="#C59C61" d="M0.697,30.005c0.547,0.522,0.021,2.028,1.53,1.667
			c1.332-1.629,2.807,0.217,4.19-0.177c0.611-0.072,1.152,0.103,1.644,0.46c0.112,0.165,0.165,0.348,0.161,0.547
			c-0.092,0.415-0.227,0.885-0.612,1.039c-0.712,0.284-0.587,0.379,0.015,0.615c0.995,0.389,1.892,0.934,2.136,2.086
			c0.091,0.43,0.326,0.996-0.438,1.131l0.019,0.005c-0.325-0.057-0.664,0.013-0.98-0.106c-0.22-0.058-0.441-0.118-0.672-0.095
			c-0.382,0.13-0.592,0.526-0.989,0.633c-0.18,0.019-0.347-0.013-0.505-0.102C6.073,37.573,6,37.417,5.979,37.238
			c-0.046-0.557,0.277-1.172-0.258-1.653c-0.144-0.093-0.279-0.194-0.416-0.294c-0.488-0.362-0.874-0.845-1.409-1.147
			c-0.305-0.175-0.594-0.372-0.824-0.642c-0.297-0.228-0.591-0.333-0.885,0.006c-0.423,0.243-0.746,0.141-1.042-0.057
			c-0.644-1.099-1.042-2.242-1.127-3.283C0.251,30.087,0.492,29.966,0.697,30.005z"/>
		<path fill-rule="evenodd" clip-rule="evenodd" fill="#BB9C71" d="M1.926,34.604c0.211-0.367,0.51-0.671,0.941-0.878
			c-0.04-0.363,0.076-0.616,0.475-0.666c0.162,0.332,0.372,0.602,0.783,0.618c-0.042,0.932-0.218,1.819-0.553,2.651
			C2.956,35.807,2.403,35.221,1.926,34.604z"/>
		<path fill-rule="evenodd" clip-rule="evenodd" fill="#B78238" d="M3.342,33.059c-0.158,0.222-0.317,0.445-0.475,0.666
			c-0.227-0.072-0.454-0.145-0.68-0.217C2.172,32.331,2.861,32.961,3.342,33.059z"/>
		<path fill-rule="evenodd" clip-rule="evenodd" fill="#FCF8CA" d="M16.336,35.077c0.012-0.122,0.017-0.245,0.011-0.368
			c0.172-0.48,0.457-0.941,0.265-1.489c-0.06-0.165-0.111-0.331-0.165-0.498c-0.121-0.345-0.218-0.693-0.279-1.053
			c-0.315-1.2,0.182-2.224,0.704-3.242c0.262-0.487,1.212-0.176,1.2-0.978c0.427,2.156,0.13,4.584-1.243,7.074
			C16.665,34.716,16.501,34.899,16.336,35.077L16.336,35.077z M17.92,26.793c-0.23-0.47-0.687-0.469-1.313-0.125
			c-0.194,0.058-0.386,0.054-0.579-0.008c-0.162-0.123-0.292-0.273-0.387-0.452c-0.068-0.192-0.096-0.388-0.084-0.59
			c0.185-0.701,0.775-0.956,1.324-1.255C17.329,25.112,17.684,25.927,17.92,26.793z"/>
		<path fill-rule="evenodd" clip-rule="evenodd" fill="#FCF8CA" d="M16.381,23.6c-0.103-0.078-0.167-0.169-0.205-0.268
			C16.246,23.421,16.315,23.509,16.381,23.6L16.381,23.6z M16.058,23.179c-0.718-0.888-1.574-1.647-2.514-2.244
			c0.285,0.64,0.462,1.325,0.554,2.046c0.844,2.301,1.02,2.398,2.874,1.581l0.01-0.027c-0.146-0.257-0.304-0.505-0.471-0.747
			c-0.054-0.032-0.105-0.067-0.148-0.107C16.237,23.526,16.143,23.354,16.058,23.179z"/>
		<path fill-rule="evenodd" clip-rule="evenodd" fill="#D3AA77" d="M5.446,20.215c0.722,0.381,1.446,0.758,2.187,1.098
			c0.668,0.307,0.744,0.569,0.516,1.243c-0.375,1.11-0.583,2.278-0.861,3.421c-1.007-0.172-0.826-1.184-1.242-1.774
			c-0.511-0.724-0.68-1.726-1.696-2.028c-0.089-0.037-0.175-0.077-0.264-0.114c-0.174-0.088-0.326-0.204-0.463-0.342
			C3.578,21.682,3.54,21.642,3.507,21.6C4.112,21.013,4.764,20.552,5.446,20.215z"/>
		<path fill-rule="evenodd" clip-rule="evenodd" fill="#FBDAAA" d="M8.054,28.258c0.636-0.169,1.075-0.619,1.523-1.058
			c0.836-0.162,1.644-0.014,2.445,0.227c0.146,0.131,0.244,0.291,0.299,0.479c0.205,1.476-1.171,1.549-1.921,2.18
			c-0.507,0.545-0.79,1.371-1.72,1.386c-0.367-0.042-0.658-0.211-0.849-0.524c-0.024-0.131,0.004-0.26,0.087-0.375
			c-0.071,0.097-0.138,0.208-0.203,0.34c-0.322,0.226-0.62,0.17-0.909-0.061c-0.389-0.557-0.742-1.12-1.462-1.347
			c-0.459-0.145-0.904-0.424-0.515-1.049C5.856,27.578,6.91,27.164,8.054,28.258z"/>
		<path fill-rule="evenodd" clip-rule="evenodd" fill="#DEBC8B" d="M14.43,22.738c0.804,0.428,0.333,3.355,2.335,1.436
			c0.134,0.213,0.261,0.431,0.379,0.654c-0.532,0.226-1.121,0.369-1.371,1.007c-1.043,0.592-2.221,0.88-3.266,1.467
			c-1.124,0.186-1.543-0.097-0.994-1.284c0.337-0.729,1.256-1.115,1.17-2.067c0.321-0.404,0.64-0.807,0.961-1.211
			C13.906,22.727,14.168,22.644,14.43,22.738z"/>
		<path fill-rule="evenodd" clip-rule="evenodd" fill="#D7AF7B" d="M8.054,28.258c-1.21-0.533-2.242,0.015-3.279,0.539
			c-0.06,0.132-0.147,0.215-0.264,0.25c-0.119,0.036-0.184,0.041-0.195,0.017c-0.278-0.126-0.455-0.346-0.572-0.619
			c-0.296-0.557,0.409-1.299-0.33-1.775c0.052-0.191,0.105-0.382,0.158-0.573c0.713-0.51,0.161-1.128,0.157-1.704
			c-0.006-0.701-0.408-1.566,0.68-1.878c0.76,0.437,0.588,1.305,0.909,1.941c0.299,0.594,0.31,1.429,1.181,1.614
			c0.531-0.122,0.581,0.498,0.957,0.613C7.656,27.207,7.855,27.732,8.054,28.258z"/>
		<path fill-rule="evenodd" clip-rule="evenodd" fill="#CCA875" d="M4.399,28.952c0.123-0.058,0.248-0.109,0.376-0.156
			c0.691,0.649,2.442,0.112,2.122,1.893c-0.056,0.4-0.55,0.639-0.409,1.111c-0.088,0.298-0.319,0.543-0.593,0.447
			c-1.192-0.414-2.32-1.156-3.667-0.577c0.012-0.419,0.649-0.545,0.489-1.044c0.065-0.292,0.271-0.464,0.512-0.607
			C3.737,29.796,3.931,29.223,4.399,28.952z"/>
		<path fill-rule="evenodd" clip-rule="evenodd" fill="#B89F77" d="M2.347,22.973c-0.049,1.04-0.202,2.073-1.189,2.819
			c-0.119,0.086-0.219,0.131-0.299,0.146C1.272,24.782,1.775,23.798,2.347,22.973z"/>
		<path fill-rule="evenodd" clip-rule="evenodd" fill="#C5995A" d="M12.683,23.95c0.477,1.284-0.92,1.913-1.038,2.987
			c-0.003,0.032,0.096,0.108,0.144,0.105c0.13-0.009,0.259-0.049,0.388-0.076c0.203,0.09,0.28,0.243,0.231,0.459
			c-0.138,0.166-0.307,0.221-0.514,0.146c-0.847,0.339-1.583-0.014-2.317-0.373C10.612,26.117,11.648,25.033,12.683,23.95z"/>
		<path fill-rule="evenodd" clip-rule="evenodd" fill="#B67E3D" d="M7.457,26.682c-0.346-0.158-0.691-0.317-1.037-0.475
			c-1.518-1.168-1.572-2.962-1.969-4.61c2.019,0.764,1.999,2.85,2.837,4.379C7.344,26.211,7.4,26.446,7.457,26.682z"/>
		<path fill-rule="evenodd" clip-rule="evenodd" fill="#C79752" d="M4.256,22.55c-0.443,1.045-0.023,2.042,0.242,3.014
			c0.434,1.586-0.587,0.422-0.926,0.533c-0.666-1.281-0.591-2.634-0.387-3.999c0.216-0.129,0.417-0.299,0.696-0.264l0.161-0.053
			C4.319,21.98,4.466,22.215,4.256,22.55z"/>
		<path fill-rule="evenodd" clip-rule="evenodd" fill="#DCC39D" d="M1.091,25.331c0.007,0.16,0.023,0.316,0.067,0.46
			c-0.151,0.209-0.27,0.455-0.456,0.622C0.823,26.038,0.952,25.674,1.091,25.331z"/>
		<path fill-rule="evenodd" clip-rule="evenodd" fill="#FDF8C8" d="M4.399,28.952c-0.338,0.412,0.498,1.692-0.949,1.284
			c-0.485-0.136-1.011-0.023-1.481-0.249c-0.15-0.737,0.977-0.944,0.717-1.727c0.467-0.55,0.91-0.403,1.344,0.044
			C4.153,28.52,4.276,28.736,4.399,28.952z"/>
		<path fill-rule="evenodd" clip-rule="evenodd" fill="#FCF8CA" d="M0.697,30.005c-0.202,0.183-0.405,0.473-0.608,0.71
			c-0.106-0.594-0.12-1.166-0.029-1.688c0.024-0.136,0.052-0.264,0.078-0.396C0.612,28.959,1.334,29.175,0.697,30.005z"/>
		<path fill-rule="evenodd" clip-rule="evenodd" fill="#D48932" d="M14.43,22.738c-0.262,0.122-0.524,0.216-0.786,0.001
			c0.003-0.743-0.248-1.408-0.528-2.062c0.25,0.142,0.494,0.296,0.732,0.46C14.038,21.672,14.178,22.236,14.43,22.738z"/>
		<path fill-rule="evenodd" clip-rule="evenodd" fill="#C28331" d="M3.881,21.833c-0.187,0.208-0.306,0.594-0.696,0.264l-0.03-0.135
			c0.191-0.209,0.387-0.406,0.589-0.587C3.783,21.533,3.824,21.688,3.881,21.833z"/>
		<path fill-rule="evenodd" clip-rule="evenodd" fill="#C28D36" d="M4.03,28.304c-0.447-0.053-0.885-0.378-1.344-0.044
			c-0.015-0.648,1.247-0.711,0.728-1.59C4.331,26.946,4.019,27.685,4.03,28.304z"/>
		<path fill-rule="evenodd" clip-rule="evenodd" fill="#B77618" d="M1.969,29.986c0.585-0.458,1.053-0.226,1.481,0.249
			c-0.244,0.131-0.489,0.261-0.733,0.392C2.262,30.653,2.158,30.27,1.969,29.986z"/>
		<path fill-rule="evenodd" clip-rule="evenodd" fill="#FCF8CA" d="M9.875,38.575c-0.131-0.417-0.306-0.821-0.552-1.205
			c0.4-2.074-1.119-2.57-2.572-3.082c-0.497-0.175-1.001-0.338-0.849-0.956c0.26-1.055,0.731-0.11,1.058-0.026
			c0.782,0.201,0.485-0.983,1.165-0.838c1.198,1.134,2.691,1.665,4.247,2.065c0.421,0.243,0.725,0.619,1.076,0.944
			c0.286,0.259,0.573,0.516,0.848,0.788c0.118,0.122,0.236,0.245,0.351,0.369C13.036,37.874,11.418,38.465,9.875,38.575z"/>
		<path fill-rule="evenodd" clip-rule="evenodd" fill="#FCF8CA" d="M3.117,35.919c0.181-0.801,0.434-1.576,1.009-2.242
			c0.667,0.382,1.158,0.933,1.537,1.593c-0.011,0.191-0.06,0.37-0.151,0.54c-0.363,0.441-0.668,0.897-0.682,1.433
			C4.213,36.86,3.639,36.412,3.117,35.919z"/>
		<path fill-rule="evenodd" clip-rule="evenodd" fill="#D9B98A" d="M5.534,37.642c0.137-0.129,0.319-0.227,0.571-0.28
			c0.198,0.084,0.395,0.169,0.592,0.253c0.205,0.151,0.262,0.386,0.308,0.627C6.497,38.086,6.005,37.883,5.534,37.642z"/>
		<path fill-rule="evenodd" clip-rule="evenodd" fill="#EFCC99" d="M7.824,38.446c0.013-0.518,0.149-1.017,0.465-1.487
			c0.421-0.038,0.797,0.038,1.052,0.417c-0.376,0.282-0.399,0.752-0.454,1.205C8.527,38.56,8.172,38.514,7.824,38.446z"/>
		<path fill-rule="evenodd" clip-rule="evenodd" fill="#C9A774" d="M12.314,34.642c-1.859,0.164-3.363-0.353-4.19-2.174
			c-0.05-0.113-0.097-0.227-0.139-0.342c-0.09-0.485,0.028-0.82,0.598-0.827c1.064,0.016,0.744-1.324,1.541-1.57
			c0.447,0.094,0.614,0.429,0.713,0.823c0.058,0.468-0.104,0.892-0.27,1.312c-0.081,0.202-0.184,0.396-0.311,0.565
			c0.308,0.031,0.507-0.263,0.804-0.245c0.196-0.014,0.384,0.009,0.572,0.059C13.605,33.292,13.605,33.292,12.314,34.642z"/>
		<path fill-rule="evenodd" clip-rule="evenodd" fill="#B4882F" d="M6.105,37.361c-0.158,0.102-0.26,0.24-0.331,0.399
			c-0.405-0.193-0.794-0.414-1.167-0.66c0.17-0.557,0.606-1.038,0.743-1.605c0.095-0.088,0.2-0.163,0.313-0.226
			c0.116-0.008,0.218-0.05,0.306-0.126c0.621,0.706,0.214,1.477,0.142,2.228L6.105,37.361z"/>
		<path fill-rule="evenodd" clip-rule="evenodd" fill="#FDF8C3" d="M8.583,31.298c-0.2,0.276-0.399,0.552-0.599,0.827
			c-0.574,0.234-0.973-0.333-1.498-0.324c-0.775-0.606-0.765-0.634,0.409-1.111c0.309-0.002,0.618-0.005,0.927-0.007l0.005,0.001
			C8.08,30.888,8.332,31.093,8.583,31.298z"/>
		<path fill-rule="evenodd" clip-rule="evenodd" fill="#C4964F" d="M8.289,36.959c0.118,0.54,0.122,1.062-0.009,1.564
			c-0.441-0.06-0.874-0.157-1.294-0.286c0.066-0.522,0.409-1.026,0.705-1.534C7.89,36.788,8.09,36.873,8.289,36.959z"/>
		<path fill-rule="evenodd" clip-rule="evenodd" fill="#EFCC99" d="M7.69,36.702c-0.039,0.552-0.232,1.096-0.301,1.646
			c-0.258-0.066-0.512-0.142-0.762-0.231c0.042-0.176,0.075-0.348,0.07-0.503C7.111,37.401,6.93,36.538,7.69,36.702z"/>
		<path fill-rule="evenodd" clip-rule="evenodd" fill="#D9B98A" d="M6.11,37.372c-0.047-0.743-0.093-1.486-0.141-2.229
			C7.185,35.812,6.557,36.598,6.11,37.372z"/>
		<path fill-rule="evenodd" clip-rule="evenodd" fill="#D8B584" d="M10.213,31.909c-0.016-0.437,0.16-0.791,0.463-1.092
			c0.433-0.777,1.257-0.891,1.954-0.858c1.864,0.087,1.642-0.708,0.902-1.829c0.185-0.606,0.623-1.001,1.119-1.348
			c0.441-0.189,0.835-0.502,1.341-0.528c0.097,0.1,0.187,0.207,0.267,0.321c0.243,0.256-0.011,0.752,0.44,0.91
			c0.053,0.133,0.029,0.281,0.066,0.403c0.071,0.236-0.749,0.885,0.3,0.681c0.057,1.034-0.962,1.874-0.535,2.974
			c-0.318,0.475-0.81,0.391-1.274,0.404c-0.189-0.003-0.377-0.02-0.564-0.043C13.198,31.899,11.705,32.431,10.213,31.909z"/>
		<path fill-rule="evenodd" clip-rule="evenodd" fill="#DCBD8C" d="M12.314,34.642c1.279-1.463-0.498-1.592-0.995-2.279
			c1.236-0.44,2.454-0.986,3.824-0.701l-0.026-0.006c0.698,0.168,1.341,0.433,1.792,1.031c0.06,0.147,0.121,0.294,0.18,0.441
			c-0.171,0.392-0.481,0.585-0.894,0.632c-0.521,0.052-1.145-0.575-1.551,0.238c-0.101,0.238-0.191,0.478-0.299,0.712
			c-0.144,0.602-1.097,0.266-1.139,0.986C12.541,35.655,12.467,35.115,12.314,34.642z"/>
		<path fill-rule="evenodd" clip-rule="evenodd" fill="#C6A169" d="M14.219,36.948c-0.123-0.2-0.202-0.44-0.34-0.627
			c-0.165-0.695-0.031-1.214,0.811-1.192c0.528,0.014,0.645-0.364,0.828-0.711c0.468-0.349,0.989-1.317,1.311,0.104
			C15.968,35.539,15.094,36.336,14.219,36.948z"/>
		<path fill-rule="evenodd" clip-rule="evenodd" fill="#C59C5F" d="M16.829,34.523c-0.545-0.905-0.847,0.158-1.281,0.158
			c-0.538,0.27-1.035,0.196-1.5-0.171c0.08-0.24,0.158-0.48,0.237-0.72c0.457-0.643,1.037-0.427,1.615-0.233
			c0.396-0.143,0.792-0.287,1.188-0.429c0.084,0.204,0.139,0.401,0.144,0.59C17.109,33.986,16.977,34.254,16.829,34.523z"/>
		<path fill-rule="evenodd" clip-rule="evenodd" fill="#F6D9AE" d="M15.993,26.253c-0.302,0.277-0.604,0.553-0.906,0.829
			c-0.932-0.386-1.75,0.847-2.701,0.191c-0.084-0.092-0.153-0.195-0.209-0.307c1.178-0.443,2.097-1.709,3.596-1.131
			C15.846,25.974,15.919,26.114,15.993,26.253z"/>
		<path fill-rule="evenodd" clip-rule="evenodd" fill="#C49B61" d="M17.065,28.568c-1.567,0.27-0.242-0.806-0.528-1.133
			c0.046-0.187,0.158-0.309,0.347-0.357c0.411-0.057,0.783,0.068,1.154,0.198c0.085,0.393,0.144,0.797,0.179,1.208
			c-0.063-0.028-0.127-0.05-0.188-0.05C17.708,28.439,17.387,28.521,17.065,28.568z"/>
		<path fill-rule="evenodd" clip-rule="evenodd" fill="#D8B584" d="M18.095,27.571c-0.419,0.124-0.814,0.005-1.19-0.308
			c-0.51-0.112,0.207-0.722-0.334-0.821c0.123-0.788,0.539-0.764,1.022-0.636C17.814,26.368,17.982,26.959,18.095,27.571z"/>
		<path fill-rule="evenodd" clip-rule="evenodd" fill="#F0D7A9" d="M16.707,24.08c-0.257,0.082-0.512,0.139-0.742-0.14
			c0.097-0.215,0.235-0.331,0.416-0.34C16.495,23.756,16.603,23.917,16.707,24.08z"/>
		<path fill-rule="evenodd" clip-rule="evenodd" fill="#FDF8C8" d="M16.571,26.441c0.374-0.087,0.753-0.228,1.086,0.104
			c-0.25,0.239-0.501,0.478-0.752,0.717c-0.129,0.045-0.251,0.103-0.367,0.173c-0.548-0.141-0.246-0.555-0.278-0.862
			C16.364,26.53,16.467,26.485,16.571,26.441z"/>
		<path fill-rule="evenodd" clip-rule="evenodd" fill="#C09756" d="M16.908,32.687c-0.609-0.323-1.407-0.317-1.791-1.032
			c0.471-0.038,0.942-0.076,1.413-0.113C16.656,31.924,16.782,32.305,16.908,32.687z"/>
		<path fill-rule="evenodd" clip-rule="evenodd" fill="#E0C08E" d="M16.473,23.733l-0.507,0.207
			c-0.237-0.481-0.475-0.962-0.712-1.444c-0.007-0.069-0.006-0.135,0.002-0.198C15.701,22.735,16.11,23.216,16.473,23.733z"/>
		<path fill-rule="evenodd" clip-rule="evenodd" fill="#C3924A" d="M15.345,22.386l-0.092,0.11c-0.14-0.17-0.22-0.316-0.254-0.443
			C15.117,22.161,15.232,22.272,15.345,22.386z"/>
		<path fill-rule="evenodd" clip-rule="evenodd" fill="#F2DEAC" d="M4.256,22.55c-0.072-0.257-0.144-0.513-0.215-0.769
			c0.137-0.061,0.273-0.123,0.409-0.184c0.656,1.536,1.312,3.073,1.969,4.609c0.01,0.205,0.105,0.464,0.015,0.605
			c-0.26,0.409-0.276,0.06-0.465-0.134C4.84,25.52,4.759,23.951,4.256,22.55z"/>
		<path fill-rule="evenodd" clip-rule="evenodd" fill="#FDF5C2" d="M13.634,28.162c0.338,0.231,0.7,0.434,1.007,0.702
			c0.37,0.323,0.664,0.738,0.502,1.258c-0.288,0.924-0.748,0.007-1.122,0.077c-1.115,0.206-2.229,0.412-3.343,0.618
			c-0.184-0.363-0.368-0.726-0.552-1.089c0.41-0.911,2.042-0.483,2.031-1.855C12.75,27.45,13.217,27.677,13.634,28.162z"/>
		<path fill-rule="evenodd" clip-rule="evenodd" fill="#BB9049" d="M13.634,28.162c-0.493-0.096-0.985-0.192-1.479-0.288
			c-0.101-0.088-0.188-0.188-0.261-0.301c0.164-0.1,0.328-0.199,0.492-0.299c0.913,0.114,1.703-1.513,2.701-0.191
			C14.603,27.442,14.118,27.802,13.634,28.162z"/>
		<path fill-rule="evenodd" clip-rule="evenodd" fill="#B99352" d="M7.823,30.682c-0.223-0.531-0.314-1.058,0.295-1.383
			c0.308-0.165,0.49,0.118,0.585,0.367c0.324,0.856-0.52,0.73-0.875,1.017L7.823,30.682z"/>
		<path fill-rule="evenodd" clip-rule="evenodd" fill="#FAD4A0" d="M14.048,34.51c0.5,0.057,1,0.113,1.5,0.171
			c0.208,0.253,0.379,0.541,0.435,0.766c-0.132,0.133-0.263,0.261-0.395,0.385c-0.12-0.018-0.269-0.059-0.451-0.131
			c-1.006-0.394-0.978,0.146-1.257,0.62c-0.404-0.016-0.542-0.318-0.675-0.625C12.447,34.561,13.468,34.692,14.048,34.51z"/>
		<path fill-rule="evenodd" clip-rule="evenodd" fill="#D4C29B" d="M11.838,36.668c-0.058-0.037-0.112-0.08-0.173-0.11
			c-0.826-0.414-1.798-0.62-2.245-1.575c0.976-0.147,1.756,0.348,2.557,0.777C12.2,36.104,12.578,36.471,11.838,36.668z"/>
		<path fill-rule="evenodd" clip-rule="evenodd" fill="#F1EDC2" d="M11.838,36.668c0.046-0.303,0.091-0.605,0.138-0.907
			c0.19,0.187,0.449,0.342,0.555,0.568c0.199,0.423,0.308,0.888,0.455,1.335C12.329,37.648,12.064,37.181,11.838,36.668z"/>
		<path fill-rule="evenodd" clip-rule="evenodd" fill="#C59C61" d="M5.35,35.496c0.221,0.703-0.161,1.233-0.453,1.789
			c-0.227-0.139-0.449-0.286-0.664-0.442C4.333,36.316,4.828,35.902,5.35,35.496z"/>
		<path fill-rule="evenodd" clip-rule="evenodd" fill="#C09756" d="M15.142,31.662c-1.274,0.234-2.549,0.468-3.824,0.701
			l0.008,0.009c-0.469-0.237-0.865,0.365-1.335,0.113c0.074-0.192,0.148-0.384,0.222-0.576
			C11.859,31.884,13.46,30.944,15.142,31.662z"/>
		<path fill-rule="evenodd" clip-rule="evenodd" fill="#DDBE8D" d="M9.992,32.485c0.44-0.098,0.856-0.479,1.335-0.113
			c-0.465,0.265-0.911,0.577-1.404,0.773c-0.218,0.087-0.597-0.082-0.574-0.396C9.374,32.381,9.765,32.559,9.992,32.485z"/>
		<path fill-rule="evenodd" clip-rule="evenodd" fill="#FCE7B5" d="M15.9,33.557c-0.538,0.078-1.077,0.156-1.615,0.233
			C14.629,32.358,15.198,32.498,15.9,33.557z"/>
	</g>
	<g>
		<path fill-rule="evenodd" clip-rule="evenodd" fill="#C69A62" d="M33.054,1.846c-0.002,0.088-0.019,0.178-0.062,0.27
			c-0.106,0.173-0.238,0.321-0.388,0.453C32.741,2.306,32.891,2.065,33.054,1.846z"/>
		<path fill-rule="evenodd" clip-rule="evenodd" fill="#FCF8CA" d="M35.38,0.217c0.089,0.031,0.183,0.054,0.274,0.082
			c0.092,0.052,0.161,0.124,0.197,0.224c0.01,0.064,0.008,0.129-0.006,0.193c-0.095,0.174-0.09,0.343,0.034,0.504
			c0.068,0.149,0.11,0.305,0.147,0.463c0.075,0.296,0.025,0.595,0.026,0.894c0.007,0.287-0.229,0.464-0.322,0.708
			c-0.04,0.059-0.093,0.103-0.156,0.136c-0.422,0.062-0.783-0.082-1.113-0.33c-0.137-0.312-0.147-0.559,0.29-0.572
			c-0.186-0.634-0.356-1.28-1.053-1.372C34.202,0.7,34.776,0.398,35.38,0.217z"/>
		<path fill-rule="evenodd" clip-rule="evenodd" fill="#C9A671" d="M35.655,0.428c-0.291,0.087-0.466,0.023-0.591-0.105
			c0.224-0.085,0.454-0.151,0.687-0.202C35.738,0.222,35.709,0.324,35.655,0.428z"/>
		<path fill-rule="evenodd" clip-rule="evenodd" fill="#FCF8CA" d="M32.628,2.523c0.263-0.038,0.522,0.04,0.781,0.124
			c0.069,0.03,0.132,0.071,0.187,0.123c0.125,0.179,0.016,0.305-0.139,0.285c-0.203-0.026-0.2,0.041-0.166,0.186
			c-0.343,0.176-0.676,0.36-0.821,0.749C32.29,4.25,32.296,4.544,32.31,4.839c-0.005,0.139-0.029,0.275-0.073,0.407
			c-0.022,0.065-0.051,0.128-0.083,0.189c-0.039,0.112-0.109,0.207-0.186,0.299c-0.039-0.233-0.068-0.476-0.085-0.731
			C32.014,4.011,32.275,3.191,32.628,2.523z"/>
		<path fill-rule="evenodd" clip-rule="evenodd" fill="#FCF8CA" d="M33.653,2.883c-0.061-0.018-0.121-0.036-0.182-0.054
			c-0.282-0.167-0.695-0.23-0.571-0.719c0.015-0.031,0.025-0.061,0.032-0.092c0.181-0.266,0.379-0.501,0.59-0.71
			c0.007,0.006,0.014,0.013,0.02,0.019c0.025,0.215,0.125,0.398,0.255,0.567c0.105,0.202,0.219,0.398,0.373,0.569
			c0.096,0.201,0.395,0.371,0.103,0.635C34.026,3.142,33.804,3.115,33.653,2.883z"/>
		<path fill-rule="evenodd" clip-rule="evenodd" fill="#B5813A" d="M32.9,2.11c0.057,0.346,0.337,0.514,0.571,0.719l-0.912-0.17
			c0.085-0.172,0.177-0.335,0.273-0.488L32.9,2.11z"/>
		<path fill-rule="evenodd" clip-rule="evenodd" fill="#FDF3C0" d="M35.655,0.428c-0.005-0.092-0.022-0.184-0.045-0.274
			c0.383-0.095,0.775-0.144,1.168-0.152c0.032,0.139,0.038,0.278-0.078,0.415C36.56,0.66,36.382,0.843,36.071,0.81
			c-0.118-0.024-0.214-0.083-0.289-0.178C35.74,0.565,35.697,0.497,35.655,0.428z"/>
		<path fill-rule="evenodd" clip-rule="evenodd" fill="#FCF8CA" d="M36.053,0.673c0.284,0.062,0.385-0.171,0.532-0.33
			C36.687,0.2,36.808,0.089,36.941,0c2.085,0.013,4.127,1.136,4.663,2.476c0.26,0.652,0.406,1.27,0.457,1.852
			c-0.039,0.006-0.082,0.006-0.132,0c-0.045-0.06-0.067-0.129-0.087-0.201c-0.032-0.114,0.057-0.226-0.001-0.339
			c-0.085,0.053-0.098,0.155-0.153,0.228c-0.121,0.16-0.265,0.289-0.449,0.363c-0.037,0.037-0.138-0.021-0.13,0.072
			c0.001,0.018,0.123,0.025,0.192,0.035c0.247,0.089,0.376-0.269,0.624-0.162c0.125,0.098-0.052,0.372,0.159,0.445
			c0.003,0.505-0.068,0.979-0.201,1.42c-0.07,0.007-0.144,0.002-0.222-0.013c-0.122-0.041-0.208-0.151-0.339-0.179
			c-0.092,0.05-0.257-0.132-0.273,0.069c-0.004,0.049,0.128,0.164,0.158,0.274c0.024,0.102,0.035,0.206,0.029,0.311
			c-0.029,0.224-0.146,0.395-0.323,0.529c-0.198,0.099-0.399,0.15-0.609,0.03c-0.11-0.09-0.17-0.213-0.226-0.339
			c-0.091-0.199-0.112-0.437-0.321-0.57c-0.081-0.057-0.153-0.121-0.197-0.211c0.124-0.322,0.392-0.582,0.404-0.951
			c0.071-0.253,0.409-0.269,0.469-0.53c-0.044-0.222-0.15-0.42-0.221-0.63c-0.196-0.443-0.103-0.652,0.414-0.502
			c0.156,0.045,0.297,0.164,0.473,0.088c0.076-0.13,0.24-0.27-0.055-0.34c-0.063-0.01-0.12-0.027-0.179-0.05
			c-0.127-0.062-0.212-0.155-0.231-0.3c-0.021-0.444,0.137-0.891-0.026-1.332c-0.034-0.092,0.025-0.004-0.047-0.049
			c-0.113-0.072-0.036,0.075-0.076,0.104c-0.043,0.191-0.211,0.295-0.302,0.451c-0.083,0.335,0.34,0.49,0.288,0.812
			c-0.285,0.342-0.611,0.147-0.909,0.044c-0.247-0.085-0.454-0.17-0.576,0.152c-0.075,0.142-0.152,0.283-0.267,0.4
			c-0.073,0.061-0.16,0.068-0.243,0.066c-0.096,0.095,0.043,0.101,0.062,0.152c0.177,0.2,0.295,0.42,0.253,0.697
			c-0.022,0.026-0.045,0.051-0.068,0.077c-0.065,0.025-0.133,0.036-0.202,0.032c-0.287-0.05-0.479-0.264-0.71-0.41
			c-0.401-0.199-0.768-0.499-1.255-0.404c0.026,0.147,0.169,0.142,0.257,0.206c0.158,0.086,0.301,0.188,0.409,0.334
			c0.293,0.601-0.233,0.977-0.396,1.453c-0.342,0.467-0.691,0.931-0.69,1.551c-0.012,0.074-0.03,0.145-0.057,0.213
			c-0.092,0.234,0.012,0.591-0.36,0.649c-0.298,0.047-0.501-0.157-0.687-0.359c-0.083-0.09-0.155-0.19-0.216-0.297
			c-0.368-0.741-0.037-1.533-0.17-2.292c0.012-0.147,0.047-0.289,0.102-0.426c0.119-0.338,0.491-0.424,0.684-0.688
			c0.085-0.226,0.054-0.489,0.215-0.692c0.011-0.042,0.021-0.084,0.032-0.126c0.355-0.004,0.266-0.313,0.346-0.506
			c0.133-0.208,0.343-0.391,0.215-0.68c-0.071-0.186-0.248-0.311-0.291-0.512C35.948,1.217,35.875,0.929,36.053,0.673z"/>
		<path fill-rule="evenodd" clip-rule="evenodd" fill="#E1C18F" d="M35.649,3.32c0.089,0.254,0.03,0.501-0.032,0.748
			c-0.229,0.112-0.591,0.167-0.792,0.018c0.039-0.306-0.041-0.346-0.221-0.365c-0.219-0.038-0.435-0.085-0.653-0.129
			c-0.188-0.042-0.377-0.082-0.547-0.178c-0.068-0.043-0.118-0.102-0.151-0.175c0.126-0.15-0.454-0.126-0.084-0.307
			c0.129-0.063,0.329,0.069,0.484-0.05c0.229,0.044,0.458,0.087,0.688,0.131c0.076-0.06,0.138-0.048,0.186,0.037
			C34.901,3.14,35.275,3.23,35.649,3.32z"/>
		<path fill-rule="evenodd" clip-rule="evenodd" fill="#C49D62" d="M33.815,1.044c0.039-0.001,0.078-0.003,0.116-0.009
			c0.391-0.059,0.614-0.002,0.611,0.488c-0.003,0.426,0.394,0.703,0.58,1.064c0.043,0.083,0.222,0.174,0.056,0.27
			c-0.044,0.025-0.187-0.122-0.285-0.19c-0.49-0.419-1.066-0.743-1.431-1.299C33.575,1.253,33.693,1.144,33.815,1.044z"/>
		<path fill-rule="evenodd" clip-rule="evenodd" fill="#E2C08E" d="M33.464,1.366c0.545,0.359,1.123,0.68,1.428,1.302
			c-0.393-0.132-0.398,0.108-0.367,0.383c-0.062-0.012-0.124-0.024-0.186-0.037c-0.014-0.233-0.255-0.315-0.335-0.504
			c-0.006-0.241-0.187-0.373-0.327-0.532c-0.054-0.187-0.472-0.244-0.311-0.509C33.399,1.434,33.432,1.4,33.464,1.366z"/>
		<path fill-rule="evenodd" clip-rule="evenodd" fill="#C98A3A" d="M36.053,0.673c0.142,0.298,0.032,0.592-0.017,0.887
			c0.026,0.136-0.043,0.149-0.148,0.114c-0.041-0.144-0.081-0.289-0.122-0.433c-0.048-0.157-0.155-0.312-0.019-0.477
			c0.012-0.043,0.023-0.087,0.034-0.131C35.872,0.646,35.962,0.659,36.053,0.673z"/>
		<path fill-rule="evenodd" clip-rule="evenodd" fill="#D1A378" d="M35.888,1.673c0.049-0.038,0.099-0.076,0.148-0.114
			c0.201,0.057,0.339,0.174,0.374,0.39c-0.033,0.05-0.067,0.098-0.105,0.144c-0.107,0.147-0.139,0.335-0.267,0.47
			c-0.026,0.016-0.052,0.031-0.079,0.047C35.723,2.314,36.019,1.978,35.888,1.673z"/>
		<path fill-rule="evenodd" clip-rule="evenodd" fill="#C69A55" d="M36.095,2.64c-0.064,0.24,0.126,0.67-0.414,0.554
			c-0.149-0.31,0.339-0.316,0.278-0.584l-0.003,0.006c0.027-0.016,0.053-0.031,0.08-0.047C36.055,2.593,36.075,2.617,36.095,2.64z"
			/>
		<path fill-rule="evenodd" clip-rule="evenodd" fill="#CEA978" d="M35.748,0.764c0.052,0.157,0.088,0.315,0.019,0.477
			C35.53,1.091,35.283,0.942,35.748,0.764z"/>
		<path fill-rule="evenodd" clip-rule="evenodd" fill="#BD9553" d="M33.253,3.24c0.034,0.027,0.072,0.047,0.115,0.059
			c0.192,0.304,0.886,0.239,0.639,0.867c-0.211,0.118-0.138,0.414,0.208,0.613c0.392,0.225,0.473,0.506,0.269,0.889
			c-0.033,0.063-0.109,0.089-0.182,0.099c-0.132-0.041-0.187-0.164-0.272-0.254c-0.147-0.165-0.313-0.094-0.478-0.035
			c-0.177,0.053-0.365,0.046-0.54,0.109c-0.215,0.059-0.438,0.051-0.657,0.089c-0.066,0.002-0.129-0.011-0.191-0.036
			c-0.086-0.061-0.134-0.141-0.133-0.248c0.024-0.044,0.048-0.087,0.072-0.131c0.258-0.25,0.232-0.62,0.384-0.913
			c0.004-0.164-0.149-0.257-0.184-0.403C32.502,3.552,32.652,3.093,33.253,3.24z"/>
		<path fill-rule="evenodd" clip-rule="evenodd" fill="#CFAF7D" d="M35.157,9.612c0.035-0.044,0.041-0.1-0.042-0.19
			c-0.042-0.046,0.237-0.175,0.378-0.252c0.126-0.056,0.255-0.086,0.393-0.056c0.065,0.02,0.123,0.053,0.174,0.096
			c0.038,0.054,0.063,0.115,0.077,0.18c0.014,0.168,0.116,0.295,0.209,0.425C35.941,9.795,35.541,9.728,35.157,9.612z"/>
		<path fill-rule="evenodd" clip-rule="evenodd" fill="#EBD1A3" d="M31.966,5.722c0.062-0.041,0.131-0.077,0.206-0.109
			c0.033,0.01,0.066,0.017,0.1,0.02c-0.072,0.651,0.209,1.213,0.454,1.783c-0.024,0.082-0.068,0.134-0.123,0.17
			C32.306,7.065,32.085,6.446,31.966,5.722z"/>
		<path fill-rule="evenodd" clip-rule="evenodd" fill="#D5B17F" d="M33.955,9.049c0.12,0,0.255,0.051,0.388,0.092
			c0.107,0.056,0.186,0.134,0.216,0.247C34.349,9.292,34.148,9.178,33.955,9.049z"/>
		<path fill-rule="evenodd" clip-rule="evenodd" fill="#D09F70" d="M32.303,3.945c0.215,0.046,0.459,0.061,0.42,0.385
			c-0.316,0.021-0.161,0.575-0.564,0.498C32.099,4.516,32.022,4.201,32.303,3.945z"/>
		<path fill-rule="evenodd" clip-rule="evenodd" fill="#BC8B44" d="M32.172,5.613c-0.072,0.055-0.136,0.117-0.192,0.184
			c-0.013-0.074-0.024-0.15-0.035-0.225c0.045-0.053,0.077-0.111,0.087-0.18C32.078,5.466,32.125,5.54,32.172,5.613z"/>
		<path fill-rule="evenodd" clip-rule="evenodd" fill="#BC8B44" d="M32.159,4.828c0.309-0.028,0.024-0.73,0.564-0.498
			c-0.251,0.281-0.126,0.813-0.62,0.931C32.122,5.117,32.14,4.972,32.159,4.828z"/>
		<path fill-rule="evenodd" clip-rule="evenodd" fill="#C59F6A" d="M33.678,1.978c0.237,0.099,0.496,0.184,0.327,0.532
			C33.841,2.367,33.714,2.2,33.678,1.978z"/>
		<path fill-rule="evenodd" clip-rule="evenodd" fill="#C18B3C" d="M38.567,9.491c-0.038,0-0.095,0.017-0.178,0.059
			c-0.075,0.024-0.151,0.046-0.227,0.067c-0.061,0-0.123-0.012-0.183-0.028c-0.221-0.125-0.346-0.336-0.484-0.538
			c-0.043-0.101-0.061-0.198,0.046-0.274c0.117-0.049,0.315,0.018,0.341-0.021c0.073-0.111-0.072-0.195-0.147-0.261
			c-0.191-0.169-0.467-0.123-0.685-0.234c-0.227-0.134-0.613-0.045-0.641-0.458c0.087-0.41,0.37-0.55,0.756-0.55
			c0.351,0.083,0.732,0.058,1.043,0.285c0.127,0.348,0.899,0.395,0.475,1.007c-0.028,0.04,0.025,0.115,0.059,0.099
			c0.062-0.028-0.018-0.103,0.021-0.154c0.074-0.096,0.126-0.209,0.217-0.293c0.3-0.056,0.568,0.435,0.886,0.051
			c0.196,0.15,0.218,0.308,0.184,0.468C39.598,9.044,39.096,9.305,38.567,9.491z"/>
		<path fill-rule="evenodd" clip-rule="evenodd" fill="#C29756" d="M40.868,7.099c0.097-0.172,0.194-0.344,0.291-0.516
			c0.045-0.23,0.153-0.407,0.396-0.469l0.376-0.099c-0.117,0.451-0.297,0.868-0.528,1.247C41.228,7.366,41.07,7.542,40.846,7.4
			C40.73,7.326,40.778,7.195,40.868,7.099z"/>
		<path fill-rule="evenodd" clip-rule="evenodd" fill="#E8C491" d="M41.927,4.334c0.038-0.059,0.078-0.117,0.119-0.174
			c0.033,0.284,0.043,0.557,0.033,0.823c-0.141-0.185-0.265-0.377-0.144-0.658L41.927,4.334z"/>
		<path fill-rule="evenodd" clip-rule="evenodd" fill="#FDF4C0" d="M39.795,8.891c0.044-0.208,0.272-0.418,0.1-0.624
			c0.007-0.034,0.013-0.068,0.02-0.103c0.08-0.169,0.198-0.288,0.394-0.31c0.175,0.065,0.3,0.17,0.396,0.299
			C40.429,8.432,40.124,8.679,39.795,8.891z"/>
		<path fill-rule="evenodd" clip-rule="evenodd" fill="#C29D6C" d="M37.192,0.007c-0.202,0.113-0.394,0.246-0.607,0.335
			c-0.002-0.105,0.061-0.227,0.078-0.337C36.839-0.003,37.016-0.001,37.192,0.007z"/>
		<path fill-rule="evenodd" clip-rule="evenodd" fill="#BD8C3D" d="M34.452,9.336L34.286,9.18c-0.051-0.048-0.08-0.106-0.086-0.175
			c-0.005-0.526,0.331-0.979,0.316-1.506c-0.026-0.128-0.057-0.256-0.09-0.382c-0.048-0.404-0.349-0.731-0.352-1.149
			c0.021-0.108,0.07-0.196,0.172-0.248c0.304-0.545,0.266-0.539-0.182-0.763c-0.31-0.155-0.254-0.683-0.634-0.848
			c0.202-0.275,0.361,0.144,0.553,0.035c0.301-0.126,0.513-0.619,0.94-0.228c0.232,0.051,0.463,0.102,0.695,0.152
			c-0.12,0.344-0.574,0.265-0.724,0.572c-0.152,0.123-0.183,0.273-0.099,0.449c0.214,0.745-0.153,1.532,0.164,2.27
			c0.058,0.313,0.263,0.535,0.535,0.635c0.646,0.241,0.292,0.38-0.036,0.526c-0.136,0.061-0.252,0.137-0.335,0.26
			c-0.096,0.132-0.191,0.264-0.295,0.39C34.75,9.26,34.67,9.346,34.558,9.387C34.522,9.371,34.487,9.354,34.452,9.336z"/>
		<path fill-rule="evenodd" clip-rule="evenodd" fill="#C08F48" d="M34.96,8.733c0.082-0.42,0.461-0.384,0.749-0.488
			c-0.224-0.23-0.612-0.263-0.739-0.604c-0.031-0.084-0.01-0.187-0.012-0.281c0.081,0.085,0.163,0.169,0.242,0.255
			c0.162,0.177,0.346,0.403,0.59,0.319c0.231-0.08-0.031-0.345,0.068-0.51c0.048-0.081,0.107-0.156,0.161-0.234
			c0.177-1.081,0.362-1.31,1.074-1.331c0.111,0.04,0.206,0.103,0.282,0.193c0.221,0.537,0.636,0.959,0.892,1.478
			c-0.018,0.029-0.036,0.059-0.054,0.088c-0.321-0.148-0.705-0.003-1.011-0.219c-0.347-0.373-0.558-0.073-0.783,0.158
			c-0.126,0.169-0.112,0.36-0.091,0.554c0.008,0.173,0.023,0.345-0.005,0.518c-0.06,0.257-0.187,0.468-0.416,0.609
			c-0.112-0.023-0.223-0.038-0.314,0.057c-0.273,0.081-0.302-0.172-0.418-0.304C35.139,8.874,35.235,8.649,34.96,8.733z"/>
		<path fill-rule="evenodd" clip-rule="evenodd" fill="#D8B685" d="M40.34,3.991c0.102,0.222,0.204,0.443,0.306,0.665
			c-0.226,0.177-0.587,0.03-0.764,0.321c-0.235,0.226-0.132,0.663-0.502,0.804c-0.155,0.003-0.22-0.116-0.297-0.218
			c-0.177-0.182-0.446-0.244-0.598-0.458c-0.118-0.177-0.41-0.208-0.408-0.486c0.117-0.193,0.352-0.11,0.506-0.216
			c0.055,0.001,0.11,0.001,0.165,0.002c0.054,0.099,0.129,0.16,0.245,0.136c-0.005,0,0.014-0.052,0.014-0.052
			s-0.045,0.032-0.052,0.033c-0.098,0.003-0.166-0.038-0.217-0.111c-0.138-0.298-0.276-0.597-0.414-0.895
			c-0.061-0.084-0.042-0.154,0.038-0.213c0.092,0.055,0.184,0.11,0.277,0.164C39.246,3.51,39.851,3.562,40.34,3.991z"/>
		<path fill-rule="evenodd" clip-rule="evenodd" fill="#FCDAAA" d="M40.34,3.991c-0.565-0.183-1.19-0.168-1.701-0.523
			c0.034-0.16,0.039-0.337,0.233-0.405c0.704-0.123,1.408-0.065,2.112,0.006c0.059,0.02,0.118,0.041,0.176,0.061
			c0.237,0.154,0.035,0.405,0.13,0.59c-0.246,0.466-0.42,0.04-0.614-0.054c-0.134-0.065-0.295-0.179-0.401-0.079
			C40.22,3.639,40.314,3.851,40.34,3.991z"/>
		<path fill-rule="evenodd" clip-rule="evenodd" fill="#E2BB87" d="M38.106,4.573c0.072,0.261,0.444,0.152,0.512,0.416
			c-0.102,0.08-0.207,0.153-0.336,0.175c-0.099,0.028-0.198,0.055-0.048,0.163c0.213,0.153,0.444,0.289,0.536,0.559
			c0.005,0.071-0.012,0.135-0.051,0.193c-0.06,0.035-0.124,0.054-0.193,0.06c-0.34-0.087-0.732-0.017-0.998-0.327
			c-0.036-0.117-0.104-0.169-0.228-0.099c-0.083,0.045-0.168,0.078-0.261,0.092c-0.143,0.004-0.265-0.034-0.344-0.163
			c0.001-0.511,0.686-0.821,0.417-1.412c0.146-0.204,0.146-0.204,0.575,0.046c0.045,0.048,0.07,0.105,0.075,0.168
			c-0.012,0.057-0.001,0.06,0.276,0.056C38.061,4.525,38.084,4.549,38.106,4.573z"/>
		<path fill-rule="evenodd" clip-rule="evenodd" fill="#FBD299" d="M40.439,2.805c-0.082-0.312-0.755-0.326-0.427-0.846
			c0.154-0.093,0.433-0.053,0.389-0.361c-0.009-0.155-0.178-0.412,0.011-0.428c0.047-0.004,0.116,0.016,0.187,0.056
			c0.058,0.046,0.114,0.092,0.169,0.139c0.058,0.07,0.097,0.155,0.095,0.25c-0.011,0.413,0.063,0.842-0.143,1.234
			C40.611,2.933,40.518,2.914,40.439,2.805z"/>
		<path fill-rule="evenodd" clip-rule="evenodd" fill="#C7A06D" d="M39.338,0.917c-0.13,0.338-0.215,0.706-0.412,0.999
			c-0.083,0.123-0.042,0.547-0.361,0.368c-0.265-0.148-0.307-0.427-0.002-0.643c0.361-0.248,0.173-0.696,0.367-1.005
			c0.013-0.11,0.034-0.201,0.063-0.273c0.227,0.08,0.446,0.171,0.654,0.273C39.615,0.763,39.495,0.849,39.338,0.917z"/>
		<path fill-rule="evenodd" clip-rule="evenodd" fill="#FCF4B9" d="M40.439,2.805c0.094,0.015,0.188,0.029,0.282,0.044
			c0.039,0.132,0.14,0.19,0.263,0.22c-0.704-0.016-1.409,0.297-2.112-0.006c0.035-0.415,0.012-0.864,0.629-0.369
			C39.74,2.887,40.1,2.994,40.439,2.805z"/>
		<path fill-rule="evenodd" clip-rule="evenodd" fill="#D5B27F" d="M37.699,4.339c-0.241,0.214-0.352-0.279-0.586-0.108
			c-0.133-0.082-0.266-0.164-0.399-0.246c-0.102-0.212-0.406-0.191-0.49-0.424c0.692-0.41,1.163,0.159,1.71,0.388
			C37.985,4.157,37.508,4.046,37.699,4.339z"/>
		<path fill-rule="evenodd" clip-rule="evenodd" fill="#F9DCAE" d="M41.935,4.325c-0.254,0.041-0.201,0.777-0.683,0.302
			c-0.087-0.102-0.23-0.193-0.073-0.347c0.151-0.155,0.328-0.292,0.444-0.469c0.094-0.143,0.113-0.42,0.272-0.44
			c0.046,0.183,0.085,0.362,0.114,0.539c-0.004,0.024-0.008,0.047-0.008,0.069c-0.003,0.119-0.048,0.237-0.074,0.355L41.935,4.325z"
			/>
		<path fill-rule="evenodd" clip-rule="evenodd" fill="#BB9E6A" d="M36.651,2.395c0.059-0.205-0.095-0.576,0.209-0.501
			c0.23,0.056,0.428,0.423,0.367,0.728c-0.05,0.255-0.362,0.441-0.556,0.377C36.226,2.852,36.803,2.584,36.651,2.395z"/>
		<path fill-rule="evenodd" clip-rule="evenodd" fill="#C9A771" d="M39.362,5.732c0.269-0.197,0.039-0.696,0.478-0.792
			c0.174-0.043,0.216,0.082,0.261,0.204c0.021,0.42-0.067,0.78-0.51,0.951c-0.059,0.026-0.116,0.022-0.171-0.013
			C39.343,5.975,39.331,5.857,39.362,5.732z"/>
		<path fill-rule="evenodd" clip-rule="evenodd" fill="#E2C18F" d="M40.868,7.099c0.017,0.121-0.031,0.331,0.206,0.196
			c0.158-0.09,0.293-0.222,0.439-0.336c0.012,0.016,0.024,0.033,0.035,0.049c-0.14,0.266-0.305,0.515-0.489,0.746
			c-0.234,0.044-0.475,0.049-0.717,0.055c-0.165-0.104-0.148-0.278-0.168-0.437c0.001-0.065,0.015-0.127,0.045-0.185
			c0.028-0.015,0.056-0.031,0.084-0.047C40.492,7.126,40.68,7.112,40.868,7.099z"/>
		<path fill-rule="evenodd" clip-rule="evenodd" fill="#C09C70" d="M36.696,5.643c0.144,0.021,0.288,0.041,0.432,0.062
			c0.22,0.069,0.193,0.191,0.07,0.332c-0.478-0.156-0.778-0.03-0.888,0.502c-0.047,0.227-0.192,0.434-0.292,0.65
			C35.925,6.534,36.239,6.058,36.696,5.643z"/>
		<path fill-rule="evenodd" clip-rule="evenodd" fill="#D4B076" d="M37.606,2.122c0.001,0.169-0.069,0.175-0.158,0.083
			c-0.048-0.05-0.073-0.125-0.101-0.191c-0.128-0.299-0.463-0.53-0.309-0.921c0.029-0.073,0.091-0.102,0.152-0.026
			C37.442,1.381,37.513,1.764,37.606,2.122z"/>
		<path fill-rule="evenodd" clip-rule="evenodd" fill="#DDB481" d="M39.455,6.072c0.046,0.005,0.091,0.013,0.136,0.023
			c0.096,0.036,0.193,0.072,0.289,0.108c0.012,0.255,0.093,0.475,0.316,0.622c0.133,0.071,0.111,0.195,0.107,0.313l-0.033,0.004
			c-0.226,0.142-0.424-0.037-0.637-0.053c-0.189-0.076-0.346-0.183-0.379-0.405C39.3,6.475,39.235,6.226,39.455,6.072z"/>
		<path fill-rule="evenodd" clip-rule="evenodd" fill="#C29C69" d="M37.699,4.339c-0.311-0.366,0.153-0.263,0.236-0.39
			c0.216,0.151,0.432,0.303,0.649,0.454c-0.077,0.287-0.285,0.206-0.478,0.17l0.001-0.002c-0.087-0.164-0.324-0.063-0.408-0.231
			L37.699,4.339z"/>
		<path fill-rule="evenodd" clip-rule="evenodd" fill="#FCE0A7" d="M40.1,5.144c-0.087-0.068-0.174-0.136-0.261-0.204
			c0.072-0.652,0.517-0.246,0.806-0.284c0.141,0.162,0.096,0.264-0.11,0.274C40.354,4.939,40.207,4.995,40.1,5.144z"/>
		<path fill-rule="evenodd" clip-rule="evenodd" fill="#B28442" d="M36.773,0.941c-0.033,0.282-0.092,0.522-0.414,0.506
			c-0.132-0.007-0.132-0.145-0.054-0.202c0.234-0.173,0.128-0.613,0.473-0.644C36.884,0.591,36.77,0.841,36.773,0.941z"/>
		<path fill-rule="evenodd" clip-rule="evenodd" fill="#C89554" d="M41.071,6.368c-0.72-0.755,0.205-0.454,0.399-0.621
			C41.511,6.065,41.422,6.301,41.071,6.368z"/>
		<path fill-rule="evenodd" clip-rule="evenodd" fill="#C39047" d="M40.196,6.826c-0.349-0.084-0.731-0.151-0.316-0.622
			C40.298,6.252,40.03,6.649,40.196,6.826z"/>
		<path fill-rule="evenodd" clip-rule="evenodd" fill="#B5823C" d="M38.929,0.635c0.022,0.387,0.007,0.766-0.261,1.082
			c-0.006,0.007-0.046-0.006-0.063-0.019c-0.018-0.014-0.028-0.038-0.042-0.058C38.718,1.318,38.585,0.89,38.929,0.635z"/>
		<path fill-rule="evenodd" clip-rule="evenodd" fill="#FCDBA7" d="M39.338,0.917c0.072-0.109,0.163-0.208,0.217-0.326
			c0.109,0.051,0.215,0.104,0.319,0.161C39.766,0.97,39.531,0.891,39.338,0.917z"/>
		<path fill-rule="evenodd" clip-rule="evenodd" fill="#FBD399" d="M41.071,6.368c0.181-0.176,0.338-0.369,0.399-0.622
			c0.162,0.092,0.116,0.232,0.085,0.368c-0.041,0.234-0.179,0.385-0.396,0.469C41.13,6.511,41.1,6.44,41.071,6.368z"/>
		<path fill-rule="evenodd" clip-rule="evenodd" fill="#D8B98B" d="M38.486,0.207c-0.091,0.121-0.151,0.061-0.202-0.05
			C38.352,0.173,38.419,0.189,38.486,0.207z"/>
		<path fill-rule="evenodd" clip-rule="evenodd" fill="#D4B77D" d="M36.237,1.929c0.058,0.007,0.115,0.014,0.173,0.02
			c0.119,0.332,0.193,0.644-0.315,0.691l-0.002,0.005C36.137,2.406,36.112,2.153,36.237,1.929z"/>
		<path fill-rule="evenodd" clip-rule="evenodd" fill="#C08723" d="M41.291,3.72c-0.204-0.161-0.088-0.393-0.13-0.59
			C41.706,3.216,41.235,3.526,41.291,3.72z"/>
		<path fill-rule="evenodd" clip-rule="evenodd" fill="#F4D1A0" d="M36.224,3.561c0.242,0.05,0.45,0.139,0.49,0.424
			C36.486,3.918,36.157,3.969,36.224,3.561z"/>
		<path fill-rule="evenodd" clip-rule="evenodd" fill="#BB8749" d="M41.552,2.357c-0.024,0.009-0.046,0.007-0.067-0.015
			c-0.052-0.054-0.052-0.108-0.026-0.162C41.493,2.239,41.524,2.298,41.552,2.357z"/>
		<path fill-rule="evenodd" clip-rule="evenodd" fill="#D4BB91" d="M41.179,4.28c0.024,0.116,0.049,0.231,0.073,0.347
			c-0.187-0.021-0.418-0.053-0.409-0.273C40.851,4.178,41.057,4.28,41.179,4.28z"/>
		<path fill-rule="evenodd" clip-rule="evenodd" fill="#AE8547" d="M38.362,3.304c-0.013,0.071-0.025,0.142-0.038,0.213
			c-0.044,0.043-0.088,0.086-0.131,0.129c-0.033-0.055-0.106-0.124-0.092-0.162C38.14,3.371,38.215,3.275,38.362,3.304z"/>
		<path fill-rule="evenodd" clip-rule="evenodd" fill="#C5A269" d="M34.794,5.089c-0.137-0.058-0.231-0.143-0.176-0.309
			c0.045-0.134,0.16-0.138,0.275-0.14C34.86,4.79,34.827,4.94,34.794,5.089z"/>
		<path fill-rule="evenodd" clip-rule="evenodd" fill="#DBB07F" d="M40.402,1.598c0.201,0.477-0.098,0.414-0.389,0.361
			C40.142,1.839,40.272,1.719,40.402,1.598z"/>
		<path fill-rule="evenodd" clip-rule="evenodd" fill="#CCA877" d="M34.922,3.916c-0.385-0.219-0.555,0.447-0.94,0.228
			c0.004-0.331-0.233-0.456-0.491-0.535c-0.199-0.061-0.208-0.158-0.124-0.311c0.208,0.039,0.416,0.077,0.625,0.115
			c0.205,0.15,0.435,0.19,0.682,0.151C34.884,3.591,35.141,3.586,34.922,3.916z"/>
		<path fill-rule="evenodd" clip-rule="evenodd" fill="#BD9553" d="M34.674,3.565c-0.271,0.146-0.495,0.081-0.682-0.151
			C34.219,3.464,34.447,3.515,34.674,3.565z"/>
		<path fill-rule="evenodd" clip-rule="evenodd" fill="#F2D3A1" d="M36.237,1.929c0,0.249,0.122,0.522-0.143,0.717
			c-0.043-0.022-0.089-0.032-0.138-0.03C36.022,2.376,35.984,2.093,36.237,1.929z"/>
		<path fill-rule="evenodd" clip-rule="evenodd" fill="#BC8B44" d="M32.687,7.478c-0.146-0.21-0.307-0.417-0.427-0.633
			c-0.067-0.182-0.127-0.373-0.178-0.573c-0.007-0.197,0.046-0.407,0.19-0.638c0.173-0.241,0.458-0.094,0.672-0.194
			c0.16-0.016,0.283,0.069,0.409,0.148c0.54,0.646,0.246,1.421,0.331,2.138c-0.014,0.174,0.018,0.371-0.201,0.454
			c-0.357-0.008-0.534-0.274-0.733-0.509C32.713,7.611,32.693,7.547,32.687,7.478z"/>
		<path fill-rule="evenodd" clip-rule="evenodd" fill="#B7A47B" d="M34.245,5.72c-0.018,0.094-0.037,0.189-0.055,0.283
			c-0.303,0.049-0.366-0.17-0.43-0.386c0.059-0.201,0.16-0.329,0.393-0.219C34.259,5.483,34.264,5.598,34.245,5.72z"/>
		<path fill-rule="evenodd" clip-rule="evenodd" fill="#CDBE9C" d="M34.154,5.397c-0.143,0.03-0.264,0.094-0.34,0.227
			c-0.122,0.033-0.197-0.03-0.258-0.123c-0.006-0.034-0.012-0.069-0.017-0.103C33.743,5.067,33.949,5.127,34.154,5.397z"/>
		<path fill-rule="evenodd" clip-rule="evenodd" fill="#C0A883" d="M32.87,4.648c0.008-0.115,0.047-0.172,0.126-0.14
			c0.108,0.044,0.215,0.11,0.212,0.246c-0.002,0.085-0.017,0.222-0.151,0.139C32.968,4.837,32.919,4.717,32.87,4.648z"/>
		<path fill-rule="evenodd" clip-rule="evenodd" fill="#CDBE9C" d="M33.229,5.631c-0.095-0.064-0.19-0.128-0.285-0.191
			c0.185-0.198,0.397-0.009,0.594-0.042l0.019,0.046C33.543,5.672,33.358,5.603,33.229,5.631z"/>
		<path fill-rule="evenodd" clip-rule="evenodd" fill="#C49149" d="M36.053,9.793c-0.067-0.088-0.091-0.204-0.021-0.38
			c0.185-0.079,0.388,0.218,0.566-0.028c0.167-0.055,0.276,0.117,0.432,0.102c0.291-0.049,0.291-0.445,0.583-0.488
			c0.206,0.144,0.32,0.343,0.355,0.59c0.001,0.027-0.001,0.053-0.006,0.078C37.332,9.816,36.683,9.862,36.053,9.793z"/>
		<path fill-rule="evenodd" clip-rule="evenodd" fill="#C69D69" d="M37.028,9.63c-0.248,0.12-0.282-0.132-0.404-0.232
			c-0.226,0.111-0.411,0.038-0.574-0.13c-0.048-0.008-0.095-0.018-0.142-0.031c0.1-0.231,0.2-0.463,0.299-0.694
			c0.131-0.192,0.291-0.324,0.543-0.269c0.065,0.027,0.119,0.07,0.16,0.127C37.113,8.794,37.066,9.212,37.028,9.63z"/>
		<path fill-rule="evenodd" clip-rule="evenodd" fill="#DCB180" d="M35.246,8.933c0.204,0.036,0.206,0.266,0.348,0.361
			c-0.204,0.031-0.289,0.189-0.387,0.333c-0.14-0.04-0.277-0.087-0.412-0.14c0.012-0.058,0.03-0.116,0.051-0.174
			C34.931,9.137,35.038,8.981,35.246,8.933z"/>
		<path fill-rule="evenodd" clip-rule="evenodd" fill="#BB842D" d="M36.05,9.269c0.191,0.043,0.383,0.086,0.574,0.13
			c-0.179,0.741-0.395,0.023-0.592,0.015C36.034,9.365,36.041,9.317,36.05,9.269z"/>
		<path fill-rule="evenodd" clip-rule="evenodd" fill="#F0D3A2" d="M32.785,7.549c0.212,0.197,0.424,0.394,0.636,0.591
			c0.257,0.067,0.533,0.098,0.699,0.347c0.099,0.177,0.14,0.37,0.161,0.569c-0.001,0.041,0.001,0.083,0.005,0.124
			c-0.038,0.003-0.076,0.004-0.114,0.005c-0.571-0.335-1.075-0.806-1.465-1.427C32.718,7.694,32.742,7.625,32.785,7.549z"/>
		<path fill-rule="evenodd" clip-rule="evenodd" fill="#FDF6C2" d="M32.785,7.549c0.007,0.297,0.149,0.526,0.313,0.741
			c-0.206-0.24-0.391-0.509-0.552-0.809c0.044-0.005,0.092-0.005,0.141-0.003C32.725,7.495,32.758,7.519,32.785,7.549z"/>
		<path fill-rule="evenodd" clip-rule="evenodd" fill="#FDF5BD" d="M34.988,9.346l-0.052,0.195
			c-0.138-0.049-0.274-0.104-0.407-0.166c0.043-0.096,0.066-0.208,0.193-0.239C34.855,9.152,34.932,9.236,34.988,9.346z"/>
		<path fill-rule="evenodd" clip-rule="evenodd" fill="#FCF8CA" d="M39.316,6.649c0.077,0.176,0.225,0.278,0.385,0.367
			c0.296,0.043,0.294,0.306,0.378,0.506c0.06,0.284-0.011,0.534-0.2,0.752l0.014-0.006c-0.36,0.497-0.36,0.497-0.887-0.073
			c-0.278-0.079-0.477-0.257-0.62-0.503c-0.057-0.377-0.504-0.61-0.39-1.05c0.11-0.274,0.232-0.538,0.567-0.597
			c0.046,0.007,0.092,0.008,0.138,0.002c0.143-0.044,0.244,0.041,0.35,0.113C39.202,6.29,39.336,6.429,39.316,6.649z"/>
		<path fill-rule="evenodd" clip-rule="evenodd" fill="#EDC08D" d="M37.028,9.63c-0.228-0.387-0.213-0.808-0.172-1.232
			c0.392-0.126,0.559,0.095,0.654,0.426c0.034,0.059,0.069,0.117,0.103,0.176C37.397,9.191,37.576,9.747,37.028,9.63z"/>
		<path fill-rule="evenodd" clip-rule="evenodd" fill="#C69D69" d="M37.509,8.824c-0.215-0.147-0.377-0.374-0.654-0.426L36.841,8.37
			c-0.022-0.164,0.072-0.222,0.215-0.235c0.215,0.028,0.431,0.084,0.645,0.08c0.447-0.009,0.395,0.455,0.362,0.566
			C37.976,9.07,37.705,8.815,37.509,8.824z"/>
		<path fill-rule="evenodd" clip-rule="evenodd" fill="#C08F48" d="M38.512,7.656c0.165,0.18,0.33,0.359,0.495,0.539
			c-0.046,0.112-0.082,0.231-0.142,0.335c-0.074,0.128,0.323,0.19,0.064,0.27c-0.182,0.056-0.587-0.186-0.504-0.268
			c0.476-0.473-0.387-0.568-0.214-0.915l0.008-0.006C38.326,7.572,38.416,7.634,38.512,7.656z"/>
		<path fill-rule="evenodd" clip-rule="evenodd" fill="#F7D8A8" d="M37.888,9.684l0.078-0.095c0.133-0.06,0.262-0.146,0.402-0.175
			c0.171-0.036,0.352-0.304,0.486-0.113c0.014,0.021,0.023,0.044,0.026,0.068C38.56,9.504,38.227,9.609,37.888,9.684z"/>
		<path fill-rule="evenodd" clip-rule="evenodd" fill="#BB9B6A" d="M36.278,7.518c0.434-0.61,0.614-0.634,0.923-0.119
			c-0.349-0.029-0.584,0.118-0.7,0.451c-0.051,0.041-0.105,0.048-0.163,0.014C36.257,7.759,36.337,7.626,36.278,7.518z"/>
		<path fill-rule="evenodd" clip-rule="evenodd" fill="#BD8C3D" d="M36.385,7.84c0.039,0.003,0.078,0.006,0.117,0.009
			c0.068,0.321,0.489-0.041,0.554,0.285c-0.072,0.079-0.144,0.157-0.216,0.236c-0.241-0.053-0.417,0.134-0.633,0.173
			c-0.018-0.152-0.036-0.303-0.054-0.455C36.271,8.044,36.231,7.851,36.385,7.84z"/>
		<path fill-rule="evenodd" clip-rule="evenodd" fill="#B88232" d="M41.518,7.063l-0.005-0.104c0.019,0.005,0.037,0.01,0.053,0.016
			C41.551,7.005,41.534,7.033,41.518,7.063z"/>
		<path fill-rule="evenodd" clip-rule="evenodd" fill="#C29756" d="M40.59,8.267c-0.086-0.127-0.184-0.244-0.317-0.336
			c-0.032-0.069-0.021-0.132,0.032-0.187c0.291-0.137,0.596-0.186,0.908-0.194C41.028,7.81,40.819,8.049,40.59,8.267z"/>
		<path fill-rule="evenodd" clip-rule="evenodd" fill="#C28C54" d="M40.305,7.745c-0.011,0.062-0.021,0.124-0.032,0.187
			c-0.162,0.078-0.164,0.34-0.393,0.342c0.092-0.251,0.107-0.503,0.014-0.757c0.107-0.087,0.2-0.2,0.355-0.206
			C40.406,7.438,40.322,7.596,40.305,7.745z"/>
		<path fill-rule="evenodd" clip-rule="evenodd" fill="#F7DDAA" d="M33.229,5.631c0.109-0.063,0.219-0.126,0.328-0.188
			c0.086,0.06,0.171,0.12,0.257,0.181c0.125,0.126,0.251,0.252,0.377,0.379c0.156,0.367,0.37,0.714,0.366,1.133
			c-0.08,0.635-0.536,0.677-1.033,0.657C33.353,7.082,33.735,6.296,33.229,5.631z"/>
		<path fill-rule="evenodd" clip-rule="evenodd" fill="#C9B998" d="M33.523,7.792c0.298-0.292,0.867-0.158,1.033-0.657
			c0.024,0.108,0.049,0.216,0.073,0.324c-0.026,0.449-0.396,0.723-0.561,1.101c-0.215-0.14-0.431-0.281-0.646-0.421
			C33.59,8.064,33.48,7.905,33.523,7.792z"/>
		<path fill-rule="evenodd" clip-rule="evenodd" fill="#BC9451" d="M34.068,8.561c0.04-0.442,0.332-0.755,0.561-1.101
			c0.116,0.21,0.221,0.422-0.058,0.587C34.513,8.08,34.42,8.065,34.44,8.17c0.039,0.202,0.383-0.009,0.359,0.243
			c-0.023,0.237-0.447-0.067-0.383,0.199c0.053,0.222-0.058,0.308-0.134,0.444C34.14,8.921,34.08,8.751,34.068,8.561z"/>
		<path fill-rule="evenodd" clip-rule="evenodd" fill="#FDF5C0" d="M34.988,9.346c-0.121-0.029-0.226-0.078-0.265-0.21
			c0.079-0.134,0.158-0.269,0.237-0.403c0.205-0.089,0.339-0.077,0.286,0.201C35.16,9.071,35.074,9.209,34.988,9.346z"/>
		<path fill-rule="evenodd" clip-rule="evenodd" fill="#F5CE98" d="M38.565,6.044c-0.152,0.215-0.305,0.43-0.457,0.645
			c-0.367,0.008-0.552-0.282-0.79-0.484c-0.041-0.056-0.081-0.111-0.121-0.167c-0.023-0.111-0.046-0.222-0.07-0.333
			c0.053-0.034,0.107-0.067,0.16-0.101c0.116-0.06,0.209-0.04,0.273,0.078C37.808,6.046,38.289,5.762,38.565,6.044z"/>
		<path fill-rule="evenodd" clip-rule="evenodd" fill="#CEAA7A" d="M37.319,6.204c0.342,0.034,0.58,0.235,0.79,0.484
			C38.078,7.08,38.457,7.3,38.512,7.656c-0.125,0.166-0.198-0.009-0.291-0.045C37.86,7.181,37.447,6.784,37.319,6.204z"/>
		<path fill-rule="evenodd" clip-rule="evenodd" fill="#E6DAAF" d="M36.385,7.84c-0.077,0.082-0.154,0.165-0.232,0.247
			c-0.025-0.205-0.015-0.402,0.126-0.57C36.396,7.598,36.379,7.723,36.385,7.84z"/>
		<path fill-rule="evenodd" clip-rule="evenodd" fill="#C3954A" d="M39.316,6.649c-0.118-0.131-0.237-0.262-0.355-0.393
			c0.025-0.255-0.016-0.516,0.065-0.767c0.069-0.087,0.145-0.143,0.256-0.066c-0.021,0.115-0.034,0.229,0.08,0.309
			c0.11,0.091,0.114,0.212,0.093,0.34C39.342,6.249,39.623,6.519,39.316,6.649z"/>
		<path fill-rule="evenodd" clip-rule="evenodd" fill="#FCDEAC" d="M39.282,5.423c-0.059,0.036-0.119,0.072-0.179,0.109
			c-0.098,0.102-0.198,0.197-0.358,0.139c-0.2-0.162-0.525-0.231-0.446-0.6c0.087-0.104,0.199-0.107,0.319-0.08
			C38.708,5.335,39.133,5.169,39.282,5.423z"/>
		<path fill-rule="evenodd" clip-rule="evenodd" fill="#FDF8C9" d="M38.738,4.412c0.124,0.032,0.235,0.018,0.325-0.083
			c0.259,0.048,0.22,0.168,0.076,0.313c-0.198,0.034-0.466,0.182-0.39-0.236L38.738,4.412z"/>
		<path fill-rule="evenodd" clip-rule="evenodd" fill="#C4944B" d="M39.139,4.642c0.032-0.118,0.071-0.238-0.076-0.313
			c0.141-0.183,0.26-0.075,0.312,0.059C39.452,4.586,39.272,4.605,39.139,4.642z"/>
		<path fill-rule="evenodd" clip-rule="evenodd" fill="#C49A60" d="M38.299,5.07c0.172,0.172,0.344,0.344,0.516,0.516
			c0.051,0.138,0.021,0.253-0.098,0.343c-0.205-0.167-0.412-0.331-0.616-0.5c-0.126-0.104-0.474-0.051-0.33-0.34
			C37.879,4.874,38.119,5.07,38.299,5.07z"/>
		<path fill-rule="evenodd" clip-rule="evenodd" fill="#C7A269" d="M38.717,5.93c0.033-0.114,0.065-0.229,0.098-0.343
			c0.096-0.018,0.192-0.037,0.289-0.055c-0.048,0.241,0.361,0.572-0.142,0.725c-0.086-0.07-0.172-0.14-0.258-0.21
			C38.706,6.007,38.71,5.968,38.717,5.93z"/>
		<path fill-rule="evenodd" clip-rule="evenodd" fill="#D5B27F" d="M37.699,4.341c0.161,0.034,0.335,0.043,0.408,0.231
			c-0.048-0.001-0.115-0.023-0.141,0c-0.136,0.118-0.273,0.348-0.455,0.15C37.365,4.563,37.737,4.524,37.699,4.341z"/>
		<path fill-rule="evenodd" clip-rule="evenodd" fill="#C5A06D" d="M37.561,5.682c-0.091-0.026-0.182-0.052-0.273-0.078
			c0.044-0.133,0.09-0.282,0.272-0.176C37.665,5.49,37.711,5.596,37.561,5.682z"/>
		<path fill-rule="evenodd" clip-rule="evenodd" fill="#E5C08D" d="M40.25,7.31c-0.036,0.21-0.174,0.245-0.355,0.206
			c-0.064-0.167-0.129-0.334-0.193-0.501c0.246-0.209,0.368,0.138,0.569,0.127C40.264,7.199,40.257,7.255,40.25,7.31z"/>
		<path fill-rule="evenodd" clip-rule="evenodd" fill="#E8BF88" d="M33.764,5.857c0.045,0.081,0.117,0.158,0.132,0.246
			c0.018,0.107-0.086,0.108-0.133,0.056c-0.059-0.067-0.085-0.164-0.125-0.249C33.674,5.895,33.709,5.881,33.764,5.857z"/>
	</g>
	<g>
		<path fill-rule="evenodd" clip-rule="evenodd" fill="#C69A62" d="M22.985,53.536c-0.002-0.088-0.019-0.178-0.062-0.27
			c-0.106-0.173-0.238-0.321-0.388-0.453C22.672,53.077,22.822,53.318,22.985,53.536z"/>
		<path fill-rule="evenodd" clip-rule="evenodd" fill="#FCF8CA" d="M25.311,55.165c0.088-0.031,0.182-0.054,0.274-0.082
			c0.092-0.052,0.161-0.124,0.197-0.224c0.01-0.064,0.008-0.129-0.006-0.193c-0.095-0.174-0.09-0.342,0.034-0.504
			c0.068-0.149,0.11-0.305,0.147-0.463c0.075-0.296,0.025-0.595,0.025-0.894c0.007-0.287-0.229-0.464-0.322-0.708
			c-0.041-0.059-0.093-0.103-0.156-0.136c-0.422-0.062-0.783,0.082-1.113,0.33c-0.137,0.312-0.147,0.559,0.29,0.572
			c-0.186,0.634-0.356,1.279-1.053,1.372C24.134,54.682,24.708,54.984,25.311,55.165z"/>
		<path fill-rule="evenodd" clip-rule="evenodd" fill="#C9A671" d="M25.586,54.954c-0.291-0.087-0.466-0.023-0.591,0.105
			c0.224,0.085,0.454,0.151,0.686,0.202C25.67,55.161,25.64,55.058,25.586,54.954z"/>
		<path fill-rule="evenodd" clip-rule="evenodd" fill="#FCF8CA" d="M22.56,52.86c0.263,0.038,0.522-0.041,0.781-0.124
			c0.069-0.03,0.132-0.071,0.187-0.123c0.125-0.179,0.016-0.305-0.139-0.285c-0.203,0.026-0.2-0.041-0.166-0.186
			c-0.343-0.176-0.676-0.359-0.821-0.749c-0.179-0.259-0.173-0.553-0.159-0.849c-0.005-0.139-0.029-0.275-0.073-0.407
			c-0.021-0.065-0.051-0.128-0.083-0.189c-0.039-0.112-0.109-0.207-0.186-0.299c-0.039,0.233-0.067,0.476-0.084,0.73
			C21.946,51.372,22.206,52.191,22.56,52.86z"/>
		<path fill-rule="evenodd" clip-rule="evenodd" fill="#FCF8CA" d="M23.584,52.499c-0.061,0.018-0.121,0.036-0.182,0.054
			c-0.282,0.167-0.695,0.23-0.571,0.719c0.015,0.031,0.025,0.062,0.032,0.092c0.181,0.266,0.379,0.501,0.59,0.71
			c0.007-0.006,0.014-0.012,0.02-0.019c0.025-0.215,0.125-0.398,0.255-0.567c0.105-0.202,0.219-0.398,0.373-0.569
			c0.096-0.201,0.395-0.371,0.103-0.635C23.957,52.241,23.735,52.268,23.584,52.499z"/>
		<path fill-rule="evenodd" clip-rule="evenodd" fill="#B5813A" d="M22.831,53.273c0.057-0.346,0.337-0.514,0.571-0.719l-0.912,0.17
			c0.085,0.172,0.177,0.335,0.274,0.488L22.831,53.273z"/>
		<path fill-rule="evenodd" clip-rule="evenodd" fill="#FDF3C0" d="M25.586,54.954c-0.005,0.092-0.022,0.184-0.045,0.274
			c0.383,0.095,0.775,0.144,1.168,0.152c0.032-0.139,0.038-0.278-0.078-0.415c-0.139-0.243-0.317-0.426-0.629-0.393
			c-0.118,0.024-0.214,0.083-0.289,0.178C25.671,54.818,25.629,54.886,25.586,54.954z"/>
		<path fill-rule="evenodd" clip-rule="evenodd" fill="#FCF8CA" d="M25.984,54.71c0.284-0.062,0.385,0.171,0.532,0.33
			c0.102,0.143,0.223,0.253,0.357,0.342c2.085-0.013,4.127-1.136,4.663-2.476c0.26-0.652,0.406-1.27,0.457-1.852
			c-0.039-0.006-0.082-0.007-0.132,0c-0.045,0.06-0.067,0.129-0.087,0.201c-0.032,0.114,0.057,0.226-0.001,0.339
			c-0.085-0.053-0.098-0.154-0.153-0.228c-0.121-0.16-0.265-0.289-0.449-0.363c-0.036-0.037-0.137,0.021-0.13-0.072
			c0.001-0.018,0.123-0.025,0.192-0.035c0.247-0.089,0.376,0.269,0.624,0.162c0.125-0.098-0.052-0.372,0.159-0.445
			c0.003-0.505-0.068-0.979-0.2-1.42c-0.07-0.007-0.144-0.002-0.222,0.013c-0.122,0.041-0.208,0.151-0.339,0.179
			c-0.092-0.05-0.257,0.132-0.273-0.069c-0.004-0.049,0.128-0.164,0.158-0.274c0.024-0.102,0.035-0.206,0.03-0.311
			c-0.03-0.224-0.146-0.395-0.323-0.529c-0.198-0.099-0.399-0.15-0.609-0.03c-0.11,0.09-0.17,0.213-0.226,0.339
			c-0.091,0.199-0.112,0.437-0.321,0.57c-0.081,0.056-0.153,0.121-0.197,0.211c0.124,0.321,0.391,0.582,0.404,0.951
			c0.071,0.253,0.409,0.269,0.469,0.53c-0.044,0.222-0.15,0.42-0.221,0.63c-0.196,0.443-0.103,0.652,0.414,0.502
			c0.156-0.045,0.297-0.164,0.473-0.088c0.076,0.13,0.24,0.27-0.055,0.34c-0.063,0.01-0.121,0.027-0.179,0.05
			c-0.127,0.062-0.212,0.155-0.231,0.3c-0.021,0.444,0.137,0.891-0.026,1.332c-0.034,0.092,0.025,0.004-0.047,0.049
			c-0.113,0.072-0.036-0.075-0.076-0.104c-0.043-0.191-0.212-0.295-0.302-0.451c-0.083-0.335,0.34-0.49,0.288-0.812
			c-0.285-0.342-0.612-0.147-0.909-0.044c-0.247,0.085-0.454,0.17-0.575-0.152c-0.075-0.142-0.153-0.283-0.267-0.4
			c-0.073-0.061-0.16-0.068-0.243-0.066c-0.096-0.095,0.043-0.101,0.062-0.153c0.177-0.2,0.295-0.419,0.253-0.697
			c-0.022-0.026-0.045-0.051-0.068-0.076c-0.065-0.025-0.133-0.036-0.202-0.032c-0.287,0.05-0.479,0.264-0.71,0.41
			c-0.401,0.199-0.768,0.499-1.255,0.404c0.026-0.147,0.169-0.142,0.257-0.205c0.158-0.086,0.301-0.188,0.409-0.334
			c0.293-0.601-0.233-0.977-0.396-1.453c-0.342-0.467-0.691-0.931-0.69-1.551c-0.012-0.073-0.03-0.145-0.057-0.213
			c-0.091-0.234,0.012-0.591-0.359-0.649c-0.299-0.047-0.501,0.157-0.687,0.359c-0.083,0.09-0.155,0.19-0.217,0.297
			c-0.368,0.741-0.037,1.534-0.17,2.292c0.012,0.147,0.047,0.289,0.102,0.426c0.119,0.338,0.491,0.424,0.684,0.688
			c0.085,0.226,0.054,0.489,0.215,0.692c0.011,0.042,0.022,0.084,0.031,0.126c0.356,0.004,0.267,0.313,0.346,0.506
			c0.133,0.208,0.343,0.391,0.215,0.68c-0.071,0.186-0.248,0.311-0.291,0.512C25.88,54.166,25.807,54.454,25.984,54.71z"/>
		<path fill-rule="evenodd" clip-rule="evenodd" fill="#E1C18F" d="M25.58,52.063c0.089-0.254,0.03-0.501-0.032-0.748
			c-0.229-0.112-0.591-0.167-0.792-0.018c0.039,0.306-0.041,0.346-0.221,0.365c-0.219,0.038-0.435,0.085-0.653,0.129
			c-0.188,0.042-0.377,0.082-0.547,0.178c-0.068,0.043-0.118,0.102-0.151,0.175c0.127,0.15-0.454,0.126-0.084,0.307
			c0.129,0.063,0.329-0.069,0.484,0.05c0.229-0.044,0.458-0.088,0.688-0.131c0.076,0.06,0.138,0.048,0.186-0.037
			C24.832,52.242,25.206,52.152,25.58,52.063z"/>
		<path fill-rule="evenodd" clip-rule="evenodd" fill="#C49D62" d="M23.746,54.338c0.039,0.001,0.078,0.003,0.116,0.009
			c0.391,0.059,0.614,0.002,0.611-0.488c-0.002-0.426,0.394-0.703,0.58-1.065c0.043-0.083,0.222-0.174,0.056-0.27
			c-0.044-0.025-0.187,0.122-0.285,0.19c-0.49,0.419-1.066,0.743-1.431,1.299C23.507,54.13,23.625,54.238,23.746,54.338z"/>
		<path fill-rule="evenodd" clip-rule="evenodd" fill="#E2C08E" d="M23.396,54.017c0.545-0.359,1.123-0.68,1.428-1.302
			c-0.393,0.132-0.398-0.108-0.367-0.383c-0.062,0.012-0.124,0.024-0.186,0.037c-0.014,0.233-0.255,0.315-0.335,0.504
			c-0.006,0.241-0.187,0.373-0.327,0.532c-0.054,0.187-0.472,0.244-0.311,0.509C23.331,53.948,23.363,53.983,23.396,54.017z"/>
		<path fill-rule="evenodd" clip-rule="evenodd" fill="#C98A3A" d="M25.984,54.71c0.143-0.298,0.032-0.592-0.017-0.887
			c0.026-0.136-0.043-0.149-0.148-0.114c-0.041,0.144-0.081,0.289-0.122,0.433c-0.048,0.157-0.155,0.312-0.019,0.477
			c0.012,0.043,0.024,0.087,0.034,0.131C25.804,54.737,25.894,54.723,25.984,54.71z"/>
		<path fill-rule="evenodd" clip-rule="evenodd" fill="#D1A378" d="M25.819,53.709c0.049,0.038,0.099,0.076,0.148,0.114
			c0.201-0.057,0.338-0.174,0.374-0.39c-0.033-0.05-0.068-0.098-0.105-0.144c-0.107-0.147-0.139-0.335-0.267-0.47
			c-0.026-0.016-0.052-0.031-0.079-0.047C25.654,53.068,25.95,53.405,25.819,53.709z"/>
		<path fill-rule="evenodd" clip-rule="evenodd" fill="#C69A55" d="M26.026,52.742c-0.064-0.24,0.126-0.67-0.414-0.554
			c-0.149,0.31,0.339,0.316,0.278,0.584l-0.003-0.006c0.027,0.016,0.053,0.031,0.08,0.047C25.987,52.79,26.007,52.766,26.026,52.742
			z"/>
		<path fill-rule="evenodd" clip-rule="evenodd" fill="#CEA978" d="M25.679,54.619c0.052-0.157,0.088-0.315,0.019-0.477
			C25.461,54.292,25.215,54.441,25.679,54.619z"/>
		<path fill-rule="evenodd" clip-rule="evenodd" fill="#BD9553" d="M23.184,52.143c0.034-0.027,0.072-0.047,0.115-0.059
			c0.192-0.304,0.886-0.239,0.639-0.867c-0.211-0.118-0.138-0.414,0.207-0.613c0.392-0.225,0.473-0.506,0.269-0.889
			c-0.033-0.063-0.108-0.089-0.182-0.099c-0.132,0.041-0.187,0.164-0.272,0.254c-0.147,0.165-0.313,0.094-0.478,0.035
			c-0.177-0.053-0.365-0.046-0.54-0.109c-0.215-0.059-0.439-0.051-0.657-0.089c-0.066-0.002-0.129,0.011-0.191,0.036
			c-0.086,0.061-0.134,0.141-0.133,0.248c0.024,0.044,0.048,0.087,0.072,0.131c0.258,0.25,0.232,0.62,0.384,0.913
			c0.004,0.164-0.149,0.257-0.184,0.403C22.433,51.831,22.584,52.289,23.184,52.143z"/>
		<path fill-rule="evenodd" clip-rule="evenodd" fill="#CFAF7D" d="M25.088,45.77c0.035,0.044,0.041,0.1-0.042,0.19
			c-0.042,0.046,0.237,0.175,0.378,0.252c0.126,0.056,0.255,0.086,0.393,0.056c0.065-0.02,0.123-0.053,0.174-0.096
			c0.038-0.054,0.063-0.115,0.076-0.18c0.014-0.168,0.116-0.295,0.209-0.425C25.872,45.588,25.472,45.655,25.088,45.77z"/>
		<path fill-rule="evenodd" clip-rule="evenodd" fill="#EBD1A3" d="M21.897,49.66c0.062,0.041,0.131,0.077,0.206,0.109
			c0.033-0.01,0.066-0.017,0.1-0.02c-0.072-0.651,0.209-1.213,0.454-1.783c-0.024-0.082-0.067-0.134-0.122-0.17
			C22.238,48.318,22.016,48.937,21.897,49.66z"/>
		<path fill-rule="evenodd" clip-rule="evenodd" fill="#D5B17F" d="M23.886,46.334c0.12,0,0.255-0.051,0.388-0.091
			c0.107-0.056,0.186-0.134,0.217-0.247C24.281,46.091,24.079,46.204,23.886,46.334z"/>
		<path fill-rule="evenodd" clip-rule="evenodd" fill="#D09F70" d="M22.234,51.437c0.215-0.046,0.459-0.061,0.42-0.385
			c-0.316-0.021-0.161-0.576-0.564-0.498C22.03,50.866,21.954,51.181,22.234,51.437z"/>
		<path fill-rule="evenodd" clip-rule="evenodd" fill="#BC8B44" d="M22.103,49.769c-0.073-0.055-0.136-0.117-0.193-0.184
			c-0.013,0.074-0.024,0.15-0.035,0.225c0.045,0.053,0.077,0.111,0.087,0.18C22.009,49.917,22.056,49.843,22.103,49.769z"/>
		<path fill-rule="evenodd" clip-rule="evenodd" fill="#BC8B44" d="M22.091,50.555c0.309,0.028,0.024,0.73,0.564,0.498
			c-0.251-0.281-0.126-0.813-0.62-0.932C22.053,50.266,22.072,50.41,22.091,50.555z"/>
		<path fill-rule="evenodd" clip-rule="evenodd" fill="#C59F6A" d="M23.609,53.404c0.237-0.099,0.496-0.184,0.327-0.532
			C23.772,53.016,23.645,53.182,23.609,53.404z"/>
		<path fill-rule="evenodd" clip-rule="evenodd" fill="#C18B3C" d="M28.499,45.892c-0.038,0-0.095-0.017-0.178-0.059
			c-0.075-0.024-0.151-0.046-0.227-0.067c-0.061,0-0.123,0.012-0.183,0.028c-0.221,0.125-0.346,0.336-0.484,0.538
			c-0.043,0.101-0.061,0.198,0.046,0.274c0.117,0.049,0.315-0.018,0.341,0.021c0.073,0.111-0.072,0.195-0.146,0.261
			c-0.191,0.169-0.467,0.123-0.685,0.234c-0.227,0.134-0.613,0.045-0.642,0.458c0.087,0.411,0.371,0.551,0.756,0.55
			c0.351-0.083,0.732-0.058,1.043-0.285c0.127-0.348,0.899-0.395,0.475-1.007c-0.028-0.04,0.026-0.115,0.059-0.099
			c0.062,0.028-0.018,0.103,0.021,0.154c0.074,0.096,0.126,0.209,0.217,0.293c0.3,0.056,0.568-0.435,0.886-0.05
			c0.196-0.15,0.218-0.308,0.184-0.468C29.53,46.339,29.027,46.078,28.499,45.892z"/>
		<path fill-rule="evenodd" clip-rule="evenodd" fill="#C29756" d="M30.799,48.284c0.097,0.172,0.194,0.344,0.291,0.516
			c0.045,0.23,0.153,0.407,0.396,0.469l0.376,0.099c-0.117-0.451-0.297-0.868-0.528-1.247c-0.175-0.103-0.333-0.279-0.556-0.137
			C30.661,48.056,30.709,48.188,30.799,48.284z"/>
		<path fill-rule="evenodd" clip-rule="evenodd" fill="#E8C491" d="M31.858,51.048c0.038,0.059,0.078,0.117,0.119,0.174
			c0.033-0.284,0.043-0.557,0.033-0.823c-0.141,0.185-0.265,0.377-0.144,0.659L31.858,51.048z"/>
		<path fill-rule="evenodd" clip-rule="evenodd" fill="#FDF4C0" d="M29.726,46.491c0.044,0.208,0.272,0.418,0.1,0.624
			c0.007,0.034,0.013,0.068,0.02,0.103c0.08,0.169,0.198,0.288,0.394,0.31c0.175-0.065,0.301-0.17,0.396-0.299
			C30.36,46.95,30.055,46.703,29.726,46.491z"/>
		<path fill-rule="evenodd" clip-rule="evenodd" fill="#C29D6C" d="M27.123,55.375c-0.202-0.113-0.394-0.246-0.607-0.335
			c-0.002,0.105,0.061,0.227,0.078,0.337C26.77,55.385,26.947,55.384,27.123,55.375z"/>
		<path fill-rule="evenodd" clip-rule="evenodd" fill="#BD8C3D" d="M24.383,46.046l-0.166,0.156
			c-0.051,0.048-0.08,0.106-0.086,0.175c-0.005,0.526,0.331,0.979,0.316,1.506c-0.026,0.128-0.057,0.256-0.09,0.382
			c-0.048,0.404-0.349,0.731-0.352,1.149c0.021,0.108,0.07,0.196,0.171,0.248c0.304,0.545,0.266,0.54-0.182,0.763
			c-0.31,0.155-0.254,0.683-0.634,0.848c0.202,0.275,0.361-0.144,0.553-0.035c0.301,0.126,0.513,0.619,0.94,0.228
			c0.231-0.051,0.463-0.101,0.695-0.152c-0.12-0.344-0.574-0.265-0.724-0.572c-0.152-0.123-0.183-0.274-0.099-0.449
			c0.214-0.745-0.153-1.532,0.164-2.27c0.058-0.313,0.263-0.535,0.535-0.636c0.647-0.241,0.292-0.38-0.036-0.526
			c-0.136-0.061-0.252-0.137-0.335-0.26c-0.096-0.132-0.191-0.264-0.295-0.39c-0.077-0.089-0.156-0.175-0.269-0.216
			C24.453,46.012,24.418,46.029,24.383,46.046z"/>
		<path fill-rule="evenodd" clip-rule="evenodd" fill="#C08F48" d="M24.891,46.65c0.082,0.42,0.461,0.384,0.749,0.488
			c-0.225,0.23-0.612,0.263-0.739,0.604c-0.031,0.084-0.01,0.187-0.012,0.281c0.081-0.085,0.163-0.169,0.242-0.255
			c0.162-0.177,0.346-0.403,0.59-0.319c0.231,0.08-0.031,0.345,0.068,0.51c0.048,0.081,0.107,0.156,0.161,0.234
			c0.177,1.081,0.362,1.31,1.074,1.331c0.111-0.04,0.206-0.103,0.282-0.193c0.221-0.537,0.636-0.959,0.892-1.478
			c-0.018-0.029-0.036-0.059-0.054-0.088c-0.321,0.148-0.705,0.003-1.011,0.219c-0.347,0.373-0.558,0.073-0.783-0.158
			c-0.126-0.169-0.112-0.36-0.091-0.554c0.008-0.173,0.023-0.346-0.005-0.518c-0.06-0.257-0.187-0.468-0.416-0.61
			c-0.112,0.023-0.223,0.038-0.314-0.057c-0.273-0.081-0.302,0.171-0.418,0.304C25.071,46.508,25.167,46.734,24.891,46.65z"/>
		<path fill-rule="evenodd" clip-rule="evenodd" fill="#D8B685" d="M30.271,51.391c0.102-0.222,0.204-0.443,0.306-0.665
			c-0.226-0.177-0.587-0.03-0.764-0.321c-0.235-0.226-0.132-0.663-0.502-0.804c-0.155-0.003-0.22,0.116-0.296,0.218
			c-0.177,0.182-0.446,0.244-0.597,0.458c-0.118,0.177-0.41,0.208-0.408,0.486c0.117,0.193,0.352,0.11,0.506,0.217
			c0.055-0.001,0.11-0.001,0.165-0.002c0.054-0.099,0.129-0.16,0.245-0.136c-0.004,0,0.014,0.052,0.014,0.052
			s-0.045-0.032-0.052-0.033c-0.098-0.003-0.166,0.038-0.217,0.111c-0.138,0.299-0.276,0.597-0.414,0.896
			c-0.061,0.084-0.043,0.154,0.038,0.213c0.092-0.055,0.184-0.11,0.277-0.164C29.177,51.872,29.782,51.82,30.271,51.391z"/>
		<path fill-rule="evenodd" clip-rule="evenodd" fill="#FCDAAA" d="M30.271,51.391c-0.565,0.183-1.19,0.167-1.701,0.523
			c0.034,0.16,0.038,0.337,0.233,0.405c0.704,0.123,1.408,0.065,2.112-0.006c0.059-0.02,0.118-0.041,0.176-0.061
			c0.237-0.154,0.035-0.405,0.13-0.59c-0.246-0.465-0.42-0.04-0.614,0.054c-0.133,0.065-0.295,0.179-0.401,0.079
			C30.151,51.744,30.245,51.531,30.271,51.391z"/>
		<path fill-rule="evenodd" clip-rule="evenodd" fill="#E2BB87" d="M28.037,50.809c0.072-0.261,0.444-0.152,0.512-0.416
			c-0.102-0.08-0.207-0.153-0.336-0.175c-0.099-0.028-0.198-0.055-0.048-0.163c0.213-0.153,0.444-0.289,0.536-0.559
			c0.005-0.071-0.012-0.135-0.051-0.193c-0.059-0.035-0.124-0.054-0.193-0.06c-0.34,0.086-0.732,0.017-0.997,0.327
			c-0.037,0.117-0.104,0.169-0.228,0.099c-0.083-0.045-0.168-0.078-0.261-0.092c-0.143-0.004-0.265,0.033-0.344,0.163
			c0.001,0.511,0.686,0.821,0.417,1.412c0.146,0.203,0.146,0.203,0.575-0.046c0.045-0.048,0.07-0.105,0.075-0.168
			c-0.012-0.057-0.001-0.06,0.276-0.056C27.993,50.857,28.015,50.833,28.037,50.809z"/>
		<path fill-rule="evenodd" clip-rule="evenodd" fill="#FBD299" d="M30.37,52.577c-0.082,0.312-0.755,0.326-0.427,0.846
			c0.154,0.093,0.433,0.053,0.389,0.361c-0.009,0.155-0.178,0.412,0.011,0.428c0.046,0.004,0.116-0.016,0.187-0.056
			c0.058-0.046,0.115-0.092,0.169-0.139c0.058-0.07,0.097-0.155,0.095-0.25c-0.011-0.413,0.063-0.842-0.143-1.234
			C30.543,52.45,30.45,52.469,30.37,52.577z"/>
		<path fill-rule="evenodd" clip-rule="evenodd" fill="#C7A06D" d="M29.269,54.466c-0.13-0.338-0.215-0.706-0.412-0.999
			c-0.083-0.123-0.042-0.547-0.361-0.368c-0.265,0.148-0.307,0.427-0.002,0.643c0.361,0.248,0.173,0.696,0.367,1.005
			c0.013,0.11,0.034,0.201,0.063,0.273c0.227-0.08,0.446-0.171,0.654-0.273C29.547,54.619,29.426,54.534,29.269,54.466z"/>
		<path fill-rule="evenodd" clip-rule="evenodd" fill="#FCF4B9" d="M30.37,52.577c0.094-0.015,0.188-0.029,0.281-0.044
			c0.039-0.132,0.14-0.19,0.263-0.22c-0.704,0.016-1.409-0.297-2.112,0.006c0.035,0.415,0.012,0.865,0.629,0.369
			C29.671,52.496,30.031,52.388,30.37,52.577z"/>
		<path fill-rule="evenodd" clip-rule="evenodd" fill="#D5B27F" d="M27.63,51.043c-0.241-0.214-0.352,0.279-0.586,0.108
			c-0.133,0.082-0.266,0.164-0.399,0.246c-0.102,0.212-0.406,0.19-0.49,0.424c0.692,0.41,1.163-0.159,1.71-0.388
			C27.917,51.225,27.44,51.336,27.63,51.043z"/>
		<path fill-rule="evenodd" clip-rule="evenodd" fill="#F9DCAE" d="M31.866,51.057c-0.254-0.041-0.201-0.777-0.683-0.302
			c-0.087,0.102-0.23,0.193-0.073,0.347c0.151,0.154,0.328,0.292,0.444,0.469c0.094,0.143,0.113,0.42,0.272,0.44
			c0.046-0.182,0.085-0.362,0.114-0.539c-0.005-0.024-0.008-0.047-0.008-0.069c-0.003-0.119-0.048-0.237-0.074-0.355L31.866,51.057z
			"/>
		<path fill-rule="evenodd" clip-rule="evenodd" fill="#BB9E6A" d="M26.583,52.988c0.059,0.205-0.095,0.576,0.21,0.501
			c0.23-0.056,0.428-0.423,0.367-0.728c-0.05-0.255-0.362-0.441-0.556-0.377C26.158,52.531,26.735,52.798,26.583,52.988z"/>
		<path fill-rule="evenodd" clip-rule="evenodd" fill="#C9A771" d="M29.293,49.651c0.269,0.197,0.039,0.696,0.478,0.792
			c0.174,0.043,0.216-0.083,0.26-0.204c0.021-0.42-0.067-0.78-0.51-0.951c-0.059-0.026-0.116-0.022-0.171,0.013
			C29.275,49.407,29.262,49.525,29.293,49.651z"/>
		<path fill-rule="evenodd" clip-rule="evenodd" fill="#E2C18F" d="M30.799,48.284c0.017-0.121-0.031-0.331,0.206-0.196
			c0.158,0.09,0.293,0.222,0.439,0.336c0.012-0.016,0.024-0.033,0.035-0.049c-0.14-0.266-0.305-0.514-0.489-0.746
			c-0.234-0.044-0.475-0.049-0.717-0.055c-0.165,0.104-0.148,0.278-0.167,0.437c0,0.065,0.015,0.127,0.045,0.185
			c0.028,0.016,0.056,0.031,0.084,0.047C30.423,48.257,30.611,48.27,30.799,48.284z"/>
		<path fill-rule="evenodd" clip-rule="evenodd" fill="#C09C70" d="M26.627,49.739c0.144-0.021,0.288-0.041,0.432-0.062
			c0.22-0.069,0.193-0.191,0.07-0.332c-0.478,0.156-0.778,0.03-0.888-0.502c-0.046-0.227-0.192-0.434-0.292-0.65
			C25.856,48.848,26.17,49.325,26.627,49.739z"/>
		<path fill-rule="evenodd" clip-rule="evenodd" fill="#D4B076" d="M27.538,53.26c0.001-0.169-0.069-0.175-0.158-0.083
			c-0.048,0.05-0.073,0.125-0.101,0.191c-0.128,0.299-0.463,0.53-0.309,0.921c0.029,0.073,0.091,0.102,0.152,0.026
			C27.373,54.002,27.445,53.619,27.538,53.26z"/>
		<path fill-rule="evenodd" clip-rule="evenodd" fill="#DDB481" d="M29.386,49.311c0.046-0.005,0.091-0.012,0.136-0.023
			c0.096-0.036,0.193-0.072,0.289-0.108c0.012-0.255,0.093-0.475,0.316-0.623c0.133-0.071,0.111-0.195,0.107-0.313l-0.033-0.004
			c-0.226-0.142-0.424,0.037-0.637,0.053c-0.189,0.076-0.346,0.183-0.379,0.405C29.232,48.908,29.166,49.156,29.386,49.311z"/>
		<path fill-rule="evenodd" clip-rule="evenodd" fill="#C29C69" d="M27.63,51.043c-0.311,0.366,0.153,0.263,0.236,0.39
			c0.216-0.151,0.432-0.303,0.649-0.454c-0.077-0.287-0.285-0.206-0.478-0.17l0.001,0.001c-0.087,0.164-0.324,0.063-0.408,0.231
			L27.63,51.043z"/>
		<path fill-rule="evenodd" clip-rule="evenodd" fill="#FCE0A7" d="M30.032,50.238c-0.087,0.068-0.174,0.136-0.26,0.204
			c0.072,0.652,0.517,0.246,0.806,0.284c0.141-0.162,0.096-0.264-0.11-0.273C30.285,50.444,30.139,50.388,30.032,50.238z"/>
		<path fill-rule="evenodd" clip-rule="evenodd" fill="#B28442" d="M26.704,54.442c-0.034-0.282-0.092-0.522-0.414-0.506
			c-0.132,0.007-0.132,0.145-0.054,0.202c0.234,0.173,0.128,0.613,0.473,0.644C26.815,54.792,26.701,54.542,26.704,54.442z"/>
		<path fill-rule="evenodd" clip-rule="evenodd" fill="#C89554" d="M31.002,49.015c-0.72,0.755,0.205,0.454,0.399,0.621
			C31.443,49.317,31.353,49.082,31.002,49.015z"/>
		<path fill-rule="evenodd" clip-rule="evenodd" fill="#C39047" d="M30.128,48.557c-0.349,0.084-0.731,0.151-0.316,0.623
			C30.229,49.13,29.961,48.733,30.128,48.557z"/>
		<path fill-rule="evenodd" clip-rule="evenodd" fill="#B5823C" d="M28.86,54.747c0.022-0.388,0.007-0.766-0.261-1.083
			c-0.006-0.007-0.046,0.006-0.063,0.019c-0.018,0.014-0.028,0.038-0.042,0.058C28.649,54.065,28.517,54.493,28.86,54.747z"/>
		<path fill-rule="evenodd" clip-rule="evenodd" fill="#FCDBA7" d="M29.269,54.466c0.072,0.109,0.163,0.208,0.217,0.326
			c0.109-0.051,0.216-0.104,0.319-0.161C29.698,54.413,29.462,54.492,29.269,54.466z"/>
		<path fill-rule="evenodd" clip-rule="evenodd" fill="#FBD399" d="M31.002,49.015c0.181,0.176,0.338,0.368,0.399,0.622
			c0.162-0.092,0.116-0.232,0.085-0.368c-0.04-0.234-0.179-0.385-0.396-0.469C31.061,48.871,31.032,48.943,31.002,49.015z"/>
		<path fill-rule="evenodd" clip-rule="evenodd" fill="#D8B98B" d="M28.418,55.176c-0.091-0.121-0.151-0.061-0.202,0.05
			C28.283,55.21,28.351,55.193,28.418,55.176z"/>
		<path fill-rule="evenodd" clip-rule="evenodd" fill="#D4B77D" d="M26.168,53.454c0.058-0.007,0.115-0.014,0.173-0.02
			c0.119-0.332,0.193-0.644-0.315-0.691l-0.002-0.005C26.069,52.977,26.044,53.23,26.168,53.454z"/>
		<path fill-rule="evenodd" clip-rule="evenodd" fill="#C08723" d="M31.222,51.663c-0.204,0.161-0.088,0.393-0.13,0.59
			C31.637,52.167,31.167,51.857,31.222,51.663z"/>
		<path fill-rule="evenodd" clip-rule="evenodd" fill="#F4D1A0" d="M26.156,51.821c0.242-0.05,0.45-0.139,0.49-0.424
			C26.417,51.464,26.088,51.414,26.156,51.821z"/>
		<path fill-rule="evenodd" clip-rule="evenodd" fill="#BB8749" d="M31.483,53.026c-0.024-0.009-0.046-0.007-0.067,0.015
			c-0.052,0.054-0.052,0.108-0.026,0.162C31.424,53.144,31.455,53.085,31.483,53.026z"/>
		<path fill-rule="evenodd" clip-rule="evenodd" fill="#D4BB91" d="M31.11,51.102c0.024-0.116,0.048-0.231,0.073-0.347
			c-0.187,0.021-0.418,0.053-0.409,0.273C30.782,51.204,30.988,51.103,31.11,51.102z"/>
		<path fill-rule="evenodd" clip-rule="evenodd" fill="#AE8547" d="M28.293,52.079c-0.013-0.071-0.025-0.142-0.038-0.213
			c-0.044-0.043-0.088-0.086-0.131-0.129c-0.033,0.055-0.106,0.124-0.092,0.162C28.071,52.011,28.147,52.107,28.293,52.079z"/>
		<path fill-rule="evenodd" clip-rule="evenodd" fill="#C5A269" d="M24.725,50.294c-0.137,0.058-0.231,0.143-0.176,0.309
			c0.045,0.134,0.16,0.138,0.275,0.14C24.791,50.593,24.758,50.443,24.725,50.294z"/>
		<path fill-rule="evenodd" clip-rule="evenodd" fill="#DBB07F" d="M30.333,53.784c0.201-0.477-0.098-0.414-0.389-0.361
			C30.073,53.544,30.203,53.664,30.333,53.784z"/>
		<path fill-rule="evenodd" clip-rule="evenodd" fill="#CCA877" d="M24.853,51.466c-0.385,0.219-0.555-0.447-0.94-0.228
			c0.004,0.331-0.233,0.456-0.491,0.535c-0.199,0.061-0.208,0.158-0.124,0.311c0.208-0.038,0.416-0.077,0.625-0.115
			c0.205-0.15,0.435-0.19,0.682-0.151C24.816,51.791,25.073,51.797,24.853,51.466z"/>
		<path fill-rule="evenodd" clip-rule="evenodd" fill="#BD9553" d="M24.605,51.818c-0.271-0.146-0.495-0.081-0.682,0.151
			C24.151,51.918,24.378,51.868,24.605,51.818z"/>
		<path fill-rule="evenodd" clip-rule="evenodd" fill="#F2D3A1" d="M26.168,53.454c0-0.249,0.122-0.522-0.143-0.717
			c-0.043,0.022-0.089,0.032-0.138,0.03C25.954,53.007,25.916,53.29,26.168,53.454z"/>
		<path fill-rule="evenodd" clip-rule="evenodd" fill="#BC8B44" d="M22.619,47.905c-0.146,0.21-0.307,0.417-0.427,0.633
			c-0.067,0.182-0.127,0.373-0.178,0.573c-0.007,0.197,0.046,0.407,0.19,0.638c0.173,0.241,0.458,0.094,0.672,0.194
			c0.16,0.016,0.283-0.069,0.409-0.148c0.54-0.646,0.246-1.421,0.331-2.138c-0.014-0.174,0.018-0.371-0.202-0.454
			c-0.357,0.008-0.534,0.274-0.733,0.509C22.644,47.772,22.624,47.836,22.619,47.905z"/>
		<path fill-rule="evenodd" clip-rule="evenodd" fill="#B7A47B" d="M24.177,49.663c-0.018-0.094-0.036-0.188-0.055-0.283
			c-0.303-0.049-0.366,0.17-0.43,0.386c0.059,0.201,0.16,0.329,0.393,0.219C24.19,49.899,24.195,49.784,24.177,49.663z"/>
		<path fill-rule="evenodd" clip-rule="evenodd" fill="#CDBE9C" d="M24.085,49.986c-0.143-0.03-0.264-0.094-0.34-0.227
			c-0.122-0.033-0.197,0.03-0.258,0.123c-0.006,0.034-0.012,0.069-0.017,0.104C23.675,50.315,23.88,50.255,24.085,49.986z"/>
		<path fill-rule="evenodd" clip-rule="evenodd" fill="#C0A883" d="M22.801,50.734c0.008,0.115,0.047,0.172,0.126,0.14
			c0.108-0.044,0.215-0.11,0.212-0.246c-0.002-0.085-0.017-0.222-0.151-0.139C22.899,50.545,22.851,50.665,22.801,50.734z"/>
		<path fill-rule="evenodd" clip-rule="evenodd" fill="#CDBE9C" d="M23.16,49.752c-0.095,0.064-0.19,0.127-0.285,0.191
			c0.185,0.198,0.397,0.009,0.594,0.042l0.019-0.046C23.474,49.711,23.29,49.779,23.16,49.752z"/>
		<path fill-rule="evenodd" clip-rule="evenodd" fill="#C49149" d="M25.984,45.589c-0.067,0.088-0.091,0.204-0.021,0.38
			c0.185,0.079,0.388-0.218,0.566,0.028c0.167,0.055,0.276-0.117,0.432-0.102c0.291,0.049,0.291,0.445,0.583,0.488
			c0.206-0.144,0.32-0.343,0.355-0.59c0.001-0.027-0.001-0.053-0.006-0.078C27.263,45.567,26.614,45.521,25.984,45.589z"/>
		<path fill-rule="evenodd" clip-rule="evenodd" fill="#C69D69" d="M26.959,45.752c-0.248-0.12-0.282,0.132-0.404,0.232
			c-0.226-0.111-0.411-0.039-0.574,0.13c-0.048,0.008-0.095,0.018-0.142,0.031c0.1,0.231,0.2,0.463,0.299,0.694
			c0.131,0.192,0.291,0.324,0.543,0.269c0.066-0.027,0.119-0.07,0.16-0.127C27.044,46.588,26.998,46.17,26.959,45.752z"/>
		<path fill-rule="evenodd" clip-rule="evenodd" fill="#DCB180" d="M25.177,46.449c0.204-0.036,0.206-0.266,0.348-0.361
			c-0.204-0.031-0.289-0.189-0.387-0.333c-0.14,0.04-0.277,0.087-0.412,0.14c0.012,0.058,0.03,0.116,0.051,0.174
			C24.862,46.245,24.969,46.401,25.177,46.449z"/>
		<path fill-rule="evenodd" clip-rule="evenodd" fill="#BB842D" d="M25.981,46.114c0.191-0.043,0.383-0.086,0.574-0.13
			c-0.179-0.742-0.395-0.023-0.592-0.015C25.966,46.018,25.972,46.066,25.981,46.114z"/>
		<path fill-rule="evenodd" clip-rule="evenodd" fill="#F0D3A2" d="M22.717,47.833c0.212-0.197,0.424-0.394,0.636-0.591
			c0.257-0.067,0.533-0.097,0.699-0.347c0.099-0.177,0.14-0.37,0.161-0.569c-0.001-0.041,0.001-0.083,0.005-0.124
			c-0.038-0.003-0.076-0.004-0.114-0.005c-0.571,0.335-1.075,0.806-1.465,1.427C22.649,47.688,22.674,47.758,22.717,47.833z"/>
		<path fill-rule="evenodd" clip-rule="evenodd" fill="#FDF6C2" d="M22.717,47.833c0.007-0.297,0.149-0.526,0.313-0.741
			c-0.206,0.24-0.391,0.509-0.552,0.809c0.044,0.005,0.092,0.005,0.141,0.003C22.656,47.888,22.689,47.864,22.717,47.833z"/>
		<path fill-rule="evenodd" clip-rule="evenodd" fill="#FDF5BD" d="M24.92,46.037l-0.052-0.195
			c-0.138,0.049-0.274,0.104-0.407,0.166c0.043,0.096,0.066,0.208,0.193,0.239C24.786,46.23,24.863,46.146,24.92,46.037z"/>
		<path fill-rule="evenodd" clip-rule="evenodd" fill="#FCF8CA" d="M29.248,48.734c0.077-0.176,0.225-0.278,0.385-0.367
			c0.296-0.042,0.294-0.306,0.378-0.506c0.06-0.284-0.011-0.534-0.2-0.752l0.014,0.006c-0.36-0.497-0.36-0.497-0.887,0.073
			c-0.278,0.079-0.476,0.257-0.62,0.503c-0.057,0.377-0.504,0.61-0.39,1.051c0.11,0.274,0.232,0.538,0.567,0.597
			c0.046-0.007,0.092-0.008,0.138-0.002c0.143,0.044,0.244-0.041,0.35-0.113C29.133,49.093,29.267,48.954,29.248,48.734z"/>
		<path fill-rule="evenodd" clip-rule="evenodd" fill="#EDC08D" d="M26.959,45.752c-0.228,0.387-0.213,0.808-0.172,1.232
			c0.392,0.126,0.559-0.095,0.654-0.426c0.034-0.059,0.069-0.117,0.103-0.176C27.329,46.192,27.507,45.635,26.959,45.752z"/>
		<path fill-rule="evenodd" clip-rule="evenodd" fill="#C69D69" d="M27.441,46.559c-0.215,0.147-0.377,0.374-0.654,0.426
			l-0.015,0.028c-0.022,0.164,0.072,0.222,0.215,0.235c0.215-0.028,0.431-0.084,0.645-0.08c0.447,0.009,0.395-0.456,0.362-0.566
			C27.907,46.313,27.636,46.567,27.441,46.559z"/>
		<path fill-rule="evenodd" clip-rule="evenodd" fill="#C08F48" d="M28.443,47.727c0.165-0.18,0.33-0.359,0.495-0.539
			c-0.046-0.112-0.082-0.231-0.142-0.335c-0.074-0.128,0.323-0.19,0.064-0.27c-0.182-0.056-0.587,0.186-0.504,0.268
			c0.476,0.473-0.387,0.568-0.214,0.915l0.008,0.006C28.258,47.81,28.347,47.748,28.443,47.727z"/>
		<path fill-rule="evenodd" clip-rule="evenodd" fill="#F7D8A8" d="M27.82,45.698l0.079,0.095c0.134,0.06,0.262,0.146,0.402,0.175
			c0.171,0.036,0.352,0.304,0.486,0.113c0.014-0.021,0.023-0.044,0.026-0.068C28.492,45.879,28.158,45.774,27.82,45.698z"/>
		<path fill-rule="evenodd" clip-rule="evenodd" fill="#BB9B6A" d="M26.21,47.865c0.434,0.61,0.614,0.634,0.923,0.119
			c-0.349,0.029-0.584-0.118-0.7-0.451c-0.051-0.041-0.105-0.048-0.163-0.014C26.188,47.623,26.268,47.757,26.21,47.865z"/>
		<path fill-rule="evenodd" clip-rule="evenodd" fill="#BD8C3D" d="M26.316,47.542c0.039-0.003,0.078-0.007,0.117-0.009
			c0.068-0.321,0.489,0.041,0.555-0.285c-0.072-0.079-0.144-0.157-0.216-0.236c-0.241,0.053-0.417-0.134-0.634-0.173
			c-0.018,0.152-0.036,0.303-0.054,0.455C26.203,47.339,26.162,47.531,26.316,47.542z"/>
		<path fill-rule="evenodd" clip-rule="evenodd" fill="#B88232" d="M31.449,48.32l-0.004,0.104c0.019-0.005,0.036-0.01,0.053-0.016
			C31.483,48.378,31.465,48.349,31.449,48.32z"/>
		<path fill-rule="evenodd" clip-rule="evenodd" fill="#C29756" d="M30.521,47.115c-0.086,0.127-0.184,0.244-0.317,0.336
			c-0.032,0.069-0.021,0.131,0.032,0.186c0.291,0.137,0.596,0.186,0.908,0.194C30.959,47.573,30.751,47.333,30.521,47.115z"/>
		<path fill-rule="evenodd" clip-rule="evenodd" fill="#C28C54" d="M30.236,47.638c-0.01-0.062-0.021-0.124-0.032-0.186
			c-0.162-0.078-0.164-0.34-0.393-0.342c0.092,0.251,0.107,0.503,0.014,0.757c0.107,0.087,0.2,0.2,0.355,0.206
			C30.337,47.945,30.253,47.787,30.236,47.638z"/>
		<path fill-rule="evenodd" clip-rule="evenodd" fill="#F7DDAA" d="M23.16,49.752c0.109,0.063,0.219,0.125,0.328,0.188
			c0.086-0.06,0.171-0.12,0.257-0.181c0.126-0.126,0.251-0.252,0.377-0.379c0.156-0.367,0.37-0.714,0.366-1.133
			c-0.08-0.635-0.536-0.677-1.033-0.657C23.284,48.301,23.667,49.087,23.16,49.752z"/>
		<path fill-rule="evenodd" clip-rule="evenodd" fill="#C9B998" d="M23.455,47.59c0.298,0.292,0.867,0.158,1.033,0.657
			c0.024-0.108,0.049-0.216,0.073-0.324c-0.026-0.449-0.396-0.723-0.561-1.101c-0.215,0.14-0.431,0.281-0.647,0.421
			C23.521,47.319,23.412,47.477,23.455,47.59z"/>
		<path fill-rule="evenodd" clip-rule="evenodd" fill="#BC9451" d="M23.999,46.822c0.04,0.442,0.332,0.756,0.561,1.101
			c0.116-0.21,0.221-0.422-0.058-0.587c-0.057-0.034-0.151-0.019-0.13-0.124c0.039-0.202,0.383,0.009,0.358-0.243
			c-0.023-0.238-0.447,0.067-0.384-0.199c0.053-0.222-0.058-0.308-0.134-0.444C24.071,46.461,24.012,46.631,23.999,46.822z"/>
		<path fill-rule="evenodd" clip-rule="evenodd" fill="#FDF5C0" d="M24.92,46.037c-0.121,0.029-0.226,0.078-0.265,0.21
			c0.079,0.134,0.158,0.269,0.237,0.403c0.205,0.089,0.338,0.077,0.286-0.201C25.091,46.311,25.005,46.174,24.92,46.037z"/>
		<path fill-rule="evenodd" clip-rule="evenodd" fill="#F5CE98" d="M28.497,49.339c-0.152-0.215-0.304-0.43-0.457-0.645
			c-0.367-0.008-0.552,0.282-0.79,0.484c-0.041,0.056-0.081,0.111-0.121,0.167c-0.023,0.111-0.047,0.222-0.07,0.333
			c0.053,0.034,0.107,0.067,0.16,0.101c0.116,0.06,0.209,0.04,0.273-0.078C27.74,49.336,28.22,49.621,28.497,49.339z"/>
		<path fill-rule="evenodd" clip-rule="evenodd" fill="#CEAA7A" d="M27.25,49.178c0.342-0.033,0.58-0.235,0.79-0.484
			c-0.031-0.391,0.349-0.611,0.403-0.967c-0.125-0.166-0.198,0.009-0.291,0.045C27.791,48.202,27.378,48.598,27.25,49.178z"/>
		<path fill-rule="evenodd" clip-rule="evenodd" fill="#E6DAAF" d="M26.316,47.542c-0.077-0.083-0.154-0.165-0.232-0.247
			c-0.025,0.205-0.015,0.402,0.126,0.57C26.327,47.784,26.31,47.66,26.316,47.542z"/>
		<path fill-rule="evenodd" clip-rule="evenodd" fill="#C3954A" d="M29.248,48.734c-0.118,0.131-0.237,0.262-0.355,0.393
			c0.025,0.255-0.016,0.516,0.065,0.767c0.069,0.087,0.145,0.142,0.256,0.066c-0.021-0.115-0.034-0.229,0.08-0.309
			c0.11-0.092,0.114-0.212,0.093-0.34C29.273,49.134,29.554,48.864,29.248,48.734z"/>
		<path fill-rule="evenodd" clip-rule="evenodd" fill="#FCDEAC" d="M29.213,49.96c-0.059-0.036-0.119-0.072-0.179-0.109
			c-0.098-0.102-0.198-0.197-0.358-0.139c-0.2,0.161-0.525,0.231-0.446,0.6c0.087,0.104,0.199,0.108,0.319,0.08
			C28.64,50.047,29.064,50.214,29.213,49.96z"/>
		<path fill-rule="evenodd" clip-rule="evenodd" fill="#FDF8C9" d="M28.67,50.971c0.124-0.032,0.235-0.017,0.325,0.083
			c0.259-0.048,0.22-0.168,0.076-0.313c-0.198-0.034-0.466-0.182-0.39,0.237L28.67,50.971z"/>
		<path fill-rule="evenodd" clip-rule="evenodd" fill="#C4944B" d="M29.07,50.741c0.032,0.118,0.071,0.238-0.076,0.313
			c0.141,0.183,0.26,0.075,0.311-0.059C29.383,50.797,29.203,50.777,29.07,50.741z"/>
		<path fill-rule="evenodd" clip-rule="evenodd" fill="#C49A60" d="M28.231,50.313c0.172-0.172,0.344-0.344,0.516-0.516
			c0.051-0.138,0.021-0.253-0.098-0.343c-0.205,0.167-0.413,0.331-0.616,0.5c-0.126,0.104-0.474,0.051-0.33,0.34
			C27.811,50.509,28.05,50.313,28.231,50.313z"/>
		<path fill-rule="evenodd" clip-rule="evenodd" fill="#C7A269" d="M28.648,49.453c0.033,0.114,0.065,0.229,0.098,0.343
			c0.096,0.018,0.192,0.037,0.288,0.055c-0.048-0.241,0.361-0.572-0.142-0.725c-0.086,0.07-0.172,0.14-0.258,0.21
			C28.637,49.375,28.642,49.414,28.648,49.453z"/>
		<path fill-rule="evenodd" clip-rule="evenodd" fill="#D5B27F" d="M27.63,51.042c0.161-0.033,0.335-0.043,0.408-0.231
			c-0.049,0.001-0.115,0.024-0.142,0c-0.136-0.118-0.273-0.348-0.455-0.15C27.297,50.82,27.668,50.858,27.63,51.042z"/>
		<path fill-rule="evenodd" clip-rule="evenodd" fill="#C5A06D" d="M27.493,49.701c-0.091,0.026-0.182,0.052-0.273,0.078
			c0.044,0.133,0.09,0.282,0.272,0.176C27.597,49.893,27.643,49.786,27.493,49.701z"/>
		<path fill-rule="evenodd" clip-rule="evenodd" fill="#E5C08D" d="M30.181,48.072c-0.036-0.21-0.174-0.245-0.355-0.206
			c-0.064,0.167-0.129,0.334-0.193,0.501c0.246,0.209,0.368-0.138,0.569-0.127C30.195,48.183,30.188,48.128,30.181,48.072z"/>
		<path fill-rule="evenodd" clip-rule="evenodd" fill="#E8BF88" d="M23.695,49.525c0.045-0.081,0.117-0.159,0.132-0.246
			c0.018-0.107-0.086-0.108-0.133-0.056c-0.059,0.067-0.085,0.164-0.125,0.249C23.605,49.487,23.64,49.502,23.695,49.525z"/>
	</g>
</g>
</svg>
