<?xml version="1.0" encoding="utf-8"?>
<!-- Generator: Adobe Illustrator 17.0.0, SVG Export Plug-In . SVG Version: 6.00 Build 0)  -->
<!DOCTYPE svg PUBLIC "-//W3C//DTD SVG 1.1//EN" "http://www.w3.org/Graphics/SVG/1.1/DTD/svg11.dtd">
<svg version="1.1" id="Слой_1" xmlns="http://www.w3.org/2000/svg" xmlns:xlink="http://www.w3.org/1999/xlink" x="0px" y="0px"
	 width="75.951px" height="9.416px" viewBox="0 0 75.951 9.416" enable-background="new 0 0 75.951 9.416" xml:space="preserve">
<path fill="#FFFFFF" d="M75.92,4.86c0.006-0.02,0.015-0.038,0.019-0.058c0.004-0.019,0.003-0.038,0.004-0.057
	c0.001-0.013,0.008-0.024,0.008-0.038s-0.007-0.025-0.008-0.038c-0.001-0.019-0.001-0.038-0.004-0.057
	c-0.004-0.02-0.012-0.038-0.019-0.058c-0.008-0.026-0.017-0.049-0.029-0.073c-0.009-0.017-0.016-0.033-0.026-0.049
	c-0.004-0.006-0.004-0.013-0.009-0.019c-0.008-0.011-0.02-0.016-0.028-0.026c-0.018-0.021-0.037-0.04-0.058-0.058
	c-0.01-0.009-0.015-0.021-0.026-0.028l-5.809-4.208c-0.22-0.159-0.534-0.113-0.698,0.112c-0.162,0.224-0.111,0.536,0.112,0.698
	l4.559,3.303H0.5c-0.276,0-0.5,0.224-0.5,0.5s0.224,0.5,0.5,0.5h73.409L69.35,8.511c-0.224,0.162-0.274,0.475-0.112,0.698
	c0.099,0.136,0.251,0.207,0.405,0.207c0.103,0,0.205-0.031,0.293-0.095l5.809-4.209c0.011-0.008,0.016-0.02,0.026-0.028
	c0.023-0.019,0.042-0.04,0.061-0.063C75.839,5.013,75.85,5.01,75.856,5c0.004-0.006,0.005-0.013,0.009-0.019
	c0.01-0.016,0.018-0.032,0.026-0.049C75.903,4.909,75.912,4.885,75.92,4.86z"/>
</svg>
