<?xml version="1.0" encoding="utf-8"?>
<!-- Generator: Adobe Illustrator 17.0.0, SVG Export Plug-In . SVG Version: 6.00 Build 0)  -->
<!DOCTYPE svg PUBLIC "-//W3C//DTD SVG 1.1//EN" "http://www.w3.org/Graphics/SVG/1.1/DTD/svg11.dtd">
<svg version="1.1" id="Слой_1" xmlns="http://www.w3.org/2000/svg" xmlns:xlink="http://www.w3.org/1999/xlink" x="0px" y="0px"
	 width="11.871px" height="4.897px" viewBox="0 0 11.871 4.897" enable-background="new 0 0 11.871 4.897" xml:space="preserve">
<path fill="#E09494" d="M11.777,0.208c-0.161-0.224-0.472-0.276-0.698-0.115L5.936,3.782L0.792,0.094
	C0.566-0.067,0.254-0.016,0.094,0.208c-0.161,0.225-0.109,0.537,0.115,0.698l5.436,3.897c0.009,0.007,0.021,0.004,0.031,0.01
	c0.079,0.049,0.165,0.082,0.257,0.083c0.001,0,0.002,0.001,0.003,0.001c0,0,0,0,0,0s0,0,0,0c0.001,0,0.002-0.001,0.003-0.001
	c0.092-0.001,0.178-0.034,0.257-0.083c0.01-0.006,0.022-0.003,0.031-0.01l5.435-3.897C11.886,0.746,11.938,0.433,11.777,0.208z"/>
</svg>
