<?xml version="1.0" encoding="utf-8"?>
<!-- Generator: Adobe Illustrator 17.0.0, SVG Export Plug-In . SVG Version: 6.00 Build 0)  -->
<!DOCTYPE svg PUBLIC "-//W3C//DTD SVG 1.1//EN" "http://www.w3.org/Graphics/SVG/1.1/DTD/svg11.dtd">
<svg version="1.1" id="Слой_1" xmlns="http://www.w3.org/2000/svg" xmlns:xlink="http://www.w3.org/1999/xlink" x="0px" y="0px"
	 width="20.262px" height="18.178px" viewBox="0 0 20.262 18.178" enable-background="new 0 0 20.262 18.178" xml:space="preserve">
<path fill="#FFFFFF" d="M18.234,14.123c-0.1,0-0.195,0.016-0.291,0.029c-0.047-0.015-0.094-0.029-0.146-0.029H5.094l-0.28-2.236
	c0.14,0.041,0.285,0.069,0.436,0.069l4.11-0.029c0.005,0,0.01,0.003,0.015,0.003c0.016,0,0.032-0.002,0.048-0.003l7.719-0.054
	c0.787-0.005,1.528-0.614,1.688-1.386l1.22-5.937c0.084-0.404-0.008-0.808-0.252-1.108c-0.245-0.3-0.622-0.472-1.036-0.472H4.258
	c-0.191,0-0.375,0.04-0.545,0.11l-0.33-2.642C3.379,0.415,3.367,0.396,3.361,0.374C3.352,0.341,3.344,0.308,3.329,0.278
	C3.315,0.25,3.296,0.227,3.277,0.202C3.257,0.175,3.238,0.15,3.213,0.128c-0.023-0.02-0.048-0.035-0.075-0.05
	C3.109,0.061,3.082,0.044,3.049,0.033c-0.03-0.011-0.061-0.014-0.093-0.019C2.932,0.011,2.911,0,2.886,0H0.5C0.224,0,0,0.224,0,0.5
	S0.224,1,0.5,1h1.945l1.643,13.137c-1.053,0.072-1.891,0.943-1.891,2.014c0,1.118,0.91,2.027,2.027,2.027
	c1.118,0,2.028-0.91,2.028-2.027c0-0.377-0.11-0.725-0.29-1.028h10.534c-0.18,0.303-0.289,0.651-0.289,1.028
	c0,1.118,0.909,2.027,2.027,2.027s2.027-0.91,2.027-2.027C20.262,15.033,19.353,14.123,18.234,14.123z M5.25,11.456v-0.5
	c-0.294,0-0.584-0.256-0.621-0.547L4.324,7.967h4.097l0.386,2.964l-3.553,0.025L5.25,11.456z M13.518,7.967l-0.391,2.934
	l-3.313,0.023L9.429,7.967H13.518z M9.299,6.967L8.909,3.97h5.142l-0.4,2.997H9.299z M17.851,10.286
	c-0.063,0.305-0.405,0.585-0.717,0.587l-2.997,0.021l0.39-2.927h3.8L17.851,10.286z M19.022,4.074
	c0.054,0.066,0.071,0.164,0.048,0.275l-0.538,2.618H14.66l0.4-2.997h3.702C18.875,3.97,18.968,4.007,19.022,4.074z M3.963,4.093
	C4.033,4.014,4.137,3.97,4.258,3.97h3.643l0.39,2.997H4.199L3.878,4.4C3.863,4.281,3.893,4.172,3.963,4.093z M4.224,17.178
	c-0.566,0-1.027-0.461-1.027-1.027c0-0.567,0.461-1.028,1.027-1.028c0.567,0,1.028,0.461,1.028,1.028
	C5.252,16.717,4.791,17.178,4.224,17.178z M18.234,17.178c-0.566,0-1.027-0.461-1.027-1.027c0-0.567,0.461-1.028,1.027-1.028
	s1.027,0.461,1.027,1.028C19.262,16.717,18.801,17.178,18.234,17.178z"/>
</svg>
