<?xml version="1.0" encoding="utf-8"?>
<!-- Generator: Adobe Illustrator 17.0.0, SVG Export Plug-In . SVG Version: 6.00 Build 0)  -->
<!DOCTYPE svg PUBLIC "-//W3C//DTD SVG 1.1//EN" "http://www.w3.org/Graphics/SVG/1.1/DTD/svg11.dtd">
<svg version="1.1" id="Слой_1" xmlns="http://www.w3.org/2000/svg" xmlns:xlink="http://www.w3.org/1999/xlink" x="0px" y="0px"
	 width="18.567px" height="13.451px" viewBox="0 0 18.567 13.451" enable-background="new 0 0 18.567 13.451" xml:space="preserve">
<path d="M17.067,0H1.5C0.673,0,0,0.673,0,1.5v10.451c0,0.827,0.673,1.5,1.5,1.5h15.567c0.827,0,1.5-0.673,1.5-1.5V1.5
	C18.567,0.673,17.895,0,17.067,0z M17.567,10.64L12.16,6.726l5.407-3.914V10.64z M1.5,1h15.567c0.276,0,0.5,0.224,0.5,0.5v0.078
	L9.8,7.2c-0.27,0.196-0.762,0.196-1.034,0L1,1.578V1.5C1,1.224,1.224,1,1.5,1z M1,2.813l5.406,3.912L1,10.638V2.813z M17.067,12.451
	H1.5c-0.276,0-0.5-0.224-0.5-0.5v-0.079l6.259-4.53L8.18,8.009c0.31,0.224,0.707,0.336,1.104,0.336s0.794-0.112,1.103-0.336
	l0.921-0.667l6.26,4.531v0.076C17.567,12.227,17.343,12.451,17.067,12.451z"/>
</svg>
