<?xml version="1.0" encoding="utf-8"?>
<!-- Generator: Adobe Illustrator 17.0.0, SVG Export Plug-In . SVG Version: 6.00 Build 0)  -->
<!DOCTYPE svg PUBLIC "-//W3C//DTD SVG 1.1//EN" "http://www.w3.org/Graphics/SVG/1.1/DTD/svg11.dtd">
<svg version="1.1" id="Слой_1" xmlns="http://www.w3.org/2000/svg" xmlns:xlink="http://www.w3.org/1999/xlink" x="0px" y="0px"
	 width="5.997px" height="12.034px" viewBox="0 0 5.997 12.034" enable-background="new 0 0 5.997 12.034" xml:space="preserve">
<path fill="#F7F5F5" d="M5.981,6.158C5.99,6.111,5.997,6.065,5.997,6.017c0-0.048-0.007-0.094-0.016-0.141
	C5.972,5.829,5.961,5.785,5.943,5.74C5.924,5.693,5.898,5.652,5.87,5.609C5.853,5.583,5.846,5.554,5.826,5.53L1.32,0.263
	C1.052-0.052,0.578-0.089,0.263,0.18C-0.052,0.449-0.089,0.923,0.18,1.238l4.089,4.779L0.18,10.796
	c-0.27,0.315-0.232,0.789,0.083,1.058c0.141,0.121,0.314,0.18,0.487,0.18c0.212,0,0.422-0.089,0.57-0.263l4.506-5.267
	C5.846,6.48,5.853,6.451,5.87,6.425c0.028-0.043,0.054-0.084,0.073-0.131C5.961,6.249,5.972,6.205,5.981,6.158z"/>
</svg>
