<?xml version="1.0" encoding="utf-8"?>
<!-- Generator: Adobe Illustrator 17.0.0, SVG Export Plug-In . SVG Version: 6.00 Build 0)  -->
<!DOCTYPE svg PUBLIC "-//W3C//DTD SVG 1.1//EN" "http://www.w3.org/Graphics/SVG/1.1/DTD/svg11.dtd">
<svg version="1.1" id="Слой_1" xmlns="http://www.w3.org/2000/svg" xmlns:xlink="http://www.w3.org/1999/xlink" x="0px" y="0px"
	 width="75.889px" height="30.779px" viewBox="0 0 75.889 30.779" enable-background="new 0 0 75.889 30.779" xml:space="preserve">
<g>
	<g>
		<path fill="#2B2E22" d="M60.499,30.779H15.39C6.904,30.779,0,23.875,0,15.39S6.904,0,15.39,0h45.109
			c8.486,0,15.39,6.904,15.39,15.39S68.985,30.779,60.499,30.779z M15.39,3.316c-6.658,0-12.074,5.417-12.074,12.074
			S8.732,27.464,15.39,27.464h45.109c6.658,0,12.074-5.417,12.074-12.074S67.157,3.316,60.499,3.316
			C60.499,3.316,15.39,3.316,15.39,3.316z"/>
	</g>
	<g>
		<path fill="#2B2E22" d="M19.422,18.819h-1.524l-0.04-0.545c-0.554,0.454-1.251,0.696-2.028,0.696
			c-2.239,0-3.763-1.473-3.763-3.581c0-2.057,1.554-3.581,3.723-3.581c0.757,0,1.321,0.192,1.725,0.505v-0.354h1.846v2.573h-2.139
			c-0.182-0.524-0.656-0.848-1.362-0.848c-1.009,0-1.554,0.746-1.554,1.624c0,1.029,0.636,1.746,1.685,1.746
			c0.535,0,1.099-0.201,1.533-0.696l-1.907-0.03v-1.423l3.803,0.01v3.905H19.422z"/>
		<path fill="#2B2E22" d="M27.463,18.819h-3.118v-0.918l-0.776-1.019h-0.616v1.937h-2.765v-1.685h0.656v-3.501h-0.656v-1.674h3.753
			c1.907,0,3.016,0.918,3.016,2.502c0,0.888-0.404,1.584-1.129,1.998l0.575,0.676h1.059v1.685H27.463z M23.941,15.198
			c0.524,0,0.877-0.302,0.877-0.746c0-0.423-0.353-0.706-0.877-0.706h-0.989v1.453h0.989V15.198z"/>
		<path fill="#2B2E22" d="M32.234,17.134h0.898v1.685h-3.925v-1.685h0.898v-0.141l-1.826-3.359h-0.979V11.96h3.49v1.674H30.62
			l0.535,0.979l0.535-0.979h-0.161V11.96h3.49v1.674H34.05l-1.816,3.359C32.234,16.994,32.234,17.134,32.234,17.134z"/>
		<path fill="#2B2E22" d="M42.192,14.673h-1.685v-0.888h-0.676v3.349h1.04v1.685h-4.187v-1.685h1.04v-3.349h-0.676v0.888h-1.685
			v-2.714h6.83v2.714H42.192z"/>
		<path fill="#2B2E22" d="M47.075,14.683c1.12,0.243,1.806,0.787,1.806,1.998c0,1.452-0.989,2.29-2.562,2.29
			c-0.797,0-1.463-0.212-1.947-0.636v0.484h-1.695v-2.31h1.816c0.232,0.474,0.736,0.696,1.362,0.696
			c0.484,0,0.685-0.161,0.685-0.374c0-0.161-0.101-0.343-0.514-0.434l-1.362-0.292c-1.351-0.283-1.968-0.928-1.968-2.028
			c0-1.493,1.171-2.27,2.613-2.27c0.585,0,1.271,0.131,1.795,0.545v-0.393h1.674v2.19h-1.968c-0.152-0.353-0.514-0.626-1.07-0.626
			c-0.363,0-0.615,0.131-0.615,0.414c0,0.252,0.201,0.374,0.524,0.434L47.075,14.683z"/>
		<path fill="#2B2E22" d="M57.234,18.819h-2.795v-1.291l-0.04-0.11h-2.492l-0.04,0.101v1.302h-2.774v-1.685h0.746l1.433-3.501
			h-0.656V11.96h3.723l2.129,5.175h0.767V18.819z M53.138,13.988l-0.636,1.765h1.281L53.138,13.988z"/>
		<path fill="#2B2E22" d="M61.037,17.134h0.898v1.685H58.01v-1.685h0.898v-0.141l-1.826-3.359h-0.979V11.96h3.49v1.674h-0.171
			l0.535,0.979l0.535-0.979h-0.161V11.96h3.49v1.674h-0.968l-1.816,3.359V17.134z"/>
	</g>
	<g opacity="0.1">
		<path fill="#2B2E22" d="M60.499,3.316H15.39c-6.658,0-12.074,5.417-12.074,12.074c0,0.328,0.017,0.65,0.042,0.971
			C3.854,10.155,9.059,5.257,15.39,5.257h45.109c6.331,0,11.536,4.899,12.032,11.104c0.025-0.32,0.042-0.643,0.042-0.971
			C72.574,8.731,67.157,3.316,60.499,3.316z"/>
	</g>
</g>
</svg>
