<?xml version="1.0" encoding="utf-8"?>
<!-- Generator: Adobe Illustrator 17.0.0, SVG Export Plug-In . SVG Version: 6.00 Build 0)  -->
<!DOCTYPE svg PUBLIC "-//W3C//DTD SVG 1.1//EN" "http://www.w3.org/Graphics/SVG/1.1/DTD/svg11.dtd">
<svg version="1.1" id="Слой_1" xmlns="http://www.w3.org/2000/svg" xmlns:xlink="http://www.w3.org/1999/xlink" x="0px" y="0px"
	 width="16.985px" height="20.16px" viewBox="0 0 16.985 20.16" enable-background="new 0 0 16.985 20.16" xml:space="preserve" fill="#ffffff">
<g>
	<path d="M9.393,9.038L6.024,5.669C5.783,5.428,5.53,5.305,5.275,5.305c-0.395,0-0.793,0.311-0.793,1.003v0.969H1.377
		C0.618,7.278,0,7.896,0,8.655v2.851c0,0.759,0.618,1.377,1.377,1.377h3.105v0.97c0,0.693,0.398,1.003,0.793,1.003
		c0.256,0,0.508-0.123,0.75-0.364l3.368-3.368C9.967,10.548,9.967,9.612,9.393,9.038z M8.686,10.416l-3.204,3.204v-1.737H1.377
		C1.169,11.882,1,11.713,1,11.505V8.655c0-0.204,0.173-0.377,0.377-0.377h4.105V6.541l3.204,3.204
		C8.871,9.93,8.871,10.23,8.686,10.416z"/>
	<path d="M11.81,0.055c-0.046-0.014-0.092-0.029-0.143-0.029c-0.017,0-0.032,0.008-0.049,0.01C11.499,0.025,11.384,0,11.259,0
		C9.994,0,8.823,0.212,8.823,1.749v3.042c0,1.41,1.488,1.41,2.288,1.41l0.879-0.006c1.249,0,1.692,2.093,1.692,3.885
		s-0.443,3.885-1.692,3.885l-0.879-0.006c-0.8,0-2.288,0-2.288,1.41v3.042c0,1.536,1.171,1.748,2.436,1.748
		c4.327,0,5.726-6.791,5.726-10.08C16.985,6.937,15.7,0.61,11.81,0.055z M9.823,4.791V1.749c0-0.44,0.01-0.732,1.344-0.746V5.2
		l-0.056,0C9.823,5.201,9.823,5.011,9.823,4.791z M9.823,18.412V15.37c0-0.22,0-0.41,1.288-0.41l0.056,0v4.198
		C9.833,19.144,9.823,18.852,9.823,18.412z M12.167,18.988V14.94c1.575-0.129,2.516-1.914,2.516-4.86s-0.94-4.732-2.516-4.86V1.173
		c2.681,0.959,3.818,6.047,3.818,8.908S14.849,18.028,12.167,18.988z"/>
</g>
</svg>
