<?xml version="1.0" encoding="utf-8"?>
<!-- Generator: Adobe Illustrator 17.0.0, SVG Export Plug-In . SVG Version: 6.00 Build 0)  -->
<!DOCTYPE svg PUBLIC "-//W3C//DTD SVG 1.1//EN" "http://www.w3.org/Graphics/SVG/1.1/DTD/svg11.dtd">
<svg version="1.1" id="Слой_1" xmlns="http://www.w3.org/2000/svg" xmlns:xlink="http://www.w3.org/1999/xlink" x="0px" y="0px"
	 width="20.167px" height="20.324px" viewBox="0 0 20.167 20.324" enable-background="new 0 0 20.167 20.324" xml:space="preserve">
<g>
	<g>
		<path fill-rule="evenodd" clip-rule="evenodd" fill="#D4D4D4" d="M10.266,0c-5.467,0-9.9,4.432-9.9,9.9
			c0,1.87,0.519,3.62,1.42,5.112L0,20.324l5.481-1.755c1.418,0.784,3.049,1.231,4.785,1.231c5.468,0,9.9-4.433,9.9-9.9
			C20.167,4.432,15.734,0,10.266,0z M10.266,18.142c-1.674,0-3.233-0.502-4.534-1.363l-3.167,1.014l1.029-3.06
			C2.608,13.374,2.025,11.704,2.025,9.9c0-4.545,3.697-8.242,8.241-8.242c4.545,0,8.242,3.697,8.242,8.242
			C18.508,14.445,14.811,18.142,10.266,18.142z M14.908,12.15c-0.248-0.136-1.467-0.794-1.696-0.887
			c-0.229-0.093-0.395-0.141-0.574,0.106c-0.178,0.246-0.684,0.797-0.837,0.96c-0.154,0.163-0.302,0.178-0.55,0.042
			c-0.248-0.135-1.052-0.433-1.985-1.33c-0.726-0.698-1.202-1.544-1.34-1.803c-0.138-0.259-0.001-0.39,0.13-0.511
			C8.174,8.618,8.32,8.441,8.452,8.298C8.584,8.156,8.63,8.052,8.721,7.887s0.054-0.315-0.005-0.443
			C8.657,7.315,8.199,6.052,8.007,5.538C7.815,5.025,7.602,5.101,7.454,5.095C7.307,5.09,7.139,5.062,6.971,5.056
			C6.802,5.05,6.526,5.103,6.285,5.347C6.044,5.591,5.368,6.178,5.322,7.422C5.275,8.665,6.135,9.9,6.255,10.073
			c0.12,0.174,1.643,2.869,4.174,3.977c2.531,1.108,2.545,0.77,3.009,0.745c0.465-0.025,1.518-0.556,1.751-1.138
			c0.233-0.582,0.251-1.088,0.192-1.196C15.322,12.355,15.156,12.285,14.908,12.15z"/>
	</g>
</g>
</svg>
