<?xml version="1.0" encoding="utf-8"?>
<!-- Generator: Adobe Illustrator 17.0.0, SVG Export Plug-In . SVG Version: 6.00 Build 0)  -->
<!DOCTYPE svg PUBLIC "-//W3C//DTD SVG 1.1//EN" "http://www.w3.org/Graphics/SVG/1.1/DTD/svg11.dtd">
<svg version="1.1" id="Слой_1" xmlns="http://www.w3.org/2000/svg" xmlns:xlink="http://www.w3.org/1999/xlink" x="0px" y="0px"
	 width="141.972px" height="107.328px" viewBox="0 0 141.972 107.328" enable-background="new 0 0 141.972 107.328"
	 xml:space="preserve">
<g>
	<g>
		<g>
			<path fill="#556543" d="M80.037,66.67c-0.38-0.763-0.756-1.531-1.132-2.298c4.876,2.277,9.703,4.079,15.18,5.227
				c3.27,0.685,6.149,0.896,9.474,0.892c1.696-0.002,6.114,1.006,7.604,0.287c0.35-0.169,0.856,0.113,0.893,0.539
				c0.558,6.444-9.397,1.816-11.994,1.455C92.778,71.758,86.27,69.987,80.037,66.67z"/>
		</g>
	</g>
	<g>
		<g>
			<path fill="#556543" d="M77.687,61.901c7.116-0.745,13.62-2.611,20.116-7.217c6.54-4.638,11.494-12.622,18.823-15.82
				c0.499-0.218,0.902,0.405,0.649,0.843c-2.553,4.417-6.903,7.15-10.775,10.206c-3.572,2.819-7.066,5.716-11.102,7.821
				c-5.385,2.808-11.372,4.163-17.459,4.679C77.856,62.241,77.77,62.073,77.687,61.901z"/>
		</g>
	</g>
	<g>
		<path fill="#556543" d="M77.881,62.294c-0.238-0.493-0.488-0.975-0.725-1.471c3.893-2.464,4.66-7.951,7.555-11.635
			c1.976-2.514,4.356-3.592,6.854-4.611c1.57-0.395,3.195-0.433,4.752-0.923c0.744-0.234,1.574-0.574,2.242-1.072
			c0.004,0.004,0.007,0.009,0.012,0.013c-0.045,2.376,0.008,4.982-1.156,6.96c-0.148,0.251-0.118,0.512-0.007,0.727
			c-2.517,5.7-6.881,9.693-13.367,10.27C82.369,61.663,80.389,62.338,77.881,62.294z"/>
	</g>
	<g>
		<g>
			<path fill="#556543" d="M102.794,101.124c-1.158-2.196-2.732-4.249-4.978-5.294c-0.365-0.17-0.733-0.282-1.101-0.394
				c-0.984-0.595-1.983-1.188-2.924-1.837c-1.899-4.305-4.01-8.454-6.158-12.358c-1.142-2.075-2.214-4.154-3.311-6.229
				c1.018-0.067,1.945,0.027,2.781,0.284c4.198-0.054,7.561-0.114,11.989,2.948c3.917,2.709,7.328,7,8.31,11.834
				c0.348,0.792,0.602,1.676,0.742,2.68c0.738,5.314-1.604,10.113-3.902,14.483c-0.02,0.039-0.048,0.055-0.071,0.089
				C104.315,105.262,103.82,103.07,102.794,101.124z"/>
		</g>
	</g>
	<g>
		<g>
			<path fill="#8A997F" d="M105.722,92.209c-2.412-2.248-3.63-4.708-5.221-7.592c-2.135-3.87-5.61-5.275-9.451-6.711
				c-0.388-0.145-0.429-0.809-0.034-0.943c8.026-2.725,14.077,7.946,15.161,14.969C106.214,92.175,105.92,92.394,105.722,92.209
				L105.722,92.209z"/>
		</g>
	</g>
	<g>
		<path fill="#FEF6EB" d="M116.856,66.196c5.286-4.939,14.439-4.373,19.121,2.918c1.233,1.92,0.824,4.26-0.38,5.679
			c0.276,0.284,0.557,0.556,0.82,0.871c3.5,4.196,2.764,9.831-1.595,12.696c-3.488,2.292-9.368,3.453-13.375,1.599
			c-4.742-2.195-7.548-9.516-9.205-14.171c-0.594-1.67-0.237-3.129,0.576-4.17C112.934,68.997,114.586,67.288,116.856,66.196z"/>
	</g>
	<g>
		<path fill="#FEF6EB" d="M125.66,24.755c1.204-1.039,2.627-1.82,4.2-2.276c1.582-0.518,3.29-0.67,5.021-0.34
			c0.085,0.012,0.168,0.012,0.253,0.026c-0.003,0.012-0.005,0.024-0.008,0.035c0.339,0.073,0.679,0.145,1.018,0.255
			c2.433,0.793,3.01,3.355,2.314,5.403c0.385,0.205,0.738,0.465,1.039,0.805c1.169,1.324,1.072,2.771,0.416,4.01
			c-0.107,0.446-0.265,0.899-0.529,1.355c-1.024,1.768-2.418,3.16-4.119,4.1c-1.576,1.233-3.328,2.188-5.262,2.515
			c-0.098,0.017-0.195,0.023-0.293,0.035c-0.035,0.066-0.061,0.133-0.1,0.198c-2.565,4.357-8.516,3.275-10.727-1.212
			c-2.255-4.576,0.396-9.926,2.896-13.486C122.732,24.818,124.243,24.455,125.66,24.755z"/>
	</g>
	<g>
		<g>
			<path fill="#556543" d="M121.518,64.173c0.947-0.15,1.77,0.471,2.207,1.296c-2.763,0.308-3.972,3.398-5.9,5.561
				c-0.046,0.052-0.065,0.107-0.091,0.16c-0.635,0.632-1.289,1.248-2.014,1.82c-0.229,0.181-0.259,0.419-0.209,0.644
				c-1.881,0.504-4.316,0.806-6.021-0.232c-0.38-0.231-0.518-0.757-0.503-1.169l0.012-0.349c0.027-0.75,1.051-1.273,1.621-0.705
				c-1.024-1.02,3.723-4.374,4.2-4.667C117.019,65.182,118.982,64.575,121.518,64.173z"/>
		</g>
	</g>
	<g>
		<g>
			<path fill="#556543" d="M108.23,72.778c2.639,0.096,5.173,1.646,6.579,4.039c0.973,1.655,1.517,3.679,2.77,5.139
				c1.431,1.668,3.754,2.669,5.612,3.697c0.787,0.435,0.546,1.574-0.34,1.528c-3.148-0.166-6.416-0.856-8.765-3.385
				c-2.614-2.815-4.066-7.333-6.048-10.645C107.929,72.969,108.026,72.771,108.23,72.778L108.23,72.778z"/>
		</g>
	</g>
	<g>
		<g>
			<path fill="#556543" d="M117.508,38.282c0.601,0.398,1.729,0.347,2.424,0.501c1.103,0.245,2.215,0.514,3.329,0.673
				c2.109,0.301,3.942,0.651,5.921,1.572c0.541,0.252,0.605,0.925,0.217,1.313c-2.394,2.396-5.589,2.356-8.745,1.426
				c-2.421-0.714-4.77-2.823-3.412-5.449C117.293,38.22,117.428,38.229,117.508,38.282L117.508,38.282z"/>
		</g>
	</g>
	<g>
		<g>
			<path fill="#556543" d="M117.607,37.679c4.143-4.107,8.473-10.89,15.153-8.246c0.407,0.161,0.553,0.828,0.179,1.085
				c-4.752,3.264-8.541,8.172-14.359,9.422C117.321,40.209,116.841,38.438,117.607,37.679L117.607,37.679z"/>
		</g>
	</g>
	<g>
		<g>
			<path fill="#556543" d="M116.73,40.903c-2.812-2.16-0.995-7.069,0.351-9.337c1.201-2.024,2.11-3.072,4.297-3.662
				c2.174-0.587,3.999-1.965,6.103-2.852c0.195-0.082,0.412,0.176,0.275,0.358c-1.316,1.757-3.003,3.099-3.656,5.293
				c-0.655,2.199-1.693,3.418-2.847,5.405C120.829,36.835,118.011,41.887,116.73,40.903L116.73,40.903z"/>
		</g>
	</g>
	<g>
		<g>
			<path fill="#556543" d="M117.777,36.784c0.139,0.619,0.204,1.084,0.104,1.711c-0.102,0.638-0.312,1.183-0.59,1.75
				c0.019-0.198,0.037-0.397,0.056-0.595c0.032,0.172,0.064,0.344,0.096,0.517c0.268,1.444-1.391,2.373-2.488,1.52
				c-1.188-0.925-0.665-2.726,0.658-2.981c0.148-0.029,0.296-0.057,0.444-0.086c-0.247,0.151-0.493,0.301-0.739,0.452
				c0.318-0.465,0.608-0.943,0.941-1.397c0.311-0.425,0.642-0.74,1.001-1.114C117.44,36.369,117.727,36.561,117.777,36.784
				L117.777,36.784z"/>
		</g>
	</g>
	<g>
		<g>
			<path fill="#556543" d="M103.633,49.193c4.227-0.819,8.617,0.766,12.892,0.461c0.587-0.042,1.2,0.324,1.514,0.847
				c-0.006,0.006-0.011,0.014-0.017,0.02c-1.745,1.013-2.75,2.693-3.858,4.531c-1.422,2.357-3.331,3.699-5.595,4.443
				c-1.106,0.061-2.222,0.052-3.333-0.061c-0.034-0.004-0.069-0.005-0.103-0.009c-0.618-0.066-1.233-0.155-1.841-0.268
				c-2.229-0.415-4.088-1.707-5.93-1.767c-0.036-0.02-0.077-0.024-0.116-0.037c-0.114-0.102-0.25-0.165-0.399-0.177
				c-0.045-0.792,0.218-1.609,0.955-2.287C100.05,52.819,100.211,49.856,103.633,49.193z"/>
		</g>
	</g>
	<g>
		<g>
			<path fill="#F2DDCC" d="M132.839,84.766c-3.188,0.814-6.432,2.39-9.818,1.286c-3.119-1.017-6.287-4.62-7.063-7.895
				c-0.327-1.38,1.074-2.954,2.426-2.593c2.797,0.748,4.091,2.893,6.298,4.646c0.926,0.736,2.013,1.102,2.982,1.749
				c1.782,1.188,2.746,2.464,5.119,2.444C133.009,84.401,133.056,84.711,132.839,84.766L132.839,84.766z"/>
		</g>
	</g>
	<g>
		<g>
			<path fill="#F2D4D3" d="M138.166,28.226c1.123,0.057,1.918,0.031,2.796,1.041c0.977,1.123,1.035,2.619,0.434,3.874
				c-1.507,3.145-5.153,5.724-8.576,5.058c-0.554-0.108-0.752-0.811-0.347-1.187c1.54-1.433,3.425-2.426,4.908-3.935
				c0.708-0.721,1.253-1.315,1.213-2.355c-0.016-0.438-0.088-1.793-0.542-1.986C137.767,28.613,137.889,28.212,138.166,28.226
				L138.166,28.226z"/>
		</g>
	</g>
	<g>
		<g>
			<path fill="#F2D4D3" d="M139.103,27.946c1.58,2.2-0.191,4.597-1.998,5.717c-1.267,0.786-2.652,1.255-4.097,1.591
				c-1.639,0.381-3.267,1.561-4.944,1.448c-0.227-0.015-0.44-0.296-0.399-0.528c0.365-2.1,2.739-3.267,4.356-4.312
				c2.209-1.427,5.282-1.3,6.63-3.917C138.735,27.78,139,27.803,139.103,27.946L139.103,27.946z"/>
		</g>
	</g>
	<g>
		<g>
			<path fill="#F2D4D3" d="M137.608,30.021c-0.077-0.275-0.111-0.53-0.111-0.815c-0.032-0.289,0.006-0.568,0.114-0.836
				c-0.02,0.38-0.035,0.445-0.047,0.194c-0.124-0.353-0.248-1.166-0.407-1.405c-0.187-0.28,0.177-0.208-0.357-0.202
				c-0.312,0.004-0.656-0.074-0.971-0.109c-0.552-0.06-1.023-0.094-1.433-0.537c-0.079-0.086-0.079-0.214-0.052-0.316
				c0.301-1.13,1.939-1.192,2.853-1.384c0.68-0.143,1.225-0.416,1.945-0.277c0.738,0.143,1.508,0.687,1.974,1.315
				c0.973,1.309,1.155,3.358,0.348,4.7C140.575,31.827,138.164,32.005,137.608,30.021L137.608,30.021z"/>
		</g>
	</g>
	<g>
		<g>
			<path d="M108.915,71.741c1.024-2.723,3.503-3.939,5.849-5.217c1.866-1.017,4.521-2.614,6.726-1.944
				c0.13,0.04,0.137,0.268,0.011,0.308c-3.333,1.068-5.693,2.712-8.045,5.327c-1.243,1.383-2.454,2.753-4.373,1.919
				C108.94,72.071,108.859,71.889,108.915,71.741L108.915,71.741z"/>
		</g>
	</g>
	<g>
		<g>
			<path d="M128.925,42.994c-1.81,1.511-4.165,2.28-6.538,1.732c-1.732-0.4-3.367-1.832-5.148-1.908
				c-2.319-0.099-4.407,2.52-6.562,3.197c-0.315,0.099-0.562-0.293-0.315-0.534c1.851-1.811,4.205-5.335,7.105-5.073
				c4.412,0.398,6.533,5.098,11.396,2.481C128.921,42.858,128.974,42.953,128.925,42.994L128.925,42.994z"/>
		</g>
	</g>
	<g>
		<g>
			<path d="M77.792,62.114c-0.039-0.081-0.08-0.16-0.118-0.24c2.47-0.38,4.783-1.156,7.113-2.107
				c2.558-1.044,5.171-1.741,7.189-3.757c0.083-0.082,0.229,0.038,0.184,0.144c-1.071,2.542-4.053,3.547-6.413,4.413
				C83.181,61.508,80.526,62.067,77.792,62.114z"/>
		</g>
	</g>
	<g>
		<g>
			<path fill="#8A997F" d="M100.521,57.404c2.895-0.477,5.857-1.191,8.801-1.292c0.775-0.027,1.014,0.948,0.383,1.331
				c-0.072,0.044-0.149,0.08-0.222,0.122c1.632-0.606,3.173-1.413,4.453-2.188c-1.398,2.148-3.222,3.413-5.377,4.12
				c-1.157,0.063-2.324,0.049-3.485-0.078c0,0-0.001,0-0.002,0c-0.597-0.066-1.192-0.154-1.781-0.263
				c-1.297-0.241-2.468-0.786-3.584-1.212C99.911,57.668,100.193,57.459,100.521,57.404z"/>
		</g>
	</g>
	<g>
		<g>
			<path fill="#8A997F" d="M96.277,45.432c0.935,3.085-0.644,5.489-2.422,7.791c-2.038,2.639-4.555,5.429-8.072,5.337
				c-0.652-0.017-0.734-0.908-0.373-1.276c2.023-2.065,4.432-3.437,6.266-5.758c1.19-1.506,3.83-4.034,4.146-6.034
				C95.857,45.275,96.198,45.172,96.277,45.432L96.277,45.432z"/>
		</g>
	</g>
	<g>
		<g>
			<path fill="#8A997F" d="M122.208,29.969c-1.002,0.439-1.335,1.739-1.927,2.614c-0.255,0.377-0.432,0.767-0.574,1.208
				c-0.081,0.253-0.136,0.533-0.292,0.75c-0.071,0.099-0.631,0.729-0.395,0.38c-0.393,0.578-1.373,0.49-1.641-0.231
				c-0.309-0.832-0.432-1.293-0.144-2.138c0.233-0.684,0.611-1.358,1.066-1.897c1.026-1.216,2.381-0.99,3.814-1.006
				C122.286,29.648,122.382,29.893,122.208,29.969L122.208,29.969z"/>
		</g>
	</g>
	<g>
		<g>
			<path fill="#8A997F" d="M116.438,86.42c-2.506-1.641-4.598-2.443-6.068-5.236c-1.002-1.903-2.437-4.365-1.185-6.325
				c0.564-0.882,1.682-0.319,1.928,0.55c1.145,4.048,2.384,7.913,5.361,10.973C116.497,86.405,116.462,86.436,116.438,86.42
				L116.438,86.42z"/>
		</g>
	</g>
	<g>
		<path fill="#556543" d="M44.064,82.262c0.701,0.147,1.384,0.248,2.06,0.335c-1.383,1.315-2.738,2.711-4.06,4.224
			c-3.081,3.524-5.769,7.365-8.531,11.155c-1.98,0.044-3.97,0-5.864-0.244c-1.637-0.337-3.259-0.841-4.875-1.413
			c-1.228-0.722-2.416-1.525-3.691-2.145c-0.249-0.121-0.506-0.221-0.757-0.335c0.883-0.587,1.736-1.225,2.53-1.957
			c0.758-0.676,1.467-1.415,2.14-2.201c2.011-2.263,3.807-4.826,5.563-7.33c2.091-1.321,4.452-2.212,6.952-2.289
			C38.637,79.966,41.087,81.635,44.064,82.262z"/>
	</g>
	<g>
		<g>
			<path fill="#556543" d="M37.816,63.565c2.471,2.129,4.944,4.784,7.749,6.408c2.579,1.494,5.592,1.337,8.219,2.804
				c0.967,0.539,1.79,1.209,2.549,1.934c-4.578,2.87-8.859,6.273-12.872,10.575c-6.141-2.862-9.39-10.44-11.653-16.755
				C30.474,64.805,34.428,60.646,37.816,63.565z"/>
		</g>
	</g>
	<g>
		<g>
			<path d="M51.961,70.517c1.569,0.658,2.969,1.79,4.315,2.847c0.345,0.271,0.654,0.534,0.939,0.794
				c-1.7,1.032-3.356,2.142-4.976,3.33c-0.038-0.027-0.077-0.056-0.115-0.083c-2.823-2.009-3.985-4.554-6.168-7.17
				c-0.52-0.623,0.152-1.469,0.831-1.198C48.487,69.715,50.289,69.816,51.961,70.517z"/>
		</g>
	</g>
	<g>
		<g>
			<path d="M48.988,80.036c-1.019,0.855-2.022,1.751-3.009,2.696c-1.541-0.065-3.083-0.105-4.622-0.184
				C35.339,82.241,30.74,84.988,26.07,88.5c-0.279,0.21-0.683-0.16-0.465-0.467c3.026-4.267,6.071-10.209,11.732-10.654
				C41.087,77.084,45.126,78.461,48.988,80.036z"/>
		</g>
	</g>
	<g>
		<path fill="#FEF6EB" d="M19.012,13.223c0.386-0.615,0.855-1.146,1.349-1.648c1.801-0.656,3.68-0.788,5.426-1.42
			c1.559-0.015,3.099,0.119,4.445,0.386c0.419,0.083,0.709-0.24,0.795-0.622c0.065-0.291,0.14-0.575,0.215-0.859
			c2.856-2.704,4.873-5.737,8.633-7.44C41.543,0.865,43.797,0.263,46.064,0c0.592,0.225,1.212,0.463,1.91,0.716
			c0.51,0.185,0.994,0.318,1.471,0.433c0.845,0.454,1.705,0.895,2.602,1.282c0.435,0.512,0.829,0.991,1.154,1.389
			c0.194,0.238,0.565,0.405,0.844,0.253c1.953-1.069,3.805-1.551,5.962-1.641c1.174,0.182,2.317,0.502,3.432,1.184
			c1.928,1.181,3.317,3.246,4.513,5.18c1.26,2.038,1.698,4.417,3.477,5.906c1.933,1.618,4.346,2.589,6.256,4.275
			c0.128,0.113,0.237,0.242,0.36,0.36c0.445,0.544,0.923,1.07,1.43,1.579c0.811,1.027,1.53,2.132,2.224,3.269
			c1.509,2.473,3.386,4.855,4.632,7.479c0.376,0.792,0.69,1.583,1.036,2.359c0.408,1.577,0.697,3.165,0.958,4.851
			c-0.344,1.338-0.719,2.831-0.867,3.27c-1.216,3.608-2.668,7.1-4.164,10.577c-0.94,2.184-1.893,4.361-2.897,6.511
			c-0.042,0.089-0.111,0.238-0.193,0.412c-0.425,0.702-1.57,2.809-1.913,3.33c-0.376,0.572-0.769,1.239-1.184,1.917
			c-0.943,0.367-1.759,0.67-1.933,0.738c-6.017,2.362-11.602,4.814-16.812,7.853c-1.28-0.516-2.528-1.114-3.735-1.802
			c-2.886,0.941-5.836,1.611-8.664,2.011c-10.9,1.54-19.644-3.727-25.108-11.668c0.046-1.764-0.263-3.504-0.27-5.294
			c-0.002-0.451-0.316-0.949-0.815-0.867c-2.101,0.348-5.925-6.657-6.751-7.997c-0.173-0.281-0.317-0.558-0.477-0.837
			c-1.58-5.168-2.041-11.175-2.051-15.138c-0.004-1.538,0.149-2.875,0.41-4.087c1.153-1.479,2.378-2.873,3.984-4.099
			c1.059-0.808,1.398-0.797,1.733-2.125C17.348,18.685,17.385,15.815,19.012,13.223z"/>
	</g>
	<g>
		<path fill="#F2D4D3" d="M49.046,42.799c2.121-4.29,3.967-8.638,7.402-11.93c6.525-6.253,15.689-7.949,24.067-4.114
			c5.779,2.646,4.661,9.98,0.387,12.022c0.018,0.042,0.036,0.084,0.054,0.126c-7.275,2.007-10.879,3.907-15.354,10.175
			c-3.735,5.231-7.349,9.319-13.246,11.941c-8.059,3.584-22.651,0.464-21.144-11.554c0.313-2.492,3.108-4.874,5.615-3.416
			c3.122,1.817,6.235,4.353,10.151,0.978C47.833,46.293,48.512,43.879,49.046,42.799z"/>
	</g>
	<g>
		<g>
			<path fill="#F2D4D3" d="M19.012,13.223c0.386-0.615,0.855-1.146,1.349-1.648c1.801-0.656,3.681-0.788,5.426-1.42
				c1.559-0.015,3.099,0.119,4.445,0.386c0.419,0.083,0.709-0.24,0.795-0.622c0.065-0.291,0.14-0.575,0.215-0.859
				c2.856-2.704,4.873-5.737,8.633-7.44C41.543,0.865,43.797,0.263,46.064,0c0.592,0.225,1.212,0.463,1.91,0.716
				c0.508,0.184,0.989,0.315,1.464,0.429c0.847,0.455,1.709,0.898,2.609,1.286c0.434,0.512,0.829,0.99,1.154,1.388
				c0.194,0.238,0.565,0.405,0.844,0.253c0.263-0.144,0.521-0.246,0.781-0.37c0.61,0.557,1.199,1.15,1.743,1.811
				c3.734,4.539,7.115,15.003,0.401,18.019c-5.717,2.568-12.35,0.719-18.109,3.653c-3.133,1.596-6.393,1.885-8.793,4.652
				c-2.683,3.092-3.066,7.378-4.935,10.958c-0.748,1.433-2.772,1.068-3.681,0.001c-4.522-5.309-5.289-14.616-4.819-21.286
				C17.347,18.638,17.399,15.794,19.012,13.223z"/>
		</g>
	</g>
	<g>
		<g>
			<path fill="#F2DDCC" d="M60.007,2.431c1.174,0.182,2.317,0.502,3.432,1.184c1.928,1.181,3.317,3.246,4.513,5.18
				c1.26,2.038,1.698,4.417,3.477,5.906c1.933,1.618,4.346,2.589,6.256,4.275c0.172,0.152,0.32,0.323,0.482,0.482
				c0.404,0.486,0.824,0.963,1.279,1.42c0.269,0.339,0.532,0.684,0.781,1.04c-2.978,3.346-9.049,3.835-11.931-0.461
				c-3.073-4.581-5.133-10.191-9.786-13.351c-1.873-1.272-3.907-1.974-5.029-4.073c0.182,0.095,0.39,0.134,0.566,0.038
				C55.998,3.004,57.85,2.521,60.007,2.431z"/>
		</g>
	</g>
	<g>
		<g>
			<path fill="#BF9486" d="M39.899,37.138c-2.331-5.414,5.547-8.849,7.882-3.426C50.111,39.126,42.233,42.561,39.899,37.138
				L39.899,37.138z"/>
		</g>
	</g>
	<g>
		<path fill="#BF9486" d="M41.173,39.374c-0.632-1.468-0.568-2.8-0.08-3.881c-2.336,0.835-5.205,0.14-6.553-2.992
			c-2.557-5.941,5.006-9.917,8.58-5.771c1.757-3.281,7.209-4.165,9.208,0.478c1.546,3.592-0.73,6.441-3.5,7.098
			c0.325,0.386,0.625,0.822,0.859,1.368C52.206,41.521,43.695,45.232,41.173,39.374z M44.075,32.953
			c0.026-0.008,0.05-0.018,0.076-0.025c-0.013-0.015-0.027-0.029-0.041-0.043C44.098,32.908,44.087,32.931,44.075,32.953z"/>
	</g>
	<g>
		<g>
			<path fill="#FFF7F2" d="M76.679,6.722c2.44,2.043,5.487,3.269,7.899,5.398c0.185,0.163,0.342,0.348,0.517,0.517
				c0.537,0.651,1.107,1.285,1.715,1.896c1.036,1.307,1.952,2.713,2.835,4.161c1.175,1.926,2.512,3.816,3.745,5.753
				c1.081,3.942,1.417,8.053,0.854,11.857c-0.736,4.973-2.508,10.74-5.863,14.365c-3.855,4.165-8.464,2.567-13.24,4
				c-2.237,0.671-4.743-1.833-3.144-4.089c1.477-2.084-0.693-4.953-0.818-7.369c-0.154-2.966,0.299-5.158-0.352-8.185
				c-1.526-7.094-5.391-13.377-4.841-20.787c0.372-5.004,5.13-9.036,9.962-8.235C76.173,6.257,76.412,6.499,76.679,6.722z"/>
		</g>
	</g>
	<g>
		<g>
			<path fill="#614839" d="M41.42,38.571c-0.083-0.242-0.165-0.484-0.248-0.726c0.62,0.004,1.24,0.008,1.86,0.012
				c-0.556,1.869-3.358,2.787-3.872,0.348c-0.157-0.744,0.311-1.54,0.945-1.814c0.215-0.093,0.43-0.185,0.645-0.278
				c0.502-0.217,1.123-0.143,1.574,0.221c0.114,0.092,0.228,0.184,0.342,0.276c0.617,0.499,0.543,1.504-0.157,1.814
				c-0.235,0.104-0.471,0.208-0.706,0.312C41.669,38.795,41.473,38.726,41.42,38.571L41.42,38.571z"/>
		</g>
	</g>
	<g>
		<g>
			<path fill="#614839" d="M36.234,33.479c-0.285-0.015-0.571-0.03-0.856-0.045c-1.769-0.093-2.574-2.512-1.654-3.843
				c0.956-1.384,3.316-1.193,3.964,0.558c0.102,0.276,0.204,0.551,0.306,0.827C38.507,32.361,37.584,33.55,36.234,33.479
				L36.234,33.479z"/>
		</g>
	</g>
	<g>
		<path fill="#614839" d="M41.348,21.133c0.206-0.296,0.372-0.507,0.408-0.535c0.503-0.376,1.144-0.427,1.742-0.224
			c1.732-0.649,3.64-0.334,5.473,0.926c2.139,0.595,3.947,2.239,4.122,5.151c0.093,1.546-1.716,1.808-2.545,0.636
			c-0.324-0.459-0.682-1.105-1.099-1.652c-0.084-0.022-0.161-0.02-0.248-0.057c-0.571-0.242-1.078-0.551-1.583-0.892
			c-1.12-0.323-2.138,0.103-2.974,0.935c-0.321,0.319-0.692,0.448-1.071,0.439c-0.816,0.964-1.557,1.799-3.081,1.525
			c-0.599-0.108-1.111-0.696-1.367-1.355c-1.132,0.731-2.354,1.286-3.705,1.336c-0.458,0.017-0.893-0.561-0.753-1.076
			c0.67-2.461,2.466-4.18,4.116-5.686C39.587,19.87,40.653,20.244,41.348,21.133z"/>
	</g>
	<g>
		<g>
			<path fill="#BF9486" d="M58.59,36.107c0.256,4.6-3.908,10.64-7.469,12.81c-3.851,2.348-10.799,2.916-12.679-2.822
				c-0.489-1.494,0.64-2.662,2.056-2.227c3.674,1.128,5.785,0.604,9.123-1.301c3.507-2.001,6.272-2.388,8.287-6.561
				C58.045,35.722,58.567,35.694,58.59,36.107L58.59,36.107z"/>
		</g>
	</g>
	<g>
		<g>
			<path fill="#BF9486" d="M53.823,24.65c-3.391,0.029-6.338-3.373-9.688-4.076c-5.788-1.214-9.397,1.343-11.621,6.61
				c-0.245,0.579-1.211,0.551-1.278-0.188c-0.537-5.963,5.065-11.267,10.382-11.937c4.166-0.525,14.245,3.445,12.377,9.45
				C53.973,24.58,53.897,24.65,53.823,24.65L53.823,24.65z"/>
		</g>
	</g>
	<g>
		<g>
			<path fill="#BF9486" d="M62.927,39.46c2.064-1.74,0.324-10.748-0.251-13.247c-1.043-4.536-3.141-8.207-6.783-11.021
				c-0.479-0.37-0.34-1.297,0.292-1.325c11.601-0.502,16.498,19.873,8.05,26.278c-0.213,0.162-0.567,0.206-0.793,0
				c-0.169-0.155-0.338-0.309-0.506-0.464C62.871,39.62,62.858,39.518,62.927,39.46L62.927,39.46z"/>
		</g>
	</g>
	<g>
		<g>
			<path fill="#F2DDCC" d="M20.632,57.758c0.293-2.51,1.287-5.142,3.121-7.814c0.696-1.014,2.504-0.609,2.638,0.752
				c0.295,3.004,0.041,6.417,0.78,9.351c1.175,4.665,5.562,6.656,9.503,8.365c7.924,3.435,15.649,1.374,22.005-3.742
				c0.334-0.269,0.953,0.127,0.735,0.575c-4.893,10.057-16.084,12.887-26.132,9.201c-6.605-2.423-11.251-6.93-12.43-12.391
				C20.892,60.62,20.718,59.2,20.632,57.758z"/>
		</g>
	</g>
	<g>
		<g>
			<path fill="#FFF7F2" d="M61.238,37.523c2.959,7.803-7.761,23.729-15.754,16.192c-0.858-0.809-0.958-1.992-0.118-2.793
				c1.216-1.161,2.477-1.396,4.02-1.895c2.31-0.746,4.03-1.901,5.738-3.663c1.185-1.222,2.417-2.585,3.338-4.034
				c0.875-1.377,1.26-2.782,2.398-3.914C60.97,37.308,61.182,37.376,61.238,37.523L61.238,37.523z"/>
		</g>
	</g>
	<g>
		<g>
			<path fill="#FFF7F2" d="M55.306,26.542c-0.878-1.41-1.211-2.686-1.723-4.264c-0.707-2.177-2.069-3.983-3.583-5.655
				c-1.047-1.155-2.699-3.082-4.139-3.681c-1.753-0.729-4.065,0.108-5.845,0.288c-0.72,0.073-1.114-0.743-0.781-1.337
				c3.374-6.017,9.916-7.139,15.023-2.125c3.401,3.339,10.187,14.813,2.618,17.213C56.37,27.142,55.646,27.088,55.306,26.542
				L55.306,26.542z"/>
		</g>
	</g>
	<g>
		<g>
			<path fill="#FFF7F2" d="M46.762,21.053c-0.117-0.003-0.239,0.012-0.358,0.015c-7.116-1.747-15.565,7.259-14.78,14.758
				c-0.166-0.019-0.326-0.12-0.396-0.294c-2.127-5.287-0.245-11.628,3.667-15.166C37.713,17.816,44.852,16.012,46.762,21.053z"/>
		</g>
	</g>
	<g>
		<g>
			<path fill="#614839" d="M43.337,24.318c-1.088,1.072-2.552,1.787-3.472,0.088c-0.357-0.66-0.075-1.564,0.431-1.996
				c0.788-0.673,1.261-0.801,2.28-0.694C43.861,21.852,44.137,23.528,43.337,24.318L43.337,24.318z"/>
		</g>
	</g>
	<g>
		<path fill="#FEF6EB" d="M13.235,68.815c3.907,1.273,9.68,6.189,9.494,10.969c0.575,1.099,1.038,2.303,1.33,3.628
			c0.625,2.839-2.369,5.364-4.898,4.677c-0.578,0.629-1.331,1.058-2.206,1.086c-0.35,0.011-0.697-0.013-1.046-0.024
			c0,0.004,0,0.007,0,0.01c-0.047-0.001-0.093-0.012-0.14-0.014c-0.956-0.039-1.902-0.159-2.831-0.367
			c-0.929,0.186-1.934,0.149-2.948-0.133c-2.538-0.706-4.301-2.693-5.346-5.062c-0.11-0.14-0.233-0.261-0.339-0.406
			c-0.08-0.11-0.153-0.228-0.23-0.343c-0.923-0.203-1.77-0.708-2.286-1.54c-1.047-1.685-1.406-3.322-1.218-4.802
			c-0.111-0.96,0.025-1.955,0.484-2.824C3.339,69.345,8.617,67.31,13.235,68.815z"/>
	</g>
	<g>
		<g>
			<path fill="#556543" d="M26.187,83.668c0.098-0.124,0.129-0.254,0.133-0.38c0.251-0.092,0.503-0.183,0.746-0.285
				c0.242-0.102,0.439,0.194,0.314,0.409c-1.298,2.236-2.567,3.691-5.036,4.427c-2.009,0.599-3.846,0.615-5.736-0.129
				C20.256,87.622,24.1,86.317,26.187,83.668z"/>
		</g>
	</g>
	<g>
		<g>
			<path fill="#556543" d="M22.71,76.043c1.505,0.238,2.517,0.939,3.632,2.006c0.548,0.524,1.144,1.027,1.611,1.635
				c0.235,0.369,0.46,0.745,0.675,1.126c0.099,0.315,0.16,0.515,0.204,0.662c0.288,0.393,0.397,0.901,0.351,1.385
				c-0.384,0.394-0.77,0.782-0.937,1.365c-0.012,0.042-0.009,0.079-0.015,0.119c-2.407,1.671-4.581,0.778-6.753-1.299
				c-0.146-0.139-0.265-0.309-0.39-0.471c-1.349-2.398-3.042-5.009-5.587-5.562c0.027-0.036,0.046-0.077,0.082-0.109
				C17.849,74.964,19.954,75.607,22.71,76.043z"/>
		</g>
	</g>
	<g>
		<g>
			<path fill="#F2D4D3" d="M0.75,76.513c-1.759-2.752,1.939-6.349,3.92-7.438c2.725-1.498,7.218-0.529,9.673,1.465
				c0.6,0.487,0.222,1.391-0.481,1.336c-1.655-0.129-3.494-0.781-5.089-0.163c-1.56,0.604-2.782,2.119-3.975,3.245
				C4.29,75.438,1.572,77.799,0.75,76.513L0.75,76.513z"/>
		</g>
	</g>
	<g>
		<g>
			<path fill="#F2D4D3" d="M1.003,75.935c1.755,0.655,2.228,3.017,3.461,4.375c0.869,0.957,1.8,1.039,2.913,1.451
				c1.152,0.426,2.23,1.389,3.505,1.257c0.154-0.016,0.249,0.195,0.128,0.297c-0.958,0.809-1.606,0.774-2.837,0.454
				c-1.217-0.317-2.498-0.393-3.611-1.074c-1.907-1.167-4.013-4.305-3.857-6.577C0.714,75.961,0.87,75.885,1.003,75.935
				L1.003,75.935z"/>
		</g>
	</g>
	<g>
		<g>
			<path fill="#F2DDCC" d="M17.502,88.914c-3.427,1.866-8.95,1.16-12.058-1.57c-2.81-2.469-6.192-8.447-5.298-12.255
				c0.149-0.636,0.933-0.321,1.071,0.158C3.4,82.82,9.844,88.518,17.477,88.754C17.563,88.757,17.563,88.88,17.502,88.914
				L17.502,88.914z"/>
		</g>
	</g>
	<g>
		<g>
			<path fill="#8A997F" d="M44.048,84.66c-5.028,1.056-10.256,3.39-14.234,6.349c-2.314,1.721-5.191,4.374-8.251,4.567
				c-0.806-0.496-1.614-0.99-2.46-1.402c-0.206-0.1-0.419-0.182-0.627-0.278c0.069-0.168,0.177-0.317,0.377-0.39
				c2.627-0.959,4.967-1.571,7.282-3.24c2.059-1.484,3.967-3.076,6.21-4.273c4.222-2.254,8.025-2.664,12.585-2.224
				C44.635,84.064,44.339,84.356,44.048,84.66z"/>
		</g>
	</g>
	<g>
		<g>
			<path fill="#8A997F" d="M27.39,82.178c-1.338,0.915-2.504,0.385-3.715-0.616c-0.706-0.584-1.364-1.121-2.22-1.433
				c-0.425-0.155-0.876-0.215-1.298-0.377c-0.523-0.2-0.951-0.549-1.5-0.69c-0.374-0.096-0.692-0.699-0.281-0.96
				c0.755-0.479,1.426-0.981,2.363-0.969c0.911,0.012,1.894,0.432,2.692,0.895c0.796,0.461,1.482,1.066,2.172,1.685
				c0.325,0.292,0.746,0.598,1.005,0.959c0.288,0.401,0.375,0.734,0.763,1.075C27.491,81.851,27.536,82.078,27.39,82.178
				L27.39,82.178z"/>
		</g>
	</g>
	<g>
		<path fill="#556543" d="M77.848,64.587c2.291,0.077,4.198,0.787,6.109,2.2c0.416,0.308,0.11,0.854-0.305,0.846
			c-1.582-0.029-2.972-0.364-4.317-1.002c2.188,3.484,4.608,6.751,6.805,10.225c0.368,0.582,0.699,1.254,1.019,1.964
			c2.277,3.101,3.693,7.185,7.152,8.527c1.9,0.737,1.119,3.598-0.759,3.413c-0.166-0.016-0.308-0.067-0.467-0.092
			c0.963,0.894,1.854,1.538,2.284,1.372c0.165-0.063,0.317,0.072,0.315,0.25c-0.029,2.466-3.897,0.912-5.044,0.23
			c-4.756-2.831-6.829-9.114-8.482-14.122c-0.27-0.818-0.034-1.563,0.444-2.008c-1.6-3.74-3.241-7.434-5.282-11.053
			C77.093,64.93,77.502,64.575,77.848,64.587z"/>
	</g>
	<g>
		<g>
			<path fill="#556543" d="M80.489,65.843c-0.843,0.205-2.09-0.271-2.831-0.712c-0.41-0.243-0.108-0.878,0.295-0.821
				c0.457,0.065,0.839,0.266,1.247,0.503c0.367,0.214,0.805,0.719,1.241,0.72C80.632,65.534,80.676,65.798,80.489,65.843
				L80.489,65.843z"/>
		</g>
	</g>
	<g>
		<g>
			<path d="M53.741,82.118c-2.417,0.978-5.034,1.228-7.647,0.885c-3.087-0.405-5.867-1.795-8.987-1.843
				c-0.249-0.004-0.286-0.404-0.078-0.489c2.447-0.996,5.348-1.816,8.013-1.427c2.992,0.437,5.786,1.549,8.684,2.456
				C53.911,81.758,53.903,82.053,53.741,82.118L53.741,82.118z"/>
		</g>
	</g>
	<g>
		<path d="M54.712,73.597c1.159-0.03,2.191,0.357,3.107,1c1.242,0.617,2.324,1.597,2.778,2.74c0.106,0.267,0.091,0.546,0.006,0.798
			c0.268,0.782,0.301,1.601-0.115,2.411c-0.352,0.685-1.282,0.476-1.713,0c-0.372-0.411-0.808-0.735-1.278-1.012
			c-0.926-0.262-1.855-0.537-2.732-0.938c-0.581-0.265-1.11-0.649-1.624-1.06c-0.116-0.069-0.237-0.131-0.348-0.207
			c-0.153-0.104-0.261-0.225-0.338-0.353c-0.268-0.219-0.537-0.435-0.812-0.633c-0.405-0.292-0.135-0.928,0.313-0.871
			c0.278,0.035,0.561,0.068,0.844,0.103c0.08-0.058,0.173-0.092,0.265-0.127c0.011-0.067,0.032-0.13,0.054-0.193
			c-0.057-0.331,0.028-0.677,0.308-0.854c0.148-0.093,0.321-0.137,0.483-0.202C54.034,73.865,54.301,73.608,54.712,73.597z"/>
	</g>
	<g>
		<path fill="#F2D4D3" d="M70.439,83.13c0.035-0.217,0.333-0.262,0.447-0.043c1.345,2.585,2.172,5.011,0.871,7.735
			c-0.617,1.291-1.706,2.616-3.013,3.459c-0.62,0.593-1.323,1.065-2.116,1.308c-3.313,1.013-5.423-2.915-5.258-5.896
			c0.186-3.362,2.402-6.384,5.278-7.691C68.386,81.212,69.674,81.889,70.439,83.13z"/>
	</g>
	<g>
		<path fill="#FEF6EB" d="M70.262,82.338c1.444,1.202,2.141,3.215,2.172,5.13c0.027,0.492-0.013,0.974-0.119,1.441
			c-0.021,0.122-0.032,0.249-0.059,0.367c-0.522,2.315-2.137,4.128-4.233,4.969c-1.709,0.685-3.494-1.978-1.831-3.105
			c0.237-0.161,0.481-0.328,0.722-0.503c-0.007-0.001-0.014,0-0.02-0.001c-1.413-0.217-1.993-1.635-1.787-2.956
			c0.249-1.599,1.23-3.285,2.679-3.676C67.535,82.657,68.942,81.239,70.262,82.338z"/>
	</g>
	<g>
		<g>
			<path fill="#556543" d="M69.35,78.098c-2.786,2.092-5.931,4.211-9.321,5.12c-1.798,0.482-3.68,0.307-5.515,0.586
				c-2.354,0.358-4.545,1.292-6.941,1.34c-0.316,0.006-0.645-0.481-0.3-0.696c2.201-1.365,4.613-1.751,7.203-1.888
				c2.876-0.152,5.173-0.016,7.908-1.053c2.413-0.915,4.673-2.176,6.86-3.543C69.33,77.91,69.435,78.034,69.35,78.098L69.35,78.098z
				"/>
		</g>
	</g>
	<g>
		<path fill="#556543" d="M47.53,76.571c0.133-0.105,0.288-0.19,0.496-0.216c1.228-0.153,2.389,0.105,3.547,0.47
			c1.306,0.121,2.646,0.554,3.848,0.954c0.247,0.082,0.408,0.247,0.526,0.438c1.281,0.306,2.501,0.767,3.601,1.645
			c0.213,0.17,0.334,0.434,0.382,0.71c0.6,0.019,1.199-0.012,1.795-0.121c1.651-0.3,3.28-1.08,4.857-1.878
			c2.185-1.713,3.613-3.854,4.938-6.29c0.046-0.281,0.083-0.564,0.131-0.844c0.408-2.386,0.62-5.237,1.799-7.322
			c0.141-0.25,0.517-0.103,0.562,0.16c0.418,2.457-0.422,5.205-1.006,7.551c-0.558,2.244-1.3,4.424-2.041,6.601
			c0.126,0.717,0.589,1.513,0.86,2.112c0.355,0.786,0.571,1.543,0.743,2.381c0.36,1.75,0.898,3.456,0.609,5.227
			c-0.056,0.34-0.598,0.509-0.721,0.093c-0.347-1.174-0.866-2.223-1.565-3.226c-0.262-0.376-0.529-0.717-0.779-1.065
			c-0.401,0.492-0.874,0.904-1.291,1.162c-0.394,0.243-1.065,0.013-0.976-0.583c0.148-0.988,0.513-2.349,1.235-3.198
			c-0.095-1.133,0.29-2.023,0.936-2.905c0.01-0.196,0.062-0.394,0.096-0.589c-0.633,0.723-1.383,1.374-2.292,1.938
			c-3.32,2.059-8.453,4.189-12.474,3.707c-0.269-0.032-0.279-0.46-0.015-0.492c1.386-0.169,2.704-0.475,3.993-0.855
			c-0.588,0.032-1.172-0.036-1.754-0.156c-0.903,0.172-1.795,0.401-2.735,0.363c-0.404-0.016-0.801-0.084-1.195-0.173
			c0.566,0.507,0.918,1.333,0.649,2.072c-1.755,4.822-5.836,7.709-9.869,10.342c-3.724,2.43-8.174,4.684-12.608,2.429
			c-0.147-0.075-0.191-0.333-0.014-0.393c0.819-0.279,1.688-0.587,2.587-0.925c-0.121,0.001-0.238,0.012-0.359,0.011
			c-2.204-0.019-2.693-3.017-0.552-3.563c0.89-0.227,1.741-0.546,2.575-0.903c-0.019-0.401,0.121-0.795,0.545-1.073
			c0.31-0.203,0.626-0.392,0.938-0.591c-0.091-0.428,0.012-0.878,0.442-1.185c0.719-0.513,1.452-1.014,2.193-1.503
			c-0.333-0.393-0.366-1.033,0.22-1.203c0.825-0.297,1.654-0.581,2.481-0.871c-2.849-0.169-5.699-0.268-8.549-0.368
			c-0.164-0.006-0.146-0.25-0.008-0.281c2.091-0.476,4.172-0.729,6.261-0.869c0.04-0.09,0.105-0.169,0.22-0.209
			c2.035-0.711,3.913-0.905,5.843-0.535c1.098-0.085,2.201-0.151,3.312-0.193c0.098-0.023,0.193-0.054,0.292-0.076
			c0.003,0.01,0.006,0.021,0.009,0.032c0.106-0.009,0.205-0.005,0.299,0.018c0.079-0.002,0.156-0.008,0.235-0.01
			c0.179-0.004,0.327,0.085,0.448,0.205c0.122-0.132,0.245-0.263,0.366-0.396c0.209-0.229,0.445-0.332,0.687-0.385
			c-0.264-0.107-0.525-0.224-0.782-0.351c-0.503-0.024-1.001-0.077-1.486-0.179c-1.683-0.358-2.975-1.889-4.508-2.676
			c-1.123-0.577-0.854-2.658,0.516-2.318C46.52,76.349,47.026,76.455,47.53,76.571z"/>
	</g>
	<g>
		<path fill="#FEF6EB" d="M87.154,46.145c0.233,7.906-3.039,15.016-8.299,19.807c-1.276,1.376-2.765,2.633-4.559,3.733
			c-2.791,1.71-17.221,8.625-18.057,1.359c-0.265-2.309,3.138-2.752,3.406-0.424c0.021,0.186,1.065,0.008,2.43-0.31
			c0.004-0.75,0.413-1.489,1.353-1.706c0.353-0.082,0.695-0.173,1.042-0.26c-0.112-0.845,0.307-1.776,1.34-2.038
			c2.966-0.751,7.01-2.054,8.927-4.637c0.236-0.318,0.74-0.105,0.712,0.308c-0.008,0.116-0.055,0.215-0.07,0.328
			c0.432-0.536,0.839-1.117,1.218-1.752c0.572-0.956,1.746-0.805,2.5-0.18c1.218-1.73,2.186-3.6,2.95-5.579
			c1.049-3.019,1.653-6.232,2.436-9.417c0.013,0.006,0.026,0.011,0.039,0.017C85.068,43.97,87.104,44.439,87.154,46.145z"/>
	</g>
	<g>
		<g>
			<path fill="#BF9486" d="M35.781,29.689c-0.299-1.865,2.833-3.74,3.913-1.8c1.107,1.989-2.574,1.764-3.519,2.037
				C36.004,29.975,35.814,29.897,35.781,29.689L35.781,29.689z"/>
		</g>
	</g>
	<g>
		<g>
			<path fill="#BF9486" d="M42.308,22.469c-0.315,0.014-0.602-0.103-0.91-0.094c-0.103,0.003-0.629,0.164-0.4,0.064
				c0.151-0.071,0.079-0.023-0.216,0.143c-0.146,0.04-0.293,0.081-0.44,0.12c0.175-0.076,0.35-0.152,0.525-0.228
				c-0.118,0.121-0.222,0.241-0.361,0.337c-0.477,0.328-1.004,0.166-1.296-0.363c-0.302-0.548-0.178-1.391,0.136-1.877
				c0.434-0.671,1.165-1.074,1.968-0.941c0.68,0.113,1.329,0.641,1.583,1.323C43.096,21.484,43.001,22.439,42.308,22.469
				L42.308,22.469z"/>
		</g>
	</g>
	<g>
		<g>
			<path fill="#BF9486" d="M36.988,26.554c-0.47,0.448-1.116,0.656-1.662,0.995c-0.462,0.288-0.894,0.722-1.385,0.941
				c-0.339,0.151-0.793,0.093-0.991-0.306c-0.483-0.973-0.053-2.184,0.609-2.888c0.804-0.856,2.061-1.262,3.161-0.702
				C37.413,24.948,37.501,26.064,36.988,26.554L36.988,26.554z"/>
		</g>
	</g>
	<g>
		<g>
			<path fill="#FFF7F2" d="M33.551,11.673c-2.228,1.129-4.37,0.99-6.642,1.824c-2.805,1.03-4.772,4.051-6.268,6.604
				c-0.257,0.438-0.992,0.111-0.914-0.396c0.518-3.365,1.496-6.323,4.335-8.166c3.041-1.974,6.257-1.694,9.478-0.158
				C33.665,11.44,33.668,11.614,33.551,11.673L33.551,11.673z"/>
		</g>
	</g>
	<g>
		<g>
			<path fill="#EFE0A0" d="M43.388,27.021c0.03-0.006,0.061-0.013,0.091-0.02c0.142-0.031,0.2,0.202,0.058,0.232
				c-0.03,0.007-0.061,0.013-0.091,0.02C43.305,27.284,43.247,27.052,43.388,27.021L43.388,27.021z"/>
		</g>
	</g>
	<g>
		<g>
			<path fill="#E0D053" d="M36.391,25.441c0.671-0.251,1.257-0.202,1.942,0.182c0.767,0.43,1.362,1.237,1.272,2.171
				c-0.076,0.785-0.783,1.624-1.646,1.237c-0.317-0.142-0.561-0.266-0.822-0.493c-0.287-0.25-0.469-0.575-0.659-0.904
				c-0.105-0.181-0.222-0.354-0.311-0.544c-0.085-0.181-0.14-0.451-0.207-0.595C35.741,26.022,35.959,25.602,36.391,25.441
				L36.391,25.441z"/>
		</g>
	</g>
	<g>
		<g>
			<path fill="#E0D053" d="M41.221,22.224c-0.02-0.117-0.04-0.229-0.023-0.346c0.008-0.053,0.133-0.361,0.06-0.192
				c0.112-0.259,0.25-0.44,0.515-0.536c0.458-0.164,1.034,0.123,1.414,0.419c1.004,0.781,1.603,2.247,1.11,3.457
				c-0.218,0.536-0.547,0.922-1.144,0.977c-0.523,0.048-1.117-0.242-1.368-0.764c-0.154-0.32-0.311-0.645-0.393-0.992
				c-0.049-0.205-0.062-0.421-0.081-0.629c-0.006-0.067-0.012-0.134-0.015-0.202c0.023,0.155,0.026,0.177,0.008,0.064
				c-0.087-0.54-0.029-1.049-0.073-1.585c0.033,0.132,0.066,0.265,0.099,0.397c-0.005-0.008-0.01-0.015-0.014-0.023
				c0.311,0.104,0.622,0.208,0.932,0.311c-0.021,0.014-0.043,0.028-0.064,0.042c0.105-0.136,0.209-0.271,0.314-0.407
				c-0.004,0.024-0.008,0.048-0.012,0.072C42.375,22.945,41.334,22.882,41.221,22.224L41.221,22.224z"/>
		</g>
	</g>
	<g>
		<g>
			<path fill="#E0D053" d="M48.086,22.995c0.34,0.893,0.285,1.927-0.208,2.706c-0.281,0.444-0.855,0.715-1.374,0.515
				c-0.468-0.18-0.966-0.711-0.898-1.273c0.042-0.352,0.077-0.652,0.214-0.979c0.062-0.152,0.077-0.187,0.044-0.104
				c0.053-0.128,0.105-0.255,0.158-0.383c0.173-0.354,0.41-0.649,0.65-0.954c0.179-0.228,0.558-0.27,0.818-0.183
				C47.808,22.446,47.97,22.689,48.086,22.995L48.086,22.995z"/>
		</g>
	</g>
	<g>
		<g>
			<path fill="#E0D053" d="M41.901,28.747c-0.004-0.055-0.007-0.111-0.011-0.166c0.06,0.157,0.12,0.313,0.18,0.47
				c0.051,0.061-0.306-0.153-0.405-0.204c-0.369-0.188-0.729-0.375-1.07-0.62c-0.64-0.46-1.24-0.947-1.724-1.586
				c-0.923-1.216,0.239-2.713,1.554-1.991c1.366,0.75,3.88,2.943,2.441,4.565C42.516,29.61,41.932,29.219,41.901,28.747
				L41.901,28.747z"/>
		</g>
	</g>
	<g>
		<g>
			<path fill="#E0D053" d="M40.073,31.028c-0.705,0.443-1.513,0.42-2.325,0.301c-1.012-0.148-1.99-0.325-2.901-0.864
				c-1.394-0.825-0.671-3.017,0.79-2.969c1.649,0.053,4.068,1.201,4.671,2.956C40.385,30.679,40.247,30.918,40.073,31.028
				L40.073,31.028z"/>
		</g>
	</g>
	<g>
		<g>
			<path fill="#E0D053" d="M50.341,24.049c1.038,1.105,1.161,2.889,0.372,4.099c-0.923,1.414-3.038,0.715-3.116-1.04
				c-0.024-0.538,0.026-1.082,0.168-1.595c0.034-0.123,0.406-1.058,0.211-0.578c0.103-0.253,0.203-0.495,0.338-0.728
				C48.747,23.464,49.749,23.418,50.341,24.049L50.341,24.049z"/>
		</g>
	</g>
	<g>
		<g>
			<path fill="#E0D053" d="M35.079,33.254c0.498-0.267,1.062-0.308,1.607-0.419c0.564-0.115,1.115-0.267,1.666-0.43
				c1.282-0.379,1.883,1.559,0.853,2.219c-1.165,0.746-3.203,1.021-4.289-0.174C34.586,34.086,34.669,33.475,35.079,33.254
				L35.079,33.254z"/>
		</g>
	</g>
	<g>
		<g>
			<path fill="#614839" d="M51.867,33.82c0.941,2.195-0.087,4.723-2.129,5.625c-1.087,0.48-2.298-0.71-1.666-1.855
				c0.736-1.333,2.391-2.099,2.723-3.679C50.898,33.42,51.657,33.33,51.867,33.82L51.867,33.82z"/>
		</g>
	</g>
	<g>
		<g>
			<path fill="#614839" d="M52.354,35.249c-1.559,2.111-3.479,3.877-5.331,5.69c-0.247-0.646-0.494-1.292-0.742-1.937
				c0.815,0.023,1.548-0.218,2.199-0.722c0.47,0.675,0.941,1.35,1.411,2.026c-3.583,2.321-9.611,5.793-12.646,0.279
				c-0.73-1.326,0.756-2.725,1.965-1.924c1.582,1.047,3.039,1.683,4.902,1.274c1.697-0.373,3.246-1.386,4.89-1.941
				c1.266-0.427,2.065,1.719,0.889,2.312c-1.197,0.604-2.25,0.926-3.608,0.915c-1.27-0.01-1.346-1.836-0.274-2.194
				c2.402-0.802,4.101-2.382,5.747-4.298C52.037,34.401,52.616,34.895,52.354,35.249L52.354,35.249z"/>
		</g>
	</g>
	<g>
		<g>
			<path fill="#BF9486" d="M46.847,34.671c0.069,0.009,0.139,0.018,0.209,0.027c-0.236,0.178-0.472,0.355-0.708,0.533
				c0.487-1.197,0.799-2.584,1.163-3.848c0.669-2.323,4.55-1.836,4.277,0.8c-0.301,2.903-1.891,5.788-4.155,7.456
				c-1.913,1.409-6.061,2.114-6.809-1.231c-0.146-0.653,0.102-1.506,0.725-1.778c1.27-0.553,2.67-0.097,3.755-1.072
				c1.115-1.002,1.981-2.651,2.207-4.175c1.4,0.467,2.799,0.934,4.199,1.402c-0.489,1.451-1.5,3.031-2.992,3.498
				c-0.862,0.27-1.882,0.221-2.416-0.654C46.052,35.22,46.386,34.612,46.847,34.671L46.847,34.671z"/>
		</g>
	</g>
	<g>
		<g>
			<path fill="#E0D053" d="M50.202,29.184c0.594,0.552,0.723,1.525,0.625,2.278c-0.135,1.039-0.547,1.725-1.355,2.312
				c-0.488,0.355-1.281,0.151-1.712-0.225c-0.516-0.449-0.645-1.062-0.541-1.713c0.162-1.018,0.891-2.388,1.771-2.888
				C49.404,28.715,49.861,28.867,50.202,29.184L50.202,29.184z"/>
		</g>
	</g>
	<g>
		<g>
			<path fill="#614839" d="M49.704,31.063c0.545-0.841,1.378,0.108,1.645,0.726c0.55,1.274,0.387,2.629-0.486,3.625
				c-0.77,0.879-2.07-0.189-1.843-1.222c0.107-0.488,0.281-0.929,0.439-1.396c0.077-0.226,0.144-0.442,0.229-0.666
				c0.038-0.099,0.072-0.199,0.102-0.302c-0.004-0.229,0.08-0.258,0.251-0.085c0.122-0.01,0.244-0.021,0.366-0.031
				c-0.029,0.012-0.059,0.023-0.088,0.035C49.94,31.899,49.429,31.486,49.704,31.063L49.704,31.063z"/>
		</g>
	</g>
	<g>
		<g>
			<path fill="#614839" d="M43.991,37.215c0.478,0.326,1.026,0.341,1.569,0.338c0.382-0.002,0.722,0.359,0.764,0.743
				c0.048,0.436-0.194,0.726-0.564,0.864c-0.921,0.345-1.944-0.135-2.584-0.901C42.682,37.667,43.33,36.764,43.991,37.215
				L43.991,37.215z"/>
		</g>
	</g>
	<g>
		<g>
			<path fill="#614839" d="M41.705,38.352c-0.045-0.258,0.281-0.147,0.521-0.171c0.246-0.025,0.492-0.057,0.731-0.114
				c0.527-0.126,1.021-0.314,1.561-0.396c1.169-0.177,1.91,1.211,1.119,2.11c-0.832,0.945-2.251,1.088-3.419,0.666
				c-0.826-0.298-2.078-1.103-1.777-2.158C40.614,37.683,41.583,37.648,41.705,38.352L41.705,38.352z"/>
		</g>
	</g>
	<g>
		<g>
			<path fill="#614839" d="M36.844,36.117c-0.261-0.262,0.462,0.223,0.555,0.272c0.205,0.108,0.416,0.214,0.627,0.308
				c0.483,0.216,0.969,0.402,1.448,0.63c0.539,0.256,0.956,0.705,0.956,1.355c0,0.559-0.405,1.203-0.966,1.271
				c-1.134,0.138-2.122-0.159-3.028-0.958c-0.609-0.538-1.469-1.665-1.125-2.536C35.575,35.796,36.294,35.565,36.844,36.117
				L36.844,36.117z"/>
		</g>
	</g>
	<g>
		<g>
			<path fill="#E0D053" d="M45.965,30.133c1.872,1.329,1.903,4.923,0.272,6.289c-0.84,0.703-2.239,0.397-2.529-0.844
				c-0.236-1.01-0.079-1.873,0.12-2.854c0.159-0.787,0.291-1.65,0.769-2.291C44.914,30.006,45.469,29.78,45.965,30.133
				L45.965,30.133z"/>
		</g>
	</g>
	<g>
		<g>
			<path fill="#E0D053" d="M39.316,34.494c-0.015-0.021-0.03-0.043-0.046-0.064c0.226,0.076,0.453,0.151,0.679,0.227
				c-0.032,0.006-0.063,0.012-0.095,0.018c0.147-0.359,0.293-0.719,0.44-1.078c-0.375-0.316-0.366-0.403,0.027-0.263
				c0.172,0.052,0.346,0.096,0.521,0.133c0.23,0.057,0.46,0.112,0.692,0.159c0.658,0.133,1.294,0.257,1.939,0.464
				c1.225,0.392,1.189,2.269-0.009,2.556c-1.147,0.274-2.212,0.024-3.245-0.626c-0.756-0.476-1.631-1.274-1.398-2.267
				c0.135-0.577,0.742-0.694,1.2-0.45c-0.022-0.018-0.044-0.035-0.066-0.053c0.231,0.062,0.436,0.299,0.489,0.538
				c0.006,0.026,0.012,0.053,0.017,0.079C40.602,34.506,39.759,35.116,39.316,34.494L39.316,34.494z"/>
		</g>
	</g>
	<g>
		<g>
			<path fill="#E0D053" d="M40.435,37.464c-1.276,0.307-2.476,0.718-3.824,0.642c-1.535-0.086-1.699-2.267-0.193-2.485
				c1.326-0.191,2.581,0.115,3.898,0.309C41.052,36.04,41.144,37.294,40.435,37.464L40.435,37.464z"/>
		</g>
	</g>
	<g>
		<g>
			<path fill="#E0D053" d="M41.462,36.963c0.864-0.805,2.406-0.63,3.486-0.409c1.148,0.235,0.999,2.045-0.008,2.274
				c-0.547,0.124-1.086,0.186-1.652,0.143c-0.545-0.042-1.197-0.076-1.65-0.452C41.17,38.131,40.979,37.413,41.462,36.963
				L41.462,36.963z"/>
		</g>
	</g>
	<g>
		<g>
			<path fill="#E0D053" d="M41.283,29.989c0.012-0.002,0.024-0.005,0.037-0.007c0.141-0.248,0.282-0.496,0.423-0.744
				c0.02,0.08,0.091,0.301,0.065,0.355c0.009-0.019-0.007-0.107-0.022-0.123c-0.338-0.364,0.086-0.027,0.192,0.058
				c0.39,0.314,0.71,0.762,0.66,1.293c-0.046,0.493-0.372,0.906-0.881,0.883c-0.494-0.023-0.862-0.462-0.882-0.963
				c0.196,0.368,0.226,0.469,0.09,0.302c-0.039-0.046-0.081-0.09-0.125-0.13c-0.067-0.065-0.134-0.124-0.196-0.195
				c-0.229-0.264-0.372-0.581-0.385-0.933c-0.027-0.732,0.48-1.211,1.179-0.99C42.065,28.993,41.951,30.059,41.283,29.989
				L41.283,29.989z"/>
		</g>
	</g>
	<g>
		<g>
			<path fill="#FFF7F2" d="M47.986,24.82c0.063,0.341,0.203,0.658,0.257,1.006c0.067,0.426,0.064,0.852-0.069,1.254
				c-0.289,0.876-1.387,0.78-1.685-0.084c-0.142-0.412-0.146-0.841-0.083-1.262c0.051-0.338,0.178-0.649,0.232-0.981
				C46.753,24.045,47.858,24.125,47.986,24.82L47.986,24.82z"/>
		</g>
	</g>
	<g>
		<g>
			<path fill="#FFF7F2" d="M37.897,23.176c0.512,0.154,0.926,0.477,1.198,0.963c0.447,0.798-0.674,1.377-1.153,0.633
				c-0.09-0.14-0.22-0.305-0.368-0.378c-0.304-0.149-0.523-0.445-0.427-0.806C37.235,23.25,37.575,23.079,37.897,23.176
				L37.897,23.176z"/>
		</g>
	</g>
	<g>
		<g>
			<path fill="#FFF7F2" d="M35.295,29.334c0.28-0.343,0.756-0.417,1.176-0.381c0.514,0.044,0.854,0.29,1.24,0.633
				c0.358,0.317,0.369,0.972,0.152,1.345c-0.23,0.394-0.748,0.612-1.188,0.445c-0.507-0.193-0.964-0.265-1.396-0.645
				C34.851,30.354,35.006,29.688,35.295,29.334L35.295,29.334z"/>
		</g>
	</g>
	<g>
		<g>
			<path fill="#FFF7F2" d="M40.85,26.311c0.361,0.205,0.614,0.588,0.823,0.946c0.514,0.88-0.68,1.747-1.342,0.995
				c-0.272-0.309-0.541-0.674-0.627-1.088C39.553,26.439,40.244,25.966,40.85,26.311L40.85,26.311z"/>
		</g>
	</g>
	<g>
		<g>
			<path fill="#FFF7F2" d="M51.34,25.487c0.134,0.159,0.225,0.322,0.316,0.509c0.251,0.516,0.021,1.144-0.518,1.27
				c-0.493,0.115-1.114-0.329-1.065-0.905c0.018-0.209,0.024-0.416,0.094-0.611C50.34,25.264,50.956,25.032,51.34,25.487
				L51.34,25.487z"/>
		</g>
	</g>
	<g>
		<g>
			<path fill="#FFF7F2" d="M50.71,30.632c0.026,0.364-0.134,0.73-0.314,1.024c-0.591,0.968-1.987,0.014-1.485-0.994
				c0.152-0.305,0.38-0.613,0.683-0.759C50.118,29.649,50.668,30.034,50.71,30.632L50.71,30.632z"/>
		</g>
	</g>
	<g>
		<g>
			<path fill="#FFF7F2" d="M46.057,26.912c0.042,0.301,0.034,0.553-0.042,0.84c-0.277,1.041-1.843,0.52-1.565-0.523
				c0.077-0.289,0.193-0.503,0.375-0.729C45.158,26.086,45.98,26.36,46.057,26.912L46.057,26.912z"/>
		</g>
	</g>
	<g>
		<g>
			<path fill="#FFF7F2" d="M35.725,26.656c0.253,0.13,0.392,0.358,0.524,0.607c0.512,0.965-0.884,1.731-1.396,0.766
				c-0.133-0.251-0.243-0.494-0.211-0.779C34.709,26.652,35.196,26.384,35.725,26.656L35.725,26.656z"/>
		</g>
	</g>
	<g>
		<g>
			<path fill="#FFF7F2" d="M35.577,31.604c0.216-0.019,0.422,0.032,0.623,0.123c1.02,0.457,0.63,1.931-0.449,1.687
				c-0.213-0.048-0.41-0.131-0.582-0.279C34.528,32.583,34.769,31.673,35.577,31.604L35.577,31.604z"/>
		</g>
	</g>
	<g>
		<g>
			<path fill="#FFF7F2" d="M40.539,31.91c0.512-0.035,1.011,0.139,1.472,0.385c0.27,0.144,0.386,0.546,0.312,0.826
				c-0.085,0.318-0.359,0.489-0.664,0.5c-0.625,0.023-1.276-0.342-1.552-0.953C39.933,32.284,40.158,31.936,40.539,31.91
				L40.539,31.91z"/>
		</g>
	</g>
	<g>
		<g>
			<path fill="#FFF7F2" d="M48.249,31.783c-0.017,0.129-0.033,0.258-0.05,0.387c-0.145,1.127-1.682,0.622-1.25-0.417
				c0.049-0.118,0.098-0.236,0.147-0.354C47.331,30.834,48.329,31.167,48.249,31.783L48.249,31.783z"/>
		</g>
	</g>
	<g>
		<g>
			<path fill="#FFF7F2" d="M40.445,38.214c0.265,0.021,0.53,0.043,0.795,0.064c0.953,0.077,0.959,1.608,0.001,1.553
				c-0.265-0.015-0.53-0.031-0.795-0.046C39.478,39.729,39.48,38.136,40.445,38.214L40.445,38.214z"/>
		</g>
	</g>
	<g>
		<g>
			<path fill="#614839" d="M53.094,27.95c0.893,1.057,1.633,2.279,0.694,3.501c-0.388,0.505-0.85,0.711-1.482,0.555
				c-0.054-0.013-0.107-0.027-0.161-0.04c0.357-0.134,0.713-0.267,1.07-0.401c-0.302,0.598-0.009,1.872-0.169,2.583
				c-0.215,0.952-0.624,2.058-1.193,2.814c-0.541,0.721-2.01,0.246-1.607-0.791c0.644-1.657,1.584-2.697,1.254-4.664
				c-0.223-1.326,0.403-2.054,0.583-3.332C52.15,27.699,52.811,27.614,53.094,27.95L53.094,27.95z"/>
		</g>
	</g>
	<g>
		<g>
			<path fill="#FFF7F2" d="M58.541,25.718c-0.655,4.2-3.696,7.734-5.051,11.744c-1.065,3.149-2.638,5.529-5.905,6.283
				c-0.7,0.162-1.383-0.909-0.743-1.401c2.925-2.252,3.182-6.589,4.65-9.845c1.395-3.095,4.132-4.608,5.984-7.305
				C57.864,24.626,58.646,25.044,58.541,25.718L58.541,25.718z"/>
		</g>
	</g>
	<g>
		<g>
			<path fill="#BF9486" d="M36.593,40.327c-4.372,0.706-9.869-6.939-5.795-10.337c0.126-0.105,0.263-0.145,0.394-0.141
				c0.169,1.025,0.453,2.046,0.741,2.891C32.474,35.778,34.106,38.59,36.593,40.327z"/>
		</g>
	</g>
	<g>
		<g>
			<path fill="#FFF7F2" d="M43.086,21.574c0.012,0.031,0.025,0.061,0.037,0.092c0.338,0.834,0.151,1.756-0.707,2.085
				c-0.754,0.289-1.74-0.184-1.924-1.078c-0.007-0.033-0.014-0.066-0.02-0.099c-0.152-0.738,0.168-1.455,0.84-1.712
				C41.91,20.633,42.804,20.879,43.086,21.574L43.086,21.574z"/>
		</g>
	</g>
	<g>
		<g>
			<path fill="#FFF7F2" d="M46.923,22.708c0.012,0.016,0.024,0.033,0.037,0.049c0.18,0.239,0.216,0.502,0.086,0.763
				c-0.017,0.034-0.034,0.067-0.05,0.101c-0.254,0.511-1.108,0.227-1.071-0.358c0.002-0.038,0.005-0.077,0.007-0.115
				c0.019-0.301,0.179-0.497,0.445-0.586c0.018-0.006,0.036-0.012,0.055-0.018C46.586,22.492,46.818,22.569,46.923,22.708
				L46.923,22.708z"/>
		</g>
	</g>
	<g>
		<g>
			<path fill="#FFF7F2" d="M44.86,29.86c0.02,0.005,0.04,0.01,0.06,0.016c0.31,0.081,0.564,0.393,0.642,0.707
				c0.085,0.337,0.056,0.624-0.113,0.912c-0.292,0.496-0.943,0.516-1.342,0.105c-0.344-0.354-0.483-0.987-0.177-1.39
				C44.169,29.893,44.467,29.758,44.86,29.86L44.86,29.86z"/>
		</g>
	</g>
	<g>
		<g>
			<path fill="#FFF7F2" d="M36.25,36.879c0.647-0.162,1.399,0.364,1.261,1.103c-0.066,0.356-0.412,0.533-0.726,0.546
				c-0.523,0.023-1.033-0.455-1.016-1.015C35.778,37.207,35.966,36.949,36.25,36.879L36.25,36.879z"/>
		</g>
	</g>
	<g>
		<g>
			<path fill="#FFF7F2" d="M40.828,35.978c0.347-0.754,1.563-0.796,2.072-0.162c0.278,0.347,0.318,0.875-0.013,1.182
				c-0.421,0.39-1.06,0.406-1.568,0.115C40.906,36.877,40.61,36.453,40.828,35.978L40.828,35.978z"/>
		</g>
	</g>
	<g>
		<g>
			<path fill="#FFF7F2" d="M52.759,26.979c0.255,0.257,0.395,0.683,0.36,1.038c-0.04,0.4-0.24,0.731-0.628,0.828
				c-0.245,0.061-0.431-0.011-0.652-0.125c-0.255-0.132-0.421-0.5-0.413-0.779c0.013-0.482,0.195-0.848,0.57-1.109
				C52.23,26.668,52.566,26.785,52.759,26.979L52.759,26.979z"/>
		</g>
	</g>
	<g>
		<g>
			<path fill="#FFF7F2" d="M57.166,27.959c-1.401,2.512-2.772,4.7-4.348,7.081c-1.332,2.013-1.754,5.532-3.786,6.902
				c-2.716,1.831-6.859,3.225-9.97,1.416c-0.347-0.202-0.245-0.772,0.114-0.85c2.445-0.532,4.586-0.8,5.754-3.27
				c0.945-1.998,1.524-4.289,2.597-6.254c2.197-4.022,5.041-4.965,9.176-5.69C57.054,27.233,57.35,27.628,57.166,27.959
				L57.166,27.959z"/>
		</g>
	</g>
	<g>
		<g>
			<path fill="#614839" d="M33.955,36.204c1.856,1.716,4.583,0.766,6.707,0.799c2.366,0.038,3.759-0.379,5.339-2.34
				c0.121-0.15,0.303,0.039,0.283,0.188c-0.385,2.86-3.155,6.696-5.953,7.202c-3.648,0.659-6.424-1.83-6.761-5.703
				C33.552,36.124,33.822,36.081,33.955,36.204L33.955,36.204z"/>
		</g>
	</g>
	<g>
		<g>
			<path fill="#FFF7F2" d="M56.827,25.275c-0.175-0.108-4.821,7.403-5.057,7.96c-1.193,2.809-2.035,5.642-4.496,7.497
				c-0.416,0.313-1.056,0.092-1.068-0.52c-0.109-5.693-0.321-10.754,4.215-14.563c1.035-0.869,6.268-3.432,7.005-0.82
				C57.531,25.203,57.126,25.458,56.827,25.275L56.827,25.275z"/>
		</g>
	</g>
	<g>
		<g>
			<path fill="#FFF7F2" d="M37.63,15.947c1.841-1.373,3.917-3.187,6.371-2.895c2.491,0.297,4.584,2.301,5.389,4.745
				c0.195,0.592-0.39,0.959-0.866,0.859c-1.721-0.362-3.206-1.443-4.86-2.038c-2.038-0.732-3.773-0.712-5.83-0.288
				C37.645,16.371,37.45,16.082,37.63,15.947L37.63,15.947z"/>
		</g>
	</g>
	<g>
		<g>
			<path fill="#FFF7F2" d="M32.121,35.522c2.421,1.439,5.474,4.684,8.312,4.372c2.062-0.227,3.243-1.739,4.854-2.848
				c1.185-0.815,2.583-1.347,3.911-1.88c0.571-0.229,1.056,0.44,0.648,0.931c-1.717,2.066-2.61,4.188-4.861,5.768
				c-2.034,1.428-4.163,1.858-6.633,1.801c-3.904-0.091-8.406-3.469-6.704-7.966C31.727,35.494,31.923,35.404,32.121,35.522
				L32.121,35.522z"/>
		</g>
	</g>
	<g>
		<g>
			<path fill="#BF9486" d="M31.498,32.238c1.954,1.603,4.37,2.589,6.768,2.672c2.542,0.088,6.377,0.952,7.626-2.112
				c0.102-0.249,0.545-0.332,0.597,0.03c0.527,3.663-3.82,4.717-6.36,5.643c-1.863,0.679-3.756,0.733-5.578-0.361
				c-2.042-1.226-2.577-3.269-3.627-5.311C30.738,32.437,31.149,31.951,31.498,32.238L31.498,32.238z"/>
		</g>
	</g>
	<g>
		<g>
			<path fill="#FFF7F2" d="M30.42,29.606c-0.963,4.354,1.545,7.49,5.487,8.702c2.803,0.862,5.222,1.664,7.877,2.991
				c0.477,0.239,0.357,1.143-0.16,1.194c-4.521,0.443-9.738,0.585-13.302-3.288c-2.614-2.841-2.581-7.11-0.026-9.681
				C30.35,29.469,30.436,29.534,30.42,29.606L30.42,29.606z"/>
		</g>
	</g>
	<g>
		<g>
			<path fill="#FFF7F2" d="M42.025,42.644c-4.998-0.532-9.524-1.446-12.429-6.356c-1.927-3.256-2.172-7.718,1.597-9.161
				c0.583-0.223,0.822,0.629,0.53,0.999c-4.568,5.801,6.314,12.566,10.387,13.864C42.451,42.1,42.39,42.683,42.025,42.644
				L42.025,42.644z"/>
		</g>
	</g>
</g>
</svg>
