<?xml version="1.0" encoding="utf-8"?>
<!-- Generator: Adobe Illustrator 17.0.0, SVG Export Plug-In . SVG Version: 6.00 Build 0)  -->
<!DOCTYPE svg PUBLIC "-//W3C//DTD SVG 1.1//EN" "http://www.w3.org/Graphics/SVG/1.1/DTD/svg11.dtd">
<svg version="1.1" id="Слой_1" xmlns="http://www.w3.org/2000/svg" xmlns:xlink="http://www.w3.org/1999/xlink" x="0px" y="0px"
	 width="105.139px" height="117.279px" viewBox="0 0 105.139 117.279" enable-background="new 0 0 105.139 117.279"
	 xml:space="preserve">
<g>
	<g>
		<path fill="#5F6E5E" d="M4.473,35.518c1.969-0.25,3.636-0.142,5.162,1.059c0.346,0.151,0.689,0.316,1.028,0.501
			c6.789,3.699,12.249,15.352-0.867,13.329c-4.246-0.655-8.523-2.935-9.724-7.441c-0.121-0.454-0.088-1.573,0.097-2.836
			c0.037-0.253,0.08-0.511,0.129-0.771c0.338-1.524,1.318-5.428,3.789-4.236C4.212,35.231,4.341,35.362,4.473,35.518z"/>
		<path fill="#B7C6B5" d="M2.665,36.895c1.853,1.434,2.17,4.16,4.023,5.476c0.248,0.248,0.498,0.492,0.747,0.734
			c0.749,0.726,1.492,1.443,2.177,2.18c0.324,0.374,0.657,0.728,1.003,1.056c1.037,0.985,2.184,1.735,3.508,2.053
			c-1.776,2.634-4.835,2.008-6.895,0.662c-0.445-0.254-0.884-0.533-1.307-0.826c-2.984-1.069-3.914-3.15-4.206-5.501
			c-0.042-0.336-0.071-0.677-0.091-1.022c0.325-1.743-0.865-3.444,0.327-4.951C2.141,36.671,2.377,36.703,2.665,36.895z"/>
	</g>
	<g>
		<path fill="#B7C6B5" d="M76.109,61.909c7.386,2.597,10.412,6.558,9.949,14.392c-0.419,7.09-3.922,17.159-12.407,15.837
			C60.837,90.143,57.651,55.419,76.109,61.909z"/>
		<path fill="#C8D4C0" d="M82.152,71.151c-1.003,2.264,0.553,5.781-1.458,8.12c-0.286,0.333-4.385,5.361-3.908,1.034
			c-1.848-0.27-2.951-7.631-3.891-9.02c-0.953-1.408-3.831-1.008-4.243-3.278C67.441,61.333,85.36,63.916,82.152,71.151z"/>
	</g>
	<g>
		<path fill="#8DA8A1" d="M55.617,30.188c1.773,1.006,2.663,2.604,3.597,4.343c0.17,0.325,0.341,0.641,0.508,0.958
			c0.206,0.394,0.389,0.81,0.547,1.245c3.811,10.442-5.956,31.959-17.395,24.752c-2.937-1.85-5.526-5.686-7.131-9.781
			c-0.179-0.455-0.349-0.914-0.534-1.373c-0.207-0.324-0.391-0.662-0.554-1.01c-0.163-0.349-0.305-0.709-0.425-1.078
			c-0.896-3.607-0.66-7.573,1.539-11.065c0.238-0.439,0.492-0.871,0.765-1.295c0.636-0.994,1.373-1.943,2.186-2.814
			c0.272-0.294,0.552-0.579,0.843-0.863c2.453-2.722,6.49-5.556,9.973-5.005c0.387,0.061,0.767,0.164,1.143,0.308
			c1.544,0.38,2.923,1.261,4.36,2.107C55.236,29.792,55.43,29.982,55.617,30.188z"/>
		<path fill="#315750" d="M48.266,27.278c0.331-0.022,0.638-0.006,0.927,0.04c0.289,0.046,0.559,0.123,0.817,0.222
			c1.475,1.423,5.013,0.597,5.167,3.269c-3.247-1.047-6.586,0.937-8.271,3.454c-0.202,0.262-0.4,0.527-0.597,0.79
			c-0.591,0.787-1.17,1.548-1.793,2.101c-0.289,0.299-0.587,0.577-0.9,0.825c-0.311,0.247-0.638,0.465-0.984,0.643
			c-0.402,0.273-0.777,0.57-1.125,0.886c-2.44,2.217-3.582,5.437-3.437,8.753c-0.02,0.395-0.043,0.79-0.071,1.181
			c-0.028,0.391-0.06,0.779-0.1,1.161c-0.029,0.305-0.059,0.601-0.081,0.887c-0.178,1.991-0.085,3.437,0.551,3.295
			c-0.562,0.125-1.246-1.099-1.82-3.08c-0.116-0.397-0.228-0.824-0.366-1.277c-0.186-0.361-0.351-0.727-0.497-1.095
			c-0.146-0.368-0.274-0.74-0.385-1.113c-1.379-3.721-0.208-7.605,0.71-11.759c0.117-0.482,0.249-0.952,0.398-1.408
			c0.523-1.596,1.266-3.023,2.282-4.144c0.254-0.28,0.525-0.542,0.815-0.784c2.391-1.63,4.65-2.76,7.788-2.952
			C47.614,27.191,47.938,27.225,48.266,27.278z M46.244,30.393c0.683-0.134,0.31,0.265,0.509-0.379
			C46.587,30.129,46.413,30.255,46.244,30.393z"/>
	</g>
	<g>
		<path fill="#6D755A" d="M39.269,84.483c19.926-1.28,8.946,25.963-8.375,22.028C13.117,102.473,23.436,81.972,39.269,84.483z"/>
		<path fill="#A8AF8B" d="M45.502,100.441c-3.733,3.484-16.51,11.18-19.054,1.614c-1.447-5.44,2.349-3.122,5.734-3.401
			C33.603,98.537,48.513,97.632,45.502,100.441z"/>
		<g>
			<path fill="#5F6E5E" d="M46.314,85.438c0.72,0.373,1.207,0.544,2.181,1.255c0.24,0.308,0.434,0.654,0.592,1.025
				c0.474,1.112,0.623,2.446,0.702,3.612c-0.303-0.96-0.792-1.808-1.408-2.557c-0.308-0.375-0.648-0.725-1.018-1.054
				c-1.998-1.924-4.642-2.281-7.082-3.136c1.873-0.483,3.133,0.528,5.099,0.322C45.712,85.062,46.02,85.24,46.314,85.438z"/>
		</g>
	</g>
	<g>
		<path fill="#B7C6B5" d="M29.003,65.862c6.94,15.676-21.621,20.007-26.131,3.861C-2.354,51.013,24.041,54.657,29.003,65.862z
			 M18.159,67.419c0.012-0.001,0.023-0.002,0.035-0.003c-0.535-0.837-1.356-1.122-2.465-0.855
			C16.443,66.942,17.279,67.22,18.159,67.419z"/>
		<path fill="#8C9B97" d="M15.39,58.012c2.448,1.224,11.451,10.406,11.35,10.547c2.387,1.445-6.042,0.193-7.03-0.018
			c-4.129-0.881-9.911-1.628-13.292-3.931c-2.388-1.627-4.863-1.428-1.32-5.532C7.813,55.935,12.384,56.509,15.39,58.012z
			 M6.783,61.328c-0.025,0.022-0.046,0.05-0.071,0.072c0.092,0.023,0.185,0.046,0.276,0.071C6.921,61.422,6.852,61.375,6.783,61.328
			z"/>
		<g>
			<path fill="#5F6E5E" d="M22.152,77.983C13.25,83.224-0.415,75.771,3.486,64.834C0.691,72.669,15.734,81.761,22.152,77.983
				L22.152,77.983z"/>
		</g>
	</g>
	<g>
		<path fill="#A2B8A1" d="M17.566,0.439c11.964-1.901,13.846,33.012-4.087,30.723C-2.221,29.158,1.551-4.183,17.566,0.439z"/>
		<path fill="#D1D8B9" d="M16.93,3.795c1.933,4.283-3.651,6.23-5.944,8.854c-0.259,0.42-0.46,0.884-0.579,1.407
			c-0.119,0.523-0.157,1.104-0.091,1.758c-0.109,0.53-0.155,1.068-0.118,1.616c-0.086,0.5-0.155,1.001-0.199,1.506
			c-0.045,0.504-0.067,1.011-0.059,1.522c-0.063,0.881-0.16,1.438-0.326,1.514C9.18,22.168,8.77,22.114,8.388,21.88
			c-0.381-0.235-0.735-0.65-1.055-1.175c-0.303-0.456-0.575-0.942-0.813-1.449c-0.237-0.507-0.44-1.036-0.605-1.578
			c-0.156-0.499-0.263-1.014-0.323-1.537c-0.043-1.168-0.127-2.329-0.177-3.488c-0.025-0.58-0.041-1.159-0.039-1.738
			c-0.385-3.451,0.79-7.535,4.142-8.819c2.231-0.664,4.436,0.404,6.319,1.737C16.48,3.882,16.918,3.977,16.93,3.795z"/>
		<path fill="#C8D4C0" d="M21.739,5.327c9.074,4.659-0.735,26.6-4.31,23.861c-0.148-0.113,0.923-7.34,1.262-8.524l-0.006-0.002
			c0.496-1.303-1.06,0.78,1.444-3.673c0.023,0.013,0.045,0.025,0.067,0.038C21.459,15.264,23.013,5.982,21.739,5.327z"/>
	</g>
	<path fill="#9A9C81" d="M19.011,8.175c-0.476,0.517-0.841,1.068-1.139,1.642c-0.099,0.191-0.191,0.386-0.277,0.582
		c-0.965,2.725-2.168,5.672-3.13,8.397c-0.085,0.305-0.159,0.611-0.219,0.92c-0.121,0.618-0.188,1.25-0.178,1.902
		c-0.047,0.314-0.09,0.627-0.131,0.942c-0.041,0.314-0.079,0.629-0.116,0.943c-0.031,0.286-0.06,0.571-0.087,0.855
		c-0.027,0.285-0.053,0.568-0.078,0.852c0.005,0.305,0.021,0.609,0.05,0.914c0.057,0.61,0.169,1.225,0.346,1.848
		c0.069,0.297,0.15,0.59,0.244,0.878c0.029,0.319,0.062,0.637,0.1,0.957c0.034,0.297,0.08,0.592,0.144,0.887
		c0.064,0.295,0.147,0.59,0.253,0.885c0.069,0.295,0.154,0.584,0.261,0.865c0.107,0.281,0.235,0.553,0.389,0.816
		c0.1,0.296,0.214,0.586,0.342,0.868c0.383,0.846,0.89,1.626,1.541,2.313c0.136,0.284,0.28,0.566,0.433,0.846
		c0.105,0.274,0.22,0.546,0.342,0.813c0.181,0.608,0.422,1.189,0.707,1.749c0.143,0.28,0.295,0.555,0.448,0.827
		c1.245,2.711,3.424,5.154,5.318,7.936c0.378,0.571,0.753,1.139,1.127,1.696c0.114,0.194,0.224,0.388,0.335,0.583
		c0.443,0.778,0.889,1.553,1.34,2.325c0.177,0.303,0.355,0.606,0.527,0.918c1.001,2.683,2.507,5.078,4.439,7.134
		c0.204,0.278,0.399,0.567,0.593,0.857c1.367,2.031,2.791,4.023,4.286,5.963c3.396,4.408,7.256,8.38,11.39,12.079
		c-0.359-1.102-0.845-2.134-1.261-3.214c-0.104-0.27-0.204-0.543-0.298-0.821c-0.137-0.322-0.256-0.646-0.358-0.972
		c-0.102-0.325-0.187-0.652-0.257-0.979c-0.333-0.595-0.48-1.226-0.512-1.88c-0.016-0.327-0.003-0.659,0.029-0.995
		c0.044-0.306,0.094-0.613,0.148-0.921c0.053-0.308,0.11-0.616,0.166-0.926c0.075-1.944,1.022-3.766,0.482-5.778
		c-0.047-0.33-0.11-0.653-0.178-0.974c-0.068-0.321-0.141-0.639-0.209-0.958c-0.068-0.319-0.132-0.639-0.182-0.964
		c-0.044-0.354-0.053-0.718-0.031-1.091c0.378-2.527,1.685-4.346,2.709-6.834c-0.819,1.991-1.843,4.479-1.739,6.728
		c0.029,0.49,0.1,0.981,0.189,1.478c0.045,0.249,0.094,0.5,0.146,0.753c0.052,0.253,0.107,0.509,0.165,0.768
		c0.132,2.641-1.071,5.588-0.536,8.037c-0.002,0.321,0.004,0.64,0.02,0.957c0.001,0.292,0.015,0.583,0.045,0.874
		c0.061,0.582,0.187,1.164,0.406,1.743c0.075,0.286,0.158,0.566,0.253,0.838c0.191,0.546,0.433,1.064,0.728,1.544
		c0.102,0.323,0.209,0.645,0.323,0.967c0.408,1.15,0.868,2.259,0.639,3.406c8.719,7.651,18.58,14.161,27.869,21.006
		c0.359,0.265,0.719,0.527,1.08,0.79c-0.729-0.978-1.601-1.865-2.242-2.971c-1.048-1.808-1.205-3.911-1.473-5.981
		c-0.178-1.368-0.553-2.673-0.991-3.957c-0.146-0.428-0.299-0.853-0.448-1.283c-1.027-3.018,1.587-6.657,0.17-10
		c0.44,3.001,0.393,5.831,0.477,8.733c0.072,0.54,0.194,1.051,0.372,1.543c0.162,0.447,0.32,0.896,0.468,1.35
		c0.445,1.36,0.809,2.756,0.986,4.235c0.343,2.857,1.209,4.888,2.79,7.191c0.446,0.65,0.838,1.3,1.081,2.002
		c3.399,2.449,6.866,4.796,10.548,6.842c4.726,2.626,9.693,4.396,14.784,6.26c0.287,0.105,0.179,0.615-0.149,0.559
		c-9.014-1.517-17.133-6.079-24.378-11.146c-4.863-3.401-9.641-6.923-14.404-10.463c-0.049,0.063-0.138,0.096-0.226,0.045
		c-1.853-1.072-3.894-1.888-6.028-2.409c-0.356-0.087-0.714-0.166-1.075-0.237c-0.318-0.13-0.638-0.246-0.959-0.347
		c-0.321-0.101-0.643-0.188-0.967-0.261c-3.229-1.353-7.067-0.534-10.291,1.435c-0.21,0.054-0.42,0.106-0.63,0.158
		c-1.05,0.258-2.102,0.484-3.175,0.627c-0.412,0.055-0.827,0.097-1.247,0.124c-2.896-0.575-6.564,1.556-9.493,0.53
		c3.054-0.638,6.392-0.608,9.584-1.546c0.531-0.05,1.059-0.114,1.585-0.195c1.02-0.157,2.021-0.415,3.016-0.704
		c0.199-0.058,0.398-0.117,0.596-0.177c3.001-1.231,5.734-2.676,9.158-1.725c0.301,0.08,0.601,0.184,0.898,0.316
		c0.301,0.039,0.599,0.086,0.895,0.139c1.773,0.321,3.461,0.917,5.037,1.757c-1.81-1.348-3.62-2.694-5.434-4.035
		c-6.598-4.876-12.838-10.006-18.221-16.151c-0.234-0.267-0.466-0.536-0.697-0.807c-3.767-1.997-7.569-2.519-11.786-1.382
		c-0.255-0.032-0.506-0.071-0.753-0.115c-1.834-0.219-3.33-0.958-4.845-1.668c-0.758-0.355-1.52-0.702-2.332-0.973
		c-0.812-0.271-1.672-0.47-2.623-0.529c0.824,0.169,1.652,0.332,2.482,0.492c0.83,0.159,1.66,0.318,2.491,0.476
		c1.662,0.314,3.327,0.624,4.996,0.92c0.303,0.054,0.607,0.108,0.911,0.161c3.67-0.115,6.828-0.684,10.109,0.978
		c-0.182-0.225-0.362-0.45-0.541-0.677c-1.615-2.036-3.149-4.135-4.62-6.279c-0.182-0.265-0.362-0.531-0.542-0.796
		c-1.828-2.667-3.783-5.045-4.998-7.92c-0.141-0.237-0.281-0.475-0.421-0.712c-0.219-0.185-0.445-0.36-0.676-0.526
		c-0.745-0.43-1.478-0.86-2.206-1.284c-0.76-0.45-1.543-0.868-2.337-1.27c-5.346-2.65-11.689-5.322-14.603-11.059
		c3.948,3.935,8.141,7.651,13.386,9.587c1.04,0.429,2.116,0.815,3.229,1.159c0.668,0.344,1.323,0.735,1.953,1.196
		c-0.422-0.72-0.858-1.428-1.3-2.131c-0.442-0.703-0.89-1.399-1.336-2.097c-1.23-1.097-1.34-3.194-2.605-4.25
		c-0.412-0.727-0.807-1.469-1.179-2.231c-0.372-0.762-0.72-1.545-1.037-2.354c-0.117-0.231-0.228-0.464-0.332-0.698
		c-0.104-0.235-0.2-0.471-0.287-0.711c-0.11-0.268-0.218-0.535-0.331-0.797c-0.113-0.262-0.231-0.52-0.365-0.773
		c-0.341-0.799-0.696-1.554-1.018-2.302c-0.108-0.249-0.212-0.497-0.31-0.746c-0.13-0.246-0.242-0.498-0.338-0.757
		c-0.096-0.258-0.176-0.522-0.244-0.79c-0.113-0.308-0.203-0.62-0.275-0.934c-0.072-0.315-0.126-0.632-0.166-0.951
		c-0.023-0.325-0.045-0.647-0.067-0.968c-0.076-0.272-0.139-0.544-0.191-0.816c-0.136-0.7-0.205-1.393-0.223-2.08
		c-0.009-0.344-0.007-0.687,0.006-1.031c0.053-0.327,0.101-0.655,0.145-0.984c0.044-0.328,0.085-0.657,0.124-0.986
		c0.022-0.288,0.045-0.576,0.069-0.865c0.025-0.288,0.051-0.576,0.08-0.864c0.071-0.369,0.134-0.734,0.194-1.095
		c0.059-0.361,0.115-0.717,0.171-1.069c0.265-3.024,1.455-5.524,3.069-8.068c0.153-0.251,0.31-0.501,0.469-0.747
		c0.477-0.737,0.972-1.44,1.423-2.043C18.949,7.576,19.121,7.906,19.011,8.175z"/>
</g>
</svg>
