<?xml version="1.0" encoding="utf-8"?>
<!-- Generator: Adobe Illustrator 17.0.0, SVG Export Plug-In . SVG Version: 6.00 Build 0)  -->
<!DOCTYPE svg PUBLIC "-//W3C//DTD SVG 1.1//EN" "http://www.w3.org/Graphics/SVG/1.1/DTD/svg11.dtd">
<svg version="1.1" id="Слой_1" xmlns="http://www.w3.org/2000/svg" xmlns:xlink="http://www.w3.org/1999/xlink" x="0px" y="0px"
	 width="66.016px" height="52.122px" viewBox="0 0 66.016 52.122" enable-background="new 0 0 66.016 52.122" xml:space="preserve">
<g>
	<path fill-rule="evenodd" clip-rule="evenodd" fill="#F0E8FC" d="M34.535,31.108C41.1,19.133,46.45,19.326,55.336,15.587
		c4.976-2.094,11.74,1.058,10.54,5.384c-1.037,3.74-5.013,5.963-7.142,13.159c-2.554,8.632-13.823,3.172-20.802-0.319
		c-4.043-2.022-4.839-0.788-5.245,1.434c-1.13,6.174,1.497,13.317-19.46,16.783c-3.728,0.616-6.231-1.933-9.271-3.845
		c-5.817-3.656-3.361-7.575-3.826-8.853c-0.857-2.36,5.279-9.757,13.342-8.642c6.18,0.854,6.987,0.91,15.393,1.284
		C30.169,32.03,33.955,32.166,34.535,31.108z"/>
	<path fill-rule="evenodd" clip-rule="evenodd" fill="#E8DEF7" d="M36.917,25.279c2.345-3.468,10.865-13.959,6.844-17.841
		c-1.84-1.776-5.756-11.753-8.264-5.278c-4.854,12.53,1.036,13.803-3.186,22.812c-1.173,2.502-6.287-4.865-12.549-6.601
		c-6.321-1.753-7.757-3.406-11.822,2.739c-1.423,2.151-0.667,3.101,1.145,4.075c2.726,1.466,8.401,1.213,9.369,2.284
		c1.648,1.822,7.664-0.67,12.875,1.601C35.342,30.818,35.762,26.987,36.917,25.279z"/>
	<path fill-rule="evenodd" clip-rule="evenodd" fill="#E8DEF7" d="M36.815,30.274c2.025-1.661,3.279-4.251,6.181-6.101
		c2.437-1.553,8.19-4.389,10.376-1.851c1.429,1.66,3.832,2.314,1.995,6.083c-0.63,1.293-3.052,4.585-4.635,4.971
		c-5.67,1.382-7.015-0.533-11.55-0.598c-3.725-0.054-5.815-1.604-8.133,2.528c-0.736,1.313-0.763,5.2-2.992,5.959
		c-1.002,0.341-2.439,1.171-3.444,2.595c-4.097,5.804-9.705,2.297-10.613,2.305c-2.836,0.024-8.268-2.499-6.66-4.502
		c2.051-2.557-1.71-7.038,8.465-8.849c3.315-0.59,5.354,1.284,10.058,0.378c1.84-0.354,3.549-0.461,5.152-0.68
		C33.105,32.226,35.019,31.747,36.815,30.274z"/>
	<path fill-rule="evenodd" clip-rule="evenodd" fill="#161517" d="M32.876,21.335c0.446,1.261-1.28,2.281-0.316,3.303
		c2.065,2.19,2.06,5.339,2.586,6.741c0.579,1.54,0.873,2.487,1.688,4.138c1.39,2.816,3.267,4.423,1.927,3.824
		c-1.767-0.79-4.134-3.587-4.869-5.869c-0.887-2.754-2.377-4.213-2.658-5.515c-0.635-2.929-0.427-3.813-1.561-4.86
		c-0.39-0.36-0.574-1.038-0.683-1.262c-0.718-1.485,0.544-2.393,1.488-2.256C31.264,19.695,32.453,20.139,32.876,21.335z"/>
	<path fill-rule="evenodd" clip-rule="evenodd" fill="#DFCFF7" d="M38.298,31.424c3.154-0.138,5.082-0.209,8.343-0.642
		c1.921-0.255,3.427-2.837,4.877-4.015c1.037-0.843-1.252-4.444-7.084-0.172c-2.128,1.559-3.975,1.711-5.848,3.724
		C38.522,30.387,36.726,31.493,38.298,31.424z"/>
	<path fill-rule="evenodd" clip-rule="evenodd" fill="#DFCFF7" d="M22.59,41.602c-1.427,0.371-5.826,0.213-7.545-1.109
		c-1.604-1.234-1.627-2.168,0.055-2.909c2.106-0.927,3.322-0.523,5.032-2.293c1.52-1.572,4.895-0.67,7.818-1.508
		c2.295-0.658,2.445-0.022,1.638,1.336C28.141,37.557,26.961,40.466,22.59,41.602z"/>
	<path fill-rule="evenodd" clip-rule="evenodd" fill="#DFCFF7" d="M29.288,27.198c-1.087-0.217-6.765,0.38-8.407-0.596
		c-1.798-1.069-1.02-1.899-4.066-2.449c-2.171-0.392-3.798-2.781,2.993-0.898c1.921,0.533,4.893-0.564,8.247,2.044
		C28.445,25.602,31.152,27.57,29.288,27.198z"/>
	<path fill-rule="evenodd" clip-rule="evenodd" fill="#DFCFF7" d="M34.766,25.598c1.036-0.905,5.903-6.713,4.348-9.585
		c-0.395-0.731-0.466-5.792-2.285-2.735c-1.247,2.097-0.823,5.883-1.868,7.934C34.559,22.002,33.585,26.629,34.766,25.598z"/>
	<path fill-rule="evenodd" clip-rule="evenodd" fill="#161517" d="M25.114,16.085c-2.825-3.288-7.838-5.552-10.999-7.484
		c-0.416-0.254-4.144-3.421,0.961-0.484c2.526,1.453,7.577,4.892,9.849,7.115C26.72,16.989,25.932,17.038,25.114,16.085z"/>
	<path fill-rule="evenodd" clip-rule="evenodd" fill="#161517" d="M31.302,14.972c0.581-6.774-4.663-14.265-2.48-9.093
		c0.857,2.031,2.16,5.611,2.194,7.573C31.053,15.548,31.201,16.15,31.302,14.972z"/>
</g>
</svg>
