<?xml version="1.0" encoding="utf-8"?>
<!-- Generator: Adobe Illustrator 17.0.0, SVG Export Plug-In . SVG Version: 6.00 Build 0)  -->
<!DOCTYPE svg PUBLIC "-//W3C//DTD SVG 1.1//EN" "http://www.w3.org/Graphics/SVG/1.1/DTD/svg11.dtd">
<svg version="1.1" id="Слой_1" xmlns="http://www.w3.org/2000/svg" xmlns:xlink="http://www.w3.org/1999/xlink" x="0px" y="0px"
	 width="65.185px" height="101.225px" viewBox="0 0 65.185 101.225" enable-background="new 0 0 65.185 101.225"
	 xml:space="preserve">
<g>
	<path fill-rule="evenodd" clip-rule="evenodd" fill="#161517" d="M0.412,101.067c1.263-0.716,2.684-1.883,4.05-3.333
		c5.669-6.014,11.572-17.357,17.053-27.711c3.818-7.212,7.892-12.556,10.275-18.003c1.305-2.984,1.865-6.834,2.152-9.096
		c0.521-4.109-0.542-3.699-0.981-2.91c-0.561,1.008-0.638,3.228-0.827,3.898c-2.694,9.522-7.603,16.368-12.112,25.399
		c-6.534,13.089-8.036,17.797-16.07,27.592C2.894,98.193-1.318,102.048,0.412,101.067z"/>
	<path fill-rule="evenodd" clip-rule="evenodd" fill="#161517" d="M26.898,67.099c4.342-7.744,20.344-7.733,8.279-1.988
		c-0.719,0.342-3.395,1.463-5.371,2.247C28.54,67.86,25.864,68.943,26.898,67.099z"/>
	<path fill-rule="evenodd" clip-rule="evenodd" fill="#161517" d="M19.721,63.09c-1.951-4.59-1.478-13.438,1.259-8.247
		c0.947,1.798,1.411,5.273,0.617,7.627C21.051,64.088,20.519,64.97,19.721,63.09z"/>
	<path fill-rule="evenodd" clip-rule="evenodd" fill="#FCE7BA" d="M46.027,20.137c2.023-6.664,5.387-14.735,0.239-19.495
		c-1.452-1.343-5.13-0.448-6.35,1.472c-1.505,2.368,0.08,5.496-1.408,4.442c-4.551-3.225-7.335-0.13-9.252,4.56
		c-0.729,1.785-3.125-0.872-5.485-0.469c-3.923,0.67-5.479,0.998-6.341,6.099c-0.678,4.013-1.319,9.405,9.474,17.262
		c5.568,4.053,7.673,3.119,10.72,0.423C43.241,29.462,45.463,21.995,46.027,20.137z"/>
	<path fill-rule="evenodd" clip-rule="evenodd" fill="#FCD277" d="M38.02,31.359c-2.042,4.416,4.575-4.528,6.535-12.341
		c3.217-12.823-0.98-14.395-0.718-9.86C44.294,17.061,40.645,25.682,38.02,31.359z"/>
	<path fill-rule="evenodd" clip-rule="evenodd" fill="#FCD277" d="M34.318,34.191c-1.074-2.196-1.44-8.412-0.194-16.159
		c1.764-10.964,2.15-1.204,1.474,5.943C35.319,26.937,35.031,35.648,34.318,34.191z"/>
	<path fill-rule="evenodd" clip-rule="evenodd" fill="#FCD277" d="M31.989,35.355c-0.035,2.206-6.96-5.127-8.5-13.525
		c-0.54-2.94,0.728-3.411,2.273,2.04c0.599,2.111,5.193,10.026,3.719,4.873c-1.024-3.577-3.121-7.983-0.542-4.061
		C32.445,30.01,32.006,34.306,31.989,35.355z"/>
	<path fill-rule="evenodd" clip-rule="evenodd" fill="#161517" d="M28.509,35.923c1.92,3.129,4.713,3.789,6.546,1.692
		c3.987-4.562,1.26-8.055-1.681-3.315c-0.936,1.508-2.78-0.208-3.974-0.239C28.53,34.037,27.761,34.705,28.509,35.923z"/>
	<path fill-rule="evenodd" clip-rule="evenodd" fill="#FFFEFC" d="M18.775,20.551c0.035,2.894,0.956,4.554,3.286,7.966
		c1.285,1.881,2.626,2.795,2.085,2.048c-0.944-1.305-3.642-7.295-3.873-9.173C19.768,17.285,18.746,18.154,18.775,20.551z"/>
	<path fill-rule="evenodd" clip-rule="evenodd" fill="#FFFEFC" d="M29.231,14.921c-0.091,0.798,1.089,8.143,2.187,11.052
		c1.26,3.337,0.55-1.931,0.548-2.777c-0.003-2.219-0.199-5.815-1.191-8.386C30.254,13.457,29.631,11.387,29.231,14.921z"/>
	<path fill-rule="evenodd" clip-rule="evenodd" fill="#FFFFFF" d="M38.793,22.453c-0.34,1.913-1.197,5.173-1.203,5.196
		c-0.283,0.943-0.552,2.064-0.049,1.178c0.714-1.26,1.77-4.782,2.153-6.151c0.917-3.284,1.146-6.167,0.798-7.285
		c-0.827-2.656-1.399-2.921-1.738-0.153C38.447,17.739,39.286,19.685,38.793,22.453z"/>
	<path fill-rule="evenodd" clip-rule="evenodd" fill="#FFFEFC" d="M39.682,8.079c2.19,5.362,1.657,3.385,1.94,6.626
		c0.2,2.291-0.625,8.628,0.948,1.318c0.406-1.886-0.33-6.274-1.732-7.946C39.702,6.721,39.261,7.047,39.682,8.079z"/>
	<path fill-rule="evenodd" clip-rule="evenodd" fill="#161517" d="M28.016,7.555C27.636,8.771,28.607,9.36,29.25,8.96
		c0.63-0.393,0.942-1.761-0.268-2.136C28.517,6.679,28.146,7.137,28.016,7.555z"/>
	<path fill-rule="evenodd" clip-rule="evenodd" fill="#161517" d="M53.307,8.077c1.131,0.586,1.881-0.267,1.599-0.97
		c-0.277-0.689-1.57-1.235-2.151-0.109C52.532,7.431,52.918,7.876,53.307,8.077z"/>
	<path fill-rule="evenodd" clip-rule="evenodd" fill="#161517" d="M32.331,8.418c-0.437,1.198,0.616,1.427,1.067,1.024
		c0.372-0.332,0.256-1.214-0.749-1.276C32.487,8.157,32.344,8.382,32.331,8.418z"/>
	<path fill-rule="evenodd" clip-rule="evenodd" fill="#161517" d="M50.396,13.643c0.221-1.256,1.247-0.927,1.436-0.354
		c0.156,0.473-0.385,1.18-1.287,0.73C50.4,13.948,50.389,13.681,50.396,13.643z"/>
	<path fill-rule="evenodd" clip-rule="evenodd" fill="#161517" d="M32.111,3.629c-0.14,0.689,0.789,1.142,1.194,0.882
		c0.479-0.308,0.393-1.416-0.673-1.482C32.392,3.014,32.162,3.38,32.111,3.629z"/>
	<path fill-rule="evenodd" clip-rule="evenodd" fill="#161517" d="M29.592,0.717c-0.576,1.522,0.532,2.016,1.068,0.689
		C30.968,0.646,29.832,0.082,29.592,0.717z"/>
	<path fill-rule="evenodd" clip-rule="evenodd" fill="#161517" d="M57.827,7.954c-0.576,1.523,0.531,2.016,1.068,0.69
		C59.203,7.883,58.067,7.318,57.827,7.954z"/>
	<path fill-rule="evenodd" clip-rule="evenodd" fill="#161517" d="M25.152,7.704c-0.419,0.734,0.784,1.242,1.319,1.174
		c0.583-0.075,0.501-0.787-0.075-1.414C26.138,7.183,25.436,7.207,25.152,7.704z"/>
	<path fill-rule="evenodd" clip-rule="evenodd" fill="#161517" d="M31.19,11.053c-0.223,0.738,0.49,1.404,0.89,1.272
		C32.925,12.047,31.552,9.847,31.19,11.053z"/>
	<path fill-rule="evenodd" clip-rule="evenodd" fill="#161517" d="M51.222,1.089c-0.715,0.287-0.789,1.261-0.436,1.49
		C51.532,3.065,52.391,0.618,51.222,1.089z"/>
	<path fill-rule="evenodd" clip-rule="evenodd" fill="#161517" d="M36.032,9.795c-1.454,0.89,0.729,2.6,0.84,0.787
		C36.875,10.532,36.464,9.531,36.032,9.795z"/>
	<path fill-rule="evenodd" clip-rule="evenodd" fill="#161517" d="M35.586,2.635c-0.237,1.017,0.865,0.721,1.195,0.145
		C37.174,2.093,35.916,1.217,35.586,2.635z"/>
	<path fill-rule="evenodd" clip-rule="evenodd" fill="#161517" d="M27.576,3.11c-0.633,0.659,0.313,1.241,0.586,1.034
		C28.636,3.784,28.341,2.312,27.576,3.11z"/>
	<path fill-rule="evenodd" clip-rule="evenodd" fill="#FCE7BA" d="M44.474,34.65c8.551-1.271,9.685-3.431,13.51-6.745
		c5.084-4.406,8.623-12.418,6.642-14.982c-0.963-1.248-3.403,0.68-7.279,1.314c-4.115,0.674-11.322,14.162-17.869,19.403
		C36.327,36.163,39.778,35.348,44.474,34.65z"/>
	<path fill-rule="evenodd" clip-rule="evenodd" fill="#FCD277" d="M40.707,34.674c1.375-0.054,6.448-0.908,9.82-2.768
		c1.368-0.754,3.532-2.901,4.078-3.462c2.826-2.907,1.146-2.5-0.299-1.212c-3.291,2.936-6.788,4.412-8.086,4.701
		C45.447,32.105,38.344,34.767,40.707,34.674z"/>
	<path fill-rule="evenodd" clip-rule="evenodd" fill="#FFFEFC" d="M58.642,15.707c-4.971,2.04-11.638,12.545-10.121,11.514
		c2.603-1.769,4.389-7.266,9.4-9.555C61.047,16.238,60.025,15.14,58.642,15.707z"/>
</g>
</svg>
